/* XPM */
static char *result[] = {
/* columns rows colors chars-per-pixel */
"18 18 6 1 ",
"  c black",
". c #A22633",
"X c #F77622",
"o c #FEAE34",
"O c white",
"+ c None",
/* pixels */
"++++++      ++++++",
"+++++ XXXXXO +++++",
"+++++ XXXXXX +++++",
"+++++ XXXXXO +++++",
"+++++ oooooo +++++",
"+++++ ...... +++++",
"+++++ XXXXXO +++++",
"+++++ XXXXXO +++++",
"+++++ oooooO +++++",
"+++++ oooooO +++++",
"+++++ .....O +++++",
"+++++ XXXXXO +++++",
"+++++ .....O +++++",
"+++++ ...... +++++",
"+++++ XXXXXO +++++",
"+++++ XXXXXO +++++",
"+++++ XXXXXX +++++",
"++++++      ++++++"
};
