/* XPM */
static char *result[] = {
/* columns rows colors chars-per-pixel */
"26 35 136 2 ",
"   c #170C17",
".  c #180E1A",
"X  c #1D131E",
"o  c #1F1621",
"O  c #211721",
"+  c #211825",
"@  c #231B28",
"#  c #281F2A",
"$  c #2B222B",
"%  c #31262F",
"&  c #2E2533",
"*  c #312734",
"=  c #312833",
"-  c #352D3A",
";  c #3D333E",
":  c #41343C",
">  c #46383F",
",  c #3B3343",
"<  c #433A44",
"1  c #4B3D44",
"2  c #443C4C",
"3  c #493D48",
"4  c #4C4244",
"5  c #4C434D",
"6  c #504649",
"7  c #524A4F",
"8  c #594C4D",
"9  c #4D4654",
"0  c #524752",
"q  c #554953",
"w  c #5D4D53",
"e  c #554F5C",
"r  c #5D5453",
"t  c #5A525D",
"y  c #635456",
"u  c #675B57",
"i  c #625459",
"p  c #655A59",
"a  c #6A5D5E",
"s  c #595160",
"d  c #615763",
"f  c #625B65",
"g  c #6A5B62",
"h  c #645F6F",
"j  c #6C6262",
"k  c #6F6966",
"l  c #686369",
"z  c #6E6A6C",
"x  c #776567",
"c  c #746866",
"v  c #72676A",
"b  c #7B726B",
"n  c #726672",
"m  c #716A74",
"M  c #796A71",
"N  c #766C79",
"B  c #7A6E7B",
"V  c #767074",
"C  c #7C7273",
"Z  c #7F7970",
"A  c #7A737A",
"S  c #81756D",
"D  c #867C6F",
"F  c #82757A",
"G  c #817A7C",
"H  c #88797A",
"J  c #898072",
"K  c #87807A",
"L  c #7E7881",
"P  c #827582",
"I  c #8B7E83",
"U  c #858181",
"Y  c #8B8484",
"T  c #8F8985",
"R  c #8C878E",
"E  c #908285",
"W  c #908A86",
"Q  c #9A8B85",
"!  c #968E8B",
"~  c #998C8C",
"^  c #969285",
"/  c #9E9184",
"(  c #929188",
")  c #8E8C90",
"_  c #928D95",
"`  c #9B9594",
"'  c #9C9996",
"]  c #97949A",
"[  c #9C969B",
"{  c #A9958E",
"}  c #A99A8E",
"|  c #A69796",
" . c #A09999",
".. c #A4A29A",
"X. c #B7A19A",
"o. c #B5AD9E",
"O. c #BDAA9E",
"+. c #9F9BA2",
"@. c #A09EA4",
"#. c #A7A2A5",
"$. c #ACAAA7",
"%. c #A6A3AA",
"&. c #A9A6AB",
"*. c #BBAEA1",
"=. c #B8B3AA",
"-. c #B2AFB8",
";. c #B5B3B0",
":. c #BAB1B5",
">. c #C1B5A9",
",. c #C0BAAB",
"<. c #CABDAB",
"1. c #C3BBBE",
"2. c #C9BDBD",
"3. c #CBC3AD",
"4. c #D6CFB4",
"5. c #DBD6BC",
"6. c #DCD9BD",
"7. c #C3BBC0",
"8. c #C6C3C2",
"9. c #CDCAC4",
"0. c #D7D3C6",
"q. c #DEDACD",
"w. c #E5E5C5",
"e. c #E4E4CA",
"r. c #E6E8C9",
"t. c #E9EACE",
"y. c #E0E0D0",
"u. c #EBEBD4",
"i. c #EEEEDB",
"p. c #E6E5E2",
"a. c #F2F3E3",
"s. c #F6F6EC",
"d. c #F8F8EF",
"f. c #F9FAF3",
"g. c #FEFEFE",
"h. c None",
/* pixels */
"h.h.h.h.h.h.h.h.h.h.h.h.h.h.h.h.h.h.h.h.h.h.h.h.h.h.",
"h.h.h.h.h.h.h.h.h.h.h.h.h.h.h.h.h.h.h.h.h.h.h.h.h.h.",
"h.h.h.h.h.h.h.h.h.w y u u u u y w h.h.h.h.h.h.h.h.h.",
"h.h.h.h.h.h.h.x / <.5.6.6.6.6.6.<./ x h.h.h.h.h.h.h.",
"h.h.h.h.h.h.i <.w.w.u.a.a.a.a.u.w.w.3.a h.h.h.h.h.h.",
"h.h.h.h.h.1 { 5.r.i.g.g.g.g.g.g.i.r.6.{ 1 h.h.h.h.h.",
"h.h.h.h.h.1 O.6.t.g.g.g.g.g.g.g.g.t.6.O.1 h.h.h.h.h.",
"h.h.h.h.h.1 O.4.t.f.g.g.g.g.g.g.f.r.4.O.1 h.h.h.h.h.",
"h.h.h.h.h.1 O.O.6.t.f.g.g.f.g.s.r.5.>.O.1 h.h.h.h.h.",
"h.h.h.h.h.- ~ X.| i.g.s.u.u.s.g.i.| X.~ - h.h.h.h.h.",
"h.h.h.h.h.+ g F -.p.e.s.s.a.s.y.p.-.F g + h.h.h.h.h.",
"h.h.h.h.h.h.- d 9.< e [ q.e.[ e < 9.d - h.h.h.h.h.h.",
"h.h.h.h.h.h.h.< Q M h Y c k Y h M Q > h.h.h.h.h.h.h.",
"h.h.h.h.V j j 5 & P =.i.+.' u.>.P * 6 a j N h.h.h.h.",
"h.h.h.g 2.[ E B , 9 f $.] ;.( T 9 , B E +.2.a h.h.h.",
"h.h.o < %.:.R K +.A i q 2 9 0 p A @.U R :.@.< o h.h.",
"h.h.  D 5 < f l _ [ =.' 8.=.` ,.[ ) l f < 4 Z   h.h.",
"h.h.4 J 8   < N ` 1.$.W q.3.W &.1.` N 2   8 D 4 h.h.",
"h.h.7 i O h.- n ` %.%.W q.3.T %.%.` n - h.O p 7 h.h.",
"h.h.G C + h.o q I &.#.U _ Y I #.%.I 0 o h.o C K h.h.",
"h.o s A k 4 @ 2 Y ..[ d 3 , f [ ..I 2 @ 4 z A s + h.",
"h.4 o.w.' S r H 5 A B - n e - B A 9 H r S ' 5.o.4 h.",
"h.4 G ! U t r *.g < - O i 5 O - < g *.y r U ! H 4 h.",
"h.h.< ; p : , C g 5 b x 0 5 x C 3 g A , : p , < h.h.",
"h.h.h.h.h.h.G q.} $ * ; 9 9 ; % $ } q.G h.h.h.h.h.h.",
"h.h.h.h.h.O m #.G # h.h.h.h.h.h.# G #.m O h.h.h.h.h.",
"h.h.h.h.h.; 1.0.s O h.h.h.h.h.h.o s 0.7.; h.h.h.h.h.",
"h.h.h.h.h.6  .v $ h.h.h.h.h.h.h.h.$ v  .6 h.h.h.h.h.",
"h.h.h.h.h.y b ^ b h.h.h.h.h.h.h.h.b ^ b y h.h.h.h.h.",
"h.h.h.h.# j F Y ! * h.h.h.h.h.h.= ! T F j # h.h.h.h.",
"h.h.h.+ c  .' ` [ t X h.h.h.h.X s ' ` ` ' v + h.h.h.",
"h.h.h.$ K m A R t & h.h.h.h.h.h.& t R P m K $ h.h.h.",
"h.h.h.h.h.h.h.h.h.h.h.h.h.h.h.h.h.h.h.h.h.h.h.h.h.h.",
"h.h.h.h.h.h.h.h.h.h.h.h.h.h.h.h.h.h.h.h.h.h.h.h.h.h.",
"h.h.h.h.h.h.h.h.h.h.h.h.h.h.h.h.h.h.h.h.h.h.h.h.h.h."
};
