/* XPM */
static char *result[] = {
/* columns rows colors chars-per-pixel */
"26 35 175 2 ",
"   c #140916",
".  c #170D18",
"X  c #190F1B",
"o  c #1D131E",
"O  c #1F1521",
"+  c #211722",
"@  c #241A25",
"#  c #291E27",
"$  c #281D28",
"%  c #261E2B",
"&  c #2B212B",
"*  c #32262E",
"=  c #2E2634",
"-  c #332730",
";  c #332A35",
":  c #352E3C",
">  c #392F3A",
",  c #3A2D36",
"<  c #3C3037",
"1  c #3D333C",
"2  c #43363F",
"3  c #483C3F",
"4  c #3C3442",
"5  c #463740",
"6  c #433B44",
"7  c #4A3C43",
"8  c #443C4B",
"9  c #483F4C",
"0  c #4A4147",
"q  c #47404B",
"w  c #49414B",
"e  c #514647",
"r  c #53454A",
"t  c #534A4B",
"y  c #4B4453",
"u  c #4F495B",
"i  c #504653",
"p  c #534B54",
"a  c #5C4D53",
"s  c #544E5C",
"d  c #5A4F58",
"f  c #5E5053",
"g  c #57505C",
"h  c #5E535C",
"j  c #635556",
"k  c #665659",
"l  c #635E5B",
"z  c #5C5561",
"x  c #605665",
"c  c #635A65",
"v  c #675C69",
"b  c #705E63",
"n  c #676165",
"m  c #6C6365",
"M  c #65606C",
"N  c #6B636D",
"B  c #7D6D6C",
"V  c #726369",
"C  c #7B736E",
"Z  c #6D6472",
"A  c #726973",
"S  c #7A6E74",
"D  c #756E7C",
"F  c #767176",
"G  c #7D7475",
"H  c #7D7870",
"J  c #79767B",
"K  c #83746F",
"L  c #85796E",
"P  c #827473",
"I  c #887577",
"U  c #80737B",
"Y  c #857B7B",
"T  c #8A7C7C",
"R  c #847972",
"E  c #8B817D",
"W  c #93847E",
"Q  c #7E7A84",
"!  c #817785",
"~  c #867C86",
"^  c #897C82",
"/  c #858181",
"(  c #8C8584",
")  c #8D8983",
"_  c #8D828A",
"`  c #8F8B8E",
"'  c #948684",
"]  c #988681",
"[  c #938C82",
"{  c #988F87",
"}  c #9D9383",
"|  c #9A918E",
" . c #928D91",
".. c #979490",
"X. c #9A9394",
"o. c #9D9B94",
"O. c #9D9B9B",
"+. c #A08E8D",
"@. c #A29688",
"#. c #A99A8E",
"$. c #A49D8E",
"%. c #A29193",
"&. c #AA9696",
"*. c #A49C93",
"=. c #AC9B94",
"-. c #A2979D",
";. c #A49E99",
":. c #B09D97",
">. c #ADA08E",
",. c #ADA396",
"<. c #A5A39C",
"1. c #ADA29A",
"2. c #B5A896",
"3. c #B0A29A",
"4. c #BCA79D",
"5. c #B1AC9D",
"6. c #BBAC9C",
"7. c #B2A695",
"8. c #BBB09E",
"9. c #9F9DA5",
"0. c #A6A3A2",
"q. c #ACAAA1",
"w. c #A7A4A9",
"e. c #A9A7AA",
"r. c #ABA9AD",
"t. c #A8A4A4",
"y. c #B0A8A2",
"u. c #B3ACAA",
"i. c #B7B3A3",
"p. c #BBB3A4",
"a. c #BDB5AF",
"s. c #BBB8AF",
"d. c #AAA9B2",
"f. c #B9AFB4",
"g. c #B0AFB8",
"h. c #BBB5B2",
"j. c #B6B1B3",
"k. c #C0AD9E",
"l. c #C4B59F",
"z. c #C2B7A4",
"x. c #C3B9A4",
"c. c #C0BBA9",
"v. c #C9BCA4",
"b. c #C3B9B5",
"n. c #CEC5AD",
"m. c #D1C5AF",
"M. c #C2C0B7",
"N. c #C7C8B7",
"B. c #CFC7BE",
"V. c #CCC1B5",
"C. c #D2CAB0",
"Z. c #D0C5B8",
"A. c #D8D3B7",
"S. c #DAD5B9",
"D. c #DEDABE",
"F. c #BFBDC3",
"G. c #C6C5C4",
"H. c #DCD7C5",
"J. c #DBD6CB",
"K. c #D4D1D3",
"L. c #E0DFC1",
"P. c #E1DBC9",
"I. c #E2DAD9",
"U. c #E4E4C5",
"Y. c #E6E7C8",
"T. c #E7E8CA",
"R. c #E9EACF",
"E. c #ECEBD5",
"W. c #E6E2DD",
"Q. c #EFF0DD",
"!. c #F1F2E1",
"~. c #F5F5EB",
"^. c #FBFBF6",
"/. c #FFFFFF",
"(. c None",
/* pixels */
"(.(.(.(.(.(.(.(.(.(.(.(.(.(.(.(.(.(.(.(.(.(.(.(.(.(.",
"(.(.(.(.(.(.(.# j B L L L L K V * (.(.(.(.(.(.(.(.(.",
"(.(.(.(.(.(.k #.x.D.E.E.E.E.U.n.7.K , (.(.(.(.(.(.(.",
"(.(.(.(.(.< 8.D.Q.~././././.~.T.U.m.k (.(.(.(.(.(.(.",
"(.(.(.(.# ] C.Q./././././././.R.U.S.=.5 (.(.(.(.(.(.",
"(.(.(.(.# 6.U.Q././././././.~.T.Y.A.4.7 (.(.(.(.(.(.",
"(.(.(.(.# 2.U.T.~.^.^.^.^.!.U.U.L.v.4.7 (.(.(.(.(.(.",
"(.(.(.(.# =.U.T.U.Y.U.U.D.Y.U.U.C.l.=.5 (.(.(.(.(.(.",
"(.(.(.(.& | U.U.U.U.S.x.x.A.L.n.z.k._ ; (.(.(.(.(.(.",
"(.(.(.(.o w $.L.Y.P.B.! &.l.v.l.4.&.c % (.(.(.(.(.(.",
"(.(.(.(.(.; 7.@.l c a.w.y ~ | n.&.A : (.(.(.(.(.(.(.",
"(.(.(.(.(.; 5.C./ ; m K.D  .q.;.x 4 (.(.(.(.(.(.(.(.",
"(.(.(.(.(.@ i W p.j.I.~.M.5.A 8 % (.(.(.(.(.(.(.(.(.",
"(.(.(.(.(.(.t ,.>.V.,.@.& > 8 k p 7 . (.(.(.(.(.(.(.",
"(.(.(.(.(.o e C p N R F s i q 8 | _ h ; (.(.(.(.(.(.",
"(.(.(.(.(.& *.u.;.( 5.F.J.5.[ P %.%.1.7 (.(.(.(.(.(.",
"(.(.(.(.(.& P s.~.H.w.X.( ^ D 4 A B.h.h @ (.(.(.(.(.",
"(.(.(.(.(.& G N.w.i.O.e.G.*.V 4 q D | 3.1 O (.(.(.(.",
"(.(.(.(.(.& P i.1.c.<.d.w.( | x = 8 *.*.G $ (.(.(.(.",
"(.(.(.X * = s { =.c.q.g.e.F h b w ;.X.N ' # (.(.(.(.",
"(.(.(.2 A s + 7 E x.;.O.0.F 1 h -.b.Y Y w (.(.(.(.(.",
"(.(.(.d ~ z % 9 : c ` J m Y o.( =.Z A q (.(.(.(.(.(.",
"(.(.(.j ' S 8 u Z  ._ y 0 <.o.<.8.r @ (.(.(.(.(.(.(.",
"(.(.(.(.t : ; : Z m { 4 1 P / E n o (.(.(.(.(.(.(.(.",
"(.(.(.(.(.(.(.f :.a & p T N 6 & @ (.(.(.(.(.(.(.(.(.",
"(.(.(.(.(.(.(.0 =.=.9 6 *.W.-.# (.(.(.(.(.(.(.(.(.(.",
"(.(.(.(.(.(.(.t P h W & s m P e (.(.(.(.(.(.(.(.(.(.",
"(.(.(.(.(.(.(.(.m N W + a h.n *.# (.(.(.(.(.(.(.(.(.",
"(.(.(.(.(.(.(.6 h T E O (.X.Q G.1 (.(.(.(.(.(.(.(.(.",
"(.(.(.(.(.H ) <.c.=.T a   [ ` f.s O (.(.(.(.(.(.(.(.",
"(.(.(.(.& h.| N z E ] r a :.3.6.c o (.(.(.(.(.(.(.(.",
"(.(.(.(.(.# @ O O + > u.0.w.r.<.I o (.(.(.(.(.(.(.(.",
"(.(.(.(.(.(.(.(.(.(.(.p 8 8 p 1 5 (.(.(.(.(.(.(.(.(.",
"(.(.(.(.(.(.(.(.(.(.(.(.(.(.(.(.(.(.(.(.(.(.(.(.(.(.",
"(.(.(.(.(.(.(.(.(.(.(.(.(.(.(.(.(.(.(.(.(.(.(.(.(.(."
};
