/* XPM */
static char *result[] = {
/* columns rows colors chars-per-pixel */
"26 35 246 2 ",
"   c #1D131E",
".  c #1E1420",
"X  c #1F1520",
"o  c #1F1421",
"O  c #1F1620",
"+  c #1E1522",
"@  c #1F1522",
"#  c #211722",
"$  c #221821",
"%  c #241924",
"&  c #2B212A",
"*  c #2C222B",
"=  c #2E232C",
"-  c #2C2433",
";  c #2F2734",
":  c #342A33",
">  c #302836",
",  c #342B37",
"<  c #392C33",
"1  c #3C2E37",
"2  c #342D3A",
"3  c #382F3C",
"4  c #3D3538",
"5  c #41343C",
"6  c #383142",
"7  c #3B3545",
"8  c #3F3645",
"9  c #3D3746",
"0  c #3E394A",
"q  c #453943",
"w  c #413A47",
"e  c #443844",
"r  c #483A42",
"t  c #493D40",
"y  c #493E40",
"u  c #4A3E40",
"i  c #4A3F43",
"p  c #483D46",
"a  c #443B4A",
"s  c #453C49",
"d  c #473C48",
"f  c #453D4D",
"g  c #4C3F48",
"h  c #4D414B",
"j  c #49404F",
"k  c #4A434F",
"l  c #534748",
"z  c #51474F",
"x  c #53484D",
"c  c #5A504F",
"v  c #454053",
"b  c #454153",
"n  c #464052",
"m  c #4A4250",
"M  c #4A4352",
"N  c #4F4652",
"B  c #4E495B",
"V  c #544750",
"C  c #554D54",
"Z  c #5E4E52",
"A  c #5C4F57",
"S  c #59515C",
"D  c #5C525E",
"F  c #5C535F",
"G  c #5F545E",
"H  c #605754",
"J  c #655955",
"K  c #605158",
"L  c #67565B",
"P  c #60565C",
"I  c #68575B",
"U  c #68575C",
"Y  c #675859",
"T  c #6B5E5D",
"R  c #585163",
"E  c #5C5360",
"W  c #5E5360",
"Q  c #5E5361",
"!  c #5C5463",
"~  c #5B576A",
"^  c #5F596A",
"/  c #645761",
"(  c #635E65",
")  c #635C6A",
"_  c #6B6063",
"`  c #6D6065",
"'  c #67626E",
"]  c #6C626A",
"[  c #6C636D",
"{  c #6F696E",
"}  c #736962",
"|  c #756B6D",
" . c #746F6F",
".. c #7C6B6B",
"X. c #786F6A",
"o. c #7D6F69",
"O. c #78726D",
"+. c #7A706E",
"@. c #6E6871",
"#. c #6D6B75",
"$. c #6D6578",
"%. c #6D6678",
"&. c #706676",
"*. c #756C71",
"=. c #776B74",
"-. c #716D76",
";. c #726E76",
":. c #786F77",
">. c #796F7C",
",. c #7C717F",
"<. c #7E757D",
"1. c #82776D",
"2. c #837576",
"3. c #857B74",
"4. c #807179",
"5. c #83757B",
"6. c #82757E",
"7. c #837B78",
"8. c #87797A",
"9. c #867D7E",
"0. c #8F8276",
"q. c #7F7583",
"w. c #847782",
"e. c #857982",
"r. c #877F80",
"t. c #837B86",
"y. c #867A86",
"u. c #867D84",
"i. c #897C82",
"p. c #887E85",
"a. c #8C8681",
"s. c #898086",
"d. c #8D8686",
"f. c #8E8787",
"g. c #8E8887",
"h. c #8D8788",
"j. c #8C878B",
"k. c #8E8888",
"l. c #928C86",
"z. c #958F85",
"x. c #95878B",
"c. c #99878D",
"v. c #928889",
"b. c #948A88",
"n. c #928C8A",
"m. c #928C8B",
"M. c #968B8C",
"N. c #958C8E",
"B. c #97908F",
"V. c #99938F",
"C. c #9A928E",
"Z. c #988D91",
"A. c #9A9390",
"S. c #9C9690",
"D. c #9F9794",
"F. c #A69B8F",
"G. c #A09A93",
"H. c #AA9892",
"J. c #AC9C97",
"K. c #AE9C97",
"L. c #A39A99",
"P. c #A99D9A",
"I. c #B19E97",
"U. c #ADA090",
"Y. c #A3A19F",
"T. c #ABA39A",
"R. c #ADA398",
"E. c #ACA499",
"W. c #AEAC9E",
"Q. c #B7A399",
"!. c #B5A99D",
"~. c #AA9FA2",
"^. c #AFA7A0",
"/. c #A8A1A8",
"(. c #B1A7A0",
"). c #B2A7A2",
"_. c #B0AAA1",
"`. c #B8ACA0",
"'. c #BBAFA6",
"]. c #B6AFAB",
"[. c #B3B0A5",
"{. c #BBB3A8",
"}. c #BBB4AA",
"|. c #BEB5AE",
" X c #BEB9AB",
".X c #BBBBB1",
"XX c #C0AE9E",
"oX c #C2B3A2",
"OX c #C7B7A5",
"+X c #C7B8A5",
"@X c #C8B8A6",
"#X c #C9BCA5",
"$X c #CBBEA6",
"%X c #C4B5A8",
"&X c #C0B9A9",
"*X c #C6BBA8",
"=X c #CBBDA9",
"-X c #C7BFB2",
";X c #C2B8B6",
":X c #C3B8B7",
">X c #C0BBB6",
",X c #C3BAB7",
"<X c #C5BABA",
"1X c #C6BEBD",
"2X c #CBC0A8",
"3X c #CEC4AB",
"4X c #CFC4AE",
"5X c #C3C0BC",
"6X c #C8C1BD",
"7X c #CBC8B9",
"8X c #CBC8BF",
"9X c #D1C9B1",
"0X c #D1CAB1",
"qX c #D0CABD",
"wX c #D4CABC",
"eX c #D7CDBE",
"rX c #D9D1BF",
"tX c #DDDABD",
"yX c #DEDCBE",
"uX c #C3BFC0",
"iX c #DFDEC0",
"pX c #DBD9CC",
"aX c #E2DFD2",
"sX c #E2E1C3",
"dX c #E2E2C3",
"fX c #E3E3C4",
"gX c #E3E4C4",
"hX c #E4E4C5",
"jX c #E5E4C5",
"kX c #E4E5CF",
"lX c #E8E9CE",
"zX c #E8EACE",
"xX c #E9EACF",
"cX c #ECEDD6",
"vX c #ECEED6",
"bX c #E7E4E3",
"nX c #F2F3E3",
"mX c #F4F5E7",
"MX c #F5F5E9",
"NX c #F8F8F0",
"BX c #FAFAF2",
"VX c #FAFAF3",
"CX c #FBFBF6",
"ZX c #FCFCF9",
"AX c white",
"SX c None",
/* pixels */
"SXSXSXSXSXSXSXSXSXSXSXSXSXSXSXSXSXSXSXSXSXSXSXSXSXSX",
"SXSXSXSXSXSXSXSXSXSXSXSXSXSXSXSXSXSXSXSXSXSXSXSXSXSX",
"SXSXSXSXSXSXSXSXSX1 t u y y u t 1 SXSXSXSXSXSXSXSXSX",
"SXSXSXSXSXSXSXSXY F.9X0X0X0X0X9XF.Y SXSXSXSXSXSXSXSX",
"SXSXSXSXSXSXSX..4XhXvXBXVXVXBXvXhX4X..SXSXSXSXSXSXSX",
"SXSXSXSXSXSXr U.jXcXZXAXAXAXAXZXcXjXU.r SXSXSXSXSXSX",
"SXSXSXSXSXSXU @XfXMXAXAXAXAXAXAXMXfX@XU SXSXSXSXSXSX",
"SXSXSXSXSXSXL OXfXMXAXAXAXAXAXAXMXfXOXL SXSXSXSXSXSX",
"SXSXSXSXSXSXI +XgXmXAXAXAXAXAXAXmXgX+XI SXSXSXSXSXSX",
"SXSXSXSXSXSXK oXiXlXNXAXCXCXAXNXlXiXoXK SXSXSXSXSXSX",
"SXSXSXSXSXSXj J.$XyXzXnXxXxXnXzXyX$XJ.j SXSXSXSXSXSX",
"SXSXSXSXSXSXa ,.I.#XtXdXsXsXdXtX#XI.,.a SXSXSXSXSXSX",
"SXSXSXSXSXSX# n q.K.XX3X2X2X3XXXK.q.n # SXSXSXSXSXSX",
"SXSXSXSXSXSXSX- B &.y.s.u.p.s.y.&.B - SXSXSXSXSXSXSX",
"SXSXSXSXSXc H l p 9 0 b #.~ v 0 9 p l H c SXSXSXSXSX",
"SXSXSXSXJ } 7.H.c.R 7 F  Xt.D 7 R c.H.7.} J SXSXSXSX",
"SXSXSX4 3.W.a.d ) ;.^ %.P.<.$.^ ;.) d a.W.3.4 SXSXSX",
"SXSXSX ..XY.|._.uXaX( n.{.C.n.( aXuX_.|.Y..X .SXSXSX",
"SXSXSXw 5XT.v.=XrXkX-.k.1XD.h.-.kXrX=Xv.T.5Xw SXSXSX",
"SXSXSXi (.| M 4.Q.*X@.V.,XA.V.@.*XQ.4.M | (.i SXSXSX",
"SXSXSXz 8Xr.X ; [ e.S S.;XB.S.S e.[ ; X r.8Xz SXSXSX",
"SXSXSX] /.z.O SXe / 6.m.6XZ.m.6./ e SXO z./.] SXSXSX",
"SXSXSXq >.P   E :X:.A f.&XM.d.A :.:XE   P >.q SXSXSX",
"SXSX< ).].! @ k wXbX' Q `.i.W ' bXwXk @ ! ].).< SXSX",
"SXSX: R.g.*.g X.0.eX<XN.pX-XN.<XeX0.X.g *.g.R.: SXSX",
"SXSXSXN l.1.T %Xo.C w.x.^.E.x.w.C o.%XT 1.l.N SXSXSX",
"SXSXSXSX& $ m 7X~.6 f > 2 2 > f 6 ~.7Xm $ & SXSXSXSX",
"SXSXSXSXSXSX, >XqX{ + SXSXSXSX+ { qX>X, SXSXSXSXSXSX",
"SXSXSXSXSXSXSX+.L.G + SXSXSXSX+ G L.+.SXSXSXSXSXSXSX",
"SXSXSXSXSX% . j.'.x SXSXSXSXSXSXx '.j.. % SXSXSXSXSX",
"SXSXSXSX= 2.s G.5.Z SXSXSXSXSXSXZ 5.G.s 2.= SXSXSXSX",
"SXSXSXSX* !.9.=.8.h SXSXSXSXSXSXh 8.=.9.!.* SXSXSXSX",
"SXSXSXSXo _ b.[.}.8 SXSXSXSXSXSX8 }.[.b._ o SXSXSXSX",
"SXSXSXSXSX5 V O.` 3 SXSXSXSXSXSX3 ` O.V 5 SXSXSXSXSX",
"SXSXSXSXSXSXSXSXSXSXSXSXSXSXSXSXSXSXSXSXSXSXSXSXSXSX"
};
