/* XPM */
static char *result[] = {
/* columns rows colors chars-per-pixel */
"23 35 143 2 ",
"   c #170D1A",
".  c #1C111D",
"X  c #1F1622",
"o  c #221723",
"O  c #241A24",
"+  c #251C28",
"@  c #2A1F2A",
"#  c #2C222B",
"$  c #2D2533",
"%  c #312833",
"&  c #382F37",
"*  c #332C3A",
"=  c #392F3B",
"-  c #3C323D",
";  c #40353C",
":  c #3C3443",
">  c #3F3842",
",  c #3D3748",
"<  c #453B42",
"1  c #4B3D44",
"2  c #443C49",
"3  c #4B434E",
"4  c #504445",
"5  c #52454B",
"6  c #564B4C",
"7  c #59494F",
"8  c #5C504F",
"9  c #4B4353",
"0  c #4F495B",
"q  c #544A52",
"w  c #594D53",
"e  c #554D5B",
"r  c #5A5155",
"t  c #575159",
"y  c #5B535B",
"u  c #60545B",
"i  c #635A5D",
"p  c #6A5C5D",
"a  c #5E5661",
"s  c #675F61",
"d  c #6D5D62",
"f  c #615A6A",
"g  c #695E6B",
"h  c #676064",
"j  c #6D636C",
"k  c #716263",
"l  c #74666C",
"z  c #73696C",
"x  c #7E6D6B",
"c  c #777069",
"v  c #7E756F",
"b  c #6A6274",
"n  c #706675",
"m  c #716A73",
"M  c #7A6F74",
"N  c #736D79",
"B  c #7E7573",
"V  c #7D757B",
"C  c #806F6D",
"Z  c #807775",
"A  c #817A73",
"S  c #8A7C74",
"D  c #84757B",
"F  c #847B7B",
"G  c #8A7B7B",
"H  c #868075",
"J  c #8B837F",
"K  c #94867B",
"L  c #867B82",
"P  c #8C7E86",
"I  c #868083",
"U  c #8D8485",
"Y  c #8A868C",
"T  c #8F8988",
"R  c #918485",
"E  c #94868B",
"W  c #988B88",
"Q  c #9A9183",
"!  c #9A958F",
"~  c #988C91",
"^  c #939196",
"/  c #9C9694",
"(  c #9C9A94",
")  c #97959B",
"_  c #9A979A",
"`  c #AB9697",
"'  c #A49995",
"]  c #AA9D93",
"[  c #A29D99",
"{  c #AA9C9B",
"}  c #A6A297",
"|  c #ADA397",
" . c #A5A29C",
".. c #AAA39B",
"X. c #ADA99D",
"o. c #B6A397",
"O. c #B4AA96",
"+. c #B4A599",
"@. c #B9A79A",
"#. c #B4A99E",
"$. c #BBAB9C",
"%. c #BAB09E",
"&. c #9B9AA1",
"*. c #A19EA2",
"=. c #A5A3A4",
"-. c #ACAAA3",
";. c #B0A5A2",
":. c #B3ACA4",
">. c #B3ACA9",
",. c #B5B1A1",
"<. c #BDB5A5",
"1. c #ABAAB3",
"2. c #B3ADB1",
"3. c #B9B3B1",
"4. c #BDB5B8",
"5. c #C3B4A1",
"6. c #C5BAA4",
"7. c #C2BEB5",
"8. c #C1BFBE",
"9. c #CFC4AB",
"0. c #CDC2B1",
"q. c #CECEB4",
"w. c #CEC7BF",
"e. c #CFCABD",
"r. c #D4CDB3",
"t. c #D7D1B6",
"y. c #D8D2B7",
"u. c #DDD9BD",
"i. c #DAD3CA",
"p. c #D3D3D5",
"a. c #E1DEC1",
"s. c #E4E5C5",
"d. c #E6E7C9",
"f. c #E8E7CE",
"g. c #E7E8C9",
"h. c #EAEBD3",
"j. c #E5E3DF",
"k. c #ECE7DF",
"l. c #EDEED8",
"z. c #F4F5E7",
"x. c #FAFAF3",
"c. c #FFFFFE",
"v. c None",
/* pixels */
"v.v.v.v.v.v.v.v.v.v.v.v.v.v.v.v.v.v.v.v.v.v.v.",
"v.v.v.v.v.v.v.v.@ # # # @ v.v.v.v.v.v.v.v.v.v.",
"v.v.v.v.v.v.< C ] O.O.O.] C ; v.v.v.v.v.v.v.v.",
"v.v.v.v.v.w @.t.h.z.z.z.f.t.@.7 v.v.v.v.v.v.v.",
"v.v.v.v.v.S a.f.x.c.c.c.x.z.a.A v.v.v.v.v.v.v.",
"v.v.v.v.1 $.s.g.x.c.c.c.c.c.h.6.1 v.v.v.v.v.v.",
"v.v.v.v.1 $.u.s.l.c.c.c.c.x.h.t.4 v.v.v.v.v.v.",
"v.v.v.v.1 @.9.g.s.l.z.z.z.l.g.q.4 v.v.v.v.v.v.",
"v.v.v.v.< ' 5.y.g.s.r.s.g.s.g.0.1 v.v.v.v.v.v.",
"v.v.v.v.% P $.5.t.9.@.5.u.g.s.O.= v.v.v.v.v.v.",
"v.v.v.v.v.f ` 5.$.o.L 2.i.q.6.y o v.v.v.v.v.v.",
"v.v.v.v.v.* b <.[ b a 3.; r #.B v.v.v.v.v.v.v.",
"v.v.v.v.v.v.: m [ -.i.2.0 ( %.q v.v.v.v.v.v.v.",
"v.v.v.v.v.v.  = y Z :.k.i.5.v - v.v.v.v.v.v.v.",
"v.v.v.v.v.@ x i 3 $ ; K { Q H v.v.v.v.v.v.v.v.",
"v.v.v.v.; D ~ z q z Y / h t J - v.v.v.v.v.v.v.",
"v.v.v.v.1 :.` M I ,.i.*.-.7.0.6 v.v.v.v.v.v.v.",
"v.v.v.o g 3.' : h U I -.e.j.[ 6 v.v.v.v.v.v.v.",
"v.v.v.: +.U 0 : m / p.=.X. .X.3 v.v.v.v.v.v.v.",
"v.v.v.d U T < 9 E ! &._ <.,.} < v.v.v.v.v.v.v.",
"v.v.v.i V ( { e < N 1.=.<.| i : < O v.v.v.v.v.",
"v.v.v.$ z F ;.F i B &.X...u # : M 5 v.v.v.v.v.",
"v.v.v.v.- e F } ( U 3 N f 2 9 2 P w v.v.v.v.v.",
"v.v.v.v.v.. p X.[ ( > V ..n 2 y D 6 v.v.v.v.v.",
"v.v.v.v.v.v.$ i h 6 ; u 6 b % + $ v.v.v.v.v.v.",
"v.v.v.v.v.v.v.. q =.W $ k o.< v.v.v.v.v.v.v.v.",
"v.v.v.v.v.v.v.O T >.y 3 R R & v.v.v.v.v.v.v.v.",
"v.v.v.v.v.v.v.8 k F : p k l v.v.v.v.v.v.v.v.v.",
"v.v.v.v.v.v.v.A I _ X p D q v.v.v.v.v.v.v.v.v.",
"v.v.v.v.v.v.$ *.) F v.w R Z t + v.v.v.v.v.v.v.",
"v.v.v.v.v.v.$ E ' A @ G #.X.-.,.r v.v.v.v.v.v.",
"v.v.v.v.v.v.- ..$.{ l d d : q F < v.v.v.v.v.v.",
"v.v.v.v.v.v.< G ) ^ ) M v.v.v.v.v.v.v.v.v.v.v.",
"v.v.v.v.v.v.v.+ $ # @ v.v.v.v.v.v.v.v.v.v.v.v.",
"v.v.v.v.v.v.v.v.v.v.v.v.v.v.v.v.v.v.v.v.v.v.v."
};
