/* XPM */
static char *result[] = {
/* columns rows colors chars-per-pixel */
"26 31 129 2 ",
"   c #010303",
".  c #0A0102",
"X  c #000C00",
"o  c #02020B",
"O  c #000A0B",
"+  c #080C0F",
"@  c #100007",
"#  c #100009",
"$  c #001200",
"%  c #051D0D",
"&  c #0A1A0F",
"*  c #020212",
"=  c #050C13",
"-  c #090D14",
";  c #150F17",
":  c #190C15",
">  c #0D1611",
",  c #071F11",
"<  c #0C141C",
"1  c #0A1A1B",
"2  c #1A1314",
"3  c #141A10",
"4  c #191813",
"5  c #13151C",
"6  c #121B1E",
"7  c #18191E",
"8  c #09220C",
"9  c #072410",
"0  c #0B2011",
"q  c #0D2A14",
"w  c #0F1523",
"e  c #0C1920",
"r  c #131525",
"t  c #1A1523",
"y  c #131C24",
"u  c #1C1A24",
"i  c #16172A",
"p  c #1D1B29",
"a  c #251A20",
"s  c #201E2B",
"d  c #1E2E23",
"f  c #2E232B",
"g  c #262D2D",
"h  c #2C2E2C",
"j  c #302C2D",
"k  c #3A2B2C",
"l  c #253624",
"z  c #2F3527",
"x  c #23352A",
"c  c #2C332D",
"v  c #223A2A",
"b  c #32332D",
"n  c #3B312F",
"m  c #2A2730",
"M  c #252E34",
"N  c #2B2C34",
"B  c #262F38",
"V  c #2C2D39",
"C  c #312E33",
"Z  c #332E3B",
"A  c #392B3D",
"S  c #273332",
"D  c #2C3334",
"F  c #2B3C34",
"G  c #26313C",
"H  c #2C343B",
"J  c #2D383E",
"K  c #333235",
"L  c #32323B",
"P  c #3B333C",
"I  c #34393E",
"U  c #39383E",
"Y  c #432A2E",
"T  c #42312A",
"R  c #473237",
"E  c #40353D",
"W  c #2D4631",
"Q  c #39463D",
"!  c #354B3E",
"~  c #3C483E",
"^  c #2F3841",
"/  c #333642",
"(  c #4E3D47",
")  c #423A49",
"_  c #3D4344",
"`  c #3C4C43",
"'  c #3F424B",
"]  c #3E4B49",
"[  c #3F5141",
"{  c #444B47",
"}  c #45454D",
"|  c #49454D",
" . c #444B4C",
".. c #4A4A4D",
"X. c #51434D",
"o. c #475347",
"O. c #45544D",
"+. c #454552",
"@. c #4B4552",
"#. c #464953",
"$. c #4B4B54",
"%. c #474A59",
"&. c #4E4D5A",
"*. c #514556",
"=. c #544C5A",
"-. c #465250",
";. c #4C5154",
":. c #4C515B",
">. c #7D6670",
",. c #6F7476",
"<. c #895468",
"1. c #8B6074",
"2. c #777382",
"3. c #8F7B87",
"4. c #9F7986",
"5. c #868583",
"6. c #938487",
"7. c #91868A",
"8. c #9D818D",
"9. c #8E8290",
"0. c #818A93",
"q. c #BFB9C3",
"w. c #CEBAC6",
"e. c #C3BBCA",
"r. c #DAB8C8",
"t. c #E3B8CC",
"y. c #EEBAD0",
"u. c #CBC4D0",
"i. c None",
/* pixels */
"i.i.i.i.i.i.i.i.$ X X X X X $ X $ i.i.i.i.i.i.i.i.i.",
"i.i.i.i.i.i.$ X 9 v [ ` -.] ` v q X X i.i.i.i.i.i.i.",
"i.i.i.i.i.X 8 v [ ` #.$._ ;...Q [ v 8 X i.i.i.i.i.i.",
"i.i.i.i.X W ` O.:.' #.+.*.| ..;.| -.` v $ i.i.i.i.i.",
"i.i.i.i.$ d  .$.+.&.*.( =.) =.} | | ;.S X i.i.i.i.i.",
"i.i.i.$ 0 g $.} +.+.*.*.@.=.@.@.+.@. .M & X i.i.i.i.",
"i.i.i.X x ..$.+.%.&.@.@.@.$.@.@.@.%.$.$.c X i.i.i.i.",
"i.i.i.X c ..@.$.+.%.} ..$.#.| | $.' &.| K X i.i.i.i.",
"i.i.i.X c P $.$.H } | .. . . .-. .&.#.Z K X i.i.i.i.",
"i.i.i.X j C } #.H ] o...{  .-._  .#.' L C   i.i.i.i.",
"i.i.i.X 4 E | %.G S _ { O.D ]  .I } $.Z 2 X i.i.i.i.",
"i.i.i.X   : A V J S ;.{ H S G ] V $.V 5 @   i.i.i.i.",
"i.i.i.X n # A r B H $.m D V / #.N @./ o k X i.i.i.i.",
"i.i.i.X k # A t r H | A t L N m V Z t o R . i.i.i.i.",
"i.i.i.X . . t p < H / V r / r 5 Z A 5 . .   i.i.i.i.",
"i.i.i.X {   7 r e e V i i w y < H t t o } X i.i.i.i.",
"i.i.i.X D $.  o 1 y i r w w y 6 5   o } S X i.i.i.i.",
"i.i.X { . @...$.  o o * * *     o | &.| O ! $ i.i.i.",
"i.i.X ..o t f U | | @.} +.:.+.....L N y   O.X i.i.i.",
"i.X o.} L o = - K P A Z V B V U D + - o L { [ X i.i.",
"i.X ~ ..$.* r o + ; ; L ^ < 7 4     < o $.} { $ i.i.",
"i.X o...N * N Z t     o o o     5 D S o Z $.{ X i.i.",
"i.X K N / * &.%.| H 1 1 1 y D | .. .$.o Z L C X i.i.",
"$ l b Z V o %.%.#.$.{ #.| +.$.$.| ..$.  N L h c $ i.",
"$ 8 b j u   H ^ +.+.( ( X.@.| | @.P C   7 S F % X i.",
"i.X X 3 2   B B ^ 3.t.y.r.w.=.L P L f . > , $ $ i.i.",
"i.i.i.X   . 5 I 0.e.1.<.4.>.q.V Z m a   X X i.i.i.i.",
"i.i.i.i.  Y 7.5 B ^ 3.8.Y 6.L H H 5 5.z X i.i.i.i.i.",
"i.i.i.i.i.      = < V k h b L 5 o O X X i.i.i.i.i.i.",
"i.i.i.i.i.i.i.X ,.o   X X X . o 2.  i.i.i.i.i.i.i.i.",
"i.i.i.i.i.i.i.X i.i.O i.i.i.O i.u.o i.i.i.i.i.i.i.i."
};
