/* XPM */
static char *result[] = {
/* columns rows colors chars-per-pixel */
"21 31 192 2 ",
"   c #020202",
".  c #0A0102",
"X  c #000C00",
"o  c #02010C",
"O  c #0A010B",
"+  c #040809",
"@  c #130001",
"#  c #1B0000",
"$  c #19060B",
"%  c #001100",
"&  c #01190B",
"*  c #0A1F0E",
"=  c #17160B",
"-  c #1D1707",
";  c #010010",
":  c #0B081C",
">  c #0C1516",
",  c #0A1E14",
"<  c #081B17",
"1  c #151312",
"2  c #1C1516",
"3  c #12131D",
"4  c #1B131C",
"5  c #121D1C",
"6  c #1F1A14",
"7  c #250000",
"8  c #2B0000",
"9  c #340C00",
"0  c #211807",
"q  c #2E110D",
"w  c #301208",
"e  c #301C04",
"r  c #261110",
"t  c #201B17",
"y  c #02230D",
"u  c #012A09",
"i  c #002313",
"p  c #0C2316",
"a  c #0B251B",
"s  c #17201D",
"d  c #352A1D",
"f  c #3A211A",
"g  c #0F1022",
"h  c #151323",
"j  c #151C26",
"k  c #1A1B24",
"l  c #1C1E2B",
"z  c #191321",
"x  c #1E1C34",
"c  c #072821",
"v  c #1B2225",
"b  c #2C292E",
"n  c #21292B",
"m  c #33292B",
"M  c #3C2D2E",
"N  c #372A27",
"B  c #21332A",
"V  c #2F312F",
"C  c #23392C",
"Z  c #293726",
"A  c #323126",
"S  c #3B302A",
"D  c #2C2E35",
"F  c #2D2D39",
"G  c #322D34",
"H  c #372C3A",
"J  c #263432",
"K  c #2E3336",
"L  c #223A32",
"P  c #2C333B",
"I  c #2A3A3A",
"U  c #2D3832",
"Y  c #333335",
"T  c #3C3434",
"R  c #33323C",
"E  c #3A353E",
"W  c #33383C",
"Q  c #481C00",
"!  c #471F06",
"~  c #571E00",
"^  c #581900",
"/  c #462402",
"(  c #492100",
")  c #48250F",
"_  c #502709",
"`  c #502306",
"'  c #482D19",
"]  c #6C2C06",
"[  c #511F3C",
"{  c #56232A",
"}  c #433125",
"|  c #4D2830",
" . c #46243E",
".. c #4C2436",
"X. c #1E4028",
"o. c #1D4223",
"O. c #41443B",
"+. c #56423B",
"@. c #2F2C41",
"#. c #392F47",
"$. c #322F40",
"%. c #333442",
"&. c #393649",
"*. c #432A40",
"=. c #582C45",
"-. c #493E44",
";. c #533F4B",
":. c #463D50",
">. c #583B59",
",. c #3E444A",
"<. c #384744",
"1. c #3C5045",
"2. c #3D4E53",
"3. c #3C4B5B",
"4. c #374955",
"5. c #424345",
"6. c #44454C",
"7. c #4C444E",
"8. c #434B4D",
"9. c #4C4A4D",
"0. c #464743",
"q. c #534A48",
"w. c #4A514B",
"e. c #4A5046",
"r. c #464452",
"t. c #4B4554",
"y. c #454B53",
"u. c #4C4B53",
"i. c #4B475A",
"p. c #474958",
"a. c #4E4D5A",
"s. c #524A53",
"d. c #59435D",
"f. c #564356",
"g. c #445553",
"h. c #434E60",
"j. c #796C69",
"k. c #737477",
"l. c #B57C5F",
"z. c #915F68",
"x. c #896A6F",
"c. c #8B7F7F",
"v. c #9F787D",
"b. c #BE7D61",
"n. c #C5784A",
"m. c #C57B54",
"M. c #5B8064",
"N. c #A78256",
"B. c #B8865A",
"V. c #A98062",
"C. c #AC8975",
"Z. c #B18272",
"A. c #D5835B",
"S. c #FBBF79",
"D. c #FAC375",
"F. c #FCC47D",
"G. c #FAC97B",
"H. c #F9C974",
"J. c #857E8B",
"K. c #9B7688",
"L. c #997690",
"P. c #927E99",
"I. c #A2758C",
"U. c #A17993",
"Y. c #91848D",
"T. c #8A8498",
"R. c #928493",
"E. c #82BF90",
"W. c #94BA9F",
"Q. c #BCBABF",
"!. c #ECBE8C",
"~. c #EFC68E",
"^. c #EAC785",
"/. c #FCC68C",
"(. c #F6CA8A",
"). c #F6CB96",
"_. c #FAD295",
"`. c #D3C1A9",
"'. c #E8C9AD",
"]. c #D7B8C8",
"[. c #DBB8D8",
"{. c #BDC4D6",
"}. c #C6C3CA",
"|. c #DAC7CB",
" X c #C1C5D8",
".X c #FFF3E4",
"XX c #F2EFFF",
"oX c #EFF5FF",
"OX c #F1F7FF",
"+X c #F5F9FF",
"@X c #FBF7FE",
"#X c None",
/* pixels */
"#X#X#X#X#X#Xy p * & i a & y y u E.#X#X#X#X",
"#X#X#X#Xu u L C 1.g.4.3.2.g.U Z & W.#X#X#X",
"#X#X#Xy C C y.y.<.2.p.3.y.6.9.0.K p % #X#X",
"#X#Xy B w.8.a.,.p.y.p.y.0.e.O.s.s.n i #X#X",
"#X#X< W 5.7.r.a.i.F F -.e.O.9.7.:.v L % #X",
"#Xu I i.t.s.r.r.&.h i.s.8.v 3 3 x oX3.i #X",
"#X% y.t.t.t.r.%.: i.t.u.3 oXOX+XXXT.4.c #X",
"#XX y.r.t.G u.K h i.6.5 {.oXOXY.Y.z F a #X",
"#XX 6.i.%.P O.V h p.K 3 {.{.@Xr w f T & #X",
"#XX K 6.I 5 A A j 6.V 1 j 2 q Z.b.` N X #X",
"#XX Y E P > - d k R T t Q.. 7 b.m.~ d   #X",
"#XX 1 G j   `.e 1 F M $ |.# 8 m.A.~ } X #X",
"#XX   M 3   C.'.2 E q C..X! ] m.n.~ d X #X",
"#XX j.@ j | Q V.2 m 9 B.!.(.F.S./.( 6 X #X",
"#XX   . H m _ ) 2 2 B.F.G.G.D.D././ = X #X",
"#X#X  9.o o T N b 0 ).D.H.H.G./.B./ . X #X",
"#X#XX s 6.o o   +   N._.^.(.~.N._ # - % #X",
"#X#XX s D y.u.9.5.0.. . .   @ @ +.q.Z X #X",
"#X#X#X    %.6.u.u.8.s.9.8.y.9.-.m   X #X#X",
"#X#X#XX v o 3 D D Y b E D G G O @ = % #X#X",
"#X#X#X% > j o o     O   o o o $ x.. #X#X#X",
"#X#X#XX < K o R 5.Y J.j.}.7.t.f.z.@ #X#X#X",
"#X#X#XX , K o i.u.G . c.u.i.>.].{ @ #X#X#X",
"#X#X#XX , + 3 r.7.Y   s.t.f.[.[ v.. #X#X#X",
"#X#X#X#XX > F a.$.2   ;.d.d.>.U.|   #X#X#X",
"#X#X#X#XX   l @.h O K.I.L.>.>.*.| @ #X#X#X",
"#X#X#X#XX 5 o ; o R.=.[ *.P.#.H ..@ #X#X#X",
"#X#X#X#XX   3 h k J. .L.T.@.@.o o k.#X#X#X",
"#X#X#X#XX #X; : o o O +   p j J I L #X#X#X",
"#X#X#X#X#XX #X#X#X  #X#X#X#X% o.X.M.#X#X#X",
"#X#X#X#X#XX #X#X#X#XX #X#X#X#X#X#X#X#X#X#X"
};
