/* XPM */
static char *result[] = {
/* columns rows colors chars-per-pixel */
"21 32 191 2 ",
"   c #020202",
".  c #0A0100",
"X  c #000B00",
"o  c #03000B",
"O  c #0B000D",
"+  c #0B0B07",
"@  c #110200",
"#  c #110900",
"$  c #180005",
"%  c #011501",
"&  c #041E0C",
"*  c #001709",
"=  c #0C0315",
"-  c #070316",
";  c #160616",
":  c #041D12",
">  c #0C1D14",
",  c #0F141B",
"<  c #0B1D19",
"1  c #091518",
"2  c #151315",
"3  c #1A161C",
"4  c #111E1D",
"5  c #181815",
"6  c #1B1805",
"7  c #260801",
"8  c #22110C",
"9  c #2C140B",
"0  c #241A0E",
"q  c #281203",
"w  c #371C01",
"e  c #221718",
"r  c #01220C",
"t  c #032514",
"y  c #0B211C",
"u  c #0D2913",
"i  c #3E290E",
"p  c #3B291D",
"a  c #3C2815",
"s  c #1B0E22",
"d  c #0D1021",
"f  c #151622",
"g  c #191625",
"h  c #141924",
"j  c #1A1925",
"k  c #1C1A2A",
"l  c #2D0E20",
"z  c #211324",
"x  c #0D2122",
"c  c #11242B",
"v  c #1E3F28",
"b  c #2D2B2D",
"n  c #2A2925",
"m  c #382B26",
"M  c #24362A",
"N  c #27382E",
"B  c #3E322B",
"V  c #2B2A34",
"C  c #2B2D3B",
"Z  c #352A37",
"A  c #342D3B",
"S  c #253636",
"D  c #2C3333",
"F  c #2A323B",
"G  c #273938",
"H  c #333232",
"J  c #343A37",
"K  c #34333B",
"L  c #343A3B",
"P  c #3B3738",
"I  c #4B1800",
"U  c #4E2309",
"Y  c #55210B",
"T  c #402A1F",
"R  c #592718",
"E  c #45301B",
"W  c #65280C",
"Q  c #581C3C",
"!  c #412C23",
"~  c #49282C",
"^  c #452A39",
"/  c #5C263A",
"(  c #403D38",
")  c #46433A",
"_  c #332F42",
"`  c #2E3140",
"'  c #363342",
"]  c #4C2941",
"[  c #522641",
"{  c #4C3C49",
"}  c #5E3C4D",
"|  c #693247",
" . c #3B4243",
".. c #3E4B45",
"X. c #3E444A",
"o. c #3C4B49",
"O. c #344847",
"+. c #395346",
"@. c #3D4E53",
"#. c #434246",
"$. c #4F4245",
"%. c #434944",
"&. c #4A4945",
"*. c #444449",
"=. c #4B454D",
"-. c #454A4C",
";. c #4A4A4C",
":. c #53434D",
">. c #4D504B",
",. c #4A524B",
"<. c #444353",
"1. c #4B4553",
"2. c #424C52",
"3. c #4B4B53",
"4. c #4C4559",
"5. c #454C5C",
"6. c #4C4C5B",
"7. c #514D54",
"8. c #554458",
"9. c #445251",
"0. c #44535A",
"q. c #644554",
"w. c #6C677E",
"e. c #796F70",
"r. c #6B737A",
"t. c #76676A",
"y. c #C6793A",
"u. c #B6794D",
"i. c #855761",
"p. c #846874",
"a. c #A56C7F",
"s. c #CA7B45",
"d. c #5F8070",
"f. c #B88356",
"g. c #9B8A6E",
"h. c #9C897B",
"j. c #BF8762",
"k. c #A68073",
"l. c #A9876C",
"z. c #D38449",
"x. c #C98546",
"c. c #F9C46E",
"v. c #FEC572",
"b. c #F9CB7D",
"n. c #FFC679",
"m. c #7A6C8D",
"M. c #7A6A91",
"N. c #8F768C",
"B. c #9A7C8F",
"V. c #91758B",
"C. c #877E93",
"Z. c #927F93",
"A. c #A76A8C",
"S. c #A3738B",
"D. c #A27890",
"F. c #8D8484",
"G. c #86878B",
"H. c #898B96",
"J. c #8BAA8A",
"K. c #8DB789",
"L. c #8EB395",
"P. c #8DB89B",
"I. c #94B193",
"U. c #93BA97",
"Y. c #9BAAA7",
"T. c #95B0A3",
"R. c #FCBF86",
"E. c #D8B7BE",
"W. c #EDC88D",
"Q. c #FDC484",
"!. c #FAC58B",
"~. c #F3CC89",
"^. c #F4C887",
"/. c #E5C499",
"(. c #D7C9BC",
"). c #E3C9A8",
"_. c #B7BFCC",
"`. c #C3BCDB",
"'. c #D7BED4",
"]. c #EFAEC6",
"[. c #BEC3C9",
"{. c #BEC4D4",
"}. c #C9C2C9",
"|. c #DDCCC2",
" X c #C5C5D7",
".X c #FFEBDC",
"XX c #EBF6FD",
"oX c #EFFFFF",
"OX c #F3FCFF",
"+X c #F9F9FD",
"@X c None",
/* pixels */
"@X@X@X@X@Xt r r u & t t y t r @X@X@X@X@X@X",
"@X@X@X@X: S S 0.O.@.O.+.o.D N & & @X@X@X@X",
"@X@X% > D 3.<.X.5.5.9...o.9...N M r @X@X@X",
"@X@X* D ,.&.=.1.3.-.X.2.X.3.-.%.,.M r @X@X",
"@X% G , ) -.3.;.#.=.K A 6.*.;.>.#.D & @X@X",
"@Xt @.XXc : h f 3.3.1.k C 0. .;.3.;.J & @X",
"@X: 2.H.XXOXOXOXh <.1.1.g C 9.o.3.3.*.X @X",
"@X< H 2 G.G.XXOX_.k { 6.h F 2.F 6.4.=.  @X",
"@X* B ! 7 7 +X}.{.k ' *.h F X.F _ 1.=.  @X",
"@XX a U u.j.9 2 k , F -.2  .b 3 _ 1.K % @X",
"@XX E I z.s.7 $ '.3 b L 2 n 5 e V A Z   @X",
"@XX ! Y s.s.7 $ E.8 P H 5 0 (.. 2 A z X @X",
"@XX p Y x.y.W R .Xk.8 m 8 |.h.. 3 K .   @X",
"@XX 0 w W.b.Q.Q.Q.f.q ! 9 h.a B 2   t.# @X",
"@XX 6 i W.b.c.v.v.!.l.9 7 T ! m H     X @X",
"@XX   i f.Q.v.c.n.!.).q m m ! +   -.X @X@X",
"@X% 5 . I f.^.~.W./.g.#   .     3.< % @X@X",
"@XX N ) ) # @ # . . . ( &.1.-.3.V < % @X@X",
"@X@XX   P >.P ,.;.*.{ 7.7.1.3.C - X @X@X@X",
"@X@XX 5 . . P D _ A Z P Z A j o h   @X@X@X",
"@X@XI.  p.l . o o O . O o o   j , X @X@X@X",
"@X@XK.# i.| q.{ }.e.F.b ;.K   C , X @X@X@X",
"@X@XK.  / ].} :.#.h.  H ,.-.  D 4 X @X@X@X",
"@X@XK.  a.Q '.1.=.&.  D ,.o.<   x X @X@X@X",
"@X@X@XX / A.8.4.{ 8.+ , V -.F y   @X@X@X@X",
"@X@X@X  ~ Q 8.4.D.S.V.= g A g o o @X@X@X@X",
"@X@X@X% B ^ _ C.[ / ] N.; O O g - @X@X@X@X",
"@X@X@X@XX   ` ` Z.B.^ B.; z z o ' @X@X@X@X",
"@X@X@X@X@XL.x d - o   .       L r.@X@X@X@X",
"@X@X@X@X@X% r.M.m.m.X J.U.v v d.@X@X@X@X@X",
"@X@X@X@X@X% [. X`. X% U.K.@X@X@X@X@X@X@X@X",
"@X@X@X@X@XP.T.Y.Y.T.L.U.I.L.@X@X@X@X@X@X@X"
};
