/* XPM */
static char *result[] = {
/* columns rows colors chars-per-pixel */
"25 31 177 2 ",
"   c #020203",
".  c #0C0101",
"X  c #000B00",
"o  c #03010A",
"O  c #0B020C",
"+  c #000C09",
"@  c #120100",
"#  c #1B0001",
"$  c #180009",
"%  c #140808",
"&  c #001300",
"*  c #17140F",
"=  c #030110",
"-  c #0C0612",
";  c #1B0B18",
":  c #0B1B16",
">  c #16141A",
",  c #1B131B",
"<  c #151B1A",
"1  c #171A16",
"2  c #250000",
"3  c #2B0100",
"4  c #2D0C17",
"5  c #310F1D",
"6  c #23141B",
"7  c #062818",
"8  c #191424",
"9  c #1A1A25",
"0  c #171827",
"q  c #3A0F20",
"w  c #231423",
"e  c #0F2220",
"r  c #2C2C2C",
"t  c #37272A",
"y  c #26322C",
"u  c #2C322B",
"i  c #2E3A2E",
"p  c #32332F",
"a  c #30382D",
"s  c #2D2D34",
"d  c #2B2D3A",
"f  c #342C36",
"g  c #3A2E36",
"h  c #322D3C",
"j  c #3F2734",
"k  c #253433",
"l  c #2C3435",
"z  c #2B313B",
"x  c #293D33",
"c  c #343435",
"v  c #32333A",
"b  c #3A323C",
"n  c #363938",
"m  c #451E06",
"M  c #6A1E0E",
"N  c #641B15",
"B  c #482809",
"V  c #592A0E",
"C  c #432415",
"Z  c #52211D",
"A  c #622400",
"S  c #421F25",
"D  c #5F1C25",
"F  c #790A2B",
"G  c #6C122B",
"H  c #691630",
"J  c #7A143B",
"K  c #4A252A",
"L  c #53282F",
"P  c #482837",
"I  c #572533",
"U  c #53283B",
"Y  c #602332",
"T  c #683635",
"R  c #344C3C",
"E  c #49473C",
"W  c #57493B",
"Q  c #2D3341",
"!  c #323242",
"~  c #363449",
"^  c #423A45",
"/  c #5D3A41",
"(  c #3D4245",
")  c #3E4C43",
"_  c #3E4B4D",
"`  c #324B48",
"'  c #3E5547",
"]  c #3D495C",
"[  c #3C4856",
"{  c #3D5350",
"}  c #4C4744",
"|  c #434B46",
" . c #484C47",
".. c #45444C",
"X. c #4B444C",
"o. c #444B4B",
"O. c #4A4C4E",
"+. c #544746",
"@. c #435243",
"#. c #47534E",
"$. c #444552",
"%. c #4D4653",
"&. c #444B54",
"*. c #4B4B52",
"=. c #464A5A",
"-. c #514B52",
";. c #5C4652",
":. c #4B5055",
">. c #515458",
",. c #6D4045",
"<. c #424E61",
"1. c #6C6F78",
"2. c #7C6C79",
"3. c #B1793C",
"4. c #865A5B",
"5. c #9A5C5B",
"6. c #A1595D",
"7. c #8C5864",
"8. c #9F5E66",
"9. c #A05B60",
"0. c #8B666D",
"q. c #B77F66",
"w. c #B0737B",
"e. c #AA824E",
"r. c #BC835D",
"t. c #B4885E",
"y. c #A98268",
"u. c #B5816D",
"i. c #B78C69",
"p. c #AE906A",
"a. c #C18048",
"s. c #C58555",
"d. c #C1886B",
"f. c #FFBC7E",
"g. c #EFC27E",
"h. c #FAC376",
"j. c #FFC37D",
"k. c #FDC87A",
"l. c #7E7D8F",
"z. c #827F87",
"x. c #897C86",
"c. c #848492",
"v. c #898A95",
"b. c #858A9B",
"n. c #94B598",
"m. c #FEBD8A",
"M. c #D7B9B9",
"N. c #EDB5A8",
"B. c #EFB1B4",
"V. c #EDC58A",
"C. c #F5C684",
"Z. c #FEC481",
"A. c #FFC880",
"S. c #F7C789",
"D. c #F8CB8E",
"F. c #F7C892",
"G. c #C9C2BB",
"H. c #FFC3A4",
"J. c #E1C0B7",
"K. c #B7B6C4",
"L. c #CABFC6",
"P. c #D2B8C3",
"I. c #C6BFD1",
"U. c #BBC8C6",
"Y. c #BCC1D5",
"T. c #CBC4C3",
"R. c #CAC8CC",
"E. c #CBC8D7",
"W. c #D0CDD8",
"Q. c #FFEDD6",
"!. c #EEEEFA",
"~. c #F4ECF9",
"^. c #F6F3F6",
"/. c #F5F4F8",
"(. c #F9F5FB",
"). c #FFFDFF",
"_. c None",
/* pixels */
"_._._._._._._._.& X X X X X & _._._._._._._._._._.",
"_._._._._._._.y | :.) |  .a 1   X _._._._._._._._.",
"_._._._._.c -.*.$.=.:.o.-.....c : & _._._._._._._.",
"_._._._.O.%.O.$.] =.] [ o.*.*.X...y & _._._._._._.",
"_._._.v $...*.$.=.] =.=.*.( >.&...n X _._._._._._.",
"_._._.s 9 z o.o.=.=.%.%.|  ._ k e y * X _._._._._.",
"_._._.o s $. . ...%.X.X.}  .o._ k   p   _._._._._.",
"_._.u   b ..  +   o o       o &.c   g   _._._._._.",
"_.X   l O.o x.(.)./.R./.).(.c.= ^ g   X _._._._._.",
"_.&   ! o c.E.~.^.R.^.R.(.!.Y.b.O g -   _._._._._.",
"_.    . O z.I.E.G.G.G.T.T.W.E.l.. @ $ O _._._._._.",
"% K I # K @ o o . . # . . . o = t 2 J H   _._._._.",
". I Y 3 D M.. . B V m B C # @ M.C # F H   _._._._.",
"_.  K 2 q.N.3 3 r.3.e.s.q.2 # J.q.2 D 2 _._._._._.",
"_.X . # q.Q.N M Z.k.f.f.m.A V Q.y.2 #   _._._._._.",
"_.X } # m q.H.m.k.k.k.h.A.Z.D.t.B @ X.X _._._._._.",
"_.X n . @ # t.F.S.g.C.S.D.V.e.# #   z + _._._._._.",
"& @.  *.E W   @ p.i.d.3 @   . +.^ -.= ` & _._._._.",
"X @.o > n u @.E W 3 5.T } o.=.d b 9   { X _._._._.",
"' o.v o o < k c g 4 7.I P z ~ 8 o   y #.) X _._._.",
"R #.*.O 9 o o 0 8 w U q ; 8 o o 1   o.)  .X _._._.",
"@.| f . v f w o = o $ # -   w g c   l o.( y & _._.",
"i r c o ..-.X.f 8 , P 5 g %.X.O.}   z d ! c X _._.",
"r p l   o.$.o...O., 0./ *.=.o. .O.  d ! ! v x & _.",
"a u :   z z &.:...6 4.,.X.=._ l u   8 h h : X _._.",
"X 1 1 o d Q z b.L.4 5.B.;.z k z c   > < X X _._._.",
"_.X     0 d b.K.2.# 6.6.P.s v v ,     X _._._._._.",
"_._.  t v.0 Q v x.# 9.w.j b f w x.c   _._._._._._.",
"_._._.X   o o l n . 4.L t v O     X _._._._._._._.",
"_._._._.7 7 : X X X X       1.+ _._._._._._._._._.",
"_._._._._._._._._.n.n.n.  U.U.X _._._._._._._._._."
};
