/* XPM */
static char *result[] = {
/* columns rows colors chars-per-pixel */
"21 32 190 2 ",
"   c #020202",
".  c #0A0100",
"X  c #000B00",
"o  c #03000B",
"O  c #0B000D",
"+  c #0B0B07",
"@  c #110200",
"#  c #110900",
"$  c #180005",
"%  c #011501",
"&  c #041E0C",
"*  c #001709",
"=  c #0C0315",
"-  c #070316",
";  c #160616",
":  c #041D12",
">  c #0C1D14",
",  c #0F141B",
"<  c #0B1D19",
"1  c #091518",
"2  c #151315",
"3  c #1A161C",
"4  c #111E1D",
"5  c #181815",
"6  c #1B1805",
"7  c #260801",
"8  c #22110C",
"9  c #2C140B",
"0  c #241A0E",
"q  c #281203",
"w  c #371C01",
"e  c #221718",
"r  c #01220C",
"t  c #032514",
"y  c #0B211C",
"u  c #0D2913",
"i  c #3E290E",
"p  c #3B291D",
"a  c #3C2815",
"s  c #1B0E22",
"d  c #0D1021",
"f  c #151622",
"g  c #191625",
"h  c #141924",
"j  c #1A1925",
"k  c #1C1A2A",
"l  c #2D0E20",
"z  c #211324",
"x  c #0D2122",
"c  c #11242B",
"v  c #1E3F28",
"b  c #2D2B2D",
"n  c #2A2925",
"m  c #382B26",
"M  c #24362A",
"N  c #27382E",
"B  c #3E322B",
"V  c #2B2A34",
"C  c #2B2D3B",
"Z  c #352A37",
"A  c #342D3B",
"S  c #253636",
"D  c #2C3333",
"F  c #2A323B",
"G  c #273938",
"H  c #333232",
"J  c #343A37",
"K  c #34333B",
"L  c #343A3B",
"P  c #3B3738",
"I  c #4B1800",
"U  c #4E2309",
"Y  c #55210B",
"T  c #402A1F",
"R  c #592718",
"E  c #45301B",
"W  c #65280C",
"Q  c #581C3C",
"!  c #412C23",
"~  c #49282C",
"^  c #452A39",
"/  c #5C263A",
"(  c #403D38",
")  c #46433A",
"_  c #332F42",
"`  c #2E3140",
"'  c #363342",
"]  c #4C2941",
"[  c #522641",
"{  c #4C3C49",
"}  c #5E3C4D",
"|  c #693247",
" . c #3B4243",
".. c #3E4B45",
"X. c #3E444A",
"o. c #3C4B49",
"O. c #344847",
"+. c #395346",
"@. c #3D4E53",
"#. c #434246",
"$. c #4F4245",
"%. c #434944",
"&. c #4A4945",
"*. c #444449",
"=. c #4B454D",
"-. c #454A4C",
";. c #4A4A4C",
":. c #53434D",
">. c #4D504B",
",. c #4A524B",
"<. c #444353",
"1. c #4B4553",
"2. c #424C52",
"3. c #4B4B53",
"4. c #4C4559",
"5. c #454C5C",
"6. c #4C4C5B",
"7. c #514D54",
"8. c #554458",
"9. c #445251",
"0. c #44535A",
"q. c #644554",
"w. c #6C677E",
"e. c #796F70",
"r. c #6B737A",
"t. c #76676A",
"y. c #C6793A",
"u. c #B6794D",
"i. c #855761",
"p. c #846874",
"a. c #A56C7F",
"s. c #CA7B45",
"d. c #5F8070",
"f. c #B88356",
"g. c #9B8A6E",
"h. c #9C897B",
"j. c #A9876C",
"k. c #BF8762",
"l. c #A68073",
"z. c #D38449",
"x. c #C98546",
"c. c #F9C46E",
"v. c #FEC572",
"b. c #F9CB7D",
"n. c #FFC679",
"m. c #7A6C8D",
"M. c #7A6A91",
"N. c #8F768C",
"B. c #9A7C8F",
"V. c #91758B",
"C. c #877E93",
"Z. c #927F93",
"A. c #A76A8C",
"S. c #A3738B",
"D. c #A27890",
"F. c #8D8484",
"G. c #86878B",
"H. c #898B96",
"J. c #8BAA8A",
"K. c #8DB789",
"L. c #8DB49D",
"P. c #8BB096",
"I. c #93B292",
"U. c #94B999",
"Y. c #88B3A0",
"T. c #FCBF86",
"R. c #D8B7BE",
"E. c #EDC88D",
"W. c #FDC484",
"Q. c #FAC58B",
"!. c #F3CC89",
"~. c #F4C887",
"^. c #E5C499",
"/. c #D7C9BC",
"(. c #E3C9A8",
"). c #B7BFCC",
"_. c #C3BCDB",
"`. c #D7BED4",
"'. c #EFAEC6",
"]. c #BEC3C9",
"[. c #BEC4D4",
"{. c #C9C2C9",
"}. c #DDCCC2",
"|. c #C5C5D7",
" X c #FFEBDC",
".X c #EBF6FD",
"XX c #EFFFFF",
"oX c #F3FCFF",
"OX c #F9F9FD",
"+X c None",
/* pixels */
"+X+X+X+X+XL.L.U.I.I.P.Y.+X+X+X+X+X+X+X+X+X",
"+X+X+X+X+Xt t r u r t u y : r +X+X+X+X+X+X",
"+X+X+X+X: S S 0.O.@.O.+.o.G N & & +X+X+X+X",
"+X+X% > D 3.<.X.5.0.9.o.o.9...N M r +X+X+X",
"+X+X* S ,.&.=.=.3.*.*.-.X.3.-.%.,.M r +X+X",
"+X% G 1 ..%.7.=.#.=.L A 6.*.-.,.#.H & +X+X",
"+Xt @..Xc 1 h 3 3.3.1.z C 5. .-.;.-.L & +X",
"+X: @.H..XXXoXoXf <.4.4.g F 9.X.3.1.*.X +X",
"+X> D 2 H.G..XoX].h <.6.f F 2.F 6.4.;.  +X",
"+X* B ! q 7 OX{.[.k L *.4 F X.' _ 1.=.X +X",
"+XX a U u.k.9 ; j , K *.,  .b 3 ' 4.K X +X",
"+XX E I z.s.$ $ {.3 V L 5 n 5 e V A Z   +X",
"+XX m Y y.s.7 7 R.9 P b 5 0 /.. 2 K e   +X",
"+XX p Y x.y.W R  Xl.8 B 8 }.h.. 3 A .   +X",
"+XX 0 w ~.b.W.W.T.f.7 ~ 9 h.a B 2   t.+ +X",
"+XX 6 E E.b.c.v.n.Q.j.9 q p ! m H     X +X",
"+XX   i f.W.v.v.n.Q.(.q p m B .   -.X +X+X",
"+XX 5 @ U f.~.!.E.^.g.# .       1.< % +X+X",
"+XX N ) ) @ . # . . . ( &.=.=.3.C y % +X+X",
"+X+XX   P >.B >.;.*.=.7.7.3.3.F - X +X+X+X",
"+X+XX 5 . . L F A A Z A A A k o h   +X+X+X",
"+X+XI.  p.l . o o o $ o . o o j , % +X+X+X",
"+X+XK.# i.| q.$.{.e.F.b ;.H o D ,   +X+X+X",
"+X+XK.  / '.} :.$.F.  H -.-.  N 4 X +X+X+X",
"+X+XK.X a.Q {.8.>.$.  D 9.o.<   y X +X+X+X",
"+X+X+XX / A.8.4.{ 8.+ 2 S -.S h   +X+X+X+X",
"+X+X+XX ~ Q 8.4.D.S.V.= s A g o o +X+X+X+X",
"+X+X+XX B ] _ C.[ Q ] V.; = O g - +X+X+X+X",
"+X+X+X+X    S ` H.B.^ B.; z k o ' +X+X+X+X",
"+X+X+X+X+XL.x d = O . . .     L r.+X+X+X+X",
"+X+X+X+X+XX r.M.M.w.% J.I.v v d.+X+X+X+X+X",
"+X+X+X+X+X% {.|._.[.X U.P.+X+X+X+X+X+X+X+X"
};
