/* XPM */
static char *result[] = {
/* columns rows colors chars-per-pixel */
"21 31 187 2 ",
"   c #010302",
".  c #0B0001",
"X  c #000B00",
"o  c #02030A",
"O  c #0E020C",
"+  c #000908",
"@  c #130100",
"#  c #190200",
"$  c #13030E",
"%  c #1C0D00",
"&  c #011201",
"*  c #0E1408",
"=  c #15160B",
"-  c #000512",
";  c #0A0010",
":  c #130E1C",
">  c #160716",
",  c #0B1B15",
"<  c #0E1A1C",
"1  c #091615",
"2  c #121517",
"3  c #14131E",
"4  c #1A151C",
"5  c #12191C",
"6  c #1C181C",
"7  c #181714",
"8  c #270606",
"9  c #2C120D",
"0  c #261705",
"q  c #231113",
"w  c #211C1A",
"e  c #231812",
"r  c #002206",
"t  c #03220C",
"y  c #09271A",
"u  c #17241D",
"i  c #3D2106",
"p  c #3D291B",
"a  c #2C341C",
"s  c #36361E",
"d  c #0C1721",
"f  c #101523",
"g  c #151B24",
"h  c #191A23",
"j  c #121828",
"k  c #1C192A",
"l  c #201823",
"z  c #1E382D",
"x  c #2F2B2A",
"c  c #362327",
"v  c #2C332D",
"b  c #233529",
"n  c #333422",
"m  c #3D3329",
"M  c #353628",
"N  c #262D34",
"B  c #2C2D34",
"V  c #2E2B39",
"C  c #222E3C",
"Z  c #352D35",
"A  c #382D35",
"S  c #342D3C",
"D  c #3A2F3A",
"F  c #273135",
"G  c #2C3235",
"H  c #2C3C31",
"J  c #2D363D",
"K  c #293838",
"L  c #343236",
"P  c #3D3434",
"I  c #333339",
"U  c #373638",
"Y  c #40240B",
"T  c #482809",
"R  c #432410",
"E  c #473010",
"W  c #6B2202",
"Q  c #4F1F2B",
"!  c #541B3A",
"~  c #42292F",
"^  c #50252F",
"/  c #552538",
"(  c #254230",
")  c #48453C",
"_  c #373441",
"`  c #3A3544",
"'  c #3D3B49",
"]  c #483F4B",
"[  c #593A53",
"{  c #542547",
"}  c #6F3A4A",
"|  c #3E4646",
" . c #3D414B",
".. c #3D4B4C",
"X. c #374942",
"o. c #3F4251",
"O. c #3A4D51",
"+. c #4D4543",
"@. c #45454B",
"#. c #4A444C",
"$. c #454B4D",
"%. c #4C4B4E",
"&. c #464945",
"*. c #514C44",
"=. c #564646",
"-. c #454653",
";. c #4C4653",
":. c #444B54",
">. c #4A4A54",
",. c #4B4C5A",
"<. c #474658",
"1. c #54435C",
"2. c #554954",
"3. c #495454",
"4. c #515154",
"5. c #4F4E60",
"6. c #72636A",
"7. c #7B726D",
"8. c #706C7F",
"9. c #667F79",
"0. c #CC7F3A",
"q. c #BF7E48",
"w. c #B57E5F",
"e. c #8D6269",
"r. c #8B6B70",
"t. c #A77D63",
"y. c #CF7D45",
"u. c #648272",
"i. c #B68654",
"p. c #A88C68",
"a. c #AA8877",
"s. c #CB8448",
"d. c #FFBD7E",
"f. c #F6BF7F",
"g. c #FFC37F",
"h. c #FFC274",
"j. c #6C7D84",
"k. c #737882",
"l. c #966F84",
"z. c #8A7A8E",
"x. c #937C99",
"c. c #A9758A",
"v. c #A47895",
"b. c #B07498",
"n. c #78AE8C",
"m. c #7EBC89",
"M. c #7CC28C",
"N. c #8A818B",
"B. c #838788",
"V. c #8A8A94",
"C. c #85B78C",
"Z. c #8ABA8C",
"A. c #88B689",
"S. c #86B494",
"D. c #8BB293",
"F. c #86BB92",
"G. c #8CBA94",
"H. c #8EB89B",
"J. c #93B59A",
"K. c #97B88D",
"L. c #99ADA6",
"P. c #9AB0A2",
"I. c #96B3A4",
"U. c #FFBB86",
"Y. c #FFBD8B",
"T. c #D7BBB8",
"R. c #8BC096",
"E. c #88C488",
"W. c #EEC188",
"Q. c #FAC684",
"!. c #F9C489",
"~. c #ECCA9C",
"^. c #E5C89A",
"/. c #E3C3B6",
"(. c #BBBBC7",
"). c #CFB4C7",
"_. c #E2ADC1",
"`. c #BFC8D1",
"'. c #B9C3C4",
"]. c #D5C5C6",
"[. c #C4C5D3",
"{. c #CDC5D7",
"}. c #FFEECC",
"|. c #F4F4FE",
" X c #F8FBFF",
".X c #F9FAFF",
"XX c None",
/* pixels */
"XXXXXXXXI.d d d j g < , , , < L.I.XXXXXXXX",
"XXXXM.n.< _ C ,.<.:.$.:.$.J F , t G.XXXXXX",
"XXZ.X u G @.;.;.%.#.>.:.o. .>.H H r F.XXXX",
"XXA., Z @.4.] ;.#.@.,.o.5.,.$.&.X.( r F.XX",
"F.& H 6 >.%.;.<.O.3.V I ;.-.<.:...H , C.XX",
"S.y (  X1 h f j O...:.> D ;.<.,.>...b r m.",
"I., ..V. X|.|. Xg ..3.4.$ D :. .-.$.$.& F.",
"I., H 2 z.V..X|.[.< | $.6 Z $.I ;.>.&.X R.",
"J.* s p 8 9 |.`.[.f F :.g B >.N V ,.#.  C.",
"D.X s Y i.t.e 3 : k J $.g I G h V ;.A   G.",
"H.X s T s.s.@   {.: I N h Z 6 4 D S P   F.",
"J.& a i 0.y.8 # T.7 L B h q ].. 4 D 7   C.",
"L.X n E q.y.W W }.t.6 L 8 /.a.# 6 B . X XX",
"P.  = Y !.f.Y.U.U.i.0 m 9 a.Y p =   7.X XX",
"K.X 0 T g.h.g.U.f.!.p.0 q c m M H   .   XX",
"K.X   i i.Q.g.Q.Q.W.~.0 c D v     |   XXXX",
"J.X = . i p.~.~.~.^.p.. # .   o -.3 X XXXX",
"G.& b *.=.@ # @ . @ . *.%.] >.@.` < & XXXX",
"XXC.X X x +.) *.) *.%.;.] ,.;.S o X XXXXXX",
"XXm.X * . $ L Z L Z D V ' V f o 5 & XXXXXX",
"XXXXG.  r.8 .   . . o .   o   2 , X XXXXXX",
"XXXXA.X e.} =.@.].6.N.I @.I + F 5 X XXXXXX",
"XXXXG.  ^ _.2.#.&.B.o G :.|   b < X XXXXXX",
"XXXXG.X c.! ).2.:.:.  G $.%.5 o , & XXXXXX",
"XXXXG.X ^ c.[ [ <.<.- 3 D #.A 4 + XXXXXXXX",
"XXXXA.X / Q [ 1.x.x.z.> > A l   o XXXXXXXX",
"XXXXE.& m ~ ` z.{ ! ! v.$ o - f o XXXXXXXX",
"XXXXXXZ.    V S v.b./ l.4 k j - K u.XXXXXX",
"XXXXXXXXJ.L.: j ; ; o O + + - C j.XXXXXXXX",
"XXXXXXXXXXX k.k.k.k.+ XXXXXXz 9.XXXXXXXXXX",
"XXXXXXXXXXX (.{.).'.+ XXXXXXXXXXXXXXXXXXXX"
};
