/* XPM */
static char *result[] = {
/* columns rows colors chars-per-pixel */
"32 32 93 2 ",
"   c #6F3C3B",
".  c #773A36",
"X  c #713D3B",
"o  c #6A474E",
"O  c #795455",
"+  c #76545A",
"@  c #785459",
"#  c #5D5D74",
"$  c #735C68",
"%  c #626177",
"&  c #6C6A7C",
"*  c #746D7A",
"=  c #853E36",
"-  c #843F39",
";  c #B83F2B",
":  c #854038",
">  c #954335",
",  c #9F4233",
"<  c #AC432D",
"1  c #B7442D",
"2  c #BF472F",
"3  c #BE492E",
"4  c #AD4532",
"5  c #B14631",
"6  c #BD4730",
"7  c #BF4830",
"8  c #B3543F",
"9  c #BF543A",
"0  c #BF583D",
"q  c #C1472F",
"w  c #C24A2E",
"e  c #CA502A",
"r  c #C14830",
"t  c #C05137",
"y  c #C1573D",
"u  c #C1583E",
"i  c #854E45",
"p  c #964F41",
"a  c #81504D",
"s  c #945043",
"d  c #AC5946",
"f  c #A55F4E",
"g  c #BC5D47",
"h  c #B65D4C",
"j  c #AF634C",
"k  c #BB644E",
"l  c #B36656",
"z  c #B5745B",
"x  c #BE755A",
"c  c #866263",
"v  c #997066",
"b  c #AC7869",
"n  c #A67E74",
"m  c #A97F71",
"M  c #C36346",
"N  c #C16248",
"B  c #C46B4D",
"V  c #C86C4B",
"C  c #C16B50",
"Z  c #C3775B",
"A  c #C3795D",
"S  c #A98072",
"D  c #B48476",
"F  c #B98775",
"G  c #B58D7E",
"H  c #B88E7E",
"J  c #C58264",
"K  c #C2876B",
"L  c #C2886C",
"P  c #696D85",
"I  c #69758F",
"U  c #737282",
"Y  c #7B7B8B",
"T  c #837B84",
"R  c #9E8380",
"E  c #83859A",
"W  c #82889F",
"Q  c #898B9D",
"!  c #908F9C",
"~  c #A18683",
"^  c #A28C85",
"/  c #A38D89",
"(  c #AC988E",
")  c #B4978C",
"_  c #B69B8D",
"`  c #BA9C8B",
"'  c #808EA8",
"]  c #8593AB",
"[  c #9595A4",
"{  c #9897A5",
"}  c #9999A6",
"|  c #9397A8",
" . c None",
/* pixels */
" . . . . . . . . . . . . . . . . . . . . . . . . . . . . . . . .",
" . . . . . . . . . . . . . . . . . . . . . . . . . . . . . . . .",
"3 0 A L L L K K L L L L L K K D [ [ H K L L L L K L L L L L L L ",
"3 9 C A A x Z Z Z x Z Z Z A A ) { [ n z x Z Z Z Z Z x A Z x Z Z ",
"3 9 9 u g y 9 y y y 9 y y N Z G { Q c p d y u y y u y y g y y y ",
"1 1 7 7 q 2 2 6 2 2 6 q 2 y Z G { E O = ; q q r q 6 6 2 q 2 2 2 ",
"< < 5 r 2 2 r 2 2 q 2 2 2 y Z G { E + = < 6 6 6 2 2 2 2 2 2 2 2 ",
"j d 7 q 7 7 7 7 2 2 2 2 2 y Z G { E + = < 6 7 7 7 7 7 r 6 r 2 6 ",
"( S g 7 2 7 7 7 7 r 6 r 2 y Z H { E @ = 4 r r r 7 7 r 7 7 7 7 r ",
") D g 2 2 r 7 7 7 3 6 2 2 y Z G { E @ = 4 r 7 6 7 7 3 6 6 r 7 7 ",
"k g 9 2 7 6 7 7 7 7 r q 2 y Z G { E @ = 4 q r r 7 7 7 7 w 6 7 7 ",
"3 2 q r r r r r r r 7 q 3 9 Z G { E @ = 4 r r r r r r r 6 7 r r ",
"3 3 7 7 7 r w r r r r r q y Z H } E + : 4 6 r r r r r r r r r r ",
"w 3 1 < 4 4 4 4 4 4 4 4 1 8 x H } E @ = 4 5 4 4 4 5 5 5 4 4 4 4 ",
"e 3 > = : : : : = : = = = p z H { E O . = = : = = = = : : : : = ",
"V j a o o o o o o o o o o O v ~ | W $ o o o o o o o o o o o o o ",
"` ^ * # # # # # # # # # # % & Y ] ' P # # # # # # # # # # # # # ",
") / T U U U U U U U U U U U U Y Q ! Y * U U U U U U I I U U U U ",
"h l b S S S S m S S m m m S m S D G S S S m S b m ~ Q Q ~ m S S ",
"1 6 B Z A A A Z A A A A Z Z Z Z A A A A A Z A Z J H { [ n x Z Z ",
"; 5 y y y y u y y y y y y y y y y y y y y y y M A G { Q c p 8 y ",
"6 2 2 q 2 2 q 2 r q 2 q 2 2 w 6 2 w 2 2 2 q 2 y Z H { E O = < q ",
"e w q 2 q 2 6 2 2 q 2 2 2 2 2 2 2 2 2 2 2 2 q y Z G { E + = 4 q ",
"B M r 2 6 7 r 7 r 6 r 6 7 7 r 7 2 r 7 7 7 2 2 y Z G { E @ = 4 q ",
"_ F g q 2 7 7 7 7 7 7 7 7 7 7 7 7 7 6 7 2 2 q y Z G } E @ = < w ",
"` F g 2 2 7 r 7 7 7 7 7 r 6 7 7 7 6 w 7 6 2 2 y Z G } E + = 4 r ",
"B M 9 3 6 r 7 7 7 7 7 7 7 r 7 r 6 r r 7 r 2 2 y Z G { E @ = 5 r ",
"e e w 7 w 6 r r r r 7 r w 6 r 6 r r 6 r r q 2 y Z G } E @ = 5 q ",
"r 7 6 6 r r r r 7 r r r r r r r r r r r 6 q q y Z F } E @ = 5 w ",
"3 6 5 4 4 4 4 4 4 4 4 4 4 4 4 4 4 4 4 4 4 4 4 8 Z ) } E @ . 4 5 ",
"t 5 > - : : : : : : : : : : : : : : : : - - = p z G } E + . . - ",
"3 4 :     X X X X X X X . o X X X X X X       i z G } E @ X X X "
};
