/* XPM */
static char *result[] = {
/* columns rows colors chars-per-pixel */
"32 32 121 2 ",
"   c #3A4466",
".  c #3D4769",
"X  c #424F6F",
"o  c #465373",
"O  c #465474",
"+  c #3D4866",
"@  c #2D344E",
"#  c #455272",
"$  c #3C4769",
"%  c #2D334E",
"&  c #3D4867",
"*  c #434F6F",
"=  c #3C4768",
"-  c #404C6D",
";  c #434F70",
":  c #435070",
">  c #3B4664",
",  c #2C334D",
"<  c #3C4668",
"1  c #445071",
"2  c #455273",
"3  c #3B4567",
"4  c #3D486A",
"5  c #374060",
"6  c #2B314C",
"7  c #3D4869",
"8  c #3A4567",
"9  c #3F4B6C",
"0  c #37405F",
"q  c #3A4467",
"w  c #353E5E",
"e  c #2A314C",
"r  c #3E4967",
"t  c #2D334D",
"y  c #292F4A",
"u  c #353D5D",
"i  c #3B4568",
"p  c #3E496B",
"a  c #445171",
"s  c #2B314B",
"d  c #282D47",
"f  c #343D5C",
"g  c #353E5D",
"h  c #303755",
"j  c #343C5C",
"k  c #363F5E",
"l  c #3B4563",
"z  c #363F5A",
"x  c #282D45",
"c  c #252A43",
"v  c #2F3653",
"b  c #2A304C",
"n  c #262B43",
"m  c #23283F",
"M  c #262B44",
"N  c #282E47",
"B  c #2A304B",
"V  c #282D46",
"C  c #292F48",
"Z  c #23273F",
"A  c #22263E",
"S  c #272D46",
"D  c #2B324C",
"F  c #272C46",
"G  c #292E48",
"H  c #2C324C",
"J  c #2D344F",
"K  c #262C44",
"L  c #292F47",
"P  c #2A3049",
"I  c #2A314A",
"U  c #2B314A",
"Y  c #252A42",
"T  c #38415E",
"R  c #3A4563",
"E  c #343C5B",
"W  c #3E4968",
"Q  c #37415E",
"!  c #37405C",
"~  c #3D4865",
"^  c #3C4765",
"/  c #3D4765",
"(  c #3C4665",
")  c #414D6E",
"_  c #2C334E",
"`  c #2B324D",
"'  c #374160",
"]  c #3E496A",
"[  c #3E486A",
"{  c #435071",
"}  c #2A304A",
"|  c #343D5D",
" . c #465374",
".. c #242941",
"X. c #282E48",
"o. c #3A4462",
"O. c #22263D",
"+. c #22273E",
"@. c #2A2F4A",
"#. c #272C45",
"$. c #292F49",
"%. c #242940",
"&. c #2E344F",
"*. c #313957",
"=. c #353E5A",
"-. c #272D45",
";. c #36405C",
":. c #3E4A68",
">. c #445172",
",. c #404B6D",
"<. c #2C324D",
"1. c #232840",
"2. c #303855",
"3. c #262A43",
"4. c #21253C",
"5. c #2F3754",
"6. c #363F5B",
"7. c #282E46",
"8. c #242840",
"9. c #21253B",
"0. c white",
/* pixels */
"  . X o O + @ @ + o o # # o o X $ $ X o o + % @ & O o * .       ",
"  = - ; : > , , > : ; X X * * - < < - 1 2 + @ , > : ; - =       ",
"  3 = 4 4 5 6 6 5 4 4 7 7 7 7 = 3 8 < 9 1 & @ 6 0 4 4 = 3       ",
"q     q 3 w e e w 3 q                 4 1 r t y u 3 q     q q q ",
"8 8 q 3 i w 6 6 w i 3 q q q q q 8 q   p a + s d f i 3 q 8 8 8 8 ",
"w w g u f h d d h f u u u u u g w u j k l z x c v f u u u u u u ",
"6 6 b y d n m m M N y B B B B B 6 B d V C x Z A c d y B B B B B ",
"c S D t s C N S F G H J J J J D S K L P P P I I P U , J J @ @ @ ",
"Y D T r + R k j E k > r r r W Q s s ! + ~ ^ ~ ~ / ~ + r r & + + ",
"c @ ( a 1 ) . q q . ) : : 1 1 ( _ _ ( a 1 : : : : : : ; ; 1 # o ",
"c ` ' p ] $ 3     3 $ 4 4 4 ] ' 6 6 ' p [ 4 4 4 4 4 4 7 7 9 { o ",
"c 6 w 3 q     q q         8 3 u } } u 3 8                 7 ; o ",
"c 6 w i 3 q 8 8 8 8 q q q 3 i | N N | i 3 q q q q q q     4 :  .",
"..X.h f u g w w g g g u f f f v c c v f j E f f u u u | j k o.^ ",
"O.m n d y b 6 6 e B e } d S S n +.A c F F F V X.@.B B y d d C P ",
"U I P U , D S #.$.6 6 } d F F N P U P P P x Z %.} &.J H G F F F ",
"~ ~ / + r Q s $.*.w w u f E E k l + ~ ~ + =.-.V ;.:.W > k E E E ",
": : : >. .r J B w i 3 8 3 8 q . ) { : >. .+ U P l a 1 ) . q 8 3 ",
"4 4 7 ,.>.r J B w 3 3 q q q q 3 $ 4 4 ,.>.r , B 0 p [ $ 3 q q q ",
"      4 { r t y u 3 3 q q q q         4 { r J B g 3 q   q q q q ",
"q q   p 1 + s d f i i 3 3 3 8 8 q     ] 1 W J B w i 3 8 3 3 3 3 ",
"f j E 0 ( ;.V c v f j E E j | g w u j k l ;.} d h f j E E E E E ",
"d V S G <.} %.+.c F F F F d y e 6 B d V C V %.m M S F F F F F F ",
"O.1.M N @.@.X.N C P P P P U , D S K L P P C N S S d C P P P P P ",
"..X.2.| u | f k R ~ / ^ ^ + r Q s s ! + ~ R k j E k R ~ / ^ ^ ^ ",
"3.6 w i 3 q q . ) { : : : >. .r @ _ ( >.1 ) . q q . ) { : : : : ",
"3.6 w 3 3   q 3 $ 4 4 4 7 ,.>.r J 6 5 p ] $ 3     3 $ 4 4 4 4 4 ",
"..B g 3 3 q q             4 1 r t y u 3 q   q q q               ",
"O.G u i 3 8 8 8 q q q q   p a + s d f i 3 8 3 3 8 8 q q q q q q ",
"4.M 5.u g g g g g u f E E k l 6.V n 5.f f j j f u g g u f j j j ",
"O.m M G B 6 6 6 6 B X.d d X.P 7.8.Z M d d d d X.B 6 6 B X.d d d ",
"O.O.4.O...c c c c ..O.4.4.4.9.4.O.O.4.4.4.4.4.O...3.3...O.4.4.4."
};
