/* XPM */
static char *result[] = {
/* columns rows colors chars-per-pixel */
"32 32 150 2 ",
"   c black",
".  c #2B0909",
"X  c #2C0A09",
"o  c #2C0B0B",
"O  c #2C0C0B",
"+  c #2D0D0B",
"@  c #310D0C",
"#  c #310E0C",
"$  c #360F0E",
"%  c #312621",
"&  c #322620",
"*  c #312722",
"=  c #312923",
"-  c #332923",
";  c #372A24",
":  c #372B24",
">  c #3C2F28",
",  c #3D2F28",
"<  c #622018",
"1  c #66372B",
"2  c #67382C",
"3  c #6B4F3F",
"4  c #852521",
"5  c #872721",
"6  c #852622",
"7  c #872722",
"8  c #AB322B",
"9  c #AD332B",
"0  c #AE332C",
"q  c #AF332C",
"w  c #C2442E",
"e  c #C2452E",
"r  c #C34C34",
"t  c #C44D35",
"y  c #C94E3F",
"u  c #CF543D",
"i  c #CF553D",
"p  c #F35839",
"a  c #F55939",
"s  c #F65839",
"d  c #F6593A",
"f  c #DF663A",
"g  c #EA6833",
"h  c #EA6933",
"j  c #E0673A",
"k  c #FA6537",
"l  c #FA6638",
"z  c #EA7036",
"x  c #EA7136",
"c  c #EB7337",
"v  c #EB7437",
"b  c #EA7238",
"n  c #EA7338",
"m  c #F07834",
"M  c #F07835",
"N  c #F07A36",
"B  c #F17B36",
"V  c #FF7E32",
"C  c #FF7F33",
"Z  c #FE7A34",
"A  c #FF7B34",
"S  c #FE7C35",
"D  c #FF7C35",
"F  c #BD4141",
"G  c #BE4141",
"H  c #BE4241",
"J  c #BE4341",
"K  c #BF4341",
"L  c #BF4441",
"P  c #957362",
"I  c #977461",
"U  c #957463",
"Y  c #977462",
"T  c #CE5744",
"R  c #CE5745",
"E  c #FF862E",
"W  c #FF872F",
"Q  c #FA8331",
"!  c #FB8633",
"~  c #FF8630",
"^  c #FF8730",
"/  c #FF8135",
"(  c #FC8734",
")  c #FF8830",
"_  c #FF8930",
"`  c #FF8831",
"'  c #FF8931",
"]  c #FF8A30",
"[  c #FF8A31",
"{  c #FF8933",
"}  c #FF8A33",
"|  c #FF8B33",
" . c #FF8C32",
".. c #FF8D32",
"X. c #FF8934",
"o. c #FF8A34",
"O. c #FF8B35",
"+. c #FF8D37",
"@. c #FF8F37",
"#. c #BF927B",
"$. c #EF8147",
"%. c #EF8148",
"&. c #EF834C",
"*. c #F0834B",
"=. c #FF9143",
"-. c #FF9244",
";. c #FF9445",
":. c #FF9446",
">. c #FF9546",
",. c #FF9747",
"<. c #FF964D",
"1. c #FF974D",
"2. c #FF974E",
"3. c #FF9848",
"4. c #FF984D",
"5. c #FF994D",
"6. c #FF994E",
"7. c #FF984F",
"8. c #FF994F",
"9. c #FF9A4F",
"0. c #FF9A50",
"q. c #FF9C50",
"w. c #F49A5C",
"e. c #FF9F5D",
"r. c #FF9F5E",
"t. c #D18E6B",
"y. c #D18F6D",
"u. c #C1947C",
"i. c #C2957D",
"p. c #D29671",
"a. c #D29773",
"s. c #FAA575",
"d. c #FFA972",
"f. c #FFAA72",
"g. c #FFAB72",
"h. c #FFAE7B",
"j. c #FFB076",
"k. c #FFB177",
"l. c #FFB587",
"z. c #FFB589",
"x. c #FFB689",
"c. c #FFB68A",
"v. c #FFB78A",
"b. c #FFB78B",
"n. c #FFB889",
"m. c #FFBA8A",
"M. c #FFBB8B",
"N. c #FFBC8C",
"B. c #FFBD8D",
"V. c None",
/* pixels */
"V.V.V.V.V.V.V.V.V.V.V.V.V.V.V.V.V.V.V.V.V.V.V.V.V.V.V.V.V.V.V.V.",
"V.V.V.V.V.V.V.V.V.V.V.V.V.V.V.V.V.V.V.V.V.V.V.V.V.V.V.V.V.V.V.V.",
"V.V.V.V.V.V.                                V.V.V.V.V.V.V.V.V.V.",
"V.V.V.V.V.V.: , > > > > > > > > > > > > , ; V.V.V.V.V.V.V.V.V.V.",
"V.V.V.V.  - Y i.u.#.#.#.#.#.#.#.#.#.#.u.i.I &   V.V.V.V.V.V.V.V.",
"V.V.V.V.. 1 t.B.M.n.n.n.n.n.n.n.n.n.n.m.N.p.3 % V.V.V.V.V.V.V.V.",
"V.V.  o 4 r $.q.9.4.4.4.4.4.4.4.4.4.4.5.6.w.a.P %   V.V.V.V.V.V.",
"V.V.+ < w k V +.:.1.<.<.<.<.<.<.<.<.1.-.X.>.j.a.3 & V.V.V.V.V.V.",
"  # 7 e h C ~ >.g.x.z.l.l.l.l.l.l.z.x.d.=.o.>.w.p.I ;   V.V.V.V.",
"  $ 0 d D ! m *.s.b.v.x.x.x.x.x.x.c.c.h.e.=.X.6.N.i.,   V.V.V.V.",
"  $ 9 a D N u T &.0.8.7.7.7.7.7.7.2.2.r.h.d.-.5.m.u.>   V.V.V.V.",
"  $ 8 p S n H F z ] _ ) ) ) ) ) ) W E 2.c.x.1.4.n.#.>   V.V.V.V.",
"  $ 8 p S n J G x [ ' ` ` ` ` ` ` ^ W 2.c.z.<.4.n.#.>   V.V.V.V.",
"  $ 8 p S v L K b | } { { { { { { ` ) 7.x.l.<.4.n.#.>   V.V.V.V.",
"  $ 8 p S v L K b | } { { { { { { ` ) 7.x.l.<.4.n.#.>   V.V.V.V.",
"  $ 8 p S v L K b | } { { { { { { ` ) 7.x.l.<.4.n.#.>   V.V.V.V.",
"  $ 8 p S v L K b | } { { { { { { ` ) 7.x.l.<.4.n.#.>   V.V.V.V.",
"  $ 8 p S v L K b | } { { { { { { ` ) 7.x.l.<.4.n.#.>   V.V.V.V.",
"  $ 8 p S v L K b | } { { { { { { ` ) 7.x.l.<.4.n.#.>   V.V.V.V.",
"  $ 8 p S n J H c  . .} } } } } } ' _ 8.v.z.<.4.n.#.>   V.V.V.V.",
"  $ 8 p S n H G c .. .| | | | | | [ ] 0.b.x.1.4.n.#.>   V.V.V.V.",
"  $ 9 a D N i y f c c b b b b b b x z &.s.f.-.5.m.u.>   V.V.V.V.",
"  $ 0 d D ( B j y G H K K K K K K G F R *.;.O.6.N.i.,   V.V.V.V.",
"  # 7 e g / } B i H J L L L L L L J H u m @.,.w.p.I ;   V.V.V.V.",
"V.V.+ < w l / ( N n n v v v v v v n n M Q 3.k.a.3 & V.V.V.V.V.V.",
"V.V.  O 6 w g D D S S S S S S S S S S A Z %.y.U *   V.V.V.V.V.V.",
"V.V.V.V.O < e d a p p p p p p p p p p a s t 2 = V.V.V.V.V.V.V.V.",
"V.V.V.V.  + 7 0 9 8 8 8 8 8 8 8 8 8 8 9 q 5 X   V.V.V.V.V.V.V.V.",
"V.V.V.V.V.V.# $ $ $ $ $ $ $ $ $ $ $ $ $ $ @ V.V.V.V.V.V.V.V.V.V.",
"V.V.V.V.V.V.                                V.V.V.V.V.V.V.V.V.V.",
"V.V.V.V.V.V.V.V.V.V.V.V.V.V.V.V.V.V.V.V.V.V.V.V.V.V.V.V.V.V.V.V.",
"V.V.V.V.V.V.V.V.V.V.V.V.V.V.V.V.V.V.V.V.V.V.V.V.V.V.V.V.V.V.V.V."
};
