/* XPM */
static char *result[] = {
/* columns rows colors chars-per-pixel */
"32 32 114 2 ",
"   c #120F24",
".  c #151325",
"X  c #191425",
"o  c #1F1827",
"O  c #171629",
"+  c #1A1729",
"@  c #1B192C",
"#  c #1F1D32",
"$  c #211526",
"%  c #231A26",
"&  c #2A1C27",
"*  c #2E1528",
"=  c #221928",
"-  c #2C1D2B",
";  c #321627",
":  c #351C27",
">  c #331728",
",  c #341829",
"<  c #3C1829",
"1  c #201F34",
"2  c #1F2137",
"3  c #1F243B",
"4  c #262129",
"5  c #2F202D",
"6  c #3F2624",
"7  c #35222E",
"8  c #3D2E28",
"9  c #202137",
"0  c #23253C",
"q  c #2A253B",
"w  c #3C2431",
"e  c #392338",
"r  c #401D27",
"t  c #431D2A",
"y  c #6B1F2E",
"u  c #432724",
"i  c #482527",
"p  c #412F27",
"a  c #4D2B25",
"s  c #49232F",
"d  c #512C24",
"f  c #532F2B",
"g  c #423027",
"h  c #4F3627",
"j  c #403028",
"k  c #523326",
"l  c #533827",
"z  c #513528",
"x  c #513C2A",
"c  c #402732",
"v  c #4A2430",
"b  c #412832",
"n  c #532430",
"m  c #5D2C31",
"M  c #443032",
"N  c #443D31",
"B  c #67362F",
"V  c #77312A",
"C  c #6B2232",
"Z  c #722230",
"A  c #54402C",
"S  c #5B442E",
"D  c #4D4134",
"F  c #524532",
"G  c #544832",
"H  c #7D4D28",
"J  c #634C3A",
"K  c #6A5339",
"L  c #262B44",
"P  c #2D314D",
"I  c #2F3653",
"U  c #95312D",
"Y  c #862230",
"T  c #8C2432",
"R  c #9D3630",
"E  c #9C4E23",
"W  c #924A2A",
"Q  c #AA492B",
"!  c #B65126",
"~  c #B85226",
"^  c #BF5629",
"/  c #9C6C2D",
"(  c #C45E23",
")  c #C66122",
"_  c #C86222",
"`  c #C56926",
"'  c #CA6B25",
"]  c #DD6B24",
"[  c #C67E2C",
"{  c #CA782F",
"}  c #D67426",
"|  c #F57422",
" . c #C7802D",
".. c #CC812C",
"X. c #CC8C31",
"o. c #C9973A",
"O. c #CE9A3A",
"+. c #DB9330",
"@. c #D19C3B",
"#. c #FF8926",
"$. c #F79F2F",
"%. c #FFA52F",
"&. c #FFA630",
"*. c #FFBC38",
"=. c #FFC43E",
"-. c #9C8F49",
";. c #9E9149",
":. c #A2944A",
">. c #AA974C",
",. c #CFA749",
"<. c #CBAF4C",
"1. c #CDB04C",
"2. c #D2B44E",
"3. c #FFDC51",
/* pixels */
". = 7 7 % . . a ( ( d . . . . d ( ( d   . o 7 b b 7 = X . . X X ",
". = 5 5 = . . d ' ` k . . . . z { { k . . o - 7 7 7 + . X X X . ",
"X X = = . . . h ....z .       F ,.,.F   . X = = = o . . . X X X ",
"X . . . . . . A O.@.S @ + + . N :.:.N   . X . . . % u u % X . . ",
"X X X X . .   G 2.2.K : 7 5 = 4 N N 4 . . X X . . u E E u . . X ",
"X . . $ , * X N ;.>.J w w 7 = .   . o = X X X . . d ( ( d . . X ",
"X . . , y y ; % N D j b w 7 = . . + - - o . X . . i Q Q i . . X ",
"X . X , y y , .   + - 7 7 7 o . . * v s & . . . . , V V : . . . ",
". . X = : , $ . . . o = = = X . . , Z Z < . . X . $ : : o . X X ",
"X X X . . . X X o o X . . . X . X > y y , . . . . 4 N N 4 . X . ",
"X . . . . . . = - - o . X X . X . $ * * o . X . . N :.:.N . . . ",
"X + 2 = + X . % v s & X . X X X X % 6 u % . . . . N >.:.N   . X ",
". 4 P P # . . , Z Z , . . X . . . u E E u . . X . 4 N N 4 . . . ",
". # I I 9 X + t Y Y < . . X X . . k ' ' k . . X X X o X X o @ = ",
". @ L L @ o - n T Y , . . X . . . l ....l . . . X o - - o @ 9 0 ",
"X @ 9 9 @ o 5 m R U r . . X X . . x @.@.x   . X . = 7 7 = @ 9 0 ",
"X + + + . @ 5 B ^ ! a . . X X .   F 2.2.G   . . . = 7 7 = X + @ ",
". . . X . & z W ] ) a . . X . .   N :.:.N . . . . & s s % X . X ",
". . +   . u E ] | ) a . . . . . . 4 N N 4 . . . . , Z Z , . . X ",
"< , + . . d ` #.#.` a . . $ , , $ .     . o , * o < U U t . . X ",
"Y y , .   h  .&.%.[ h   . ; y y > . .   . : y y * a ! ~ a . . . ",
"Y y :   . h X.*.=.o.N   . > y y ; X o o . ; y y * a ) _ d . . . ",
"< , o . . h X.=.3.<.G .   $ : : $ o 5 5 o $ ; *   a ) _ a . . X ",
". . . . . g / o.<.-.N   . . . . . = 7 7 = . . % 8 H } ` k . . . ",
". . . X . 4 g x A N 4 . . . . . . = 7 7 o . . 8 / +.$.[ z . . . ",
"X O X . X . . .     . @ 2 = + X . = s s % .   z X.*.=.o.x . . . ",
". . + X . . . . . . . # P P # . . , Z Z , . . x X.=.3.<.G   . X ",
"X X X X = o X . X X . # P P # . . < Y T t O . g / O.1.-.N   . . ",
"X . X @ 5 5 X . . . X @ # # @ . . < Y T n 5 @ % p x F N = . . X ",
"@ @ + = 5 7 & = = = X X . @ @ @ @ , C Z v - = = + +   . + @ @ @ ",
"0 0 # # = = 7 7 7 - o X @ 9 0 3 0 q e w - = : 7 7 - X . # 9 9 0 ",
"L L 0 # + = 7 8 b 7 = @ # 0 L L L L 3 # O = 7 c c 7 = + # 0 L L "
};
