/* XPM */
static char *result[] = {
/* columns rows colors chars-per-pixel */
"32 32 37 1 ",
"  c #171222",
". c #1A1729",
"X c #1A182A",
"o c #1F1E32",
"O c #201F34",
"+ c #1F2137",
"@ c #212137",
"# c #22243A",
"$ c #27293E",
"% c #262A43",
"& c #292C44",
"* c #292E49",
"= c #2C314C",
"- c #2F3652",
"; c #303754",
": c #323955",
"> c #343D5B",
", c #38415E",
"< c #374060",
"1 c #3B4565",
"2 c #3D4867",
"3 c #3D4768",
"4 c #3E4969",
"5 c #424C67",
"6 c #424D6D",
"7 c #46516E",
"8 c #434F70",
"9 c #465272",
"0 c #495676",
"q c #4D5977",
"w c #4E5B79",
"e c #515F7D",
"r c #52607F",
"t c #546282",
"y c #586786",
"u c #596887",
"i c #5B6A89",
/* pixels */
" .@:wiir6>=%%-wiir7>*:qiiiiiit61",
"O#=1riitq1=&=1wiit01->wiiiiiiw41",
";,7etiiit9:=5ryiyyt033riiiyiit81",
"38tiiitrt9=:wiiiiiit940yyiiyt03>",
"18yiir9661=:wiiuiiit4440tiit03-=",
"-,9wre9681->wiiutrt03>;,0ttw3-%+",
"o#=>39wtt013tiit9493;%+%1944-%oX",
"O@#=10tiit99wttw9444,*+o*>>>>=#o",
";-&-9tiiiytw9649weeee5=+oo%:77>;",
"81=:wiiiiiir1,40tiiiie1=oo=3ryq6",
"t9::wiiiiiiw>:0tiiiiuyt5=*5eyyyt",
"iw:=7tiiiiiw>>wiiiiiiiiw<>eiiytt",
"iw:=19tiiiiw44tiiyiiyiit34tiit08",
"ir1::3qttrtq110tyiiiiit0119wt01>",
"iye5:-166681--10yiiiiy03-=->33;=",
"iiie1:>>><44,:<40weet01:::::>-&#",
"uuiur6:**:0ew94>:>2663;:5ew7:$o.",
"iiiuy0>*=1eiiy01*%;>>>;1eiir1=#O",
"iiit04<10eyiiiy7$X%**:7eyiiye7,:",
"ttt03>18tuiiiii9&O=::,qtiuuiit61",
"4883-->8tiiiiiiq==5eqq60tiiiit63",
"4441--;3qrttyyt0,,riit06wtuiur61",
"ttt01:--1669yy99qeyiuuye90tiit61",
"iiit0<==1669w012riuuuiie310tt03>",
"uiiut0--0ttw93->wiiiiiiw>;3883;*",
"iuiiiw::wiit91=-9tiiiiy9-*;>1>=&",
"uuuiiw::wiiit9-=10tiit01*%*-<>*&",
"iiiuy7:=9tiiiw:*:20ttq1:::::>;*+",
"iiit01==10tiiw:&*-3983-:5ee6:&o.",
"tttw3-&&-30tt9=+@&;>>>:1eiie3=#o",
"4444;%oo%;349<%.X+&**:5eiiiye8<;",
"131>=+XX+->33;o  X#%%:eiiiiiit83"
};
