/* XPM */
static char *result[] = {
/* columns rows colors chars-per-pixel */
"32 32 177 2 ",
"   c #181425",
".  c #181324",
"X  c #171323",
"o  c #171222",
"O  c #1A182B",
"+  c #22243B",
"@  c #262B43",
"#  c #2B314C",
"$  c #353E5E",
"%  c #3B4567",
"&  c #21243A",
"*  c #1A182A",
"=  c #2B324D",
"-  c #1B182B",
";  c #171324",
":  c #1C1A2D",
">  c #23263D",
",  c #272C46",
"<  c #191526",
"1  c #1D1B2E",
"2  c #1F1E32",
"3  c #23243A",
"4  c #282D47",
"5  c #2A304A",
"6  c #3B4568",
"7  c #374060",
"8  c #2F3653",
"9  c #1F1E33",
"0  c #1D1D31",
"q  c #363F5F",
"w  c #374061",
"e  c #2F3654",
"r  c #272B44",
"t  c #1F1F34",
"y  c #181526",
"u  c #202137",
"i  c #202136",
"p  c #272A43",
"a  c #2E3450",
"s  c #333A58",
"d  c #353D5C",
"f  c #313957",
"g  c #292F4A",
"h  c #394364",
"j  c #303855",
"k  c #252941",
"l  c #3A4365",
"z  c #313856",
"x  c #272C45",
"c  c #1B1A2C",
"v  c #1D1C30",
"b  c #212238",
"n  c #292E48",
"m  c #363E5E",
"M  c #3C476A",
"N  c #353D5D",
"B  c #282C46",
"V  c #262A43",
"C  c #303755",
"Z  c #394365",
"A  c #3B4669",
"S  c #363F60",
"D  c #2C324E",
"F  c #252942",
"G  c #23263E",
"H  c #212339",
"J  c #23243B",
"K  c #343B5A",
"L  c #3C476B",
"P  c #333A59",
"I  c #22233A",
"U  c #1E1D32",
"Y  c #374161",
"T  c #3C4669",
"R  c #364060",
"E  c #2C334E",
"W  c #2B324E",
"Q  c #1A172A",
"!  c #181424",
"~  c #23273E",
"^  c #1A1729",
"/  c #1E1C30",
"(  c #2B2F4A",
")  c #323958",
"_  c #323957",
"`  c #2C304B",
"'  c #202035",
"]  c #22253C",
"[  c #282E48",
"{  c #2F3552",
"}  c #1C1B2E",
"|  c #202237",
" . c #1C1B2F",
".. c #1B192B",
"X. c #1B192C",
"o. c #1A1628",
"O. c #201F34",
"+. c #201F33",
"@. c #24283F",
"#. c #201F35",
"$. c #1C1A2E",
"%. c #1D1C2F",
"&. c #202036",
"*. c #1E1D31",
"=. c #191729",
"-. c #262A42",
";. c #272B45",
":. c #1F2035",
">. c #2E334F",
",. c #2E3350",
"<. c #1F1D32",
"1. c #191728",
"2. c #212035",
"3. c #1E1E32",
"4. c #3B4668",
"5. c #1F2036",
"6. c #22253B",
"7. c #2F3451",
"8. c #2F3754",
"9. c #181426",
"0. c #2B314D",
"q. c #2A304B",
"w. c #323A58",
"e. c #23273F",
"r. c #23253D",
"t. c #262941",
"y. c #272D47",
"u. c #262B45",
"i. c #191628",
"p. c #313956",
"a. c #353E5D",
"s. c #262942",
"d. c #24273F",
"f. c #23233A",
"g. c #242840",
"h. c #22263D",
"j. c #262C45",
"k. c #313958",
"l. c #1E1E33",
"z. c #212137",
"x. c #212136",
"c. c #22243A",
"v. c #202238",
"b. c #272B43",
"n. c #2C314C",
"m. c #2C304C",
"M. c #171223",
"N. c #161222",
"B. c #3C4769",
"V. c #343C5B",
"C. c #272941",
"Z. c #191627",
"A. c #394264",
"S. c #353C5B",
"D. c #222239",
"F. c #23253B",
"G. c #292F49",
"H. c #1F1F35",
"J. c #23253C",
"K. c #1B1A2D",
"L. c #252A42",
"P. c #212036",
"I. c #333958",
"U. c #3A4567",
"Y. c #3A4466",
"T. c #303653",
"R. c #222339",
"E. c #323A59",
"W. c #333B5A",
"Q. c #3A4467",
"!. c #384162",
"~. c #384263",
"^. c #2A314C",
"/. c #384163",
"(. c #262B44",
"). c #1D1B2F",
"_. c white",
/* pixels */
"    . X o O + @ @ # $ % % $ # & * O + = $ % % $ # + - X ; : > , ",
". < O 1 2 3 4 5 , # $ 6 % 7 8 @ 9 0 > = q 6 6 w e r t * y - u > ",
"; * i p a s d f g # $ 6 % h 7 j r > k = q 6 % l w z x i * < - : ",
"c v b n m M M N B V C w Z 6 A S D F > r z q q q S f B i * . . . ",
"G H v J K L M P I U V e Y T T R E G 0 9 r = = W D B t Q y . !   ",
"~ u ^ / ( ) _ ` ' v ] [ { _ _ a V u } 0 > F G ] ] |  ...X.* < . ",
": - < o./ O.+.' H > k @.b O.#.2 $.%.| G F > U - -  .| ] ] &.* ; ",
"X ; . y ^ : *.I 4 D D x t =.    ^ t x D D -.$.  ^ t x E E ;.t - ",
"X X X Q :.-.>.s d q q f x :.^ ^ :.x z S S ,.<.1.:.x z S S z r + ",
"2.9 1 3.~ D q 4.6 l Y f x 5.^ X.] D q T T _ O.O 6.D q 4.6 7 8 # ",
"s 7.r G F = q 4.6 w 8.r t ^ 9.X.] D q T T _ O.O + D q 4.% h 7 $ ",
"7 f B G k 0.$ 6 4.q 0.> U ^ 9.X.] q.w.q q >.*.* + q.w.w Z % % % ",
"D x :.*.G = q 4.T q = F e.i * X.r.4 q.0.0.t.X.* 6.y.q.8 w 6 6 % ",
"u.] - i.t ;.p.a.P >.s.6.] i * * i d.F , g B f.b g.k h.r z q q $ ",
"j.] ..; i.t x n J *.: - ..* < < * 3.> 5 k.d P { n ] v l.r D = = ",
"> + z.O.O.x.c.v. .: U O.O./ o.X X X.] D q A A Y e b.l. .| ] ] ] ",
"..x.n.s ) m.&.} u -.a _ _ ( / o M.X.] D q 4.6 Z w z r | %.X.X.X.",
"N.O._ L L _ O.* 6.E R B.T V.C.%.Z.^ 5.x z w Z % 6 S E ] X.; ; . ",
"N.O._ M M _ O.* ] E R A 4.A.S.( /   ^ t r 8 w 4.4.S E r.X.; .   ",
"..D.{ R R a 2 1.:.x z w Z 6 T K F.^   ..+ 5 w.q q p.x i * . .   ",
"> k G.D D V }   ^ t r 8.w 4.T $ n 5.^ ..6.y.q.D D x H.* y . . . ",
"> > ] ] ] v.v ..-  .u r z q q z x :.^ ..J.V ~ ] ] 5.Q 9.* X.X.X.",
": K.X.X.- %.v.] ] u  .t x D D r t i.; X.> g.3.....^ 9.* i ] ] ] ",
"X X ; 9.^ t x E E V $.^ :.~ L.g.b O.O.z.+ u *   ^ ^   } V D W = ",
"X X ; * 5.x z R R a 2 ! i.0 > n { _ _ n.z.^   Q i :.^ <.a S q $ ",
"P.*.o...] D q T M ) '   ^ U G = q B.M I.O.; i.:.B x t 3 P A 6 U.",
"P ` / * + D q T M ) ' ^ i e.F 0.q T M _ O.i.t x f p.x 4 N 4.% Y.",
"w T.R.0 > q.E.$ W.( / Q i d.L.= q Q.!.a <.: -.j ~.a.4 r j w Z U.",
"D G.k e.L.4 ^.n J / o.< * 3.~ D R /.C s.: 2 a ~.6 P 3 l.r 8.w 6 ",
"@ F e.r.J.J.] 5.^ X .   . Q &.p a a V :.=.2 a R S >.U i.t ;.z m ",
"(.~ l.X.X.X.X.* y .     ! < * ).9 9 } ^ 9.1 V D D -.}   ^ t ;.= ",
"j.J.X.X ; . . .             . ; X X ; ; . X.] (.(.] X.; X X.] (."
};
