/* XPM */
static char *_4c87ccb0f7a431987135b3abafbefecRGsjh8kZzo0TXbPT[] = {
/* columns rows colors chars-per-pixel */
"64 64 247 2 ",
"   c #4D3E46",
".  c #4F3F47",
"X  c #544147",
"o  c #5D4549",
"O  c #684A4A",
"+  c #714F4B",
"@  c #77514C",
"#  c #78524C",
"$  c #78514C",
"%  c #724F4B",
"&  c #5E4649",
"*  c #4D3E47",
"=  c #4E3F47",
"-  c #503F47",
";  c #504047",
":  c #514047",
">  c #7A524C",
",  c #714E4B",
"<  c #5D4548",
"1  c #534147",
"2  c #4E3F46",
"3  c #4E3E46",
"4  c #564248",
"5  c #5F4649",
"6  c #694B4A",
"7  c #79524C",
"8  c #524047",
"9  c #5B4448",
"0  c #624849",
"q  c #6A4B4A",
"w  c #734F4B",
"e  c #6B4C4A",
"r  c #554248",
"t  c #734F4C",
"y  c #6C4C4B",
"u  c #64494A",
"i  c #5D464A",
"p  c #584349",
"a  c #534148",
"s  c #674A4A",
"d  c #6E4D4B",
"f  c #744F4C",
"g  c #74504C",
"h  c #624749",
"j  c #5C4548",
"k  c #594448",
"l  c #554247",
"z  c #5C4549",
"x  c #75504C",
"c  c #714F4C",
"v  c #6D4D4D",
"b  c #684B4D",
"n  c #63494C",
"m  c #5E464B",
"M  c #544148",
"N  c #65494A",
"B  c #584348",
"V  c #524147",
"C  c #594348",
"Z  c #77514D",
"A  c #78524E",
"S  c #78524F",
"D  c #765250",
"F  c #714F4F",
"G  c #4F3F46",
"H  c #76514C",
"J  c #6D4D4B",
"K  c #66494A",
"L  c #79524D",
"P  c #7D5550",
"I  c #815752",
"U  c #835854",
"Y  c #7D5553",
"T  c #715050",
"R  c #64494C",
"E  c #5A4448",
"W  c #7A534E",
"Q  c #815650",
"!  c #875A53",
"~  c #895B55",
"^  c #845955",
"/  c #775251",
"(  c #674B4D",
")  c #594449",
"_  c #734F4D",
"`  c #6E4E4D",
"'  c #694C4D",
"]  c #6F4E4B",
"[  c #7B534E",
"{  c #815751",
"}  c #885A54",
"|  c #8C5C56",
" . c #865A55",
".. c #785352",
"X. c #5A4449",
"o. c #78524D",
"O. c #79524E",
"+. c #795350",
"@. c #775250",
"#. c #725050",
"$. c #694C4E",
"%. c #5F474B",
"&. c #604749",
"*. c #815651",
"=. c #8B5C56",
"-. c #7E5550",
";. c #825752",
":. c #7E5653",
">. c #875A54",
",. c #8A5B55",
"<. c #855955",
"1. c #7A534D",
"2. c #805650",
"3. c #785351",
"4. c #76504B",
"5. c #875A55",
"6. c #795452",
"7. c #7A524D",
"8. c #76504C",
"9. c #795352",
"0. c #875953",
"q. c #8A5B56",
"w. c #7D544F",
"e. c #835751",
"r. c #8A5C56",
"t. c #7E554F",
"y. c #8C5C57",
"u. c #775352",
"i. c #7F5550",
"p. c #835852",
"a. c #865954",
"s. c #8B5C55",
"d. c #8E5D57",
"f. c #8D5D57",
"g. c #865A56",
"h. c #6A4B4B",
"j. c #8E5E57",
"k. c #8C5D57",
"l. c #765251",
"z. c #664A4D",
"x. c #734F4A",
"c. c #744F4B",
"v. c #8D5D56",
"b. c #7F5652",
"n. c #72504F",
"m. c #564247",
"M. c #664949",
"N. c #6E4D4A",
"B. c #77514B",
"V. c #724F4F",
"C. c #64494B",
"Z. c #6B4B46",
"A. c #6C4B47",
"S. c #6F4D48",
"D. c #805651",
"F. c #835752",
"G. c #845852",
"H. c #75504D",
"J. c #6A4C4B",
"K. c #554147",
"L. c #5A4447",
"P. c #624746",
"I. c #694A47",
"U. c #75504A",
"Y. c #624642",
"T. c #644743",
"R. c #694945",
"E. c #704E49",
"W. c #825751",
"Q. c #875954",
"!. c #885A55",
"~. c #714E49",
"^. c #614646",
"/. c #5A4446",
"(. c #534146",
"). c #574245",
"_. c #5C4444",
"`. c #624643",
"'. c #724E49",
"]. c #5B423F",
"[. c #5D4340",
"{. c #634643",
"}. c #6D4C48",
"|. c #664844",
" X c #5E4442",
".X c #594243",
"XX c #554144",
"oX c #524046",
"OX c #544144",
"+X c #574142",
"@X c #5C4341",
"#X c #6E4C48",
"$X c #56403E",
"%X c #58413F",
"&X c #684A46",
"*X c #865953",
"=X c #694A46",
"-X c #574140",
";X c #544041",
":X c #524044",
">X c #574141",
",X c #544042",
"<X c #533F40",
"1X c #554041",
"2X c #5A4343",
"3X c #624745",
"4X c #6C4C49",
"5X c #7C544E",
"6X c #594242",
"7X c #523F42",
"8X c #513F44",
"9X c #514046",
"0X c #514044",
"qX c #523F43",
"wX c #554042",
"eX c #634745",
"rX c #6D4C49",
"tX c #534043",
"yX c #574244",
"uX c #5C4445",
"iX c #634746",
"pX c #6D4C47",
"aX c #6E4C47",
"sX c #564144",
"dX c #514045",
"fX c #534044",
"gX c #5D4445",
"hX c #644746",
"jX c #544145",
"kX c #5B4343",
"lX c #604541",
"zX c #614541",
"xX c #544044",
"cX c #554142",
"vX c #564142",
"bX c #514048",
"nX c #524045",
"mX c #544040",
"MX c #533F41",
"NX c #543F40",
"BX c #513F43",
"VX c #524043",
"CX c #5F4749",
"ZX c #6B4B4A",
"AX c #7C534D",
"SX c #574348",
"DX c white",
/* pixels */
"  . X o O + @ # $ @ @ $ # @ % O & X . * = . . - ; : : : : : : : : : : : : : : ; - . . = * . X & O % @ > > @ , O < 1 2 3 . ; : : ",
". : 4 5 6 % @ # $ @ @ $ # @ % 6 5 4 : ; ; : : : : : : : : : : : : : : : : : : : : : : ; ; : 4 5 6 % @ 7 7 @ % 6 5 4 8 ; ; : : : ",
"X 4 9 0 q % @ # $ @ @ $ # @ w e 0 9 4 r r 4 r X 1 : : : : : : : : : : : : : 8 1 X r 4 r r 4 9 0 e w @ 7 7 @ t y u i p r a 8 : : ",
"o 5 0 s d f @ $ $ @ @ $ $ @ g d s h 5 & & & j k l : - - ; : : : : : : ; - ; 8 r k z & & & 5 h s d g @ # # @ x c v b n m p M : - ",
"O 6 q d + x @ $ @ @ @ @ $ @ x % d q 6 6 6 O N 5 B V . . - : : : : : : - . ; 1 C 5 N O 6 6 6 q d % x @ $ @ @ Z A S D F b m 4 : G ",
"+ % % f x H @ @ @ @ @ @ @ @ H x g % % % w % J K o 4 : ; ; : : : : : : ; ; : 4 o K J % w % % % g x H @ @ @ @ L P I U Y T R p : 2 ",
"@ @ @ @ @ @ @ @ @ @ @ @ @ @ @ @ @ @ @ $ $ @ t y u i p r a 8 : : : : 8 8 1 4 E 0 e % @ $ $ @ @ @ @ @ @ H H @ W Q ! ~ ^ / ( ) : 3 ",
"# # # $ $ @ @ @ @ @ @ @ @ @ @ @ $ # # 7 7 # H _ ` ' R m ) M : - ; : 1 r k o 0 6 ] x # 7 7 # # $ @ @ @ H H @ [ { } |  ...b X.: 3 ",
"$ $ $ $ @ @ @ @ @ @ @ @ @ @ @ @ $ $ $ $ $ $ o.O.+.@.#.$.%.4 : . . : X k &.K e ] w H $ 7 # $ $ $ @ @ @ H H @ W *.} =. ...( ) : 3 ",
"@ @ @ @ @ @ @ @ @ @ @ @ @ @ @ @ @ @ @ @ @ @ L -.;.U :.#.R p : 2 2 : r o K J % x H @ @ @ @ @ @ @ @ @ @ H H @ W Q >.,.<./ ( ) : 3 ",
"@ @ @ @ @ @ @ @ @ @ @ @ @ @ @ @ @ @ @ H H @ 1.2.! ~ <.3.( ) : 2 2 : 4 5 6 % @ # $ @ @ @ @ @ @ @ @ @ @ H H @ W Q >.,.<./ ( ) : 3 ",
"@ @ @ @ @ @ @ @ @ @ @ @ @ @ @ @ @ @ @ H 4.@ 1.Q } =.5.6.b ) : 3 2 : 4 5 q w $ 7 7 @ @ @ @ @ @ @ @ @ @ H 4.@ 7.2.! ,.<./ ( ) : 3 ",
"@ @ @ @ @ @ @ @ @ @ @ @ @ @ @ @ @ @ @ 8.4.H 7.Q } =. .9.b ) : 3 2 : 4 5 q w $ 7 # @ @ @ @ @ @ @ @ @ @ H 4.H 7.2.0.,.<./ ( ) : 3 ",
"@ @ @ @ @ @ @ @ @ @ @ @ @ @ @ @ @ @ @ H H @ W *.>.q.<...b ) : 2 2 : 4 5 6 % @ # $ @ @ @ @ @ @ @ @ @ @ H H @ W Q >.,.<./ ( ) : 3 ",
"@ @ @ @ @ @ @ @ @ @ @ @ @ @ @ @ @ @ @ $ o.7.w.e.} r.<...b ) : 2 2 : 4 5 6 % @ # $ @ @ @ @ @ @ @ @ @ @ $ o.7.w.e.} r.<./ ( ) : 3 ",
"$ $ $ @ @ @ H H H H H H H H H H H H $ L [ t.{ 0.=.y. ...b ) : 3 2 : 4 5 q t @ 7 $ @ H H H H H H H H $ L [ t.{ 0.=.y. .u.( ) : 3 ",
"o.# $ @ @ H H H H H H H H H H 4.4.H o.[ i.p.a.s.d.f.g.9.b ) : 3 2 : 4 5 h.t $ 7 $ @ H H H H H 4.4.H o.[ i.p.a.s.d.f.g...( ) : 3 ",
"@ @ @ @ @ @ @ @ @ @ @ @ @ @ @ @ H @ 7.t.p.>.=.f.j.k.<./ ( ) : 2 2 : 4 5 6 % @ # $ @ @ @ @ @ @ @ H @ 7.t.p.>.=.f.j.k.^ l.z.) : 3 ",
"x.x.c.4.@ L W W W W W W W W W 7.7.W w.{ a.=.k.v.=.>.b.n.R p : 2 = : m.< M.N.c.B.# L W W W W W 7.7.W w.{ a.=.k.v.=.>.b.V.C.p : 2 ",
"Z.A.S.x.L t.D.{ *.*.D.D.D.D.D.2.2.*.F.a.r.f.k.~ G.w.H.J.&.4 : . . : K.L.P.I.S.U.7.t.D.{ *.*.D.2.2.*.F.a.r.f.k.~ G.w.H.h.5 4 : . ",
"Y.T.R.E.7.W.Q.} } >.>.>.>.>.>.Q.a.>.!.=.f.j.=.G.1.~.I.^./.K.: - - : (.)._.`.R.'.[ ;.Q.} } >.>.Q.a.>.!.=.f.j.=.G.1.~.I.^.L.K.: . ",
"].[.{.}.L G.,.=.=.,.,.,.,.,.,.,.,.,.r.y.f.k.>.w.~.|. X.XXX(.: ; ; : oXOX+X@X{.#X1.G.,.=.=.,.,.,.,.,.r.y.f.k.>.w.~.|. X.XXX(.: ; ",
"$X%X X&Xg D.*X} >.a.a.a.a.a.a.a.a.a.a.>.} *XD.x =X X-X;X:XoX: : : : oX:X;X-X X=Xx D.*X} >.a.a.a.a.a.a.>.} *XD.x =X X>X,X:XoX: : ",
"<X1X2X3X4XH [ 5X5X[ [ [ [ [ [ [ [ [ [ 5X5XW x 4X3X6X;X7X8X9X: : : : 9X0XqXwX2XeXrXH [ 5X5X[ [ [ [ [ [ 5X5XW x 4X3X6X;X7X8X9X: : ",
"qXtXyXuXiXI.pXaXaXpXpXpXpXpXpXpXpXpXpXpXpXA.=XeX_.sX:X8XdX9X: : : : 9X9XdXfXyXgXhXI.pXaXaXpXpXpXpXpXpXpXpXA.=XeX_.sX:X8X9X9X: : ",
"9XoXjXyXkX XlXzXlXlXlXlXlXlXlXlXlXlXlXlXlXlX XkXyXjXoX9X: : : : : : : : 9XoXjXyXkX XlXzXlXlXlXlXlXlXlXlXlXlX XkXyXjXoX9X: : : : ",
": : oXxXcX-X%X%X%X%X%X%X%X%X%X%X%X%X%X%X%X%X-XvXxXoX: : : : : : : : : : : : oXxXcX-X%X%X%X%X%X%X%X%X%X%X%X%X-XvXxXoX: : : : : : ",
"bX: 9XnXtX;XmXmXmXmXmXmXmXmXmXmXmXmXmXmXmXmX;XtXnX9X: : : : : : : : : : : : 9XnXqXMX<X<X<X<X<XNXNXmXmXmXmXmX;XtXnX9X: : : : : : ",
": : : 9XnX:XtXtXtXtXtXtXtXtXtXtXtXtXtXtXtXtX:XnX9X: : : : : : : : : : : : : : 9X8XBXBXBXBXBXBXqXqXVXtXtXtXtX:XnX9X: : : : : : : ",
": : : : oXoXoXoXoXoXoXoXoXoXoXoXoXoXoXoXoXoXoXoX: : : : : : : : : : : : : : : : oXoXoXoXoXoXoXoXoXoXoXoXoXoXoXoX: : : : : : : : ",
": : : : : : : : : : : : : : : : : : : : : : : : : : : : : : : : : : : : : : 8 1 X r 4 4 4 4 r X 1 8 : : : : : : : : : : : : : : ",
": : : : : : : : : : : ; ; ; ; ; ; ; ; ; - ; ; ; : : : : : : : : : : : : : : 1 4 E o 5 CXCX5 o E 4 a : ; ; : : : : : : : : : : : ",
": : : : : : : : : : : ; ; - . . . . . . . . - ; ; : : : : : : : : : : ; ; : X E &.K 6 h.h.6 K &.E M : ; ; : : : : : : : : : : : ",
": : : : : : : : : : : : : : : : : : : : : : : : : : : : : : : : : : : ; - : r o K J % g g % J K o r : - ; : : : : : : : : : : : ",
": : : : : : : : : : 8 1 X r 4 4 4 4 4 4 4 4 r X 1 8 : : : : : : : : : ; - : 4 5 6 % @ 7 7 @ % 6 5 4 : - ; : : : : : : : : : : : ",
": : : : : : : ; - ; 8 r k o 5 5 5 5 5 5 5 5 o E 4 1 : : : : : : : : : ; - : 4 &.ZXg 7 AXAX7 g ZX&.4 : - ; : : : : : : : : : : : ",
": : : : : : : - . ; 1 k &.K 6 q q 6 6 q q 6 K &.E X : ; ; : : : : : : ; - : 4 &.ZXg 7 AXAX7 g ZX&.4 : - ; : : : : : : : : : : : ",
": : : : : : : ; ; : 4 o K J % w w % % w w % J K o r : - ; : : : : : : ; - : 4 5 6 % @ 7 7 @ % 6 5 4 : - ; : : : : : : : : : : : ",
": : : : : : 8 8 1 4 E 0 e % @ $ $ @ @ $ # @ % 6 5 4 : - ; : : : : : : ; - : r o K J % g g % J K o r : - ; : : : : : : : : : : : ",
": : : : : : 1 r k o 0 6 ] x # 7 7 # 7 7 > # w q 5 4 : - ; : : : : : : ; ; : X E &.K 6 ZXZX6 K &.E X : ; ; : : : : : : : : : : : ",
": : : ; ; : X k &.K e ] w H $ 7 # $ # 7 7 $ w q 5 4 : - ; : : : : : : : : : 1 4 E o 5 &.&.5 o E 4 1 : : : : : : : : : : : : : : ",
": : : ; - : r o K J % x H @ @ @ @ @ @ # 7 @ % 6 5 4 : - ; : : : : : : : : : 8 1 X r 4 4 4 4 r X 1 8 : : : : : : : : : : : : : : ",
": : : ; - : 4 5 6 % @ # $ @ @ @ @ @ @ $ # @ % 6 5 4 : - ; : : : : : : : : : : : : : : : : : : : : : : : : : : : : : : : : : : : ",
": : : ; - : 4 &.ZXg 7 > 7 @ @ @ @ @ @ # 7 $ w q 5 4 : - ; : : : : : : : ; ; ; - - - - - - - - - - ; ; ; ; ; ; ; : : : : : : : : ",
": : : ; - : 4 &.ZXg 7 > 7 @ @ @ @ @ @ 7 7 $ w q 5 4 : - ; : : : : : : : ; - - - - ; ; ; ; ; ; - - - - - - - - ; : : : : : : : : ",
": : : ; - : 4 5 6 % @ # $ @ @ @ @ @ @ $ # @ % 6 5 4 : - ; : : : : : : : : : : : : : : : : : : : : : : : : : : : : : : : : : : : ",
": : : ; - : r o K J % x H @ @ @ @ @ @ H x % J K o r : - ; : : : : : 8 1 l 4 4 l 1 8 : : : : 8 1 X r 4 4 4 4 r X 1 8 : : : : : : ",
": : : ; ; : X k &.K e ] w H $ 7 7 $ H w ] e K &.k X : ; ; : : : ; : 1 SX9 & & 9 SX1 : ; ; : 1 4 E o 5 &.&.5 o E 4 1 : : : : : : ",
": : : : : : 1 r k o 0 6 ] x # > > # x ] 6 0 o k r 1 : : : : : ; ; : l 9 0 s s 0 9 l : . . : X E &.K 6 ZXZX6 K &.E X : ; ; : : : ",
": : : : : : 8 8 1 4 E 0 e % @ 7 7 @ % e 0 E 4 1 8 8 : : : : : ; - : 4 & s J J s & 4 : . . : r o K J % g g % J K o r : - ; : : : ",
": : : : : : : ; ; : 4 o K J % g g % J K o 4 : ; ; : : : : : : ; - : 4 & s J J s & 4 : . . : 4 5 6 % @ 7 7 @ % 6 5 4 : - ; : : : ",
": : : : : : : - . ; 1 k &.K 6 ZXZX6 K &.k 1 ; . - : : : : : : ; ; : l 9 0 s s 0 9 l : . . : 4 &.ZXg 7 AXAX7 g ZX&.4 : - ; : : : ",
": : : : : : : ; - ; 8 r k o 5 &.&.5 o k r 8 ; - ; : : : : : : : ; : 1 SX9 & & 9 SX1 : . . : 4 &.ZXg 7 AXAX7 g ZX&.4 : - ; : : : ",
": : : : : : : : : : 8 1 X r 4 4 4 4 r X 1 8 : : : : : : : : : : : : 8 1 l 4 4 l 1 8 : - - : 4 5 6 % @ 7 7 @ % 6 5 4 : - ; : : : ",
": : : : : : : : : : : : : : : : : : : : : : : : : : : : : : : : : : : : : : : : : : : ; - : r o K J % g g % J K o r : - ; : : : ",
": : : : : : : : : : : : ; - - - - - - ; : : : : : : : : : : : : : : : ; ; - - ; ; : : ; ; : X E &.K 6 ZXZX6 K &.E X : ; ; : : : ",
": : : : : : : : : : : : ; ; ; ; ; ; ; ; : : : : : : : : : : : : : : : : ; ; ; ; : : : : : : 1 4 E o 5 &.&.5 o E 4 1 : : : : : : ",
": : : : : : : : : : : : : : : : : : : : : : : : : : : : : : : : : : : : : : : : : : : : : : 8 1 X r 4 4 4 4 r X 1 8 : : : : : : ",
": : : : : : : : : : : : : : : : : : : : : : : : : : : : : : : : : : : : : : : : : : : : : : : : : : : : : : : : : : : : : : : : ",
": : : : : : : : : : : : : : : : : : : : : : : : : : : : : : : : : : : : : : : : : : : : : : : : ; - - - - - - ; : : : : : : : : ",
": : : : : : : : : : : : : : : : : : : : : : : : : : : : : : : : : : : : : : : : : : : : : : : : ; ; ; ; ; ; ; ; : : : : : : : : ",
": : : : : : : : : : : : : : : : : : : : : : : : : : : : : : : : : : : : : : : : : : : : : : : : : : : : : : : : : : : : : : : : ",
": : : : : : : : : : : : : : : : : : : : : : : : : : : : : : : : : : : : : : : : : : : : : : : : : : : : : : : : : : : : : : : : ",
": : : : : : : : : : : : : : : : : : : : : : : : : : : : : : : : : : : : : : : : : : : : : : : : : : : : : : : : : : : : : : : : "
};
