/* XPM */
static char *result[] = {
/* columns rows colors chars-per-pixel */
"32 32 163 2 ",
"   c #161222",
".  c #242439",
"X  c #3E4764",
"o  c #3F4765",
"O  c #25253A",
"+  c #161122",
"@  c #212036",
"#  c #333A59",
"$  c #323957",
"%  c #201F34",
"&  c #242438",
"*  c #171223",
"=  c #171323",
"-  c #1C1A2D",
";  c #23253C",
":  c #272B44",
">  c #232338",
",  c #3B4361",
"<  c #3C4462",
"1  c #1F1E33",
"2  c #2F3551",
"3  c #2F3451",
"4  c #1F1D32",
"5  c #171222",
"6  c #1B192C",
"7  c #282B44",
"8  c #222136",
"9  c #353D5B",
"0  c #363D5C",
"q  c #222237",
"w  c #1C1A2E",
"e  c #272A43",
"r  c #212136",
"t  c #363D5B",
"y  c #1B192B",
"u  c #282B45",
"i  c #1F1F33",
"p  c #2E3450",
"a  c #1A1728",
"s  c #211F33",
"d  c #24253A",
"f  c #24253B",
"g  c #202035",
"h  c #1A1729",
"j  c #24243A",
"k  c #1D1B2E",
"l  c #1D1B2F",
"z  c #272942",
"x  c #262941",
"c  c #212034",
"v  c #353A55",
"b  c #363C57",
"n  c #191628",
"m  c #181324",
"M  c #363C56",
"N  c #1B182B",
"B  c #1D1C30",
"V  c #212137",
"C  c #212033",
"Z  c #3D4563",
"A  c #171324",
"S  c #212238",
"D  c #232237",
"F  c #151020",
"G  c #24253C",
"H  c #353A54",
"J  c #1F1E32",
"K  c #363E5C",
"L  c #363E5D",
"P  c #282C45",
"I  c #23243B",
"U  c #1B182A",
"Y  c #3C4563",
"T  c #3C4562",
"R  c #1E1C30",
"E  c #2C304B",
"W  c #2B304A",
"Q  c #24253D",
"!  c #2B2F4A",
"~  c #303551",
"^  c #2B2D44",
"/  c #28293D",
"(  c #222137",
")  c #191627",
"_  c #1E1D31",
"`  c #1A1628",
"'  c #1C192C",
"]  c #24263D",
"[  c #191527",
"{  c #414963",
"}  c #4C5773",
"|  c #181426",
" . c #1A182A",
".. c #181425",
"X. c #222238",
"o. c #202036",
"O. c #1A1629",
"+. c #26273B",
"@. c #46506C",
"#. c #566586",
"$. c #201F35",
"%. c #39415E",
"&. c #445173",
"*. c #181526",
"=. c #282A44",
"-. c #1F1D30",
";. c #2E314A",
":. c #2E324A",
">. c #2E334F",
",. c #363E5F",
"<. c #1D1C2F",
"1. c #1E1D32",
"2. c #252539",
"3. c #424B65",
"4. c #424B66",
"5. c #262942",
"6. c #2C314D",
"7. c #1C192D",
"8. c #333A58",
"9. c #323958",
"0. c #1F1F34",
"q. c #27283C",
"w. c #49536F",
"e. c #495470",
"r. c #28283D",
"t. c #23243C",
"y. c #303552",
"u. c #424B68",
"i. c #26263B",
"p. c #22243B",
"a. c #333B59",
"s. c #2A2D46",
"d. c #1E1C31",
"f. c #282940",
"g. c #272940",
"h. c #2F3450",
"j. c #2A2D45",
"k. c #222236",
"l. c #383E5A",
"z. c #383F5B",
"x. c #282A41",
"c. c #373E59",
"v. c #191526",
"b. c #353C5A",
"n. c #212035",
"m. c #222135",
"M. c #181424",
"N. c #161121",
"B. c #272A42",
"V. c #1E1C2F",
"C. c #383F5A",
"Z. c #404A6B",
"A. c #3A4464",
"S. c #2F3552",
"D. c #495370",
"F. c #1A182B",
"G. c #424B67",
"H. c #25263A",
"J. c #333958",
"K. c #242338",
"L. c #3D4663",
"P. c #3E4663",
"I. c white",
/* pixels */
"  . X o O + + O o o O     @ # $ % & X o O + + O o o O * = - ; : ",
"* > , < .     . < < .   + 1 2 3 4 > , < .     . < < . 5   6 ; 7 ",
"* 8 9 0 q 5 5 q 0 0 q 5 + w e e w r t 0 q 5 5 q 0 0 q 5   y ; u ",
"* 1 3 3 1   * i 3 p 1 a s d f g h 1 3 3 1   * i 3 p 1 a s j f ; ",
"= k e e -   = l z x - c v b d n m k e e -   = l z x - c v M j N ",
"6 B V f d C h k e z - . Z Z . A h B S f d C h k e z - . Z < D F ",
"G V k j b H C J 3 3 J r K L 8 h g S l j b H C J 3 3 J r K t g F ",
"P I U > Y T > R E E R R W E R y Q ; N > Y T > R E E R B ! ~ ^ / ",
"P ; N r K K ( ) _ _ ` ` _ R n ' ] G N r K K ( ) _ _ ` [ l ^ { } ",
"G g h 1 3 2 1 * * |  . .....h B X.o.h 1 3 2 1 * * |  .O.= +.@.#.",
"'  ...k e e k = =  .o.o.h h $.V B h ..k e e k = =  .o.g n q %.&.",
"m *. .R S S B h ..l =.e w -.;.:.-...h R S S B h ..l =.e w J >.,.",
"A U r X.B <.S g h 1 2 p 1.2.3.4.2.n g X.B <.S g h 1 2 3 1 - 5.6.",
"m 7.; ; y k 7 e - % 8.9.0.q.w.e.r. .I ; y k 7 e - % 8.# @ h g ; ",
"m ' t.I N 1 y.2 _ 1 8.8.% O u.u.i. .p.I N 1 y.2 _ 1 8.a.r ..h 6 ",
"A R s.s.l d.E 2 f.g.h.! B > , , > k j.s.l d.E 2 f.g.h.E _ A A m ",
"* k.l.z.k.[ l x.c.c.x.l v.r 9 b.n.m.l.z.k.[ l x.c.c.x.R ` ..M...",
"* . < Y . + N.> Y Y > N.N.1 3 p 1.> < Y . + N.> Y Y > + * A M...",
"* ( t K q   + 8 K K 8 + N.w e B.- r 0 K q   + 8 K K 8     = A M.",
"* 1 3 3 1   * i 3 p 1 a s d f g h 1 3 3 1   * i 3 p 1 h C k.V.6 ",
"= k e e -   = l z x - c v b d n m k e e -   = l z x - c H C.s.I ",
"6 B V f d C h k e z - . Z Z . A h B S f d C h k e z - > < Z.~ e ",
"G V k j b H C J 3 3 J r K L 8 h g S l j b H C J 3 3 J r t A.>.e ",
"P I U > Y T > R E E R R W E R y Q ; N > Y T > R E E R R ! p e I ",
"P ; N r K K ( ) _ _ ` ` _ R n ' ] G N r K K ( ) _ _ ` ` R 1 k 6 ",
"G g h 1 3 2 1 * * |  . .....h B X.o.h 1 3 2 1 * * |  . .| = A M.",
"'  ...k e e k = =  .o.o.h h $.V B h ..k e e k = =  .o.o. .A m ..",
"m *. .R S S B h ..l =.e w -.;.:.-...h R S S B h ..l =.7 l m M...",
"A U r X.B <.S g h 1 2 p 1.2.3.4.2.n g X.B <.S g h 1 2 S.% A m ..",
"m - Q G y k e e w g 8.$ 0.q.w.D.r.F.t.G y k e e w g 8.8.@ = m ..",
"m - G ; N 1 2 3 J % $ $ % O G.u.H.N t.; N 1 2 3 J % $ 8.@ = m ..",
"m - G I N n.8.J.% % $ $ % K.L.P.. N I I N n.8.J.% % $ 8.@ = m .."
};
