/* XPM */
static char *result[] = {
/* columns rows colors chars-per-pixel */
"32 32 110 2 ",
"   c #3A4466",
".  c #3A4467",
"X  c #3A4567",
"o  c #353D5D",
"O  c #2A304B",
"+  c #363F5F",
"@  c #3B4668",
"#  c #3B4567",
"$  c #3B4568",
"%  c #3C4669",
"&  c #323856",
"*  c #1F1E32",
"=  c #313855",
"-  c #363F60",
";  c #2E3552",
":  c #2C324D",
">  c #2F3653",
",  c #343B5A",
"<  c #384263",
"1  c #394263",
"2  c #343C5B",
"3  c #2D314D",
"4  c #23243B",
"5  c #262840",
"6  c #394365",
"7  c #374060",
"8  c #2F3652",
"9  c #24253D",
"0  c #26273F",
"q  c #2D314C",
"w  c #23233A",
"e  c #2C314C",
"r  c #3B4669",
"t  c #23243A",
"y  c #333A59",
"u  c #353E5E",
"i  c #323957",
"p  c #2D324D",
"a  c #24253C",
"s  c #22233A",
"d  c #282D47",
"f  c #2B324D",
"g  c #2B314D",
"h  c #282C46",
"j  c #222339",
"k  c #1F1E33",
"l  c #201F34",
"z  c #201F33",
"x  c #191627",
"c  c #1E1F34",
"v  c #242840",
"b  c #292E48",
"n  c #1D1B2E",
"m  c #181425",
"M  c #171323",
"N  c #181527",
"B  c #212137",
"V  c #2F3551",
"C  c #333A58",
"Z  c #323956",
"A  c #2A2E48",
"S  c #1C1A2D",
"D  c #181426",
"F  c #262841",
"G  c #24263D",
"H  c #2B2E48",
"J  c #303653",
"K  c #364060",
"L  c #333B59",
"P  c #374061",
"I  c #2C334F",
"U  c #323A58",
"Y  c #384162",
"T  c #394264",
"R  c #2D334F",
"E  c #323A59",
"W  c #2E3551",
"Q  c #2D3450",
"!  c #292E49",
"~  c #313956",
"^  c #394364",
"/  c #363E5E",
"(  c #262B44",
")  c #292F49",
"_  c #2B314C",
"`  c #2A314C",
"'  c #1D1B2F",
"]  c #191526",
"[  c #353E5D",
"{  c #25273F",
"}  c #25273E",
"|  c #201F35",
" . c #1F1F33",
".. c #24243B",
"X. c #181324",
"o. c #191628",
"O. c #1B192C",
"+. c #1E1C30",
"@. c #2B2E49",
"#. c #262941",
"$. c #1E1E33",
"%. c #272B44",
"&. c #2F3754",
"*. c #374162",
"=. c #343D5C",
"-. c #282D46",
";. c #303855",
":. c #374161",
">. c #3A4465",
",. c white",
/* pixels */
"      . X o O O + @ #                             $ % & * * = @ ",
"        . - ; : > , < #                         # 1 2 3 4 5 , $ ",
"          6 7 8 9 0 , @ #                     # @ 2 5 4 q 2 < . ",
"          # $ , 0 w e , 1 # X     . X # # # # 1 , e w 0 , @ #   ",
"            X < , e w 0 , r $ X X # # $ $ @ r , 0 w e , 1 #     ",
"              # @ , 0 t 3 y o u u 2 i = = & i p t 0 , @ #       ",
"                # 1 , 3 a s d f g h j k k k l a p , 1 #         ",
"                  # r i z x c v b h j k k n m k i % $           ",
"                  # @ i l M N B V o C & Z A S * & % #           ",
"                  # $ & l D n F 2 @ @ @ r 2 5 G > 7 6 .         ",
"                  # $ = * n H 2 1 # # # # 1 2 J : ; K # .       ",
"                  # # L 0 5 2 @ #         X $ P ; I U K 6 .     ",
"                . X . Y , , < #             # 6 K U I ; K # .   ",
"            # 6 + + T . # #                   . # K ; R E 7 6 X ",
"          X $ 7 ; W + X # X                     . 6 K E Q > 7 $ ",
"# # # # # 1 2 J : ; + .                           # $ u O ! ~ u ",
"$ $ $ @ r 2 5 G > 7 ^                             # $ / O ( ) _ ",
"= = = & i A n k & @ #                             ^ - E Q ` O O ",
"k k k z l ' ] l & $ #                           . + W R E u u [ ",
"k k k z l ' ] l & $ #                           . + W W - # # X ",
"= = = & i A n k & @ #                             T + + ^ X . . ",
"$ $ $ @ r 2 5 G > 7 6 .                 X X         . .       . ",
"# # # # # 1 2 J : ; K # .               # #                 . X ",
"          X $ P ; I U K 6 # # # # # # Y L y Y             T + o ",
"            # 6 K U I ; 7 @ $ $ $ @ r , { } y # X       . + ; O ",
"              . # K ; : > & & & & & & q t { L # X       . + ; O ",
"                . 6 P J G k l | l  .k ..3 , Y             T + o ",
"                  # $ 2 5 n ] X.o.O.+.5 2 @ #               . X ",
"                    X 1 2 @.' x c #.R , 1 #                   . ",
"                      # r y t $.%.&.*.$ X                       ",
"                      X $ =.-.%.;.:.>.X                         ",
"                        X u _ _ u $ X                           "
};
