/* XPM */
static char *f79398fc15354fe6f73747296afa6781goohRDXjFzBempJP[] = {
/* columns rows colors chars-per-pixel */
"26 32 129 2 ",
"   c None",
".  c #6E5967",
"X  c #6D5E6C",
"o  c #705A67",
"O  c #725B69",
"+  c #7A5E6B",
"@  c #656575",
"#  c #6C6472",
"$  c #6B6B79",
"%  c #746472",
"&  c #7A6472",
"*  c #756876",
"=  c #706E7C",
"-  c #72707D",
";  c #815F6D",
":  c #84616E",
">  c #8C646F",
",  c #836673",
"<  c #8C6471",
"1  c #846B76",
"2  c #8D6B73",
"3  c #846E79",
"4  c #8A6F79",
"5  c #936672",
"6  c #926B74",
"7  c #9B6B75",
"8  c #82727D",
"9  c #8B717A",
"0  c #9D7077",
"q  c #937278",
"w  c #9B757B",
"e  c #94797F",
"r  c #9D7A7E",
"t  c #A16C77",
"y  c #A46D79",
"u  c #A96E79",
"i  c #A27077",
"p  c #A47279",
"a  c #AB727A",
"s  c #A37B7F",
"d  c #6D7E8C",
"f  c #747582",
"g  c #787380",
"h  c #757885",
"j  c #797984",
"k  c #717B88",
"l  c #A37D80",
"z  c #A97F82",
"x  c #B77E82",
"c  c #C67F81",
"v  c #7C838E",
"b  c #7A8590",
"n  c #798A96",
"m  c #A78281",
"M  c #AA8284",
"N  c #AE8A86",
"B  c #A88A89",
"V  c #B28686",
"C  c #B18987",
"Z  c #BC8788",
"A  c #B38A88",
"S  c #BA8C8B",
"D  c #B3928C",
"F  c #BC928D",
"G  c #B39791",
"H  c #B39B94",
"J  c #CE8787",
"K  c #C08F8D",
"L  c #D48385",
"P  c #C2918E",
"I  c #C9958E",
"U  c #D3928C",
"Y  c #DB908C",
"T  c #C69691",
"R  c #C89792",
"E  c #C79E96",
"W  c #D0A597",
"Q  c #D8A899",
"!  c #D9AF9F",
"~  c #EEA699",
"^  c #E3A89A",
"/  c #E4AA9B",
"(  c #E3A89A",
")  c #F0AD9D",
"_  c #ECB09F",
"`  c #E9BAA4",
"'  c #E9BAA4",
"]  c #F1B5A2",
"[  c #F1B6A2",
"{  c #F3B6A3",
"}  c #F7BAA5",
"|  c #F7BCA6",
" . c #F7BDA7",
".. c #F7BBA5",
"X. c #F8BBA6",
"o. c #F8BDA6",
"O. c #F9BDA6",
"+. c #F8BDA7",
"@. c #F9BDA7",
"#. c #F8BEA7",
"$. c #F9BFA8",
"%. c #F3C2A9",
"&. c #F6C4AA",
"*. c #F7C6AB",
"=. c #F7C7AD",
"-. c #F4C3AA",
";. c #F9C3AA",
":. c #FAC8AD",
">. c #FDCCAF",
",. c #FECCAF",
"<. c #FAC8AD",
"1. c #F7CBB1",
"2. c #FBCEB2",
"3. c #FDCDB0",
"4. c #FECDB0",
"5. c #FDCEB1",
"6. c #FFCEB0",
"7. c #FDCFB2",
"8. c #FDCFB3",
"9. c #FDCEB1",
"0. c #F7D1B7",
"q. c #FDD0B3",
"w. c #FDD0B4",
"e. c #FDD1B4",
"r. c #FDD2B5",
"t. c #FFD2B4",
"y. c #FED2B5",
"u. c #FDD3B6",
"i. c #FDD2B5",
/* pixels */
"          M 2 N D G H D 6 m D G G H N 2 M           ",
"      B ! %.A &.8.8.r.8.F ` 8.8.r.r.=.A %.! B       ",
"    E 0.2.] M ] #.#.#.X.V / $.#.#.#.] M ] 2.0.E     ",
"  M 1.:.~ L 5 p a a a p < 7 i p a a p 5 L ~ :.1.M   ",
"  Q ,.) c : + 7 t t t 5 X @ + 7 t t 7 ; : c ) ,.Q   ",
"M &.;.Y : + < < < < < : X @ O + + + + O . : Y ;.&.M ",
"A ,.} a + y x Z Z Z Z t X $ + p M M M M 7 + a } ,.A ",
"6 F V : + < w r r r r 6 O $ + w r r r r 6 + : V F 6 ",
"m ` ^ 6 $ * M S S S S S 4 $ s S S S S M * $ 6 ^ ` m ",
"H r.#.0 k g A T T T T T e = A T T T T A g k 0 #.r.H ",
"G q.| t 2 s V C C C C V 4 h w C V V C N r 2 t | q.G ",
"D 8.| 7 + + + + + + + + % j 6 l l l l l l q i | 8.D ",
"D 8.#.i 7 u u u u u y y , h V R T T T T T S a #.8.D ",
"w W I 5 < 7 7 7 7 7 7 7 & - 0 M M M M M M w 6 I W w ",
"w W I 6 w M M M M M M z , $ 0 M M M M M M w 6 I W w ",
"H r.#.a S T T T T T T V 1 # w K T T T T T S a #.r.H ",
"G r.| i 6 r r r r r w 1 n j v 6 l l l l l q i | r.G ",
"G 8.| 7 O + ; ; ; ; + % n h b 0 C C V V C l p | 8.G ",
"D 8.#.7 : u a a a a u & n h b M T T T T T S a | 8.D ",
"m ` ^ 6 + 6 6 6 6 6 < % n h b : q q q q q 2 7 ^ ` m ",
"6 F V 2 M S S S S S A 3 n h b + : : : : : O : V F 6 ",
"D 8.} p A T T T T T P 9 n h b 5 a a a a u : 7 } 8.D ",
"H r.| t 2 r w w w w q & n h b : 6 6 6 6 6 , 7 | r.H ",
"G 8.| t 1 w S F F F S w - $ 8 V F F F S r 9 i | 8.G ",
"D 8.| 0 d f V T T T T P 9 $ M T T T T V f d 0 | 8.D ",
"C :.] 7 X & s M M M M l 1 - r M M M M s & X 7 ] :.C ",
"2 A M > 5 7 7 7 7 7 7 < X $ 0 M M M M M M w < M A 2 ",
"N -._ 7 7 u u u u u u 5 X $ V R T T T T T S p _ -.N ",
"H r.| 7 O + + + + + + + X $ 6 r r r r r r 6 i | r.H ",
"A 8.} p l A C C C C C V 1 @ O ; ; ; ; ; ; O 7 } 8.A ",
"0 U J 6 l A C C C C C V 1 @ + 7 t t t t 7 + > J U 0 ",
"o O O o O O O O O O O O . . . O O O O O O . . O O o "
};
