/* XPM */
static char *result[] = {
/* columns rows colors chars-per-pixel */
"27 32 111 2 ",
"   c #6E5967",
".  c #6D5B69",
"X  c #715A67",
"o  c #735C69",
"O  c #7C5E6B",
"+  c #6C616F",
"@  c #71616F",
"#  c #7C636F",
"$  c #676675",
"%  c #6B6674",
"&  c #676C7B",
"*  c #6D6D7B",
"=  c #7E6371",
"-  c #706877",
";  c #7D6A76",
":  c #815F6D",
">  c #84616E",
",  c #89636F",
"<  c #856271",
"1  c #8C6471",
"2  c #846876",
"3  c #8E6D74",
"4  c #926672",
"5  c #986774",
"6  c #966973",
"7  c #9B6A76",
"8  c #82727D",
"9  c #927277",
"0  c #9C7076",
"q  c #947679",
"w  c #9B7579",
"e  c #9D797C",
"r  c #A16C77",
"t  c #A46C78",
"y  c #A96E7A",
"u  c #A17077",
"i  c #A57379",
"p  c #AC727B",
"a  c #A27C7E",
"s  c #A9787C",
"d  c #B1727C",
"f  c #BE7B7F",
"g  c #C0777E",
"h  c #6D7483",
"j  c #6C7887",
"k  c #6C7988",
"l  c #747582",
"z  c #707886",
"x  c #737B88",
"c  c #827681",
"v  c #72818E",
"b  c #A68180",
"n  c #AC8482",
"m  c #A68887",
"M  c #AE8986",
"N  c #B58784",
"B  c #BB8383",
"V  c #B18C87",
"C  c #BB8B87",
"Z  c #B38E89",
"A  c #B88F89",
"S  c #B2928C",
"D  c #BA938C",
"F  c #BF988F",
"G  c #B19790",
"H  c #B29B95",
"J  c #BA9A93",
"K  c #CB8283",
"L  c #CF8988",
"P  c #D88687",
"I  c #CB978F",
"U  c #D2928D",
"Y  c #DF938E",
"T  c #C49C94",
"R  c #DC9A92",
"E  c #E49C94",
"W  c #CDA195",
"Q  c #D1A597",
"!  c #DAA296",
"~  c #D6A698",
"^  c #D6AB9C",
"/  c #DBAD9C",
"(  c #DEB19E",
")  c #E3A296",
"_  c #E4AA9B",
"`  c #EFAA9B",
"'  c #E0B29F",
"]  c #EBB09F",
"[  c #F1B09F",
"{  c #DEB5A2",
"}  c #DEBAA7",
"|  c #DEBCA9",
" . c #E0B3A0",
".. c #EEB3A0",
"X. c #E7BAA5",
"o. c #EABBA5",
"O. c #E0BDAA",
"+. c #F2B5A2",
"@. c #F5BBA5",
"#. c #F8BEA7",
"$. c #F9BFA8",
"%. c #DEC1AD",
"&. c #F5C4AA",
"*. c #FAC3AA",
"=. c #FCCAAE",
"-. c #F6CAB0",
";. c #FECEB1",
":. c #F6D0B6",
">. c #FDD2B5",
",. c #FBD4B8",
"<. c None",
/* pixels */
"<.<.<.<.<.q a 9 Z S G H V 3 V S G H H M 3 n <.<.<.<.<.",
"<.<.<.9 J X.( T ;.;.;.,.&.Z &.;.;.>.>.&.A &.^ m <.<.<.",
"<.<.e } >.=.! C #.#.#.#.+.n +.#.#.#.#...n @.>.:.T <.<.",
"<.<.W >.#.E g 1 i u 0 7 7 1 0 u u u 0 7 4 P ` =.-.b <.",
"<.a #.=.E p o 4 1                   o 6 : > K [ =.~ <.",
"o Q =.+.f o : : o             o       O o   , Y =.&.b ",
"o ( ;.) , 1 y t o                       1 5 O d #.=.Z ",
"X b D p o : 4 1                         < 4 o 1 N D 3 ",
"o W o.U = - 5 y 1                     : y < * 0 _ o.m ",
"o %.;.) 8 l 7 d 4                     1 p 2 x i #.>.H ",
"@ | ;.) : 4 r r <                     O 7 7 # i #.>.S ",
"o } =.) : o o o                       1 6 6 , i *.;.S ",
"o ' ;.) 4 u y 7 o                   o y p d t p *.>.S ",
"X D Q B > 6 7 4 o                   o 4 7 6 1 6 I W w ",
"X A Q B > 6 5 O                         O 6 , 6 I Q w ",
"@ O.;.) 6 p d ,   .                 .   > d t p #.>.G ",
"o %.=.) : 4 4 O - z       X         h * o 4 : i #.;.G ",
"@ O.=.) O o O   $ k                 h &   1 5 p #.;.G ",
"o ' =.) O 5 t   $ k                 h &   5 u p *.;.Z ",
"o W o.U : : 1 o $ k                 h &   O # 7 _ X.b ",
"X b D s < t t : $ k                 h & X : o 1 N D 3 ",
"@ ' =.) 4 y y 1 $ k                 l & : y O u #.;.S ",
"@ %.;.) : 1 1 o $ k                 h & o 1 O r #.>.H ",
"o O.=.) < 1 t < + %                 % % 7 7 = y &.;.G ",
"@ ' ;.) 8 x 7 ,               X       o r 2 x s #.;.S ",
"o / =.R # + 4 #                         1 < % i @.&.N ",
"X a Z s : 6 6 4 X                     O 5 7 , , n Z 3 ",
"o ~ &.R 1 t y 7 o                     1 d d t i +.&.m ",
"@ %.>.) : X O X                       o 4 4 : i &.>.H ",
"o ( =.E , r r :                         o : o y @.;.S ",
"o B U g , 7 r :                       o 5 r : 4 L U 7 ",
"X X X X   X X   X X                             o X   "
};
