/* XPM */
static char *b7a84d2bfffe491af64bdfbec4a98217wKnew0OuAiUyhd7m[] = {
/* columns rows colors chars-per-pixel */
"65 65 15 1 ",
"  c None",
". c #584B57",
"X c #3F3851",
"o c #EDA27F",
"O c #FBCA97",
"+ c #FFEAB7",
"@ c #FFFAD6",
"# c #E27F6D",
"$ c #D25654",
"% c #89365C",
"& c #9E3B57",
"* c #AE444E",
"= c #CD7363",
"- c #BF5753",
"; c white",
/* pixels */
" .XXXXXXXXXXXXXXXXXXXXXXXXXXXXXXXXXXXXXXXXXXXXXXXXXXXXXXXXXXXXXX.",
" XoO+@++OoX#oOO+@++O+@+O+OOo#X#oO@+O+OOo#X#oOO+@@+++Oo#XoO++@+OoX",
" XOOOOOOOOX#OOOOOOOOOOOOOOOO#X#OOOOOOOOO#X#OOOOOOOOOOO#XOOOOOOOOX",
" XOOOOOOOOX#OOOOOOOOOOOOOOOO#X#OOOOOOOOO#X#OOOOOOOOOOO#XOOOOOOOOX",
" XOOOOOOOOX#oOOOOOOOOOOOOOOo#X#oOOOOOOOo#X#oOOOOOOOOOo#XOOOOOOOOX",
" XoOOOOOOoX##oOOOOOOOOOOOOo##X##oOOOOOo##X##oOOOOOOOo##XoOOOOOOoX",
" X#oOOOOo#X##################X###########X#############X#oOOOOo#X",
" X########X$################$X$#########$X$###########$X########X",
" X$######$XXXXXXXXXXXXXXXXXXXXXXXXXXXXXXXXXXXXXXXXXXXXXX$######$X",
" XXXXXXXXXXXXXXXXXXXXXXXXXXXXXXXXXXXXXXXXXXXXXXXXXXXXXXXXXXXXXXXX",
" X######$XXXXXXXXX%&***&%X%&***&%X%&***&%X%&***&%XXXXXXXX$######X",
" XoOOo###XX%****%X&*****&X&*****&X&*****&X&*****&X%***%XX###oOOoX",
" XOOOOo##XXXXXXXXXXXXXXXXXXXXXXXXXXXXXXXXXXXXXXXXXXXXXXXX##oOOOOX",
" XOOOOO##XXXX%======*X*====*X*======*X*====*X*=====-%XXXX##OOOO+X",
" X+OOOO##XXXX*=======X======X========X======X=======*XXXX##OOOO+X",
" X+OOOO##XXXX%======*X*====*X*======*X*====*X*=====-%XXXX##OOOOOX",
" X@OOOO##XXXXXXXXXXXXXXXXXXXXXXXXXXXXXXXXXXXXXXXXXXXXXXXX##OOOO+X",
" X@OOOO##XX%**-=*X*======*X*====*X*=====*X*=====*X*-**%XX##OOOO@X",
" X+OOOO##XX***===X========X======X=======X=======X==***XX##OOOO+X",
" XOOOOO##XX%**-=*X*======*X*====*X*=====*X*=====*X*-**%XX##OOOOOX",
" XOOOOo##XXXXXXXXXXXXXXXXXXXXXXXXXXXXXXXXXXXXXXXXXXXXXXXX##oOOOOX",
" XoOOo###XXXX%-====-%XX%***%XX%*****%XXXXXXXX%-====-%XXXX###oOOoX",
" X######$XXXX*======*XXXXXXXXXXXXXXXXXXXXXXXX*======*XXXX$######X",
" XXXXXXXXXXXX%-====-%XXXXXXXXXXXXXXXXXXXXXXXX%-====-%XXXXXXXXXXXX",
" X######$XXXXXXXXXXXXXXXX$#####$XX*=====*XXXXXXXXXXXXXXXX$######X",
" XoOOo###XX%**-=*X*-**%XX#######XX#######XX%***=*X*-**%XX###oOOoX",
" XOOOOo##XX***===X==***XX###oOOOXXOOOo###XX****==X==***XX##oOOOOX",
" XOOOOO##XX%**-=*X*-**%XX##oOOOOXXOOOOo##XX%***=*X*-**%XX##OOOO+X",
" X+OOOO##XXXXXXXXXXXXXXXX##OOOOOXXOOOOO##XXXXXXXXXXXXXXXX##OOOO@X",
" XOOOOO##XXXX%=====-%XXXX##OOOOOXXOOOOO##XXXX%-====-%XXXX##OOOO@X",
" X+OOOO##XXXX*======*XXXX$#OO+@+XX+@+OO#$XXXX*======*XXXX##OOOO+X",
" X+OOOO##XXXX%=====-%XXXXXXXXXXXXXXXXXXXXXXXX%-====-%XXXX##OOOOOX",
" XOOOOO##XXXXXXXXXXXXXXXXXXXXXXXXXXXXXXXXXXXXXXXXXXXXXXXX##OOOO+X",
" X+OOOO##XX%**-=*X-***%XX$#OO+@+XX+@+OO#$XX%**-=*X*-**%XX##OOOO+X",
" X@OOOO##XX***===X=****XX##OOOOOXXOOOOO##XX***===X==***XX##OOOOOX",
" X@OOOO##XX%**-=*X-***%XX##OOOOOXXOOOOO##XX%**-=*X*-**%XX##OOOO+X",
" X+OOOO##XXXXXXXXXXXXXXXX##oOOOOXXOOOOo##XXXXXXXXXXXXXXXX##OOOOOX",
" XOOOOo##XXX%X-====-%XXXX###oOOOXXOOOo###XXXX%-====-%XXXX##oOOOOX",
" XoOOo###XXX*X======*XXXX#######XX#######XXXX*======*XXXX###oOOoX",
" X######$XXX%X-====-%XXXX$#####$XX$#####$XXXX%-====-%XXXX$######X",
" XXXXXXXXXXXXXXXXXXXXXXXXXXXXXXXXXXXXXXXXXXXXXXXXXXXXXXXXXXXXXXXX",
" X######$XX%**-=*XXXXXXXXXXXXXXXXXXXXXXXXXX%**-=*X*-**%XX$######X",
" XoOOo###XX***===XXXXXXXXXXXXXXXXXXXXXXXXXX***===X==***XX###oOOoX",
" XOOOOo##XX%**-=*XXXXXXXXXX%****%X%******%X%**-=*X*-**%XX##oOOOOX",
" XOOOOO##XXXXXXXXXXXXXXXXXXXXXXXXXXXXXXXXXXXXXXXXXXXXXXXX##OOOOOX",
" X+OOOO##XXXX%X-=====*X*====*X*======*X*====*X*====-%XXXX##OOOO+X",
" X@OOOO##XXXX*X=======X======X========X======X======*XXXX##OOOO@X",
" X+OOOO##XXXX%X-=====*X*====*X*======*X*====*X*====-%XXXX##OOOO+X",
" XOOOOO##XXXXXXXXXXXXXXXXXXXXXXXXXXXXXXXXXXXXXXXXXXXXXXXX##OOOOOX",
" X+OOOO##XX%**-=*X*=====*X*=====*X*=====*X*=====*X*-**%XX##OOOO+X",
" X+OOOO##XX***===X=======X=======X=======X=======X==***XX##OOOOOX",
" XOOOOo##XX%**-=*X*=====*X*=====*X*=====*X*=====*X*-**%XX##oOOOOX",
" XoOOo###XXXXXXXXXXXXXXXXXXXXXXXXXXXXXXXXXXXXXXXXXXXXXXXX###oOOoX",
" X######$XXXX%******%XXXXXXXX%******%XXXXXXXX%******%XXXX$######X",
" XXXXXXXXXXXXXXXXXXXXXXXXXXXXXXXXXXXXXXXXXXXXXXXXXXXXXXXXXXXXXXXX",
" X$######$XXXXXXXXXXXXXXXXXXXXXXXXXXXXXXXXXXXXXXXXXXXXXX$######$X",
" X########X$###########$X$#########$X$################$X########X",
" X#oOOOOo#X#############X###########X##################X#oOOOOo#X",
" XoOOOOOOoX##oOOOOOOOo##X##oOOOOOo##X##oOOOOOOOOOOOOo##XoOOOOOOoX",
" XOOOOOOOOX#oOOOOOOOOOo#X#oOOOOOOOo#X#oOOOOOOOOOOOOOOo#XOOOOOOOOX",
" XOOOOOOOOX#OOOOOOOOOOO#X#OOOOOOOOO#X#OOOOOOOOOOOOOOOO#XOOOOOOOOX",
" XOOOOOOOOX#OOOOOOOOOOO#X#OOOOOOOOO#X#OOOOOOOOOOOOOOOO#XOOOOOOOOX",
" XoO+@++OoX#oOO+O+@+OOo#X#oOO+O+@Oo#X#oOO+O+@+O++@+OOo#XoO++@+OoX",
" .XXXXXXXXXXXXXXXXXXXXXXXXXXXXXXXXXXXXXXXXXXXXXXXXXXXXXXXXXXXXXX.",
"                                                                 "
};
