/* XPM */
static char *_6688381d69e4ab0c2f116a59ec8a104cN7O7PSTtNFuT287[] = {
/* columns rows colors chars-per-pixel */
"65 65 9 1 ",
"  c None",
". c #6E5967",
"X c #926475",
"o c #AD707B",
"O c #B77F83",
"+ c #C39490",
"@ c #D1B1A5",
"# c #DCCABE",
"$ c white",
/* pixels */
" ......XooooO++++++++++++++++++o.......XooooO++++++++OooooX......",
" ......ooooo++++++++++++++++++++.......ooooo++++++++++ooooo......",
" .....Xooooo+++++++++o+ooooo++........Xooooo++++++++++oooooX.....",
" Xoooooooooo++++++++++@+@@@++++O.Xoooooooooo++++++++++oooooooooX.",
" ooooooooooo++++++++++++++++++++.ooooooooooo++++++++++oooooooooo.",
" ooooooooooo++++++++++++++++++++.ooooooooooo++++++++++oooooooooo.",
" XooooooooooO++++++++++++++++++o.XooooooooooO++++++++OoooooooooX.",
" ................................................................",
" ooooooooooO+++o.o+++@+@@@@@+++++ooooooooooO+++o.o++++Ooooooooooo",
" oooooooooO+++++.++++++++++++++++oooooooooO+++++.++++++Oooooooooo",
" +++++++++++++++.+++++++++++++++++++++++++++++++.++++++++++++++++",
" +++++++oo+o+....+++++++++++++++++++++++oo+o++...++++++++++++++++",
" ++++++@+@@++++O.++++++++++++++++++++++@+@@++++O.++++++++++++++++",
" +++++++++++++++.+++++++++++++++++++++++++++++++.++++++++++++++++",
" ++++++++++++++o.o+++++++++++++++++++++++++++++o.o+++++++++++++++",
" ................................................................",
" o+++@+@@###@+@@+++++++++++++++o.o+++@+@@###@+@@+++++++++++++++o.",
" +++++++++++++++++++++++++++++++.+++++++++++++++++++++++++++++++.",
" +++++++++++++++++++++++++++++++.+++++++++++++++++++++++++++++++.",
" ++++++++++++++++++++++++++++++O.++++++++++++++++++++++++++++++O.",
" ++++++++++++++++++++++oo+o+.....++++++++++++++++++++++oo+o+.....",
" ++++++++++++++++++++++++@+@@+++.++++++++++++++++++++++++@+@@+++.",
" o+++++++++++++++++++++++++++++o.o+++++++++++++++++++++++++++++o.",
" ................................................................",
" ++++++++++++++o.o+++@+@@@###@@++++++++++++++++o.o+++@+@@@###@@++",
" +++++++++++++++.+++++++++++++++++++++++++++++++.++++++++++++++++",
" oooooooooO+++++.++++++++++++++++++++ooo++o++....++++++++++++++++",
" ooooooooooO++++.+++++++++++++++++++++@+++@@+@+O.++++++++++++++++",
" ooooooooooo++++.+++++++++++++++++++++++++++++++.++++++++++++++++",
" ...Xooooooo++++.+++++++++++++++++++++++++++++++.++++++++++++++++",
" ....XooooooO++o.o+++++++++++++++++++++++++++++o.o+++++++++++++++",
" ................................................................",
" o++++@@@@@++@+++++++++++++++++o.o++++@@@@@++@+++++++OooooX......",
" +++++++++++++++++++++++++++++++.+++++++++++++++++++++ooooo......",
" ++++++++++++++++++++o+ooooo++...+++++++++++++++++++++oooooX.....",
" +++++++++++++++++++++@+@@@++++O.+++++++++++++++++++++oooooooooX.",
" +++++++++++++++++++++++++++++++.+++++++++++++++++++++oooooooooo.",
" +++++++++++++++++++++++++++++++.+++++++++++++++++++++oooooooooo.",
" o+++++++++++++++++++++++++++++o.o+++++++++++++++++++OoooooooooX.",
" ................................................................",
" @@@+++++++++++o.o+++@+@@@@@+++++@@@+++++++++++o.o++++Ooooooooooo",
" +++++++++++++++.+++++++++++++++++++++++++++++++.++++++Oooooooooo",
" +++++++oo+o++...+++++++++++++++++++++++oo+o++...++++++++++++++++",
" ++++++@+@@++++O.++++++++++++++++++++++@+@@++++O.++++++++++++++++",
" +++++++++++++++.+++++++++++++++++++++++++++++++.++++++++++++++++",
" +++++++++++++++.+++++++++++++++++++++++++++++++.++++++++++++++++",
" ++++++++++++++o.o+++++++++++++++++++++++++++++o.o+++++++++++++++",
" ................................................................",
" o+++@+@@###@+@@+++++++++++++++o.o+++@+@@###@+@@+++++++++++++++o.",
" +++++++++++++++++++++++++++++++.+++++++++++++++++++++++++++++++.",
" +++++++++++++++++++++++++++++++.+++++++++++++++++++++++++++++++.",
" ++++++++++++++++++++++++++++++O.++++++++++++++++++++++++++++++O.",
" ++++++++++++++++++++++oo+o+.....++++++++++++++++++++++oo+o+.....",
" ++++++++++++++++++++++++@+@@+++.++++++++++++++++++++++++@+@@+++.",
" o+++++++++++++++++++++++++++++o.o+++++++++++++++++++++++++++++o.",
" ................................................................",
" ++++++++++++++o.o+++@+@@@###@@++++++++++++++++o.o+++@+@@@###@@++",
" +++++++++++++++.+++++++++++++++++++++++++++++++.++++++++++++++++",
" oooooooooO+++++.++++++Oooooooooo++++ooo++o++....++++++Oooooooooo",
" ooooooooooO++++.+++++Ooooooooooo+++++@+++@@+@+O.+++++Ooooooooooo",
" ooooooooooo++++.+++++ooooooooooo+++++++++++++++.+++++ooooooooooo",
" ...Xooooooo++++.+++++oooooooX...+++++++++++++++.+++++oooooooX...",
" ....XooooooO++o.o+++OooooooX....++++++++++++++o.o+++OooooooX....",
"                                                                 ",
"                                                                 "
};
