/* XPM */
static char *_2b6fbda64db400ab446cb0e52490107ViCRKcWpcj9mEpuV[] = {
/* columns rows colors chars-per-pixel */
"32 32 142 2 ",
"   c None",
".  c #6D5867",
"X  c #6F5968",
"o  c #765C6A",
"O  c #7A5D6B",
"+  c #815F6D",
"@  c #82606E",
"#  c #88626F",
"$  c #876170",
"%  c #8D6471",
"&  c #866A73",
"*  c #8D6C75",
"=  c #926673",
"-  c #936E76",
";  c #9A6975",
":  c #937077",
">  c #957279",
",  c #9A757B",
"<  c #9E7A7E",
"1  c #A56D79",
"2  c #AB6F7A",
"3  c #AD717C",
"4  c #A17B7F",
"5  c #AE797F",
"6  c #B0747E",
"7  c #9E7D80",
"8  c #A27E81",
"9  c #AA7D81",
"0  c #B47C82",
"q  c #A38284",
"w  c #AC8384",
"e  c #A68788",
"r  c #A6898B",
"t  c #AA8A8A",
"y  c #B38486",
"u  c #B98487",
"i  c #B78788",
"p  c #B68788",
"a  c #BB8688",
"s  c #B38988",
"d  c #B38989",
"f  c #B38C8B",
"g  c #B78C8A",
"h  c #B48A89",
"j  c #BA8989",
"k  c #BB898A",
"l  c #B98B8A",
"z  c #BB8B8A",
"x  c #BD8A8B",
"c  c #BD8B8B",
"v  c #BB8C8B",
"b  c #BC8C8B",
"n  c #BD8C8B",
"m  c #BE8C8B",
"M  c #BA8E8C",
"N  c #BB8E8C",
"B  c #BE8D8C",
"V  c #BC8E8C",
"C  c #BC8F8C",
"Z  c #BC8F8D",
"A  c #BD8F8D",
"S  c #BF8E8C",
"D  c #BE8E8D",
"F  c #BF8E8D",
"G  c #BE8F8D",
"H  c #BF8F8D",
"J  c #BC8D8C",
"K  c #B9928F",
"L  c #BD908D",
"P  c #BE908D",
"I  c #BE918E",
"U  c #BF918E",
"Y  c #BD938F",
"T  c #BF928E",
"R  c #BE918E",
"E  c #AA9090",
"W  c #BD9490",
"Q  c #BF9490",
"!  c #BE9691",
"~  c #BE9692",
"^  c #C08E8D",
"/  c #C08F8D",
"(  c #C18F8E",
")  c #C08F8D",
"_  c #C0908E",
"`  c #C1908E",
"'  c #C1918E",
"]  c #C0908F",
"[  c #C1918F",
"{  c #C0928E",
"}  c #C0928F",
"|  c #C1928F",
" . c #C0938F",
".. c #C1938F",
"X. c #C2928F",
"o. c #C2938F",
"O. c #C3938F",
"+. c #C1928F",
"@. c #C09190",
"#. c #C19390",
"$. c #C29390",
"%. c #C39390",
"&. c #C19490",
"*. c #C09591",
"=. c #C19591",
"-. c #C29490",
";. c #C39490",
":. c #C39590",
">. c #C29491",
",. c #C29591",
"<. c #C39591",
"1. c #C09691",
"2. c #C29691",
"3. c #C09692",
"4. c #C19692",
"5. c #C19792",
"6. c #C19793",
"7. c #C29792",
"8. c #C39793",
"9. c #C49490",
"0. c #C49590",
"q. c #C49591",
"w. c #C59591",
"e. c #C49692",
"r. c #C49792",
"t. c #C49793",
"y. c #C39490",
"u. c #C29893",
"i. c #C59893",
"p. c #C09994",
"a. c #C39A95",
"s. c #C59994",
"d. c #C49A94",
"f. c #C59A95",
"g. c #C59B95",
"h. c #C49C96",
"j. c #C59994",
"k. c #C59D98",
"l. c #C49E99",
"z. c #C79E98",
"x. c #C5A09B",
"c. c #C6A19B",
/* pixels */
". . . % 3 6 / ;.;.;.X.X.Z X.X., . . X ; 3 0 X.;.;.;.u 3 1 o . . ",
"$ % = 1 3 6 X.;.;.;.X.X.@.Z N : @ % = 2 2 0 ;.;.;.;.u 3 3 ; % O ",
"2 3 3 3 3 6 X.r.r.r.r.r.i.r.r.w ; 6 3 3 2 0 ;.r.r.r.u 3 3 3 3 % ",
"% = = = = = < < , 4 8 8 q q 8 - % = = = = - 4 , < 4 , = = = = @ ",
"3 3 3 3 3 y Z 9 , Z U ~ p.~ N N 9 3 3 3 5 i Z , 9 Z j 5 3 3 3 3 ",
"X.X.X.X.x / w > q r.;.;.;.;.;.;.X.X.X./ x / g : s r.;.X.X.X.X.X.",
";.;.;.r.i.r.U 9 8 r.;.;.;.;.;.;.;.;.;.r.d.;.X., y r.;.@.;.;.;.r.",
", < 8 8 q e 8 , - < < < < < < , , < 8 8 q q 8 : > 4 < < < < < > ",
"i Z ~ ;.l.c.;.;.U U U U U U U 8 8 U ~ ;.c.l.;.;.U U U U U U U , ",
"r.;.;.;.X.X.;.;.;.;.;./ X.Z s < w r.;.;.X.X.;.;.;.;.;./ X.N y : ",
"Z X.@.X.X.X.X.;.;.@.X.n X.~ w > w ;.X.X.X.X.@.;.;.X.X.n @.K w * ",
", < < < < < < , > < 8 q q r e > : < < < < < < > , < 8 q q r q - ",
"j j j j j Z X.w 4 X.;.;.h.c.h.;.U U j v Z Z y > w X.;.u.l.c.p.X.",
"3 3 3 3 3 0 r.s q r.;.;.@.X.@.;.;.;.X.X.;.d.f > s r.;.;.X.X.;.;.",
"O + ; 2 2 3 Z w 4 X.X.X.X.X.X.X.X.X.X.X.X.@.;.4 w X.X.X.X.@.;.;.",
"@ & * , < , < > : < < < < < < > > < 7 q q 7 7 : > < , , - & & & ",
"n X.;.d.d.;.;.@.X.X.Z n j n N > 8 X.;.d.d.;.;.X.X.X.y 2 1 o . . ",
"r.;.;.;.;.;.;.;.;.;.@.;.;.X.U , w r.;.;.;.;.;.;.;.r.u 3 3 1 ; @ ",
"j U U U U U U X.X.U U X.X.X.X.8 8 X.U U U U U X.X.U y 2 2 2 2 % ",
"7 q < < < < < > - < 8 q q q < > < q < < < < < - > < , = = = = # ",
"d.d.;.X.n Z U , 4 ;.;.i.d.i.X.;.i.u.@.X.Z / v : w ;.X.y 0 0 0 0 ",
";.;.;.i.r.r.X.4 q r.;.;.;.;.;.;.;.;.r.r.d.;.Z , s r.;.;.;.;.;.;.",
"U U U U U U U w < U U U U U U U U U U U U U U 4 w U U U U U U U ",
", < 8 q r r q 7 > < < < < < < : - < 8 q r r q < , < < < < < < * ",
"Z X.r.r.h.l.r.i.;.;.;.;.;.;.r.w w r.r.i.l.h.r.i.;.;.;.;.;.;.r., ",
"r.;.;.;.;.;.;.;.;.;.;.Z / N w > w r.;.;.;.;.;.;.;.;.@.x / g q * ",
"y v N N N N N Z Z N N j U K t , 4 Z N N N N N Z Z N N j U K w * ",
"< 4 8 8 8 4 4 > - 4 q e r E r < , 4 4 4 4 4 4 - > 8 q e r E e < ",
"u u u u u / r.y 8 r.r./ x Z x a X.;.x Z X.X.w - y r.r.Z x Z x a ",
"1 1 2 2 2 0 @.s q r./ 6 2 2 2 1 j ;.@.@.r.d.U < s r.x 3 2 2 2 1 ",
"o o = 3 3 6 / w 4 r.x 3 3 2 % o w r.;.;.;.;.r.4 w r.u 2 3 1 @ o ",
"                                                                "
};
