/* XPM */
static char *_8009769f7d44433d6ba8bb0e5feff39hYqVATryl6bNrm7y[] = {
/* columns rows colors chars-per-pixel */
"43 45 11 1 ",
"  c black",
". c #1B1B1B",
"X c None",
"o c #131313",
"O c #1E6F50",
"+ c #33984B",
"@ c #391F21",
"# c #134C4C",
"$ c #5D2C28",
"% c #8A4836",
"& c white",
/* pixels */
"        oo   ooo  oo  o     o   oo         ",
"     o oOOoooOOOooOOooOo  ooOoooOOo o      ",
"    oOoOOOOOOOOOOOOOOOOOooOO+OOOOOOoOo     ",
"    oOO+OO+++OO++O+OO++OOO++++++OO+OOo     ",
"   oOO+++O++++++++++O+++++++++++O+++OOo    ",
"  oO+O++++++++++++++++++++++++++++++O+Oo   ",
" oOOO++++++++++++++++++++++++++++++++OOOo  ",
"  oO++++++++++++++++++++++++++++++++++Oo   ",
"  oOO++++++++++++++++++++++++++++++++OOo   ",
" @OOO++++++++++++++++++++++++++++++++OOO@  ",
".@#OOO++++++++++++++++++++++++++++++OOO#@. ",
".@$#O++++++++++++++++++++++++++++++++O#$@. ",
".@$$#O++++++++++++++++++++++++++++++O#$$@. ",
".###O++++++++++++++++++++++++++++++++O###. ",
".@#O++++++++++++++++++++++++++++++++++O#@. ",
".@$#++++++++++++++++++++++++++++++++++#$@. ",
".@%#O++++++++++++++++++++++++++++++++O#%@. ",
".@%#OO++++++++++++++++++++++++++++++OO#%@. ",
".@%#O++++++++++++++++++++++++++++++++O#%@. ",
"@$$#++++++++++++++++++++++++++++++++++#$$@.",
"@%$#O++++++++++++++++++++++++++++++++O#$%@.",
"@%$$#O++++++++++++++++++++++++++++++O#$$%@.",
"@%%$#O++++++++++++++++++++++++++++++O#$%%@.",
"@%%$#++++++++++++++++++++++++++++++++#$%%@.",
".@%$#++++++++++++++++++++++++++++++++#$%@..",
".@%#O++++++++++++++++++++++++++++++++O#%@..",
".@%#O++++++++++++++++++++++++++++++++O#%@..",
".@%$#++++++++++++++++++++++++++++++++#$%@..",
".@$$#O++++++++++++++++++++++++++++++O#$$@..",
".@$$#++++++++++++++++++++++++++++++++#$$@..",
".@%%#++++++++++++++++++++++++++++++++#%%@..",
".@%#OO++++++++++++++++++++++++++++++OO#%@..",
".@%%#OO++++++++++++++++++++++++++++OO#%%@..",
".@%%$##O+#+++O++++++++++++++++++#+O##$%%@..",
".@$%$#$##$#+OO#O+O+OO+++O++O+O+#$##$#$%$@..",
".@$$$%$#$$#O##$#O###OO+##+####O#$$#$%$$$@. ",
"..@$%%$$$$##$$$$#$$$#O#$$#$$$$##$$$$%%$@.  ",
"..@$%%%$%$$$$%$$$$$$$#$$$$$%$$$$$%$%%%$@.  ",
"..@%%%%%%$%$$%%%$%%$%$$%%$%%%$$%$%%%%%%@.  ",
"...@%%%%%%%%%%%%%%%%%%%%%%%%%%%%%%%%$%@.   ",
" ...@$%$%$%%%%%%%%$%%%%%%$%%%%%$%%%$$@..   ",
"  ...@$$%$$%%%%%%%$$%%%%$$%%%%%$$$%$@...   ",
"   ...@@@@$%%@@@%$$$$%%%$$@@@%%$@@@@...    ",
"    ......@@@XXX@@@@@@@@@@XXX@@@......     ",
"     ...........XXXXXXXXXX...........      "
};
