/* XPM */
static char *result[] = {
/* columns rows colors chars-per-pixel */
"32 32 78 1 ",
"  c #1E1E32",
". c #202036",
"X c #22243B",
"o c #27293E",
"O c #252A44",
"+ c #292D44",
"@ c #272D49",
"# c #282E49",
"$ c #2C314C",
"% c #2E3552",
"& c #303754",
"* c #323954",
"= c #343D5C",
"- c #363F60",
"; c #3A425C",
": c #374061",
"> c #3B4464",
", c #3E4867",
"< c #3B4668",
"1 c #3E496A",
"2 c #434B64",
"3 c #484F66",
"4 c #424D6D",
"5 c #45506D",
"6 c #4B5168",
"7 c #434E70",
"8 c #465272",
"9 c #495575",
"0 c #4D5977",
"q c #4E5B7A",
"w c #535C75",
"e c #515F7D",
"r c #52607F",
"t c #60677D",
"y c #60687D",
"u c #546282",
"i c #586786",
"p c #5A6887",
"a c #5B6A89",
"s c #687085",
"d c #6E7C95",
"f c #707E97",
"g c #7C869C",
"h c #7D8AA1",
"j c #80889D",
"k c #818EA6",
"l c #8290A8",
"z c #8C96AA",
"x c #8D98AD",
"c c #929CB1",
"v c #9CA6B9",
"b c #99A8BF",
"n c #99A8C0",
"m c #A4AEC1",
"M c #A4B1C5",
"N c #ABB3C3",
"B c #A6B4C9",
"V c #A9B6CA",
"C c #AEB8C9",
"Z c #B4C1D4",
"A c #B9C4D6",
"S c #BFC9D7",
"D c #BAC6D9",
"F c #BECADC",
"G c #C3C9D4",
"H c #C1CCDC",
"J c #C7D0DD",
"K c #CAD2DD",
"L c #D4D7DC",
"P c #D6D9DE",
"I c #DBDCDF",
"U c #C5D0E1",
"Y c #CED5E1",
"T c #D3D9E3",
"R c #DADCE0",
"E c #E0DFE0",
"W c #E3E2E1",
"Q c #EBE6E1",
/* pixels */
"FKEQQWKFHJEQQEYFFKWRKFFHHHUYEEKF",
"FKPEWRSAHLEQWLSZZHEWPHHFAZCHPRJF",
"HHKYYSBVLWQWPGBnbCLQWRKABnnBGJHH",
"ZAFAmxgzGWWPHmhddzGQQPHMhffkMDHU",
"nBDNs2;rNTTHVkw;=yNTTHVlw;;wkVDU",
"fhcj2OO3gvvchp;OO2gbvcha;OO;ahcv",
">232-==;26632;==*;36332;=====233",
"oO+%-<<=%@OOO$>78>%@+OO#-<<-&###",
"O@%-:<<---=%@%8uu0<==&+$=<<--===",
"O+*-><<<171<%=eaau1:-%OO&><<<>--",
"OO#%:<>1uuu9:<eaau7=%O  O%-<<-%@",
"*%$%*:19uaau99quuu8,;$+oO+%*==&&",
"q8>*$=9uiaaiuu9717quq053$X..O&7e",
"ai9>#*eaaiiaiu<-<9uaaaar2$. #2ea",
"aau8&*waaaaaiq=*9uiaaaaie2$$2eia",
"aaaq&%5uiaaaaq*=qaaiaaaaae==eaaa",
"aaa0&$>9iaaaau,,uaaaiaaaau>2uaaa",
"euae>&*>9uuiu9>>9uiaaaauu9<<8qeu",
"19uir5&&<1111<%%<9uaiaau9>%$&=17",
"19raae<*=:=:1,;*:19quuu0<=*****=",
"uuiaaie5*@@*9uq91-==148<%*5qq4*+",
"uuiaaau9=$%<eaau9:+o*==**;raar;*",
"19uaau9,;>5ruaaau4o O$#*5riaair0",
">10uu9<::8uaaaaaa0+ +**;0uiaaaaa",
"<<118<&%=8uaaaaaa0$+2e0989uaaaaa",
">>1111%%=,9uuuuau0;>eaau97quaaaa",
":1quu9<&$&<119uu989eiaaauq98uaaa",
"19uaai8>$$>518u9>,eaaaaaaq<<9uuq",
"uuiaaii8$&5uuq8>%=eaaaaaae=%<774",
"aaaiaaa9**qaau9>$%5uiaauu5*#*=:<",
"iaiaaaaq*&0aaau5*$>9uaau9>$O@%-<",
"aiaaaaaq**0aaaa0*#=4raar4=#OO$=<"
};
