/* XPM */
static char *result[] = {
/* columns rows colors chars-per-pixel */
"32 32 150 2 ",
"   c #272C45",
".  c #252942",
"X  c #22243B",
"o  c #1D1D32",
"O  c #191629",
"+  c #211827",
"@  c #35222D",
"#  c #402831",
"$  c #412832",
"%  c #36232E",
"&  c #191628",
"*  c #1E1D32",
"=  c #22243A",
"-  c #23263D",
";  c #24253B",
":  c #272438",
">  c #241E31",
",  c #1B1728",
"<  c #1F1829",
"1  c #302332",
"2  c #392734",
"3  c #372430",
"4  c #2E1F2C",
"5  c #20192A",
"6  c #1B1A2D",
"7  c #202036",
"8  c #23243B",
"9  c #23253C",
"0  c #272337",
"q  c #1B192D",
"w  c #231D2E",
"e  c #312331",
"r  c #30212F",
"t  c #1F1727",
"y  c #1C192B",
"u  c #27253A",
"i  c #2A273B",
"p  c #241D2E",
"a  c #201929",
"s  c #1F1C2F",
"d  c #202137",
"f  c #24273F",
"g  c #1B192C",
"h  c #171323",
"j  c #201828",
"k  c #312332",
"l  c #342533",
"z  c #271C2B",
"x  c #211C2D",
"c  c #212238",
"v  c #1F2238",
"b  c #1B1A2E",
"n  c #1D192C",
"m  c #252032",
"M  c #282438",
"N  c #24253C",
"B  c #202238",
"V  c #1C1A2E",
"C  c #191527",
"Z  c #171324",
"A  c #201928",
"S  c #322432",
"D  c #1C1A2D",
"F  c #1A1628",
"G  c #272539",
"H  c #2F293C",
"J  c #2F202D",
"K  c #211B2D",
"L  c #1A1A2E",
"P  c #1C1C31",
"I  c #252033",
"U  c #332433",
"Y  c #221C2E",
"T  c #1D1D31",
"R  c #1D1B2F",
"E  c #1D1C31",
"W  c #1F1E32",
"Q  c #1A1729",
"!  c #392835",
"~  c #38232E",
"^  c #251A28",
"/  c #1D192B",
"(  c #31202C",
")  c #261A28",
"_  c #211A2B",
"`  c #211F34",
"'  c #1F1F34",
"]  c #1C192C",
"[  c #211F33",
"{  c #212138",
"}  c #1F1E33",
"|  c #3B252F",
" . c #2E1F2B",
".. c #271F30",
"X. c #25263C",
"o. c #221D2E",
"O. c #271B28",
"+. c #312230",
"@. c #262135",
"#. c #23243C",
"$. c #2E1F2D",
"%. c #35222E",
"&. c #34212D",
"*. c #312432",
"=. c #2E293C",
"-. c #1B192B",
";. c #332635",
":. c #282539",
">. c #252A42",
",. c #23273E",
"<. c #202136",
"1. c #1E1C2F",
"2. c #281B29",
"3. c #3C2731",
"4. c #3B2835",
"5. c #1F1828",
"6. c #1B1628",
"7. c #282439",
"8. c #26283F",
"9. c #241F31",
"0. c #1E1829",
"q. c #1F2036",
"w. c #22243C",
"e. c #1E1727",
"r. c #241D2D",
"t. c #23273F",
"y. c #322331",
"u. c #22253D",
"i. c #1C1B2E",
"p. c #2A263A",
"a. c #37232E",
"s. c #362430",
"d. c #3A252F",
"f. c #2F1F2B",
"g. c #26263C",
"h. c #261B28",
"j. c #262235",
"k. c #302230",
"l. c #222238",
"z. c #1E1E33",
"x. c #3B2530",
"c. c #33212D",
"v. c #2C2232",
"b. c #28293F",
"n. c #22263D",
"m. c #19192C",
"M. c #392633",
"N. c #292336",
"B. c #382633",
"V. c white",
/* pixels */
"  . X o O + @ # $ % + & * = .     . X o O + @ # $ % + & * X .   ",
"- ; : > , < 1 2 3 4 5 6 7 8 9 - - ; 0 > , < 1 2 3 4 5 6 7 8 9 9 ",
"q w e r t y u i p a s d f - * g g w e r t y u i p a s d f 9 * g ",
"h j k l z x c v b n m M N B V C Z A S l z x c v b n m M N B D F ",
"h y G H l J K L P I U e Y b T R C y u H l J K L P I U e Y b E W ",
"Q V v i ! ~ ^ / 7 : k ( ) _ ` ' ] b v i ! ~ ^ / 7 : k ( ) _ [ { ",
"} E b p 3 |  ...X.9 o.O.( +.@.7 ' E b p 3 |  ...X.9 o.O.( +.@.d ",
"#.d 6 5 $.%.&.*.=.u -.t r ;.:.X X d 6 5 $.%.&.*.=.u -.t r ;.:.X ",
">.,.<.1.5 2.@ 3.4.k 5.6.> 7.8.>.>.,.7 1.5 2.@ 3.4.k 5.6.> :.8.. ",
"- ; M 9.F 0.1 ! 3 4 5 6 q.w.9 - - ; M 9.F 0.1 ! 3 4 5 6 q.w.9 - ",
"g w e r e.-.u i r.a s d t.- * g g w y.r e.-.u i r.a s d t.u.* g ",
"h j k l z x c v b n m M N B V C Z A S l z x c v b n m M N B D F ",
"h y G H l J K L P I U e Y b T R C y u H l J K L P I U e Y b E W ",
"Q V v i ! ~ ^ / 7 : k ( ) _ ` ' ] b v i ! ~ ^ / 7 : k ( ) _ [ { ",
"} E b p 3 |  ...X.9 o.O.( +.@.7 ' E b p 3 |  ...X.9 o.O.( +.@.d ",
"#.d 6 5 $.%.&.*.=.u -.t r ;.:.X X d 6 5 $.%.&.*.=.u -.t r ;.:.X ",
">.,.<.1.5 2.@ 3.4.k 5.6.> 7.8.>.>.,.7 1.5 2.@ 3.4.k 5.6.> :.8.. ",
"- ; M 9.F 0.1 ! 3 4 5 6 q.w.9 - - ; M 9.F 0.1 ! 3 4 5 6 q.w.9 - ",
"g w e r e.-.u i r.a s d t.- * g g w y.r e.-.u i r.a s d t.u.* g ",
"h j k l z x c v b n m M N B V C Z A S l z x c v b n m M N B D F ",
"h y G H l J K L P I U e Y b T R C y u H l J K L P I U e Y b E W ",
"Q V v i ! ~ ^ / 7 : k ( ) _ ` ' ] b v i ! ~ ^ / 7 : k ( ) _ [ { ",
"} E b p 3 |  ...X.9 o.O.( +.@.7 ' E b p 3 |  ...X.9 o.O.( +.@.d ",
"#.d 6 5 $.%.&.*.=.u -.t r ;.:.X X d 6 5 $.%.&.*.=.u -.t r ;.:.X ",
">.,.<.1.5 2.@ 3.4.k 5.6.> 7.8.>.>.,.7 1.5 2.@ 3.4.k 5.6.> :.8.. ",
"- ; M 9.F 0.1 ! 3 4 5 6 q.w.9 - - ; M 9.F 0.1 ! 3 4 5 6 q.w.9 - ",
"g w e r e.-.u i r.a s d t.- * g g w y.r e.-.u i r.a s d t.u.* g ",
"h j k l z x c v b n m M N B V C Z A S l z x c v b n m M N B D F ",
"h y G H l J K L P I U e Y b T R C y u H l J K L P I U e Y b E W ",
"Q i.v p.! a.) / 7 : e ( ) _ ` ' D V v p.! a.) / 7 : e ( ) _ ` c ",
"} T b p s.d.f...g.N Y h.( +.j.7 ' T b p s.d.f...g.N Y h.( k.j.{ ",
"l.z.O + %.x.c.v.b.n.m.+ % M.N.{ c z.& + %.x.c.v.b.n.m.+ % B.N.d "
};
