/* XPM */
static char *_302933598d54c928ee54061b1a6b925WqdpEVqQ33z2Gj5w[] = {
/* columns rows colors chars-per-pixel */
"32 32 179 2 ",
"   c None",
".  c #3C3651",
"X  c #3E3851",
"o  c #433751",
"O  c #4B3752",
"+  c #433951",
"@  c #4B3B52",
"#  c #533753",
"$  c #583752",
"%  c #553C53",
"&  c #5B3C53",
"*  c #693B4F",
"=  c #713D4F",
"-  c #623754",
";  c #643A52",
":  c #6B3C52",
">  c #733C51",
",  c #7B3C51",
"<  c #564355",
"1  c #5C4455",
"2  c #50485A",
"3  c #5E4D59",
"4  c #634455",
"5  c #6D4454",
"6  c #654857",
"7  c #684857",
"8  c #654C5A",
"9  c #6E4E5A",
"0  c #734553",
"q  c #7A4754",
"w  c #744955",
"e  c #7D4955",
"r  c #744F5A",
"t  c #7C4E59",
"y  c #66535D",
"u  c #69555E",
"i  c #7D585E",
"p  c #7C555C",
"a  c #6A5760",
"s  c #6B5B63",
"d  c #685F69",
"f  c #675B64",
"g  c #765D62",
"h  c #7A5B60",
"j  c #6B6067",
"k  c #6C626A",
"l  c #7B6466",
"z  c #776668",
"x  c #776366",
"c  c #6C6670",
"v  c #796E72",
"b  c #843D52",
"n  c #8B3E51",
"m  c #93414E",
"M  c #824555",
"N  c #8B4251",
"B  c #854D56",
"V  c #8B4C56",
"C  c #824E58",
"Z  c #934451",
"A  c #9C4651",
"S  c #934B54",
"D  c #9B4C53",
"F  c #964F58",
"G  c #984F58",
"H  c #8B5057",
"J  c #85555C",
"K  c #8B5359",
"L  c #825A5F",
"P  c #925257",
"I  c #945559",
"U  c #9A5559",
"Y  c #97595B",
"T  c #9B5C5C",
"R  c #995357",
"E  c #A24E53",
"W  c #A3575A",
"Q  c #A45D5B",
"!  c #AA5E5B",
"~  c #A3615D",
"^  c #AC625D",
"/  c #B1655E",
"(  c #B4685F",
")  c #915D60",
"_  c #896062",
"`  c #9D6262",
"'  c #996E69",
"]  c #96776F",
"[  c #9D746C",
"{  c #9D7D71",
"}  c #A66160",
"|  c #AA6361",
" . c #A26C67",
".. c #AD6965",
"X. c #A26F69",
"o. c #AA6F69",
"O. c #B46961",
"+. c #BC6C65",
"@. c #B46662",
"#. c #A0766E",
"$. c #AC726A",
"%. c #A4796F",
"&. c #B3746A",
"*. c #B47A6E",
"=. c #B9796D",
"-. c #A67F72",
";. c #C26E65",
":. c #C67167",
">. c #C0776B",
",. c #CB7669",
"<. c #C07D6F",
"1. c #CC7A6C",
"2. c #D07367",
"3. c #D67B6B",
"4. c #AA8374",
"5. c #AB8D7B",
"6. c #AA8977",
"7. c #AB917F",
"8. c #DC816E",
"9. c #D2816F",
"0. c #C48271",
"q. c #C08F79",
"w. c #D98771",
"e. c #DA8973",
"r. c #CD9179",
"t. c #DD997C",
"y. c #D4967C",
"u. c #E1806D",
"i. c #E38671",
"p. c #E48C75",
"a. c #EC8F75",
"s. c #E39177",
"d. c #ED9377",
"f. c #EC9679",
"g. c #ED9C7D",
"h. c #E69479",
"j. c #EFA07F",
"k. c #9E8D81",
"l. c #AB9482",
"z. c #AD9987",
"x. c #AC9B8B",
"c. c #AC9F91",
"v. c #C69E82",
"b. c #C6A386",
"n. c #C4A58A",
"m. c #D4A686",
"M. c #DCA483",
"N. c #DDB28B",
"B. c #C7AE93",
"V. c #E2A181",
"C. c #ECA281",
"Z. c #ECAC86",
"A. c #E1AE88",
"S. c #F0A280",
"D. c #F3AB85",
"F. c #E5B58D",
"G. c #EFB089",
"H. c #E6B98F",
"J. c #F5B48A",
"K. c #F7B98D",
"L. c #F9BC8F",
"P. c #E6BD93",
"I. c #F9BE90",
"U. c #E7C197",
"Y. c #E6C49B",
"T. c #E8C59B",
"R. c #F9C091",
"E. c #F9C192",
"W. c #FBC393",
"Q. c #FDCA96",
"!. c #FDCC98",
"~. c #FECF9A",
"^. c #FDCC98",
"/. c #FFD09B",
"(. c #FED19D",
"). c #FED29F",
"_. c #FED19D",
"`. c #E6C9A3",
"'. c #FCD3A1",
/* pixels */
"3 { x.z.] i 4.l.x.l.x.l.5.%.r #.z.l.5.[ r %.7.c.z.l.' h 5.x.l.l ",
"a H.(.(.N.$.W.(.(.!.(.!.!.J.` G.(.!.!.Z.` K.!.(.(./.V.4.!.(.!.6.",
"u A.!.!.m...D.R.R.R.R.R.L.h.` h.L.R.L.s.` g.I.R.R.K.e.%.W.!.W.-.",
"6 9.C.j.1.Y ,.1.1.1.1.1.1.:.K ;.1.1.1.;.K :.1.1.1.1.+.T h.C.f.` ",
"% I ` ` C @ @ @ @ & & & % & & & % & & & O & & & @ @ @ 1 Y ` T w ",
"8 r.t.3.t # : ; # b m n - b m n - n m b - n m b # : ; O +.e.V.' ",
"a P.Q.g.J X 5 T T Y 0 I T C e T T I 0 U T q B T T V O @ 1.K./.l.",
"k Y.!.S.J . 0 ( O.( q ! O.P H O.O.^ q ^ O.B I O.( R O @ 1.R.!.l.",
"c `.!.S.J & N U 0 I T ~ B e T Y 0 Y T Y 0 Y T Y 0 S , % 1.R.(.x.",
"s P.!.g.J : A ! q Q O.O.P V O.^ q ^ O.! q ^ O.Q q E n % 1.I.!.7.",
"y M.D.i.J X : U ~ R & & > & @ : = : @ + + + q Q Q V @ @ :.g.K.%.",
"< ) ` T 4 X : ! ( W & + & 7 6 & O 4 4 1 + o M ^ ( F @ + K ` ` r ",
"8 y.C.8.J ; Z U 0 S N $ } u.p.&.9 w.8.2.4 > Z R 0 S b % ;.s.Z.[ ",
"s P.Q.g.J ; Z Q 0 D Z $ ..g.W.v.x W.K.i.6 > Z U 0 D b % 1.L.(.l.",
"s P.!.S.J . 5 ~ ~ U & X | J.'.n.z '.Q.p.4 X q ~ ~ S @ @ 1.R.(.c.",
"j U.!.S.J . 5 ^ ^ U & X 1 g v d 2 v z 9 @ o M ^ ^ S @ @ 1.R.!.l.",
"k Y.!.S.J ; Z W q Z n $ K 5.B.k.f B.b.&.& > D U 0 D b % 1.R.!.l.",
"c `.!.S.J ; Z W q Z n $ ..J./.b.z !.Q.p.6 > S U 0 D b % 1.R.!.7.",
"a H.R.d.J O : Q ^ W & X ..a.J.q.g J.g.u.6 X M ^ ^ F O @ ,.D.Q.6.",
"1 o.&.O.5 O : U ~ R $ X J ....K 1 | ..| % o q Q ~ V @ + T O.=.L ",
"1 *.0.+.w : A ! 4 X X X X + + + + + + + + , D W q E n % Q >.0._ ",
"a H.W.f.J & N U 4 + + + + & > : % : > > & > S I 0 S , % 1.J.!.6.",
"k Y.!.S.J . & B ( O.P V O.^ q ^ O.( V P O.Q q ^ ( G O @ 1.R.(.z.",
"k Y.!.S.J X & e T ~ B e T Y 0 Y T ~ C B T Y 0 U T V @ @ 1.R.(.l.",
"k Y.!.S.J : A ! q ! O./ q ^ O.^ q ^ O.^ q / O.Q q E n % 1.R.!.7.",
"a F.L.a.J & N R 0 I T I 5 K T U 0 U Y K 5 I T I 0 S , % ,.D.W.4.",
"< ` o.| 5 . O * * ; O . X . # * * ; o . . . $ * * ; X @ Y ..$.p ",
"1 @.1.1.| 5 J J J J J w 5 J J J J 5 w J J J J J J J t C ,.1.,.K ",
"8 t.R.I.y.| a.S.S.S.f.+.O.d.S.S.d.O.+.f.S.S.S.S.S.g.3. .J.R.J.X.",
"a H.!.!.N.$.L.!.!.!.W.0.&.R.!.!.W.=.<.W.!.!.!.!.!.Q.t.4.!.Q.!.6.",
"y m.Y.T.v. .F.P.Y.Y.H.*.$.H.P.Y.P.$.&.H.P.Y.Y.Y.Y.P.r.[ P.Y.U.{ ",
"  y k k y 1 u s k k a 1 1 u s k f 1 1 a s k k k k a 8 < s k s 3 "
};
