/* XPM */
static char *result[] = {
/* columns rows colors chars-per-pixel */
"32 32 82 1 ",
"  c #4C5A33",
". c #4F5B38",
"X c #515F36",
"o c #505B3D",
"O c #536236",
"+ c #55633A",
"@ c #58673C",
"# c #5F713C",
"$ c #61733D",
"% c #565E44",
"& c #575B4C",
"* c #585F48",
"= c #5B5D55",
"- c #5E5E5D",
"; c #605F5F",
": c #566142",
"> c #596445",
", c #5D6B43",
"< c #5B634C",
"1 c #5E6948",
"2 c #5E6550",
"3 c #616C4B",
"4 c #657445",
"5 c #66734C",
"6 c #68764C",
"7 c #6A7A4B",
"8 c #626656",
"9 c #636B53",
"0 c #62645C",
"q c #666A5C",
"w c #686D5C",
"e c #677350",
"r c #6A7552",
"t c #6E7A54",
"y c #6B735D",
"u c #6F795C",
"i c #717E57",
"p c #717C5B",
"a c #605F60",
"s c #656564",
"d c #686767",
"f c #666961",
"g c #6A6C64",
"h c #676668",
"j c #686768",
"k c #6C6B6C",
"l c #706F6F",
"z c #6E7364",
"x c #6F716A",
"c c #707665",
"v c #727A63",
"b c #72746C",
"n c #757A6C",
"m c #797F6D",
"M c #6F6F70",
"N c #706F71",
"B c #747474",
"V c #777972",
"C c #7A7C74",
"Z c #777778",
"A c #787779",
"S c #7B7B7B",
"D c #807F7F",
"F c #74825B",
"G c #7C856B",
"H c #7E8275",
"J c #7F817B",
"K c #81847C",
"L c #7F7F80",
"P c #807F80",
"I c #838383",
"U c #878984",
"Y c #888987",
"T c #878788",
"R c #888788",
"E c #8A8A8A",
"W c #908F8F",
"Q c #91928E",
"! c #908F90",
"~ c #939293",
"^ c #979798",
"/ c #9B9B9B",
/* pixels */
"ETTIITTEEV>>HETTE!EIIE^WxjJ!~~EE",
"IIPKSHITEC2<VIITEEJCHKQUgsAEEETT",
"ZASVppmI!Tk2xASSSVvr7FKH2<MSJJAZ",
"BbVp77bLETj-kZZZZx546FJV>:xSAZZM",
"Bbt64rnSEJ2>gBBZAn66uHIV::xSZBBB",
"Mze539bASB<%qgggMzrtcALV2*qxxMkM",
"hdqqs2sdkk==>::<2sfgkkxj=&:<qjjj",
"kkMjssddfqq221>2jkjjMMMjh0<2fkxk",
"SSDAddAHt4FpGCVCUIkhAPSSASCCSKSS",
"ITESddCG7FFGIIIT~EkdSIIKHJITTIII",
"SSISk0ti6rvHJLSITJksBASCppnSLJSS",
"SSISj0674rnAAAASIShsMZAntrzcbnAA",
"AJRSd;gu67cZZBASTSdsNAZVncye7tnS",
"ZASZs-fw44qgxMBASB2=gzggNcw36rbB",
"kkMj-=*@@+:<skkjh0&%>>:*0sfqqqdk",
"xMkks093++>9gMMg0<,,11>9dNBNkkkk",
"ISSAAJKH,>nIJSSVr77FmCVCY~^EBkAP",
"TTILIU^U22JEISJv77FGKIIRW^/WBkSR",
"AZZZSIUSfsCLABzr55vVZASLPRYKkdZS",
"zbbZZSISgdBABzr45ybZBBbnASISddBS",
"7tbBZSTIkjMZBz66vVZBBbitnLTSdsBA",
"$5qgzVSAkjgzzw44zNkkkg5rbASAdskB",
"2&>:,2gMj0<>>:+%0s--;00qdkkks--;",
"h0<>><gMMg1,1>>2skjd;;klkbMkkdss",
"AAAnqgAIIHFtvCVCSIYIkkAKILDSPSSA",
"IIRPMkSTKHGGJILIIE~EBkSTTISHKKKK",
"SDISkjZCzunCSSZZSIRINkZASVvrtpnA",
"ADISs0Bnr5vVCCBZASISkkkVVz547tbZ",
"ASTC<<xVt46ybAZAASTDMkBBye47pVZZ",
"BVAz:+qz4#,5wgMBVZSAkkNb9##5zBBB",
"js2:..%:@@++:<0hkkbkhjkq1OO:0hdd",
"a2.     .++...=addddsdh0:O..=a--"
};
