/* XPM */
static char *result[] = {
/* columns rows colors chars-per-pixel */
"32 32 175 2 ",
"   c #586683",
".  c #586684",
"X  c #596784",
"o  c #5A6885",
"O  c #5B6986",
"+  c #576583",
"@  c #576582",
"#  c #657390",
"$  c #7F8EA9",
"%  c #74829B",
"&  c #74829C",
"*  c #74819B",
"=  c #73819B",
"-  c #707E98",
";  c #6A7894",
":  c #63728E",
">  c #5D6C89",
",  c #616F8C",
"<  c #6E7C97",
"1  c #75829C",
"2  c #7E8BA5",
"3  c #919FB8",
"4  c #A9B5C8",
"5  c #A8B4C7",
"6  c #9DAAC0",
"7  c #8998B1",
"8  c #7484A0",
"9  c #62718F",
"0  c #6D7B98",
"q  c #96A2B9",
"w  c #ABB6CA",
"e  c #AAB6C9",
"r  c #A9B4C8",
"t  c #ACB8CB",
"y  c #B2BED2",
"u  c #AAB6CA",
"i  c #A9B5C9",
"p  c #B0BCCF",
"a  c #BEC9DA",
"s  c #B7C3D6",
"d  c #9BAAC1",
"f  c #7A8AA5",
"g  c #5A6784",
"h  c #626F8A",
"j  c #939FB5",
"k  c #ACB8CC",
"l  c #ABB7CB",
"z  c #74829E",
"x  c #73819D",
"c  c #72809C",
"v  c #8895AE",
"b  c #B8C4D7",
"n  c #9CABC2",
"m  c #464F6A",
"M  c #404964",
"N  c #636F8A",
"B  c #76849F",
"V  c #75839F",
"C  c #74829D",
"Z  c #586786",
"A  c #566585",
"S  c #556484",
"D  c #72809B",
"F  c #A8B4C8",
"G  c #707E97",
"H  c #3B435C",
"J  c #2F3650",
"K  c #4A5674",
"L  c #596888",
"P  c #586887",
"I  c #576686",
"U  c #3C435C",
"Y  c #2F3651",
"T  c #4B5775",
"R  c #5A6988",
"E  c #A9B4C9",
"W  c #717E98",
"Q  c #3C445D",
"!  c #303752",
"~  c #4C5876",
"^  c #5B6A8A",
"/  c #5B6A89",
"(  c #9CABC3",
")  c #303852",
"_  c #4D5977",
"`  c #5C6B8B",
"'  c #5C6B8A",
"]  c #B9C5D8",
"[  c #5C6C8B",
"{  c #4B5875",
"}  c #929EB5",
"|  c #A4B1C7",
" . c #96A5BD",
".. c #2C334D",
"X. c #424C68",
"o. c #4E5A78",
"O. c #4D5A77",
"+. c #313953",
"@. c #303751",
"#. c #414A64",
"$. c #7C8AA6",
"%. c #8898B3",
"&. c #73809A",
"*. c #3D455E",
"=. c #252A44",
"-. c #2D334D",
";. c #323953",
":. c #303650",
">. c #39415D",
",. c #4C5977",
"<. c #657593",
"1. c #8090AC",
"2. c #76849E",
"3. c #48516B",
"4. c #313851",
"5. c #313852",
"6. c #4B5773",
"7. c #4B5673",
"8. c #4D5A76",
"9. c #53617E",
"0. c #647390",
"q. c #7F8FAA",
"w. c #7C8BA6",
"e. c #5C6884",
"r. c #4A5672",
"t. c #4C5874",
"y. c #4D5874",
"u. c #4D5975",
"i. c #4C5774",
"p. c #75839D",
"a. c #7E8CA5",
"s. c #91A0B8",
"d. c #92A0B8",
"f. c #7F8DA6",
"g. c #76839D",
"h. c #727F9A",
"j. c #6B7A95",
"k. c #5F6D8B",
"l. c #63718E",
"z. c #77849E",
"x. c #ABB7CA",
"c. c #ADB9CC",
"v. c #B3BFD2",
"b. c #AEB9CD",
"n. c #9FACC2",
"m. c #8B99B3",
"M. c #7585A1",
"N. c #627290",
"B. c #6E7D99",
"V. c #97A4BA",
"C. c #ADB8CC",
"Z. c #919DB4",
"A. c #A3B0C6",
"S. c #95A5BD",
"D. c #717F99",
"F. c #2D344E",
"G. c #424D69",
"H. c #4D5A78",
"J. c #323A54",
"K. c #414A65",
"L. c #626E8A",
"P. c #7B8AA5",
"I. c #3E465F",
"U. c #272C45",
"Y. c #2E344E",
"T. c #333A54",
"R. c #242942",
"E. c #242841",
"W. c #232840",
"Q. c #495674",
"!. c #667694",
"~. c #8292AD",
"^. c #3F4760",
"/. c #232841",
"(. c white",
/* pixels */
"                          . X o O o X     + @ # $ $ # @ +       ",
"% % % % % % % % % & & * = - ; : > , < 1 1 * = 2 3 3 2 = * % % % ",
"4 4 4 4 4 4 4 4 4 4 4 4 5 6 7 8 9 0 q w e r r t y y t r r 4 4 4 ",
"u u u u u u u u u i i p a s d f g h j k l u u i i i i u u u u u ",
"z z z z z z z z z x c v p b n & m M N B V z z C C C C z z z z z ",
"Z Z Z Z Z Z Z Z Z A S D F s n G H J K L P Z Z Z Z Z Z Z Z Z Z Z ",
"P P P P P P P P P I A c F s n - U Y T R L P P P P P P P P P P P ",
"R R R R R R R R R P Z x E s n W Q ! ~ ^ / R R R R R R R R R R R ",
"R R R R R R R R R P Z x E s n W Q ! ~ ^ / R R R R R R R R R R R ",
"R R R R R R R R R P Z x E s n W Q ! ~ ^ / R R R R R R R R R R R ",
"R R R R R R R R R P Z x E s n W Q ! ~ ^ / R R R R R R R R R R R ",
"/ / / / / / / / / L P z u b ( W Q ) _ ` ' / / / / / / / / / / / ",
"^ ^ ^ ^ ^ ^ ^ ^ ^ R L V l ] ( W Q ) _ [ ` ^ ^ ^ ^ ^ ^ ^ ^ ^ ^ ^ ",
"_ _ _ _ _ _ _ _ _ { T N } |  .W Q ..X.o.O._ _ _ _ _ _ _ _ _ _ _ ",
"+.+.+.+.+.+.+.+.+.! @.#.h $.%.&.*.=.-.;.+.+.+.+.+.+.+.+.+.+.+.+.",
"@.@.@.@.@.@.@.@.@.:.J >.,.<.1.2.3.J J @.@.@.@.@.4.5.5.5.@.@.@.@.",
"6.6.6.6.6.6.6.6.6.6.7.8.9.0.q.w.e.r.r.6.6.6.6.6.t.y.u.u.i.6.6.6.",
"2.2.2.2.2.2.2.2.2.2.2.p.% a.s.d.f.p.g.2.2.g.p.h.j.0.k.l.- z.2.2.",
"x.x.x.x.x.x.x.x.x.x.x.u e c.v.v.b.w w x.x.x.e n.m.M.N.B.V.C.t x.",
"u u u u u u u u u u u u u i i i i u u i i p a s d f g h j k l u ",
"z z z z z z z z z z z z z C C C C z z x c v p b n & m M N B V z ",
"Z Z Z Z Z Z Z Z Z Z Z Z Z Z Z Z Z Z Z A S D F s n G H J K L P Z ",
"P P P P P P P P P P P P P P P P P P P I A c F s n - U Y T R L P ",
"R R R R R R R R R R R R R R R R R R R P Z x E s n W Q ! ~ ^ / R ",
"R R R R R R R R R R R R R R R R R R R P Z x E s n W Q ! ~ ^ / R ",
"R R R R R R R R R R R R R R R R R R R P Z x E s n W Q ! ~ ^ / R ",
"R R R R R R R R R R R R R R R R R R R P Z x E s n W Q ! ~ ^ / R ",
"/ / / / / / / / / / / / / / / / / / / L P z u b ( W Q ) _ ` ' / ",
"^ ^ ^ ^ ^ ^ ^ ^ ^ ^ ^ ^ ^ ^ ^ ^ ^ ^ ^ R L V l ] ( W Q ) _ [ ` ^ ",
"_ _ _ _ _ _ _ _ _ _ _ _ _ _ _ _ _ _ _ ~ T N Z.A.S.D.*.F.G.o.H._ ",
"J.J.J.J.J.J.J.J.J.J.J.J.J.J.J.J.J.J.J.+.5.K.L.P.%.&.I.U.Y.T.J.J.",
"R.R.R.R.R.R.R.R.R.R.R.R.R.R.R.R.R.R.R.E.W.@.Q.!.~.* ^././.R.R.R."
};
