/* XPM */
static char *result[] = {
/* columns rows colors chars-per-pixel */
"32 32 87 1 ",
"  c #161324",
". c #1C1525",
"X c #1B1827",
"o c #14172A",
"O c #15182B",
"+ c #1A1A2C",
"@ c #161C30",
"# c #1B1D32",
"$ c #211726",
"% c #211827",
"& c #241C2D",
"* c #2B1E2C",
"= c #391727",
"- c #331B2D",
"; c #3B1A2A",
": c #241F31",
"> c #361F33",
", c #3D1F32",
"< c #1B2137",
"1 c #1F243A",
"2 c #2F222D",
"3 c #36232E",
"4 c #3C252D",
"5 c #252134",
"6 c #2B2334",
"7 c #22253C",
"8 c #2A253A",
"9 c #25283F",
"0 c #2E2A3C",
"q c #362533",
"w c #3A2534",
"e c #352837",
"r c #3E2834",
"t c #3A2439",
"y c #332B3B",
"u c #3E2A3D",
"i c #431E2B",
"p c #4E1A2A",
"a c #6A1F2E",
"s c #731F2E",
"d c #44222C",
"f c #4F232F",
"g c #50232F",
"h c #422533",
"j c #4C2632",
"k c #412B34",
"l c #492A33",
"z c #42263B",
"x c #44293C",
"c c #4B2B3C",
"v c #552633",
"b c #582731",
"n c #552E31",
"m c #5A2A32",
"M c #53293E",
"N c #543134",
"B c #5C3334",
"V c #563539",
"C c #5A353B",
"Z c #6C202E",
"A c #622632",
"S c #6C2333",
"D c #632833",
"F c #742635",
"G c #7A2632",
"H c #7D2935",
"J c #742838",
"K c #633735",
"L c #6C3335",
"P c #6D363A",
"I c #603839",
"U c #703335",
"Y c #232A43",
"T c #352E40",
"R c #3E2D42",
"E c #3E3043",
"W c #432B41",
"Q c #86222F",
"! c #862433",
"~ c #8B2532",
"^ c #822A34",
"/ c #842738",
"( c #822C39",
") c #882838",
"_ c #932733",
"` c #A52633",
"' c #A92633",
/* pixels */
"YY6dKIe7YY75w3X+796dKIe1YY7:q3$ ",
"785kLLw17876h42+775rLLt77778kh*+",
"+#7x(^t5555eVVy7+<7x(Hz7::5eVVy1",
".&0cJS>5q3:qLPE7+&ycJZ>:w4:qLPRY",
"*3NClq%*nN*-H(W753NCc>%*NN*;G(WY",
"*hLUt#+*nN3isStY6dULr#X*nN3iZSuY",
"<hH^v6::qlnni-:Y<h^^j6::3lNni-57",
"1tSFmu8:&4UL*o#:7wSGmk87&4LL*O#7",
"Y8-iBVy1+;HH=o1YY8-dBVy7+;^H=o1Y",
"Y7@-LLx7<-Zsp-7YY7#-LPx7#-Zsp*57",
"Y7<tH^h678-psa-#Y1<wHHj578-psa-+",
"Wu8h~~i591O=!Qi&tR8h!~i671@-!!iX",
")Jlj~Q;+7Y<,!~vdSFhv!Q=+7Y#,!~v2",
"'~bvFGp-59tvJHDS__vvGGp-:7tMFGAb",
"'~bhfAGZ--SJWMH_`~vhjAGa>-SHMMG_",
")Jj4kmGZ-3SSxzS!!Jj4kmGa->SSuuS!",
"xu3rVBjt88thwq-,zu34BCjt88twwq;=",
"116hLPt17715kh&#175hPPt17715kh5O",
"+<1x(^z#:57eVVe##O1xHHr5555eVVe1",
"XXycJS>:wq:qLPRY+5ycFS>5w35qLPEY",
"*3NCc>X*nN*-H(W753VCx>%*NN*-H(xY",
"2wLLr:+*nN4isSR76dULr#O*Nn3iZSuY",
":h^(j6+53lNni-::<h^^v6:53lNni-51",
"1qSGmk05&4LL*@#Y7wSGmr85&4LL-o<7",
"Y8>imVT7+;HG=o#YY8-dBVy1X;HH=o5Y",
"Y1@-LPu7#>asp-87Y7#-LPx7#-ZZp*57",
"YY#,H^h67:-psa-#Y1<wHHj678-psZ-O",
"WR8z!~d5Y1@;!!i&tR8h!~i591@;!!dX",
"!Jjn~Q;+YY#,~~ghSJjv~!;+7Y#,!~v2",
"`~vlGGp-::tMJGAD_~vjGsp-:7tMFGAv",
"`~bdvAGa->SGWMH_`~bhjAGa>-SFMMG~",
"`~mq3g~Q==Q)WW^'`~bqwv~Q==Q)WR/'"
};
