/* XPM */
static char *result[] = {
/* columns rows colors chars-per-pixel */
"32 32 221 2 ",
"   c #120F23",
".  c #151225",
"X  c #1A1526",
"o  c #14152B",
"O  c #1A1629",
"+  c #1B192D",
"@  c #1F1827",
"#  c #1C1C32",
"$  c #191E3A",
"%  c #151933",
"&  c #0E0D24",
"*  c #241825",
"=  c #221B2C",
"-  c #2D1E2C",
";  c #201724",
":  c #3B1F27",
">  c #331E2A",
",  c #221F33",
"<  c #1F2036",
"1  c #1D223C",
"2  c #3D2424",
"3  c #34222E",
"4  c #3E262A",
"5  c #222136",
"6  c #2D2234",
"7  c #23243C",
"8  c #2B263B",
"9  c #2C2C3C",
"0  c #322434",
"q  c #322A3C",
"w  c #3B2A3B",
"e  c #382735",
"r  c #422625",
"t  c #4B2B2B",
"y  c #46282E",
"u  c #542E25",
"i  c #552B2B",
"p  c #4E3C2B",
"a  c #49352C",
"s  c #503326",
"d  c #583126",
"f  c #5A312E",
"g  c #533B2A",
"h  c #593B29",
"j  c #452E32",
"k  c #482D38",
"l  c #582F33",
"z  c #453234",
"x  c #45333A",
"c  c #4D333C",
"v  c #4B3538",
"b  c #543A33",
"n  c #50363C",
"m  c #543B3B",
"M  c #583D3D",
"N  c #593736",
"B  c #622D28",
"V  c #68382B",
"C  c #76362F",
"Z  c #783B26",
"A  c #613433",
"S  c #633A31",
"D  c #693837",
"F  c #793733",
"G  c #783835",
"H  c #4D4734",
"J  c #564A3A",
"K  c #6A412F",
"L  c #784728",
"P  c #7A522C",
"I  c #694335",
"U  c #674837",
"Y  c #7F4B31",
"T  c #774736",
"R  c #67523D",
"E  c #7B5831",
"W  c #1D2540",
"Q  c #222641",
"!  c #252943",
"~  c #292B44",
"^  c #242C4B",
"/  c #292E49",
"(  c #3A2E41",
")  c #2B314C",
"_  c #373148",
"`  c #483646",
"'  c #563C45",
"]  c #4D4443",
"[  c #5C4D41",
"{  c #594747",
"}  c #5D5245",
"|  c #565454",
" . c #624443",
".. c #674943",
"X. c #714243",
"o. c #705448",
"O. c #933A2D",
"+. c #993E2F",
"@. c #853931",
"#. c #973F33",
"$. c #9B4D25",
"%. c #974B26",
"&. c #9C522C",
"*. c #964036",
"=. c #9B4133",
"-. c #875B37",
";. c #82563A",
":. c #925E31",
">. c #84492F",
",. c #A64B2D",
"<. c #AD492C",
"1. c #AA462A",
"2. c #B14B2C",
"3. c #AC522C",
"4. c #BD5B2B",
"5. c #BA5529",
"6. c #A34431",
"7. c #AB4B31",
"8. c #A54833",
"9. c #B34F33",
"0. c #AD5633",
"q. c #A45636",
"w. c #B05533",
"e. c #B45A34",
"r. c #B85734",
"t. c #9E7235",
"y. c #93683A",
"u. c #A6793D",
"i. c #BF7F3B",
"p. c #BE7A31",
"a. c #B8602A",
"s. c #C55F25",
"d. c #CC5F25",
"f. c #CE522B",
"g. c #C45E2B",
"h. c #CD5C29",
"j. c #C3502D",
"k. c #D65E27",
"l. c #D2562C",
"z. c #D45C29",
"x. c #D95F28",
"c. c #CB6223",
"v. c #CA6C26",
"b. c #CB652B",
"n. c #CB6D2B",
"m. c #C46729",
"M. c #DC632B",
"N. c #D76527",
"B. c #CE712C",
"V. c #CA7F2F",
"C. c #D4732A",
"Z. c #D9722A",
"A. c #CF6D30",
"S. c #C47A32",
"D. c #D67C36",
"F. c #D56631",
"G. c #ED6B23",
"H. c #E96825",
"J. c #F06C24",
"K. c #E47227",
"L. c #EA782A",
"P. c #F37A27",
"I. c #FB7E24",
"U. c #F97423",
"Y. c #E27530",
"T. c #A35F42",
"R. c #8B7147",
"E. c #C7812D",
"W. c #CB832E",
"Q. c #D4832F",
"!. c #DC8D2F",
"~. c #D9902E",
"^. c #CB8432",
"/. c #C98932",
"(. c #DE8433",
"). c #D38934",
"_. c #DC8B34",
"`. c #D28433",
"'. c #CD9B3D",
"]. c #CB953A",
"[. c #D89738",
"{. c #EC892F",
"}. c #FE8626",
"|. c #FE8D2A",
" X c #F58A29",
".X c #F4942E",
"XX c #FC942D",
"oX c #FF9A2D",
"OX c #F69D2E",
"+X c #EA8C31",
"@X c #F38630",
"#X c #F68831",
"$X c #FA9731",
"%X c #FD9A31",
"&X c #F49834",
"*X c #FFA42F",
"=X c #FFA332",
"-X c #FEAA32",
";X c #F5A93A",
":X c #FFB239",
">X c #FFB93D",
",X c #E3A43C",
"<X c #AF984E",
"1X c #BC9F4D",
"2X c #BDA157",
"3X c #CB9B40",
"4X c #C9AA4D",
"5X c #CDB04D",
"6X c #D7B44C",
"7X c #CCB151",
"8X c #CBBA55",
"9X c #DCBA52",
"0X c #D3A848",
"qX c #FEBC48",
"wX c #FBBB49",
"eX c #DFC357",
"rX c #FEC54B",
"tX c #FBC64A",
"yX c #FFD24F",
"uX c #FFDB57",
"iX c #EEC854",
/* pixels */
"O X X + W ' m.J.l.=.l 0 8 5 = @ . : O.l.J.b.V e ~ 7 + + 7 7 +   ",
"d d h b x T C.P.M.<.C t 8 1 , = > d 1.x.I.n.D q ~ 7 o + 1 9 a p ",
"s.v.W.p.q.e.+XXXP.k.2.G w W 1 e C <.k.U.XX)...^ 7 5 + o W ] t./.",
"b.B.).^.0.q.i._.#XP.H.<.D ` k A 7.M.@X&X[.u.{ ! 7 # # 6 x E ).=X",
" ...U I ' ' { R.[.oXP.k.7.*.#.1.x.@XwX7XR.' ` - + # Q m &.F.F.F.",
"^ ~ 0 0 ~ ^ W ] u.!. XP.x.f.f.N.P.$XwX4X| ^ ( 0 = # W ' m.x.1.O.",
"! 7 + X + # W _ b :.!.XXP.H.H.P.XX&XD.T.' ^ ^ , 5 # # y 1.2.B : ",
"Q 7 # O . X # , 6 U '.qX=X|.|.|.oX.XZ.w.X._ ~ Q 7 8 3 i @.C > . ",
"/ / 7 # O X O + 5 } 7XuXuXrX:XoX|.}..X(.w.G w W W ` G @.D w X . ",
") ) ~ 7 + @ @ + 7 [ 4XuXeX7X'./.m.B..X$XY.0.D k ` X.9.7.` 1 # + ",
"/ / / / 7 5 3 3 0 S S.+XT.} [ J m Y C.|.%X+X0.#.#.9.M.4.v 1 1 7 ",
"7 Q ^ / Q 7 0 z J -.e.,.l , , 1 % j &.n.^.S.b.f.f.M.L.C.Y x 8 W ",
"o % W ^ W 7 0 U <X4X-.f e , # o o , a b a L s.G.G.L..X.XC.%.4 o ",
"H J [ U [ [ R R.9X6XR 6 7 5 O . O + 1 $ o a m.|.XX%X-X*XXXC.E H ",
"8X5X'.].].'.7X9XtX[.U 6 7 , + X + 1 7 W % b V.:XrXrX>X-X*X;X6X8X",
"8X5X].!.OX:XyXyX:XQ.>.t 0 , # # 5 7 Q ~ w T ^.:XyXyX:X*XoX;X6X8X",
"H H p P C.oX>X:XXXK.2.@.k 6 7 W ^ W 1 w G 9.K.XX:X:XXX}.}.C.P H ",
"    o y ,.v.Q._. XL.H.2.C l c m m M b T e.Z.#XoX%XXXI.G.c.%.r X ",
". O 1 ( h V S :.!.XXP.x.2.=.=.7.4.b.b.C.+X;XrXqX$XI.U.c.Z r 3 > ",
"+ 5 ~ / q 0 6 I ^.%X%X@XM.j.8.1.s.c.c.m.E.].4X0X{.I.|.S.a + 0 w ",
"~ ~ ! 7 7 7 ~ U n.$XqXqX Xb.C n S V u s s p H P n.|.wX4XJ 1 ! _ ",
"_ / 7 5 , 1 ^ ' m.$XrXtXQ.&.z 5 6 - X   . . & 2 $.(.tX7XJ 1 W ^ ",
"w 0 = + O % $ N m.|.:X[.E r e 3 = X . . .   . * i :.,X'.p o 1 ! ",
"3 - @ O O , j T s.L.).t.4 O - - @ . X X O . . O = S S.^.P s b n ",
"= * ; X 1 x &.b.h.3.T ` 9 # = @ X . X . X . . . O t q.n.^.V.n.s.",
"d u t y k T C.I.M.6.n Q 7 5 O X + + X O . ; r s g L <.M.+X$X|.}.",
"c.4.1.=.=.e.+X%XP.4.A 6 ! 7 o + 7 7 + .   2 $.v.W.Q.L.H.M.D..X*X",
"n.g.<.=.=.e.(.$X|.B.V 6 9 8 = , ~ ! o @ 2 Z d.L._.).B.4.8.q.^.].",
" . .D l ' X.e.Y.oXE.g = 0 e 3 3 = + . 2 %.d.z.r.o...I A ' ' { | ",
"^ ~ 6 6 Q ( F w.(.S.g ; - 3 3 - @ ; 2 Z s.H.<.C ` ~ 6 0 ! ! ^ ^ ",
"! 7 = + + + > B 3.w.f - = * @ @ . 2 $.c.l.<.B 0 7 , = O = # = + ",
"7 < O . X . . : O.6.f 3 @ O . .   u m.U.l.O.: o $ , O . . . . . "
};
