/* XPM */
static char *result[] = {
/* columns rows colors chars-per-pixel */
"32 32 210 2 ",
"   c #030202",
".  c #0A0503",
"X  c #0E0907",
"o  c #1B0E04",
"O  c #140D0A",
"+  c #140906",
"@  c #1C120B",
"#  c #1B1719",
"$  c #020F18",
"%  c #2A160B",
"&  c #231614",
"*  c #2B1B13",
"=  c #281616",
"-  c #321D1A",
";  c #311905",
":  c #38210B",
">  c #39221B",
",  c #2A1B20",
"<  c #1A253E",
"1  c #2D2924",
"2  c #3A3A3A",
"3  c #392A25",
"4  c #521C1A",
"5  c #452915",
"6  c #4F301C",
"7  c #532A0E",
"8  c #66330C",
"9  c #753918",
"0  c #713B0D",
"q  c #48292B",
"w  c #54342A",
"e  c #5C3535",
"r  c #453731",
"t  c #623D2F",
"y  c #773C3B",
"u  c #6D3934",
"i  c #7D4313",
"p  c #5A4230",
"a  c #64452C",
"s  c #6D4638",
"d  c #734B34",
"f  c #373655",
"g  c #2D3E6B",
"h  c #683D45",
"j  c #723F40",
"k  c #2F4050",
"l  c #254E72",
"z  c #374A7A",
"x  c #2F5372",
"c  c #484B56",
"v  c #515150",
"b  c #505051",
"n  c #6E4047",
"m  c #694C45",
"M  c #744348",
"N  c #7D4B4D",
"B  c #794846",
"V  c #615048",
"C  c #7C614E",
"Z  c #5C536F",
"A  c #586279",
"S  c #7E7169",
"D  c #9A3F13",
"F  c #8D3632",
"G  c #AA3C3B",
"H  c #A23B34",
"J  c #894317",
"K  c #A7571B",
"L  c #A04812",
"P  c #AF601C",
"I  c #8F4832",
"U  c #AF4039",
"Y  c #AE4938",
"T  c #B54436",
"R  c #B84733",
"E  c #BA4833",
"W  c #B24339",
"Q  c #B74839",
"!  c #B75E3B",
"~  c #B05329",
"^  c #A06920",
"/  c #A87324",
"(  c #B36334",
")  c #C26215",
"_  c #CE6A16",
"`  c #D76D1A",
"'  c #DE7319",
"]  c #F56F1F",
"[  c #ED7B1D",
"{  c #E7761A",
"}  c #F3721F",
"|  c #F47D1B",
" . c #FA7C1B",
".. c #C5522F",
"X. c #D15D2B",
"o. c #DD5C2D",
"O. c #CB4534",
"+. c #C14E31",
"@. c #D44B31",
"#. c #D04635",
"$. c #C55232",
"%. c #D55234",
"&. c #E7572C",
"*. c #ED5429",
"=. c #DF6B24",
"-. c #D66129",
";. c #DC6726",
":. c #D97726",
">. c #C76733",
",. c #D76039",
"<. c #E16C24",
"1. c #E86A24",
"2. c #F36C27",
"3. c #E77824",
"4. c #F37821",
"5. c #F27938",
"6. c #E77335",
"7. c #834B4A",
"8. c #864843",
"9. c #8C544D",
"0. c #855A48",
"q. c #94554E",
"w. c #8A5B5C",
"e. c #914E52",
"r. c #A24A46",
"t. c #A35942",
"y. c #A35D58",
"u. c #8D6357",
"i. c #94635D",
"p. c #946A59",
"a. c #8E6348",
"s. c #A16A47",
"d. c #BB684A",
"f. c #A36559",
"g. c #A87858",
"h. c #B57756",
"j. c #BC7248",
"k. c #9F5F61",
"l. c #845867",
"z. c #8E6967",
"x. c #916A60",
"c. c #867B79",
"v. c #897769",
"b. c #CD6549",
"n. c #E06141",
"m. c #BF872E",
"M. c #F5811E",
"N. c #FA811A",
"B. c #DB8624",
"V. c #F58323",
"C. c #F68428",
"Z. c #ED8C3D",
"A. c #F48934",
"S. c #C1A23F",
"D. c #B88B52",
"F. c #AE9377",
"G. c #B89778",
"H. c #A3876B",
"J. c #C98958",
"K. c #D28C5D",
"L. c #F29649",
"P. c #EE8E4D",
"I. c #C2A643",
"U. c #DC9969",
"Y. c #C99B7F",
"T. c #E88F60",
"R. c #E49D6A",
"E. c #E19C7F",
"W. c #DBA77C",
"Q. c #355D8E",
"!. c #395E8F",
"~. c #3A4F81",
"^. c #396A9A",
"/. c #3A73A3",
"(. c #3978A8",
"). c #455B87",
"_. c #4B6A88",
"`. c #566E89",
"'. c #4F6F94",
"]. c #627E83",
"[. c #686D85",
"{. c #6B8896",
"}. c #7591A4",
"|. c #AAA295",
" X c #B5A798",
".X c #9FB3BE",
"XX c #8FA1A9",
"oX c #DCAD84",
"OX c #DDB392",
"+X c #DCB996",
"@X c #CEA586",
"#X c #E5B489",
"$X c #F4BA85",
"%X c #E3BB96",
"&X c #E0AE89",
"*X c #CABBA6",
"=X c #F9CB9B",
"-X c #F6CD9F",
";X c #FAC189",
":X c #DEC2A2",
">X c #E9C9A6",
",X c #F5CDA1",
"<X c #FACEA7",
"1X c #FBD3A4",
"2X c #FBD4B3",
"3X c #A6B8C2",
"4X c #D3D5D4",
"5X c #E3DED6",
"6X c #E9E0D6",
"7X c None",
/* pixels */
"7X7X7X7X7X7X7X7X7X7X7X7X7X7X7X7X7X7X7X7X7X7X7X7X7X7X7X7X7X7X7X7X",
"7X7X7X7X7X7X7X7X7X7X7X7X7X7X7X7X7X7X7X7X7X7X7X7X7X7X7X7X7X7X7X7X",
"7X7X7X7X7X7X7X7X7XG W G W U U G G G G 7X7X7X7X7X7X7X7X7X7X7X7X7X",
"7X7X7X7X7X7X7X7X7X+.X.-.-.-.X.O.O.O.+.G G G G G G G G G 7X7X7X7X",
"7X7X7X7X7X7X7XT E -.| | | | 4.*.*.&.%.+.R R R R R R R G 7X7X7X7X",
"7X7X7X7X7X7XW ..=.3.| | | | | 4.2.2.3.<.<.<.<.` <.;...G 7X7X7X7X",
"7X7X7X7X7XE ..;.|  .N.| | } 4.| | | | N.| | N.[ ) K I G 7X7X7X7X",
"7X7X7X7XT $.<.| [ [ [ [ 4.&.o.2.| M.M.M.N.| N.{ D % 7X7X7X7X7X7X",
"7X7X7XT X.6.Z.5.<.! q.>.o.f.k.n.2.Z.L.L.A.M. .{ 8 . 7X7X7X7X7X7X",
"7X7XF R { A.P.5.@.e.Z e.y.[.[.k.b.P.L.L.A.M.| ' 9 # < 7X~.~.7X7X",
"7X7X% 9 _ V.5.2.@.l.'.`.`././.`.z.b.6.5.C.4.2.o.I f g z !.^.7X7X",
"7X7X  7 _  .2.*.@.N l l x `.}.}.c.8.L L ) { 2.o.w.).Q.Q./.(.7X7X",
"7X7X. 7 ) 1.&.*.@.u # $ 1 i.W.+XF.q O * i '  .:.x.'.^././.(.7X7X",
"7X7X. 5 8 J W #.@.t.V , * g.;X-XF.1 # V s.3.3.( V k l Q.!.!.7X7X",
"7X7X7X7XO > j Q ,.oX Xb 2 H.-X1XF.f k |.#XZ.>.8.> X < z z z 7X7X",
"7X7X7X7X. , j d.T.<X4X}._.|.-X=X X`.{.4X2XR.j.B , . 7X7X7X7X7X7X",
"7X7X7X7X  = e a.U.<X6X3XXX*X,X,X+XXX.X5X2XR.y.e =   7X7X7X7X7X7X",
"7X7X7X7X7X7X& t h.&X>X:X+X>X,X,X>X:X:X,X%XD.d & 7X7X7X7X7X7X7X7X",
"7X7X7X7X7X7X. @ t g.W.$X;X,X1X1X=X;X;XW.g.s - . 7X7X7X7X7X7X7X7X",
"7X7X7X7X7X7X@ O = s h.K.U.oX%X%XW.U.K.h.d * . 7X7X7X7X7X7X7X7X7X",
"7X7X7X7X7X6 I s q h 9.q.q.x.x.x.x.f.q.8.e q 3 7X7X7X7X7X7X7X7X7X",
"7X7X7X7XX a J.h.B M N B j h h h N p.x.u.w.w.m 7X7X7X7X7X7X7X7X7X",
"7X7X7X7XX a J.h.7.7.q.q.e.7.B 8.f.Y.OX+XOX@XC # 7X7X7X7X7X7X7X7X",
"7X7X7X7X7X6 d B h 8.r.r.r.I y e 0.oX1X1X<X#Xa.@ 7X7X7X7X7X7X7X7X",
"7X7X7X7X7X7XO > u q.Y Y Q U I 5 a G.%XOXW.J.d O 7X7X7X7X7X7X7X7X",
"7X7X7X7X7X7X. 7 K B.B.B.B.! q.^ m.b.f.m p w * . 7X7X7X7X7X7X7X7X",
"7X7X7X7X7X7X% 8 K B.S.I.D.p.a./ ^ J 4 O . .     7X7X7X7X7X7X7X7X",
"7X7X7X7X7X7X7X; : v {.{.].A c 3 : @ +         7X7X7X7X7X7X7X7X7X",
"7X7X7X7X7X7X7X7XX r S c.v.p.s *             7X7X7X7X7X7X7X7X7X7X",
"7X7X7X7X7X7X7X7Xo i :.B.3.3.^ :   7X7X7X7X7X7X7X7X7X7X7X7X7X7X7X",
"7X7X7X7X7X7X7X7X7X7X7X7X7X7X7X7X7X7X7X7X7X7X7X7X7X7X7X7X7X7X7X7X",
"7X7X7X7X7X7X7X7X7X7X7X7X7X7X7X7X7X7X7X7X7X7X7X7X7X7X7X7X7X7X7X7X"
};
