/* XPM */
static char *result[] = {
/* columns rows colors chars-per-pixel */
"32 32 208 2 ",
"   c #020101",
".  c #0B0504",
"X  c #0E0D0D",
"o  c #1B0904",
"O  c #130B09",
"+  c #160A07",
"@  c #1C110C",
"#  c #10151F",
"$  c #2A0E07",
"%  c #261206",
"&  c #28150A",
"*  c #321904",
"=  c #34190C",
"-  c #371A09",
";  c #251511",
":  c #2B1110",
">  c #291B14",
",  c #371B17",
"<  c #360E06",
"1  c #37251B",
"2  c #2C221A",
"3  c #161A28",
"4  c #281C21",
"5  c #132938",
"6  c #382928",
"7  c #3E3327",
"8  c #333A3E",
"9  c #46190B",
"0  c #4E1E14",
"q  c #5F2D07",
"w  c #7A3E0F",
"e  c #682814",
"r  c #792415",
"t  c #5A3335",
"y  c #44392E",
"u  c #603C2B",
"i  c #653B37",
"p  c #703233",
"a  c #524232",
"s  c #684338",
"d  c #7F5139",
"f  c #77553E",
"g  c #714A39",
"h  c #27345B",
"j  c #2C3F65",
"k  c #374654",
"l  c #394778",
"z  c #354B7D",
"x  c #394A7B",
"c  c #374874",
"v  c #2D587D",
"b  c #384D72",
"n  c #414146",
"m  c #594953",
"M  c #7A494C",
"N  c #7D4D52",
"B  c #6C585D",
"V  c #7D5355",
"C  c #5F4862",
"Z  c #404A73",
"A  c #4D597C",
"S  c #6A5764",
"D  c #596A79",
"F  c #6A6C75",
"G  c #69646E",
"H  c #92311D",
"J  c #A7321F",
"K  c #903230",
"L  c #A63724",
"P  c #AB3C3A",
"I  c #A4393A",
"U  c #B53D39",
"Y  c #C53F35",
"T  c #C53B26",
"R  c #884818",
"E  c #9D4C1A",
"W  c #B25B14",
"Q  c #B24C1B",
"!  c #B96018",
"~  c #88563F",
"^  c #A9452B",
"/  c #A74539",
"(  c #B44336",
")  c #BB4435",
"_  c #B1433B",
"`  c #B36A2A",
"'  c #CC6918",
"]  c #EE7A1D",
"[  c #E8731F",
"{  c #F2711F",
"}  c #F57D1A",
"|  c #F87F19",
" . c #C14E2F",
".. c #D5442C",
"X. c #CC592C",
"o. c #CB552D",
"O. c #D8552C",
"+. c #C54234",
"@. c #C64534",
"#. c #C5573F",
"$. c #E64F2A",
"%. c #E6542A",
"&. c #EB5737",
"*. c #E64D31",
"=. c #DE6B23",
"-. c #D96326",
";. c #CC7023",
":. c #DF7926",
">. c #D97728",
",. c #DB792A",
"<. c #D4752C",
"1. c #C56B35",
"2. c #CA7636",
"3. c #E76D22",
"4. c #F06922",
"5. c #EA7220",
"6. c #E57A24",
"7. c #F27D23",
"8. c #8A4749",
"9. c #875747",
"0. c #994A4B",
"q. c #93614A",
"w. c #9C6949",
"e. c #8B6B58",
"r. c #9A645E",
"t. c #AE6C43",
"y. c #A46D57",
"u. c #B2695B",
"i. c #A67757",
"p. c #AA734A",
"a. c #827870",
"s. c #96736C",
"d. c #B96F60",
"f. c #AA7865",
"g. c #C45A44",
"h. c #DF694F",
"j. c #C16C59",
"k. c #EE6B4B",
"l. c #EF7647",
"z. c #BD8834",
"x. c #FA8017",
"c. c #F7801A",
"v. c #F98018",
"b. c #F48424",
"n. c #E5903D",
"m. c #F28A33",
"M. c #A8816F",
"N. c #B88B6C",
"B. c #BD9475",
"V. c #B39878",
"C. c #B69778",
"Z. c #BC9768",
"A. c #C19341",
"S. c #CA8853",
"D. c #ED964C",
"F. c #F4984A",
"G. c #ED8154",
"H. c #E99659",
"J. c #C18668",
"K. c #D4946F",
"L. c #F08E69",
"P. c #EF9763",
"I. c #E7A275",
"U. c #F1AB78",
"Y. c #F3B177",
"T. c #EEA863",
"R. c #334F84",
"E. c #385485",
"W. c #30538A",
"Q. c #335D91",
"!. c #2F548B",
"~. c #396B9B",
"^. c #366797",
"/. c #4D6B8F",
"(. c #4A7499",
"). c #5F7B92",
"_. c #516D8D",
"`. c #667A8A",
"'. c #4678A1",
"]. c #5784A5",
"[. c #888886",
"{. c #93908C",
"}. c #B99886",
"|. c #BAA890",
" X c #99A9B1",
".X c #BBB5A7",
"XX c #C39C82",
"oX c #DBAD8C",
"OX c #DFB691",
"+X c #D2AE8A",
"@X c #E6B28A",
"#X c #F5BB84",
"$X c #F3BA8D",
"%X c #EABE95",
"&X c #F3BB90",
"*X c #E5AB81",
"=X c #D3BFA5",
"-X c #E9C49D",
";X c #F5C494",
":X c #F7C899",
">X c #F5CEA2",
",X c #F2CEA8",
"<X c #F7D1A6",
"1X c #EECEAA",
"2X c #BCC6CB",
"3X c #DAD8D2",
"4X c #F8E4CE",
"5X c None",
/* pixels */
"5X5X5X5X5X5X5X5X5X5X5X5X5X5X5X5X5X5X5X5X5X5X5X5X5X5X5X5X5X5X5X5X",
"5X5X5X5X5X5X5X5X5X5X5X5X5X5X5X5X5X5X5X5X5X5X5X5X5X5X5X5X5X5X5X5X",
"5X5X5X5X5X5X5X5X5X5X5X5X5X5X5X5X5X5X5X5X5X5X5X5X5X5X5X5X5X5X5X5X",
"5X5XI P P P P P P P / P P P P P P P 5X5X5X5X5X5X5X5X5X5X5X5X5X5X",
"5X5XP (  .X.X.X.o.X.X.o.@.Y Y +.Y ) U 5X5X5X5X5X5X5X5X5X5X5X5X5X",
"5X5XP ) -.5.] ] } } ] 4.%.$.$.%.$.O. .( ( ( U U 5X5X5X5X5X5X5X5X",
"5X5X5X_ ) o.5.} | } | } { { 5.{ 4.5.3.3.3.-.O.Y U P 5X5X5X5X5X5X",
"5X5X5X0 ^ -.5.c.v.| } } } | } c.v.v.x.x.} } 4.O.) P 5X5X5X5X5X5X",
"5X5X  - W 7.6.>.>.:.7.b.b.b.b.] :.6.,.,.7.| } 3.^ K 5X5X5X5X5X5X",
"5X5X. 9 W <.q.B B e.S.D.F.m.b.<.q.G F s.2.} } W e : 5X5X5X5X5X5X",
"5X5X  9 Q 1.S E.W./.[.B.H.n.b.` S !.~.(.a.i.t.~ 6 3 h 5X5X5X5X5X",
"5X5X  * H / m x (.'.~.F ` [ c.2.9.E.'.].).`.A Z x x x x 5X5X5X5X",
"5X5X  O $ - # n [.[.k # - R ' =.g.d.}..X.X{._.R.Q.~.~.Q.z 5X5X5X",
"5X5X.         y C.V.7 O 7 f ;.b.l.L.*X&X>XoXs.C b v ~.~.E.x 5X5X",
"5X5X5X5X5X5XO a C.V.a h [.+XD.D.Y.#XY.U.$XI.k.L , 5 v ^.E.x 5X5X",
"5X5X5X5X5X; u i.oX|.D ).2X4X;XY.:X&XY.P.l.k.&.J < # j E.x x 5X5X",
"5X5X5X5X  = ~ K.%X=X X X3X4X<X,X>X&XL.l.&...L e $ 3 j l l l 5X5X",
"5X5X5X5X. & ~ N.@X-X-X-X,X,X<X,X;XU.k.*...J 9 $ 5X5X5X5X5X5X5X5X",
"5X5X5X5X5X@ 1 g f.I.U.#X>X<X1X&XL.k.&.T r 9 o 5X5X5X5X5X5X5X5X5X",
"5X5X5X5X5X5X  > s 9.w.f.J.XXXXB.g.) L r $   5X5X5X5X5X5X5X5X5X5X",
"5X5X5X5X5X5X5X5X+ @ @ 1 s N N 9.8.i , + .   5X5X5X5X5X5X5X5X5X5X",
"5X5X5X5X5X5X5X5X  O 6 t i 9.s.f.r.M t , O   5X5X5X5X5X5X5X5X5X5X",
"5X5X5X5X5X5X5X5X  = ~ u.y.N.OXoXu.0.0.p ;   5X5X5X5X5X5X5X5X5X5X",
"5X5X5X5X5X5X5X5X  1 p.I.@X-X:XI.j._ / p :   5X5X5X5X5X5X5X5X5X5X",
"5X5X5X5X5X5X5X5X  7 N.:X>X:X#XT.n.:.3.E *   5X5X5X5X5X5X5X5X5X5X",
"5X5X5X5X5X5X5X5X  1 e.V.V.C.C.Z.A.z.` R - 5X5X5X5X5X5X5X5X5X5X5X",
"5X5X5X5X5X5X5X5X  . > 2 1 n D `.G m 1 & 5X5X5X5X5X5X5X5X5X5X5X5X",
"5X5X5X5X5X5X5X5X5X    o q R y.i.w.g ;   5X5X5X5X5X5X5X5X5X5X5X5X",
"5X5X5X5X5X5X5X5X5X5X  % R ! ! ! ! R *   5X5X5X5X5X5X5X5X5X5X5X5X",
"5X5X5X5X5X5X5X5X5X5X  . % * * * * % .   5X5X5X5X5X5X5X5X5X5X5X5X",
"5X5X5X5X5X5X5X5X5X5X5X5X5X5X5X5X5X5X5X5X5X5X5X5X5X5X5X5X5X5X5X5X",
"5X5X5X5X5X5X5X5X5X5X5X5X5X5X5X5X5X5X5X5X5X5X5X5X5X5X5X5X5X5X5X5X"
};
