/* XPM */
static char *result[] = {
/* columns rows colors chars-per-pixel */
"28 32 172 2 ",
"   c #010101",
".  c #0B0504",
"X  c #0B0A05",
"o  c #0C0C09",
"O  c #07070A",
"+  c #100E0A",
"@  c #141406",
"#  c #171807",
"$  c #15120C",
"%  c #1A130C",
"&  c #1C1C08",
"*  c #1D1D07",
"=  c #141313",
"-  c #1C1612",
";  c #1C1B12",
":  c #1B1A1A",
">  c #251A0E",
",  c #381F0B",
"<  c #231B15",
"1  c #2B1E12",
"2  c #211F1A",
"3  c #202109",
"4  c #29200F",
"5  c #28290A",
"6  c #36370F",
"7  c #202217",
"8  c #25261D",
"9  c #2C221C",
"0  c #27291C",
"q  c #3A2C15",
"w  c #34261B",
"e  c #372718",
"r  c #3D3E11",
"t  c #2B2B24",
"y  c #2E2220",
"u  c #342A21",
"i  c #3E2F26",
"p  c #36362E",
"a  c #3A3327",
"s  c #422C18",
"d  c #512F14",
"f  c #4E3D1D",
"g  c #693D19",
"h  c #463A2C",
"j  c #4C3A2E",
"k  c #463626",
"l  c #583921",
"z  c #4C4E15",
"x  c #474913",
"c  c #66681C",
"v  c #5C4323",
"b  c #564422",
"n  c #424237",
"m  c #46463C",
"M  c #48483D",
"N  c #544233",
"B  c #5D4B3E",
"V  c #57473A",
"C  c #664329",
"Z  c #724621",
"A  c #6D5926",
"S  c #7C582D",
"D  c #764F32",
"F  c #7A5131",
"G  c #706F20",
"H  c #7D682A",
"J  c #747524",
"K  c #3D484A",
"L  c #4F4F43",
"P  c #554D43",
"I  c #505044",
"U  c #435355",
"Y  c #735C42",
"T  c #775D4A",
"R  c #795F50",
"E  c #7A6346",
"W  c #7A6454",
"Q  c #767572",
"!  c #814B1F",
"~  c #844E21",
"^  c #8A5022",
"/  c #845228",
"(  c #A05F2A",
")  c #817828",
"_  c #997838",
"`  c #B86B2C",
"'  c #AE6B32",
"]  c #B76C31",
"[  c #A27D3A",
"{  c #AF733E",
"}  c #BB783E",
"|  c #D47B33",
" . c #95745C",
".. c #9B775E",
"X. c #9C785F",
"o. c #B57840",
"O. c #977B66",
"+. c #A27C62",
"@. c #828324",
"#. c #8B8B27",
"$. c #8B802B",
"%. c #909028",
"&. c #999A2A",
"*. c #9C8235",
"=. c #A39D2F",
"-. c #A6813C",
";. c #A9AA2F",
":. c #A3A02F",
">. c #ADAE31",
",. c #ABA034",
"<. c #AFB031",
"1. c #BEBE34",
"2. c #B7B833",
"3. c #DD8239",
"4. c #F38E3C",
"5. c #FF953D",
"6. c #C7C838",
"7. c #C9C639",
"8. c #D1C73E",
"9. c #D4D53B",
"0. c #D9DA3D",
"q. c #DFE03E",
"w. c #E2E43E",
"e. c #E7E83F",
"r. c #B38C41",
"t. c #B89042",
"y. c #AD8569",
"u. c #A68267",
"i. c #B28A6C",
"p. c #AE8D74",
"a. c #B08E75",
"s. c #B59278",
"d. c #C89C49",
"f. c #E48A42",
"g. c #CEA24A",
"h. c #D1A34C",
"j. c #D5AB4B",
"k. c #CFB643",
"l. c #DCBC4A",
"z. c #D3B846",
"x. c #C29A7D",
"c. c #DED342",
"v. c #E1D544",
"b. c #E0D842",
"n. c #E5E640",
"m. c #E9E444",
"M. c #E7E840",
"N. c #EBEC42",
"B. c #E6E758",
"V. c #E7E85E",
"C. c #E9EA55",
"Z. c #E9EA65",
"A. c #E9EA6B",
"S. c #EEEF76",
"D. c #969798",
"F. c #A9A8AC",
"G. c #ACABB0",
"H. c #C39D82",
"J. c #CFA180",
"K. c #C7A58B",
"L. c #D3AA8B",
"P. c #D7AB8B",
"I. c #DDB393",
"U. c #EDBE9A",
"Y. c #E6B795",
"T. c #F4C39F",
"R. c #F5C6A3",
"E. c #FBCAA6",
"W. c #FBCDAB",
"Q. c #EED8C8",
"!. c #F2F3F4",
"~. c None",
/* pixels */
"~.~.~.~.~.~.~.~.~.~.~.  . ~.~.~.. X ~.~.~.~.~.~.~.~.~.~.",
"~.~.~.~.~.~.~.~.~.~.~.  @.c   x 6.;..     ~.~.~.~.~.~.~.",
"~.~.~.~.~.~.~.~.~.    #.9.6.;.6.e.q.<.;.&     ~.~.~.~.~.",
"~.~.~.~.~.~.~.  + #.&.9.w.w.C.S.Z.w.e.e.>.&.6   ~.~.~.~.",
"~.~.~.~.~.~.~.# #.w.M.Z.A.A.Z.V.B.n.w.w.M.N.<.z   ~.~.~.",
"~.~.~.~.~.~.~.5 n.w.w.V.Z.A.C.0.q.q.w.w.w.w.N.<.r   ~.~.",
"~.~.~.~.~.~.> A q.w.w.w.w.w.n.n.e.M.w.w.n.0.w.m.$.  ~.~.",
"~.~.~.~.~.~.q j.c.w.w.w.c.c.v.v.8.;.q.n.>.c.c.l._ 1   ~.",
"~.~.~.~.~.$ b h.g.b.b.b.z.r.[ -.S * 9.2.& A -.[ -.H   ~.",
"~.~.~.~.  f h.d.-.t.-.t.t.b O o X 3 6.& O o o = : : ~.~.",
"~.~.~.~.~.f d._ X o % + X t M M p & 1.# p M n Q G.F.~.~.",
"~.~.~.~.~.~.% X X n m m m y X o O X % X . o o $ = = ~.~.",
"~.~.~.~.~.~.%     o o o O J c 9 X.......X...+.j   ~.~.~.",
"~.~.~.~.~.4 % 3 :._ _ =.>.9.@.u J.L.u w x.U.W % ~.~.~.~.",
"~.~.~.~.1 1 . 5 m.j.g.l.J z 5 i u.P D.U K.E.V   ~.~.~.~.",
"~.~.I ~.1 1 ~.@ G z.g.g.s y 9 u y.O.!.K K.E.B   ~.~.~.~.",
"~.~.L ~.a ~.~.  @ c.j.g.e W y.Y I.W.Q.W L.U.N   ~.~.~.~.",
"~.~.~.L ~.~.~.~.# #.k.j.H H s.I.R.R.R.E.Y. .u ~.~.~.~.~.",
"~.~.L ~.~.~.~.~.~.r &.*.,.x B L.p.p.p.p. .9 ~.~.~.~.~.~.",
"~.~.~.~.~.~.~.~.@ <.3     o n N   . - - . ~.~.~.~.~.~.~.",
"~.~.~.~.~.~.~.o o 0 7 7 7 o + 7 ; t i.i.< ~.~.~.~.~.~.~.",
"~.~.~.~.~.~.7 I m M M 0 + = 7 =   - y.i.< ~.~.~.~.~.~.~.",
"~.~.~.~.~.V I.s.o X o O C D t   ~.~.$ % ~.~.~.~.~.~.~.~.",
"~.~.~.~.  B W.x.O ; D ] 3.f.Z   ~.~.~.~.~.~.~.~.~.~.~.~.",
"~.~.~.~.  - h h F ' Y Y  .l , ~.~.~.~.~.~.~.~.~.~.~.~.~.",
"~.~.~.~.X % e F f.4.} { { q   ~.~.~.~.~.~.~.~.~.~.~.~.~.",
"~.~.~.  2 k e l ! 4.5.5.5.` d     ~.~.~.~.~.~.~.~.~.~.~.",
"~.~.~.  < w     . ! ^ ^ ! | ( # < y ~.~.~.~.~.~.~.~.~.~.",
"~.~.~.~.  ~.~.~.~.        g / k k h   ~.~.~.~.~.~.~.~.~.",
"~.~.~.~.~.~.~.~.~.~.~.~.~.~.% w %   ~.~.~.~.~.~.~.~.~.~.",
"~.~.~.~.~.~.~.~.~.~.~.~.~.~.~.    ~.~.~.~.~.~.~.~.~.~.~.",
"~.~.~.~.~.~.~.~.~.~.~.~.~.~.~.~.~.~.~.~.~.~.~.~.~.~.~.~."
};
