/* XPM */
static char *result[] = {
/* columns rows colors chars-per-pixel */
"26 32 181 2 ",
"   c #010101",
".  c #0A0603",
"X  c #0B0A04",
"o  c #060909",
"O  c #0C0D0A",
"+  c #120D07",
"@  c #0F110C",
"#  c #141506",
"$  c #13120D",
"%  c #1B140B",
"&  c #1E1D09",
"*  c #191A06",
"=  c #0F1111",
"-  c #121413",
";  c #1C1B13",
":  c #1D1D19",
">  c #161816",
",  c #21160D",
"<  c #251C0D",
"1  c #291B0D",
"2  c #291D11",
"3  c #1F210E",
"4  c #23240A",
"5  c #2E2F0C",
"6  c #39220F",
"7  c #32330E",
"8  c #2E2214",
"9  c #2B221B",
"0  c #342813",
"q  c #3B2D16",
"w  c #352818",
"e  c #353311",
"r  c #3E3016",
"t  c #3D3C12",
"y  c #3D321D",
"u  c #252623",
"i  c #2B2B25",
"p  c #2E2F28",
"a  c #342B22",
"s  c #3B2F25",
"d  c #3D3625",
"f  c #34352C",
"g  c #3D3A2D",
"h  c #3F3D39",
"j  c #452C1A",
"k  c #42321A",
"l  c #4C3B1C",
"z  c #5F3717",
"x  c #56361D",
"c  c #623C1D",
"v  c #6A3E1B",
"b  c #46382E",
"n  c #443527",
"m  c #513E29",
"M  c #4B3D31",
"N  c #473B30",
"B  c #444413",
"V  c #4D4D16",
"C  c #46471B",
"Z  c #57431F",
"A  c #59451F",
"S  c #5F5F1A",
"D  c #78451D",
"F  c #5F611A",
"G  c #61621B",
"H  c #6B6C1E",
"J  c #564324",
"K  c #594527",
"L  c #46463B",
"P  c #4F4C3E",
"I  c #4B4C32",
"U  c #564936",
"Y  c #59563B",
"T  c #634C26",
"R  c #764B29",
"E  c #675D20",
"W  c #6A5228",
"Q  c #785B2D",
"!  c #6D4E37",
"~  c #714F37",
"^  c #7A6729",
"/  c #7B7A23",
"(  c #7E7A3D",
")  c #454B43",
"_  c #514E41",
"`  c #4E5044",
"'  c #525247",
"]  c #595343",
"[  c #625642",
"{  c #685946",
"}  c #7D6143",
"|  c #855227",
" . c #935523",
".. c #80682C",
"X. c #86782A",
"o. c #9C7939",
"O. c #A3612B",
"+. c #AE652A",
"@. c #AD682E",
"#. c #A5693A",
"$. c #A96B3C",
"%. c #A17D3B",
"&. c #CB7A38",
"*. c #D67D34",
"=. c #866242",
"-. c #906340",
";. c #846A57",
":. c #8D725E",
">. c #AA7243",
",. c #808124",
"<. c #868825",
"1. c #989827",
"2. c #94912A",
"3. c #9B9C2A",
"4. c #AA843E",
"5. c #AD8D3C",
"6. c #B3963D",
"7. c #A2A32D",
"8. c #A6A82E",
"9. c #ABA934",
"0. c #BFAA3D",
"q. c #D3813D",
"w. c #DF863C",
"e. c #E5893E",
"r. c #E0853A",
"t. c #F78F3B",
"y. c #FD933D",
"u. c #C2AE3D",
"i. c #C6BE3B",
"p. c #BFC035",
"a. c #CDCC39",
"s. c #C2C336",
"d. c #DDDE3E",
"f. c #D1D23A",
"g. c #E2E33F",
"h. c #E7E83F",
"j. c #B18A40",
"k. c #B99043",
"l. c #B69141",
"z. c #96806A",
"x. c #C49C46",
"c. c #C79D48",
"v. c #C99D49",
"b. c #C19546",
"n. c #FF9940",
"m. c #C8A047",
"M. c #CEA24A",
"N. c #D3A44D",
"B. c #D1AC48",
"V. c #CAB241",
"C. c #D6BB46",
"Z. c #D5B747",
"A. c #D9BC64",
"S. c #C6C040",
"D. c #DBC546",
"F. c #DDCC45",
"G. c #D5CB40",
"H. c #DED442",
"J. c #D1D359",
"K. c #E1DD41",
"L. c #E3E443",
"P. c #ECE943",
"I. c #EEF042",
"U. c #E7E85E",
"Y. c #E7E859",
"T. c #F0F155",
"R. c #DCC565",
"E. c #DFCE66",
"W. c #E2D167",
"Q. c #EAEB6B",
"!. c #E7E66A",
"~. c #F1F26D",
"^. c #F0F160",
"/. c #ECEF76",
"(. c #F5F878",
"). c #C7A084",
"_. c #D2AA8C",
"`. c #DDB393",
"'. c #E6BA99",
"]. c #FCCBA7",
"[. c None",
/* pixels */
"[.[.[.[.[.[.[.[.[.[.[.X . . [.[.[.[.[.[.[.[.[.[.[.[.",
"[.[.[.[.[.[.        4 7.p./           [.[.[.[.[.[.[.",
"[.[.[.[.[.  & 2.3.1.9.Q.(.J.3.1.7.H   [.[.[.[.[.[.[.",
"[.[.      V 3.g.^.~.Q.R.A.W.~.~.T.a.,.4       [.[.[.",
"[.  4 G F 9.P.L.Y.Q.!.R.A.E.Q.Q.Y.h.K.,.G V X [.[.[.",
"[.[.t 7.a.K.g.g.g.g.L.Q./.U.g.g.g.g.g.K.s.<.# [.[.[.",
"[.[.[.0 5.F.g.g.g.g.g.g.g.g.g.g.g.g.g.C.^ , [.[.[.[.",
"[.  q x.H.g.g.g.g.g.g.g.g.g.g.g.d.K.g.g.D.o.+ [.[.[.",
"[.  k x.H.g.H.B.H.g.g.g.K.g.g.g.D.Z.g.g.D.o.% [.[.[.",
"  W l.N.B.F.g.H.Z.B.B.B.B.B.B.B.D.d.H.D.N.c.4.q [.[.",
"  < k r r 2.I.d.E Q N.N.N.N.b.J 2.I.H.E q r r +   [.",
"[.[.    o 7 X.V.e % J Z Z A l   ^ 0.F 3     [.[.[.[.",
"[.[.[.  o - a W d O   o > =   : J K u @ .   [.[.[.[.",
"[.[.[.  8 d u   u :   < g i o i = o f y %   [.[.[.[.",
"[.[.[.t 6.^ < < < < 1 2 2 2 2 < < < 5 5.X.4 [.[.[.[.",
"[.  B s.f.0.k.c.v.v.4.q % T x.c.c.x.l.i.f.7.# [.[.[.",
"[.[.[.# # X B a.Z.N.j.q , T m.M.D.7.% # # # [.[.[.[.",
"[.[.[.[.[.[.[.7 9.P.S.Y L ( H.K./ & [.[.[.[.[.[.[.[.",
"[.[.[.[.[.[.[.  5 B C P ` I B B *   [.[.[.[.[.[.[.[.",
"[.[.[.[.[.    $ @ o - ) ' f O O $ O     [.[.[.[.[.[.",
"[.[.[.[.: > O $ $ w U P ` P m ; @ $ @ ; - [.[.[.[.[.",
"[.s N N ` f $     x >.] ) } $.,   . > L P b N 9 [.[.",
"  :.].'.{ :   [.  v r.=.[ $.*.1 [.[.. p :.].'.M   [.",
"  ;.'.).a [.[.[.  v e.w.w.e.&.1 [.[.[.  { '._.M   [.",
"[.$ $ $ [.[.[.. R =.] [ [ [ { #.j   [.[.$ $ - [.[.[.",
"[.[.[.[.[.[.[.. O.e.q.q.q.q.q.e.c   [.[.[.[.[.[.[.[.",
"[.[.[.[.[.[.[.. +.y.t.y.y.&.~ ~ 8   [.[.[.[.[.[.[.[.",
"[.[.[.[.[.[.[.. +.y.r.D c R #.#.j   [.[.[.[.[.[.[.[.",
"[.[.[.[.[.[.O 2 | O.R .   j  .@.c % [.[.[.[.[.[.[.[.",
"[.[.[.[.[.  + j K 9   [.[.[.  n m 8   [.[.[.[.[.[.[.",
"[.[.[.[.[.[.. , M s   [.[.[.O M n $   [.[.[.[.[.[.[.",
"[.[.[.[.[.[.[.      [.[.[.[.[.      [.[.[.[.[.[.[.[."
};
