/* XPM */
static char *result[] = {
/* columns rows colors chars-per-pixel */
"19 30 20 1 ",
"  c black",
". c #291D11",
"X c #1F2116",
"o c #3A3535",
"O c #4E3924",
"+ c #4F4F43",
"@ c #6D5A48",
"# c #536C6F",
"$ c #8A684E",
"% c #A56E45",
"& c #F28D3B",
"* c #D7D83C",
"= c #E2E33F",
"- c #BC9172",
"; c #CC9F4A",
": c #EEC09E",
"> c #EEEF86",
", c #BEBDC2",
"< c white",
"1 c None",
/* pixels */
"11111 11  11 111111",
"11111 1 == 1 111111",
"1111 = ==== = 11111",
"1   ====>>====   11",
"1 ===>>=;;=>>=== 11",
"1 ===>==>>====== 11",
"   ============   1",
" *=;==========;== 1",
"1  == ;;==;; ==  11",
"11 ==        == 111",
"11 = +++,,+++ = 111",
"11 =          = 111",
"1 = ---------- = 11",
"11 --  ::::  -- 111",
"11-  <#::::#<  -111",
"111 -< :::: <- 1111",
"1111 -::::::- 11111",
"111 ; -::::- ; 1111",
"1111 X  $$  X 11111",
"1   + XXXXXX +   11",
" :-+ 1 %++% 1 +-: 1",
" :: 11 &++& 11 :: 1",
"1  11 %++++% 11  11",
"11111 &&&&&& 111111",
"11111 oo&&&& 111111",
"11111 &&  && 111111",
"1111 OO 11 OO 11111",
"1111 .@ 11 @. 11111",
"11111  1111  111111",
"1111111111111111111"
};
