/* XPM */
static char *result[] = {
/* columns rows colors chars-per-pixel */
"26 32 168 2 ",
"   c #020201",
".  c #090704",
"X  c #0B0A04",
"o  c #040808",
"O  c #0B0D0A",
"+  c #060907",
"@  c #110C07",
"#  c #130E0A",
"$  c #0E100B",
"%  c #1A1A07",
"&  c #13150E",
"*  c #1C1C09",
"=  c #1A120B",
"-  c #131415",
";  c #1A1C12",
":  c #1A1816",
">  c #231B0D",
",  c #2D1A0A",
"<  c #271E18",
"1  c #291F18",
"2  c #271E17",
"3  c #29200F",
"4  c #2B2A0C",
"5  c #26270A",
"6  c #3A210C",
"7  c #31320D",
"8  c #242314",
"9  c #2D2210",
"0  c #2B261B",
"q  c #24251D",
"w  c #312413",
"e  c #3B2E15",
"r  c #3D2A18",
"t  c #383719",
"y  c #1E1E21",
"u  c #2B2A23",
"i  c #2B2C2B",
"p  c #27262E",
"a  c #302720",
"s  c #322923",
"d  c #3A2D23",
"f  c #32332C",
"g  c #3B3B32",
"h  c #462F1A",
"j  c #46341B",
"k  c #4B381B",
"l  c #573B1E",
"z  c #693E1B",
"x  c #45372E",
"c  c #43382C",
"v  c #4A3726",
"b  c #503B26",
"n  c #4B3C32",
"m  c #3F4012",
"M  c #424212",
"N  c #4D4D15",
"B  c #56431D",
"V  c #515216",
"C  c #575819",
"Z  c #6F431F",
"A  c #6C6D1E",
"S  c #63641C",
"D  c #535423",
"F  c #4B4130",
"G  c #534339",
"H  c #5A4A3A",
"J  c #644D25",
"K  c #734A24",
"L  c #6B5227",
"P  c #675126",
"I  c #765C2C",
"U  c #7A5D2C",
"Y  c #7C573C",
"T  c #777821",
"R  c #7C7C23",
"E  c #404147",
"W  c #4E4F43",
"Q  c #515145",
"!  c #6A5343",
"~  c #645042",
"^  c #735845",
"/  c #6F604E",
"(  c #786250",
")  c #646969",
"_  c #7D7B7A",
"`  c #834C20",
"'  c #82542A",
"]  c #955E2B",
"[  c #82593B",
"{  c #807225",
"}  c #866830",
"|  c #896B32",
" . c #977637",
".. c #AF662B",
"X. c #B56A2C",
"o. c #AB6830",
"O. c #B26F3B",
"+. c #BF7337",
"@. c #C67738",
"#. c #D87E35",
"$. c #8F6E58",
"%. c #856B58",
"&. c #97745C",
"*. c #A37F64",
"=. c #838326",
"-. c #878827",
";. c #8A8B25",
":. c #888029",
">. c #95952A",
",. c #9A9B2B",
"<. c #A18936",
"1. c #A3A42D",
"2. c #ADAD30",
"3. c #BEAE3B",
"4. c #B6B633",
"5. c #BABB34",
"6. c #DA823D",
"7. c #EA8838",
"8. c #FF943D",
"9. c #C3C436",
"0. c #CBCC39",
"q. c #D3CF3D",
"w. c #D5D63B",
"e. c #DCDD3D",
"r. c #E2E43F",
"t. c #B88F43",
"y. c #BB9443",
"u. c #A4836C",
"i. c #B48B6E",
"p. c #B89377",
"a. c #C19646",
"s. c #CC9F4A",
"d. c #C69B48",
"f. c #E48A43",
"g. c #CDA14A",
"h. c #D2A44C",
"j. c #D6AF4B",
"k. c #CCB541",
"l. c #D6BE45",
"z. c #D8B34A",
"x. c #C79B7B",
"c. c #C69A7A",
"v. c #DAC246",
"b. c #DCCC43",
"n. c #D4C043",
"m. c #DED741",
"M. c #E1CC47",
"N. c #E2DA42",
"B. c #E5E540",
"V. c #E9EA41",
"C. c #F1E747",
"Z. c #908F93",
"A. c #939296",
"S. c #B4B5B5",
"D. c #CFA180",
"F. c #D6AC8D",
"G. c #E3B695",
"H. c #E6BA9A",
"J. c #ECBE9C",
"K. c #E4B897",
"L. c #E7BEA0",
"P. c #EFC19E",
"I. c #F0C29F",
"U. c #F1C4A2",
"Y. c #FFCDA7",
"T. c #C5CDCF",
"R. c #F3DBCA",
"E. c None",
/* pixels */
"E.E.E.E.E.E.E.E.X X X E.E.X . E.E.X E.E.E.E.E.E.E.E.",
"E.E.E.E.E.  E.  >.w.=.  * 4.w.N S >.  E.E.E.E.E.E.E.",
"E.E.E.E.M 1.% 1.e.r.w.5.9.e.r.0.0.e.1.X   E.E.E.E.E.",
"E.E.E.E.M e.4.e.r.r.r.N.r.r.r.r.r.r.r.2.* E.E.E.E.E.",
"      V 5.r.B.B.r.r.r.r.r.r.r.r.r.V.0.j     E.E.E.E.",
"E.  C 9.V.r.r.r.r.r.r.r.r.r.r.r.r.r.w.>.,.,.C E.E.E.",
"  R A ,.B.r.r.l.N.r.r.r.r.r.r.r.m.v.r.V.b.:.5   E.E.",
"  V A 1.V.B.B.M.M.N.r.r.r.r.r.q.l.b.r.v.g.w   E.E.E.",
"  N 9.C.3.;.w.;.3.<.1.0.=.l.M.j.z.M.k.I a.| e E.E.E.",
"  R ;.{ j * 0.> k , V 4.. L U U U U J & P } e   E.E.",
"E.E.p E p % -.t - - D R o - - O o   + &     o     E.",
"E.E.Z.A.)     u g g p O o f g q & & ; w   $ ; E.E.E.",
"E.E.E.  . < 2 2 1 1 < : . 4 7 4 7 4 j y.j . $ 8 E.E.",
"E.E.E.E.d c.c.u.&.i.x.$.% 0.0.w.N.b.s.g.g.e E.E.q E.",
"E.E.E.E.c P.G.i - %.F.&.% 9.7 L d.g.s.s.g.k E.E.W E.",
"E.E.E.E.x P.H.) T._ ! p.8 5.k   J h.s.s.a.y.B : Q E.",
"E.E.E.E.x I.K.s S.R.G.G.*.0 p.G B h.g.a.3 X E.E.E.W ",
"E.E.E.E.x J.P.F.J.U.I.I.K.F.J.G B h.s.a.> E.E.E.E.W ",
"E.E.E.E.E.x K.U.P.P.I.I.J.c.x I d. .e t.> E.E.E.E.E.",
"E.E.E.E.E.E.s s s 0 ! x.p.d E.> w > E.3 E.E.E.E.E.E.",
"E.E.E.E.E.E.  ^ 1 o 0 n g   E.E.E.E.E.E.E.E.E.E.E.E.",
"E.E.E.E.E.E.E.d # O & X ; & . E.E.E.E.E.E.E.E.E.E.E.",
"E.E.E.E.E.E.E.E.  r j o g g O E.E.E.E.E.E.E.E.E.E.E.",
"E.E.E.E.E.E.E.E.  K @.K u W f O E.E.E.E.E.E.E.E.E.E.",
"E.E.E.E.E.E.E.E.  h ] ' h s / ( n E.E.E.E.E.E.E.E.E.",
"E.E.E.E.E.E.E.E.  6 K ' O.@ u.Y.%.  E.E.E.E.E.E.E.E.",
"E.E.E.E.E.E.E.E.  l 6.8.7.z $.u.~ E.E.E.E.E.E.E.E.E.",
"E.E.E.E.E.E.E.E.6 c Y +.....,     E.E.E.E.E.E.E.E.E.",
"E.E.E.E.E.E.@ @ X.f.[ y     = > @   E.E.E.E.E.E.E.E.",
"E.E.E.E.E.O b b ..#.`   E.E.    E.E.E.E.E.E.E.E.E.E.",
"E.E.E.E.E.# H v w #   E.E.E.E.E.E.E.E.E.E.E.E.E.E.E.",
"E.E.E.E.E.E.      E.E.E.E.E.E.E.E.E.E.E.E.E.E.E.E.E."
};
