/* XPM */
static char *result[] = {
/* columns rows colors chars-per-pixel */
"32 32 22 1 ",
"  c black",
". c #291D11",
"X c #1F2116",
"o c #282828",
"O c #3A3535",
"+ c #4E3924",
"@ c #4F4F43",
"# c #404048",
"$ c #6D5A48",
"% c #536C6F",
"& c #8A684E",
"* c #A56E45",
"= c #F28D3B",
"- c #D7D83C",
"; c #E2E33F",
": c #BC9172",
"> c #CC9F4A",
", c #EEC09E",
"< c #EEEF86",
"1 c #BEBDC2",
"2 c white",
"3 c None",
/* pixels */
"33333333333333333333333333333333",
"333##333333 33  33 3333333333333",
"#oo33333333 3 ;; 3 3333333333333",
"o#33333333 ; ;;;; ; 333333333333",
"3333333   ;;;;<<;;;;   333333333",
"3333333 ;;;<<;>>;<<;;; 333333333",
"3333333 ;;;<;;<<;;;;;; 333333333",
"333333   ;;;;;;;;;;;;   33333333",
"333333 -;>;;;;;;;;;;>;; 33333333",
"3333333  ;; >>;;>> ;;  333333333",
"33333333 ;;        ;; 3333333333",
"33333333 ; @@@11@@@ ; 3333333333",
"33333333 ;          ; 3333333333",
"3333333 ; :::::::::: ; 333333333",
"33333333 ::  ,,,,  :: 3333333333",
"33333333:  2%,,,,%2  :3333333333",
"333333333 :2 ,,,, 2: 33333333333",
"3333333333 :,,,,,,: 333333333333",
"333333333 > :,,,,: > 33333333333",
"3333333333 X  &&  X 333333333333",
"3333333   @ XXXXXX @   333333333",
"333333 ,:@ 3 *@@* 3 @:, 33333333",
"333333 ,, 33 =@@= 33 ,, 33333333",
"3333333  33 *@@@@* 33  333333333",
"33333333333 ====== 3333333333333",
"33333333333 OO==== 3333333333333",
"33333333333 ==  == 3333333333333",
"3333333333 ++ 33 ++ 333333333333",
"3333333333 .$ 33 $. 333333333333",
"33333333333  3333  3333333333333",
"33333333333333333333333333333333",
"33333333333333333333333333333333"
};
