/* XPM */
static char *result[] = {
/* columns rows colors chars-per-pixel */
"26 32 177 2 ",
"   c #010100",
".  c #090603",
"X  c #0B0B03",
"o  c #0C0C0A",
"O  c #120C06",
"+  c #141406",
"@  c #12130D",
"#  c #1B130B",
"$  c #0B0F10",
"%  c #151615",
"&  c #171813",
"*  c #1C1A13",
"=  c #1D1D1B",
"-  c #261B0E",
";  c #211308",
":  c #241C15",
">  c #261C18",
",  c #291F18",
"<  c #2E1F14",
"1  c #2C2D0C",
"2  c #27230C",
"3  c #34350E",
"4  c #24241C",
"5  c #2B2319",
"6  c #272010",
"7  c #312614",
"8  c #362A1B",
"9  c #3B3C11",
"0  c #3E3C1B",
"q  c #252421",
"w  c #2E2F28",
"e  c #342C23",
"r  c #382E25",
"t  c #34352D",
"y  c #3D3224",
"u  c #2E2F33",
"i  c #3A3B32",
"p  c #38383E",
"a  c #452C18",
"s  c #47351D",
"d  c #5A371B",
"f  c #653C1A",
"g  c #42342A",
"h  c #443629",
"j  c #533E2B",
"k  c #523927",
"l  c #4B3E32",
"z  c #453C33",
"x  c #474714",
"c  c #575818",
"v  c #62631B",
"b  c #6F701D",
"n  c #70721F",
"m  c #494133",
"M  c #574737",
"N  c #634827",
"B  c #795C2C",
"V  c #654B37",
"C  c #6D5136",
"Z  c #7A5335",
"A  c #764A28",
"S  c #6C6923",
"D  c #747520",
"F  c #777823",
"G  c #7B7C22",
"H  c #7E7524",
"J  c #796229",
"K  c #3F3E46",
"L  c #464A43",
"P  c #4B4C46",
"I  c #4D4E4E",
"U  c #525043",
"Y  c #6A5445",
"T  c #6E5A4A",
"R  c #675845",
"E  c #775C49",
"W  c #7C6654",
"Q  c #6A6F6E",
"!  c #975C2C",
"~  c #9B5A26",
"^  c #817E21",
"/  c #8D6838",
"(  c #9B6C3F",
")  c #976B3F",
"_  c #9B7938",
"`  c #B76B2D",
"'  c #B87139",
"]  c #AB6B3A",
"[  c #C57535",
"{  c #8A6743",
"}  c #9C6D40",
"|  c #866953",
" . c #826550",
".. c #93725C",
"X. c #9C785E",
"o. c #947661",
"O. c #9A7A61",
"+. c #A27E64",
"@. c #C67E43",
"#. c #7F8023",
"$. c #838424",
"%. c #888627",
"&. c #93942A",
"*. c #9D9E2C",
"=. c #979929",
"-. c #AB9D35",
";. c #A19831",
":. c #A3A42D",
">. c #A9AA2F",
",. c #ACAC30",
"<. c #B2B331",
"1. c #BBBB33",
"2. c #F68F3C",
"3. c #FB923C",
"4. c #F7903C",
"5. c #C2AE3E",
"6. c #C2B13E",
"7. c #C4C535",
"8. c #C7C837",
"9. c #CDCE38",
"0. c #DBDC3D",
"q. c #D5D63C",
"w. c #DFE03E",
"e. c #E3E43E",
"r. c #E8EA3F",
"t. c #8B8477",
"y. c #A98266",
"u. c #AF876B",
"i. c #B58C6E",
"p. c #BA8F70",
"a. c #B69379",
"s. c #D5B459",
"d. c #C5997A",
"f. c #C09576",
"g. c #DEC946",
"h. c #DAC64A",
"j. c #DFD243",
"k. c #E1CC47",
"l. c #E3DD43",
"z. c #E3D644",
"x. c #E3E443",
"c. c #E7E840",
"v. c #EAEC41",
"b. c #E3E349",
"n. c #E8E848",
"m. c #EDF042",
"M. c #F5F644",
"N. c #E5E652",
"B. c #E7E95A",
"V. c #E9EC5E",
"C. c #E6E855",
"Z. c #E2D767",
"A. c #E2D276",
"S. c #EBEC6A",
"D. c #EBEC65",
"F. c #ECED73",
"G. c #EDEE7A",
"H. c #798B8E",
"J. c #838386",
"K. c #929295",
"L. c #ADB9BB",
"P. c #BCBAB9",
"I. c #CBA488",
"U. c #D5AC8D",
"Y. c #D0A78A",
"T. c #DEB08E",
"R. c #DDB596",
"E. c #ECBE9C",
"W. c #EEC09E",
"Q. c #F1C19E",
"!. c #EDEE83",
"~. c #F3C4A1",
"^. c #FFD1AB",
"/. c #DEDFDF",
"(. c #EEE2D9",
"). c #ECE8E5",
"_. c None",
/* pixels */
"_._._._._._._.  _._._.X X X _._.    _._._._._._._._.",
"_._._._._._._.  _._.1 <.q.$.. _.    _._._._._._._._.",
"_._._._._._.3 ,.9 c 8.w.x.0.,.2 n &.X _._._._._._._.",
"_._.      v 7.e.1.7.n.F.G.D.0.1.9.0.>.3       _._._.",
"_.  3 *.:.7.n.F.G.V.l.s.s.h.b.S.G.D.x.<.:.#.+ _._._.",
"_.  x c.v.e.N.!.D.b.x.Z.A.Z.x.N.B.N.e.r.M.1.+ _._._.",
"    + c 8.r.b.C.b.e.x.N.D.N.w.e.e.w.e.e.:.x     _._.",
"  x G $.5.z.e.r.e.x.e.e.w.e.e.x.r.r.x.h.-.n G 2   _.",
"  c G %.s.q.7.$.6.q.k.e.v.l.k.k.;.=.j.g.>.G G 9 _._.",
"_._.  X <.M.,.X s / B ^ ^ ^ B B - 3 w.m.n     _._._.",
"_._._.+ <.8.F 4 % % > p K u % % % 0 =.q.D   _._._._.",
"_._._.+ 1.b   t i t L J.K.Q i i i q . <.G   _._._._.",
"_._._.9 =.S > , , > > : > : : 5 4 > 7 &.n 3 _._._._.",
"_._.x ,.s Y p.+.X.u.d.d.d.d.f.+.X.y.u.g S *.+ _._._.",
"_._._.: | u.| q o T ~.E.E.~.U.w $ z +.y.M # _._._._.",
"_._._.+.5   P /.H.t.E.W.Q.Q.R.Q L.P.>   M p._._._._.",
"_._._._.  j I.).I Y Q.W.W.~.U.e K.(.O.,   _._._._._.",
"_._._._._.o i a.Y.R.W.W.W.E.E.U.I.o.: _._._._._._._.",
"_._._._.  N / 4 ..T.Q.Q.W.Q.E.I.V s _ 7 _._._._._._.",
"_._._._._.- 6 * : , h ..y.E 8 5 * * 6 _._._._._._._.",
"_._.      q w o @ @ & e r 4 @ @ o & t o       _._._.",
"  T ..E z q % _.. 8 C m i M C *   o = w M  .o.g _._.",
"  o.^.U.l $ _._.. d -.Y L { [ ; _._._.* W Q.~.l   _.",
"_.m T Y > _._.. a A { U L Y { N 5 _._._.z T Y e _._.",
"_._.  _._._._.o ! @.} } } { ( [ d   _._._.    _._._.",
"_._._._._._._.. A ] ' 2.3.3.2.2.f   _._._._._._._._.",
"_._._._._._._.  k Z / ~ ~ [ 2.2.f   _._._._._._._._.",
"_._._._._._._.; ~ [ ~ O   a ` [ f o _._._._._._._._.",
"_._._._._.  O h j 5   _._._.. h k 7   _._._._._._._.",
"_._._._._._.  - l y   _._._.o m y #   _._._._._._._.",
"_._._._._._._.      _._._._._.      _._._._._._._._.",
"_._._._._._._._._._._._._._._._._._._._._._._._._._."
};
