/* XPM */
static char *result[] = {
/* columns rows colors chars-per-pixel */
"26 32 171 2 ",
"   c #010101",
".  c #090705",
"X  c #0A0904",
"o  c #0C0C0A",
"O  c #06060A",
"+  c #130D07",
"@  c #0F100A",
"#  c #14120C",
"$  c #1A130C",
"%  c #151407",
"&  c #141414",
"*  c #1D1F15",
"=  c #1A1A19",
"-  c #171A11",
";  c #21190D",
":  c #381F0B",
">  c #241B13",
",  c #2A1D11",
"<  c #251B1B",
"1  c #272809",
"2  c #202217",
"3  c #242219",
"4  c #26281C",
"5  c #3E2F17",
"6  c #31251C",
"7  c #332517",
"8  c #292A24",
"9  c #332922",
"0  c #3B2F26",
"q  c #313227",
"w  c #3F3C33",
"e  c #452F1E",
"r  c #48301E",
"t  c #433418",
"y  c #553519",
"u  c #603716",
"i  c #663C1B",
"p  c #493827",
"a  c #42332B",
"s  c #4C3A2D",
"d  c #463726",
"f  c #523722",
"g  c #573E28",
"h  c #4A3B31",
"j  c #3F4011",
"k  c #434412",
"l  c #4D4E15",
"z  c #56421D",
"x  c #545417",
"c  c #555718",
"v  c #64651B",
"b  c #6A6B1D",
"n  c #73741F",
"m  c #5A4420",
"M  c #4D4133",
"N  c #46463C",
"B  c #49493E",
"V  c #5C483B",
"C  c #624C25",
"Z  c #624529",
"A  c #734721",
"S  c #644A37",
"D  c #666721",
"F  c #777821",
"G  c #7B7C22",
"H  c #737420",
"J  c #70643B",
"K  c #4F4E43",
"L  c #54544C",
"P  c #654F44",
"I  c #745C43",
"U  c #715744",
"Y  c #665D56",
"T  c #5F625C",
"R  c #7F6349",
"E  c #8D5222",
"W  c #89552C",
"Q  c #8E782E",
"!  c #87623D",
"~  c #937135",
"^  c #987637",
"/  c #9D7A39",
"(  c #A5622A",
")  c #A76632",
"_  c #A27E3B",
"`  c #AE733E",
"'  c #BB733B",
"]  c #CB7937",
"[  c #D97F36",
"{  c #876954",
"}  c #886953",
"|  c #9A775D",
" . c #9C785F",
".. c #B97A41",
"X. c #A17C61",
"o. c #828324",
"O. c #8A8A26",
"+. c #95882F",
"@. c #97982A",
"#. c #9B9C2B",
"$. c #919527",
"%. c #A18D35",
"&. c #A7813C",
"*. c #A49533",
"=. c #A9AA2E",
"-. c #A2A42D",
";. c #AEAD31",
":. c #B6AC37",
">. c #B4B532",
",. c #CE803D",
"<. c #F6903F",
"1. c #FF963E",
"2. c #C7B93D",
"3. c #C4C536",
"4. c #CBCC39",
"5. c #C8C03B",
"6. c #D3D43B",
"7. c #D8D93C",
"8. c #DFE03E",
"9. c #E3E43E",
"0. c #E7E83E",
"q. c #B38C41",
"w. c #B88D44",
"e. c #BC9244",
"r. c #A5836B",
"t. c #A78165",
"y. c #AF8D74",
"u. c #B28E73",
"i. c #B79279",
"p. c #BB9071",
"a. c #C79B48",
"s. c #D09F4C",
"d. c #E78C40",
"f. c #D2A24D",
"g. c #DCB44C",
"h. c #D6B648",
"j. c #C09474",
"k. c #DBC446",
"l. c #DFC847",
"z. c #DFD940",
"x. c #DDD043",
"c. c #E2C34B",
"v. c #E0D344",
"b. c #E0DB41",
"n. c #E5E640",
"m. c #E7E840",
"M. c #EAEB41",
"N. c #E6E754",
"B. c #E7E85F",
"V. c #EAEB57",
"C. c #E7E860",
"Z. c #E9EA6A",
"A. c #E9EA66",
"S. c #EEEF76",
"D. c #82898C",
"F. c #AB9C90",
"G. c #A8A7AC",
"H. c #C49E82",
"J. c #CBA082",
"K. c #D0A688",
"L. c #DAAB88",
"P. c #E3B694",
"I. c #E9BA98",
"U. c #CDB9AB",
"Y. c #F1C29F",
"T. c #F5C5A2",
"R. c #FFCEA9",
"E. c #F8C7A3",
"W. c #FBD4B7",
"Q. c #C7CED1",
"!. c None",
/* pixels */
"!.!.!.!.!.!.!.!.X X !.!.X     !.!.!.!.!.!.!.!.!.!.!.",
"!.!.!.!.!.      O.3.x   n b   !.!.!.!.!.!.!.!.!.!.!.",
"!.!.!.      o.;.6.0.3.=.4.6.v   !.!.!.!.!.!.!.!.!.!.",
"!.!.!.  G #.6.M.9.B.S.V.0.0.3.@.b   !.!.!.!.!.!.!.!.",
"!.    G 7.M.9.n.9.N.B.A.Z.Z.V.M.3.x   !.!.!.!.!.!.!.",
"!.  v 7.n.9.n.8.9.9.9.N.Z.Z.N.9.M.#.  !.!.!.!.!.!.!.",
"!.  2.n.9.n.9.n.n.m.9.9.9.9.9.9.m.:.5 !.!.!.!.!.!.!.",
"  5 e.l.x.;.6.n.>.5.v.v.v.7.9.9.n.k.~   !.!.!.!.!.!.",
"X ^ _ _ _ $ O.7.k C _ _ w.h.b.z.k.f./ ; !.!.!.!.!.!.",
"!.= = o o O   =.l . o . C e.w.w.&.e.f.^   !.!.!.!.!.",
"!.G.G.L N N o #.k 8 N B 4 X o o X t a.~   !.!.!.!.!.",
"!.& & o o o . % X O o . 8 B B N q   + % !.!.!.!.!.!.",
"!.!.  }  . . . . .X.9 b b O o o o     ; !.!.!.!.!.!.",
"!.!.!.6 H.I.V > u.L.a G 6.=.*.~ %.n . , , !.!.!.!.!.",
"!.!.!.  H.T.T D.Y | s 1 l +.g.s.c.-.  , , , !.!.!.!.",
"!.!.!.  H.T.K Q.F.t.a 6 < z f.h.:.k   !., !.K K !.!.",
"!.!.!.  u.T.{ U.W.P.R r.P m f.c.$.  !.!.6 !.K K !.!.",
"!.!.!.  P H.E.T.T.E.I.i.J Q g.:.v !.!.!.!.K !.!.!.!.",
"!.!.!.!.  U r.u.y.y.K.V c *.%.G 1 !.!.!.!.!.K !.!.!.",
"!.!.!.!.!.  # > o   s d o .   x o.  !.!.!.!.!.!.!.!.",
"!.!.!.!.!.  { j.M - 2 @ @ * 2 4 * O O !.!.!.!.!.!.!.",
"!.!.!.!.!.  } p.0   # 2 # @ q K B B w O !.!.!.!.!.!.",
"!.!.!.!.!.!.# $ !.!.  8 I y O O . M P.r.  !.!.!.!.!.",
"!.!.!.!.!.!.!.!.!.!.  A <.,.) m   h R.i.  !.!.!.!.!.",
"!.!.!.!.!.!.!.!.!.!.!.: Z } I ! ( S a 9   !.!.!.!.!.",
"!.!.!.!.!.!.!.!.!.!.!.  y ' ` ,.d.' f ; +   !.!.!.!.",
"!.!.!.!.!.!.!.!.!.  !.y W ,.1.1.] i e 6 0   !.!.!.!.",
"!.!.!.!.!.!.!.!.3 > % ( W e E E i     $ 9   !.!.!.!.",
"!.!.!.!.!.!.!.  0 p p W u       !.!.!.!.    !.!.!.!.",
"!.!.!.!.!.!.!.!.  + 7 $ !.!.!.!.!.!.!.!.!.!.!.!.!.!.",
"!.!.!.!.!.!.!.!.!.    !.!.!.!.!.!.!.!.!.!.!.!.!.!.!.",
"!.!.!.!.!.!.!.!.!.!.!.!.!.!.!.!.!.!.!.!.!.!.!.!.!.!."
};
