/* XPM */
static char *result[] = {
/* columns rows colors chars-per-pixel */
"26 32 174 2 ",
"   c #010101",
".  c #090504",
"X  c #0B0A03",
"o  c #070809",
"O  c #0B0B0A",
"+  c #070906",
"@  c #130E0A",
"#  c #0E110C",
"$  c #14130D",
"%  c #1D150C",
"&  c #1E1A0A",
"*  c #121305",
"=  c #141514",
"-  c #171915",
";  c #1A1B14",
":  c #161618",
">  c #231A0D",
",  c #26190C",
"<  c #221B15",
"1  c #2A1F18",
"2  c #1F2118",
"3  c #21220A",
"4  c #2C270E",
"5  c #34340D",
"6  c #37380F",
"7  c #3A360E",
"8  c #232114",
"9  c #2F2314",
"0  c #23231E",
"q  c #3A2C15",
"w  c #372919",
"e  c #3E3714",
"r  c #3B2E24",
"t  c #302D21",
"y  c #33342D",
"u  c #3D332B",
"i  c #39392F",
"p  c #393A37",
"a  c #452A15",
"s  c #4E2F15",
"d  c #502F14",
"f  c #46351B",
"g  c #4B3A1B",
"h  c #583315",
"j  c #44332B",
"k  c #49392B",
"l  c #4D3B32",
"z  c #424212",
"x  c #4D4A17",
"c  c #595B16",
"v  c #5D5D1A",
"b  c #515117",
"n  c #6B6C1E",
"m  c #64651C",
"M  c #424224",
"N  c #594620",
"B  c #5A5527",
"V  c #584839",
"C  c #574234",
"Z  c #644626",
"A  c #644E24",
"S  c #6A5326",
"D  c #685726",
"F  c #73592A",
"G  c #7A5F2A",
"H  c #644E3C",
"J  c #67503F",
"K  c #68503E",
"L  c #6B6825",
"P  c #7D622D",
"I  c #726525",
"U  c #737321",
"Y  c #7C7E22",
"T  c #4D4D42",
"R  c #474749",
"E  c #525246",
"W  c #455357",
"Q  c #6E594B",
"!  c #755946",
"~  c #745C49",
"^  c #755A46",
"/  c #7D614C",
"(  c #786656",
")  c #605F67",
"_  c #7E7366",
"`  c #707175",
"'  c #985D2D",
"]  c #9F602B",
"[  c #837828",
"{  c #866830",
"}  c #8A6C32",
"|  c #9A6339",
" . c #957336",
".. c #B76C2E",
"X. c #AA6E3F",
"o. c #BF7331",
"O. c #C57432",
"+. c #CA7632",
"@. c #D37E39",
"#. c #856A53",
"$. c #866D5B",
"%. c #8A6F5B",
"&. c #8F725C",
"*. c #8C7060",
"=. c #9B7C65",
"-. c #907460",
";. c #807E7D",
":. c #828424",
">. c #8D8F26",
",. c #8E8F28",
"<. c #8F9028",
"1. c #98982A",
"2. c #A6813D",
"3. c #AE873E",
"4. c #AD903B",
"5. c #B5B632",
"6. c #BABB33",
"7. c #E9893B",
"8. c #F58F3C",
"9. c #F9903C",
"0. c #F7903C",
"q. c #BFC035",
"w. c #C2C336",
"e. c #C7C837",
"r. c #CCCD39",
"t. c #CFD03A",
"y. c #D3D43B",
"u. c #DBDC3D",
"i. c #DFE03E",
"p. c #E2E33F",
"a. c #B58D41",
"s. c #BA9243",
"d. c #B79042",
"f. c #9C8677",
"g. c #A6846C",
"h. c #B28C70",
"j. c #BA9377",
"k. c #CE8249",
"l. c #CA9E4A",
"z. c #C39847",
"x. c #CDA04A",
"c. c #C0A241",
"v. c #D3A44D",
"b. c #D5AE4A",
"n. c #CCB642",
"m. c #D5B747",
"M. c #D6BC45",
"N. c #D6B349",
"B. c #D9B64A",
"V. c #DCBA4B",
"C. c #C89D7E",
"Z. c #D7C244",
"A. c #DAC645",
"S. c #E2C849",
"D. c #E1DD41",
"F. c #E5E640",
"G. c #EBE046",
"H. c #717E82",
"J. c #87878E",
"K. c #C19C81",
"L. c #CCA283",
"P. c #D6AB8B",
"I. c #D9AF90",
"U. c #DDB293",
"Y. c #E5B694",
"T. c #E7BA99",
"R. c #F0BE9A",
"E. c #F0C19F",
"W. c #F4C5A2",
"Q. c #FAC9A5",
"!. c #FBCBA8",
"~. c #F8DDCA",
"^. c #EFEDEB",
"/. c None",
/* pixels */
"/././././././.X X /.X X /././.X X /././././././././.",
"/./././././.  :.>.4 e.y.v   5 e.y.b   /.X /././././.",
"/./././.  X 1.p.u.t.p.p.y.r.t.p.p.u.U 6 5.3 /./././.",
"/./././.& 5.p.p.p.p.p.p.p.p.p.p.p.p.y.t.t.3 /./././.",
"/././.  3 t.p.p.p.p.p.p.p.p.i.p.p.p.p.p.i.e.z       ",
"/.  n q.q.i.p.p.p.p.p.p.p.p.p.p.p.p.p.p.p.p.r.v   /.",
"/.  * D m.u.p.A.M.p.p.p.p.p.p.p.p.Z.Z.p.p.p.m n ,.  ",
"/./.  q x.b.D.p.Z.m.i.p.F.F.p.F.M.A.D.F.F.p.q.U 3   ",
"/.  N a.a.f 4.V.N.v.m.B.I Y w.x d.F :.6.b c.G.y.U   ",
"    > q q - 9 q q q q q . v 6.X 4 . n 5.. , 7 z z /.",
"/./.# O   . # $ $ - y y = 3 B u y y M 5 O ` J.) /./.",
"/./.$   X F 8     o = : O   o = - - o   o p R R /./.",
"/.8 # > } l. .[ <.<.<.,.5 1 ^ ^ ~ ~ ^ ^ H X   /././.",
"2 /.  q v.x.v.m.A.n.U r.c j K.P.K j &.Y.L.< /./././.",
"2 + g  .v.x.x.x.a.f   6.c l K.Q ;.W *.Q.I.< /./././.",
"i - f A F z.x.v.G o ~ L B =.I.$.^.H.( W.U.< /./././.",
"E /./.  % s.v.v.G 0 T.*.g.T.E.Q.~.f.g.W.Y.< /./././.",
"/./././.% s.} 2.a.S #.L.E.E.E.W.W.!.!.I./ ; /./././.",
"/./././.% S > g G A   C h.Y.L.-.$.%.%.Q   /././././.",
"/././././.  /.  @ l /.# C #.H         /././././././.",
"/././././././.  j h.~ r # $ ; ; /./././././././././.",
"/./././././././.r Q . w r % 2 T 0 O /./././././././.",
"/././././././././.    | k.' a i T u r u /./././././.",
"/./././././././././.9 ' O.O.' 9 y =.E.j.. /././././.",
"/././././././././.> X.Z f f Z X.s #.K.-.o /././././.",
"/././././././././., 7.0.0.0.8.8.7.s     /./././././.",
"/././././././././.a +.+.O.+.+.O.| w   /././././././.",
"/././././././.  h @.u O         > < @   /./././././.",
"/././././././.  d ..% /./././.      /./././././././.",
"/././././././.  X w V = /./././././././././././././.",
"/././././././././.    /././././././././././././././.",
"/./././././././././././././././././././././././././."
};
