/* XPM */
static char *result[] = {
/* columns rows colors chars-per-pixel */
"32 32 14 1 ",
"  c black",
". c #291D11",
"X c #1F2116",
"o c #3A3535",
"O c #4F4F43",
"+ c #6D5A48",
"@ c #A56E45",
"# c #F28D3B",
"$ c #E2E33F",
"% c #BC9172",
"& c #CC9F4A",
"* c #EEC09E",
"= c #EEEF86",
"- c None",
/* pixels */
"--------------------------------",
"--------------  ----------------",
"------------  $$  --------------",
"--------    $$$$$$    ----------",
"-------- $$$$$==$$$$$ ----------",
"------  $$$$==&&==$$$$  --------",
"------ $$$$$$$==$$$$$$$ --------",
"------- &$$$$$$$$$$$$& ---------",
"------ &$$$$$$$$$$$$$$& --------",
"------ &&$$&&$$$$&&$$&& --------",
"-------  $$$ &&&& $$$  ---------",
"--------  $$      $$  ----------",
"--------     O.OO     ----------",
"-------- &    ..    & ----------",
"------- $$&&&.&&.&&&$$ ---------",
"--------  $&&.&&.&&$  ----------",
"----------  O&&&&O  ------------",
"---------  XO $$ OX  -----------",
"-------  XXXOXXXXOXXX  ---------",
"------ *%XXXXXXXXXXXX%* --------",
"------ **  XO####OX  ** --------",
"-------  -- ###### --  ---------",
"----------- ###### -------------",
"---------- @OOOOOO@ ------------",
"---------- ######## ------------",
"---------- ###  ooo ------------",
"---------- @@ -- @@ ------------",
"----------- .+  +. -------------",
"------------  --  --------------",
"--------------------------------",
"--------------------------------",
"--------------------------------"
};
