/* XPM */
static char *result[] = {
/* columns rows colors chars-per-pixel */
"32 32 216 2 ",
"   c #020101",
".  c #0B0502",
"X  c #0B090A",
"o  c #030408",
"O  c #140A06",
"+  c #1C0A05",
"@  c #120B0A",
"#  c #1A0C09",
"$  c #1B1010",
"%  c #1E1D1F",
"&  c #17130F",
"*  c #230F07",
"=  c #261105",
"-  c #21110B",
";  c #2B150D",
":  c #3A1907",
">  c #261B17",
",  c #321C1A",
"<  c #34241C",
"1  c #121F2D",
"2  c #0E182C",
"3  c #142837",
"4  c #322727",
"5  c #491A0D",
"6  c #521C13",
"7  c #47240C",
"8  c #57290D",
"9  c #49271E",
"0  c #6F390A",
"q  c #7A2918",
"w  c #6A3115",
"e  c #462929",
"r  c #462C22",
"t  c #5A3729",
"y  c #5A3336",
"u  c #45382C",
"i  c #6A3A37",
"p  c #76383A",
"a  c #534435",
"s  c #624227",
"d  c #6E4937",
"f  c #2F3641",
"g  c #242F51",
"h  c #2D3852",
"j  c #373C55",
"k  c #2D3A63",
"l  c #593B49",
"z  c #2F426A",
"x  c #33406D",
"c  c #394677",
"v  c #394A77",
"b  c #394C7C",
"n  c #2E5878",
"m  c #585151",
"M  c #4D4C57",
"N  c #644845",
"B  c #784F50",
"V  c #775858",
"C  c #755350",
"Z  c #70644E",
"A  c #766756",
"S  c #524E6F",
"D  c #47537A",
"F  c #4A5178",
"G  c #725868",
"H  c #4D617D",
"J  c #7C6C6B",
"K  c #796A65",
"L  c #787777",
"P  c #727374",
"I  c #913119",
"U  c #833024",
"Y  c #9E3E2D",
"T  c #8C3B37",
"R  c #B63922",
"E  c #AA3B3B",
"W  c #BB3F37",
"Q  c #B93E38",
"!  c #B53F39",
"~  c #A63422",
"^  c #84481D",
"/  c #934912",
"(  c #9A4E13",
")  c #B85917",
"_  c #955830",
"`  c #AC423B",
"'  c #BC4335",
"]  c #B84535",
"[  c #B34D26",
"{  c #BA6933",
"}  c #C3681C",
"|  c #DD6E1E",
" . c #D77C1F",
".. c #E9741F",
"X. c #EB781C",
"o. c #F47D1B",
"O. c #F4761E",
"+. c #DF4B2E",
"@. c #D5432A",
"#. c #CE5A2B",
"$. c #C4512F",
"%. c #D6572A",
"&. c #C54833",
"*. c #D44C33",
"=. c #C15031",
"-. c #CE5431",
";. c #DD5F35",
":. c #EA5436",
">. c #E85033",
",. c #D3612A",
"<. c #DB6825",
"1. c #C67129",
"2. c #CA712A",
"3. c #D87627",
"4. c #C87435",
"5. c #D47A35",
"6. c #E86B23",
"7. c #F06723",
"8. c #F06922",
"9. c #E57724",
"0. c #8C4446",
"q. c #975948",
"w. c #845252",
"e. c #945357",
"r. c #835A43",
"t. c #9A6447",
"y. c #98645C",
"u. c #93745B",
"i. c #99724D",
"p. c #A56847",
"a. c #B17B4F",
"s. c #A67958",
"d. c #BD7B58",
"f. c #A56756",
"g. c #9A7968",
"h. c #82776B",
"j. c #B07B6B",
"k. c #C45E4E",
"l. c #C26F5D",
"z. c #D06650",
"x. c #EE6B47",
"c. c #EE7952",
"v. c #EF7951",
"b. c #F5801C",
"n. c #FB8118",
"m. c #D59935",
"M. c #DA863F",
"N. c #F58427",
"B. c #F6923C",
"V. c #EF8C3A",
"C. c #B89376",
"Z. c #AB8875",
"A. c #DB8741",
"S. c #EE9958",
"D. c #F49356",
"F. c #EEA25F",
"G. c #C19067",
"H. c #C78A72",
"J. c #CC9673",
"K. c #D59874",
"L. c #CD9363",
"P. c #E89668",
"I. c #F0996C",
"U. c #D3A378",
"Y. c #EBA674",
"T. c #E3A472",
"R. c #F1AC7A",
"E. c #F3A878",
"W. c #F3B37A",
"Q. c #F0A669",
"!. c #344F84",
"~. c #2D5588",
"^. c #395283",
"/. c #3A5788",
"(. c #3B6494",
"). c #366798",
"_. c #38709F",
"`. c #3E76A2",
"'. c #4F7088",
"]. c #516E91",
"[. c #557996",
"{. c #527594",
"}. c #6D758A",
"|. c #6B8597",
" X c #788185",
".X c #7494A9",
"XX c #6C8CA2",
"oX c #9F9A91",
"OX c #91888A",
"+X c #AFA99E",
"@X c #B5A28E",
"#X c #9FA9AA",
"$X c #B2BBBC",
"%X c #C19B83",
"&X c #D7AE8A",
"*X c #DCBB99",
"=X c #CFAF8E",
"-X c #E7B48E",
";X c #F4BA88",
":X c #E5BD98",
">X c #E8AD80",
",X c #C8B7A1",
"<X c #F6C28F",
"1X c #EDC59D",
"2X c #F4C294",
"3X c #F6CA9C",
"4X c #F8C999",
"5X c #DCC4A6",
"6X c #F5CEA3",
"7X c #F6D0A5",
"8X c #F9D1A6",
"9X c #F1CEA9",
"0X c #D3D8D9",
"qX c #E3DACE",
"wX c #FAE4CC",
"eX c None",
/* pixels */
"eXeXeXeXeXeXeXeXeXeXeXeXeXeXeXeXeXeXeXeXeXeXeXeXeXeXeXeXeXeXeXeX",
"eXeXeXeXeXeXeXeXeXeXeXeXeXeXeXeXeXeXeXeXeXeXeXeXeXeXeXeXeXeXeXeX",
"eXeXeXeXeXeXeXeXeXeXeXeXeXeXeXeXeXeXeXeXeXeXeXeXeXeXeXeXeXeXeXeX",
"eXeXeXeXeXeXeXeXeXeXeXeXeXE E E E E E E E E E E E E E E E eXeXeX",
"eXeXeXeXeXeXeXeXeXeXeXeX` Q W W Q Q W &.] =.=.=.=.$.=.] E E eXeX",
"eXeXeXeXeXeXE E ! ` E ` &.@.+.+.+.+.+.6.9.X.......9.6.#.] E eXeX",
"eXeXeXeXeXE W &.-.#.,.#.<.7.7.7.7.7.7.O.n.n.b.n.o.6.#.=.] eXeXeX",
"eXeXeXeX! ' &.+.8.o.o.o.o.O.o.o.o.o.o.o.o.o.o.n.o.<.=.Y eXeXeXeX",
"eXeXeXeXE ` #.8.o.o.n.b.b.o.o.o.b.b.b.b.N.b.o.o.o.X.../ + eXeXeX",
"eXeXeXeXeXq ) X.n.o.5.a.s.t.{ 3.b.V.B.V.V.4.p.t.p.5.3./ = o eXeX",
"eXeXeXeXX , d 2.3.M.g.[.(.b V 4.N.B.S.P.C.K F v S q.<.( =   eXeX",
"eXeXeXx g g N V J P [.{.).b G 4.b.b.A.Z.}.{.).~.D w.-.I =   eXeX",
"eXeX/./././.^.^.].XX.X.X}.G q.3.X.) ^ M n [.|.'.j i U 8 + o eXeX",
"c ^.)._._.(.^.F OX,X5X*XK.z.;.O.} 0 > & 4 L @XA 1 @ + O . o eXeX",
"v ^.).).n h l e.H.:X4X;XE.I.D.O.m.i.m % > u.&XZ #     eXeXeXeXeX",
"v ^.(.~.3 - q -.D.E.E.Q.W.;X;XD.S.5X+XM f g.=Xu.9 O eXeXeXeXeXeX",
"v v b z 2 * q @.:.x.c.S.W.4X3X;X3XwX0X.X'.oX*XJ.t.r O eXeXeXeXeX",
"c c c k 2 O 5 q R +.:.x.I.2X7X6X9XwXqX$X#X,X1XR.d.d $   eXeXeXeX",
"eXeXeXeXeXeX@ - w R @.>.c.E.2X6X7X7X7X1X1X1X-XJ.f.t @   eXeXeXeX",
"eXeXeXeXeXeXeXeX; 6 I @.:.x.P.;X7X7X3X;XR.Y.L.r.9 ; eXeXeXeXeXeX",
"eXeXeXeXeXeXeXeX  . : U ~ ' k.H.%X%XC.s.t.t.d 9 @ eXeXeXeXeXeXeX",
"eXeXeXeXeXeXeXeX    . + 6 p 0.w.C C N e > - + O eXeXeXeXeXeXeXeX",
"eXeXeXeXeXeXeXeX    $ < y B y.Z.g.e.i y e &     eXeXeXeXeXeXeXeX",
"eXeXeXeXeXeXeXeX    , p T q.j.-X&XZ.e.f.q.r X   eXeXeXeXeXeXeXeX",
"eXeXeXeXeXeXeXeX  . 7 T ` ` l.-X1X2X&XT.d.t X   eXeXeXeXeXeXeXeX",
"eXeXeXeXeXeXeXeX  . 8 [ ;.4.M.Q.<X4X8X4XK.d O   eXeXeXeXeXeXeXeX",
"eXeXeXeXeXeXeXeX  O 8 )  .m.m.L.U.U.&X&XC.a X   eXeXeXeXeXeXeXeX",
"eXeXeXeXeXeXeXeXeXeX: 7 s Z P  XP m a a u & .   eXeXeXeXeXeXeXeX",
"eXeXeXeXeXeXeXeXeXeX    4 N K L K s < = .     eXeXeXeXeXeXeXeXeX",
"eXeXeXeXeXeXeXeXeXeX    7 ( 1.1.1.} ( 7     eXeXeXeXeXeXeXeXeXeX",
"eXeXeXeXeXeXeXeXeXeX    - 8 0 0 0 0 8 =     eXeXeXeXeXeXeXeXeXeX",
"eXeXeXeXeXeXeXeXeXeX      . . . . . . .     eXeXeXeXeXeXeXeXeXeX"
};
