/* XPM */
static char *result[] = {
/* columns rows colors chars-per-pixel */
"23 32 140 2 ",
"   c #030403",
".  c #080707",
"X  c #090807",
"o  c #04070A",
"O  c #07090C",
"+  c #090A0B",
"@  c #060B13",
"#  c #090D12",
"$  c #080F1C",
"%  c #0F1115",
"&  c #0E121B",
"*  c #121212",
"=  c #13171D",
"-  c #16181C",
";  c #1A1A1A",
":  c #060F20",
">  c #091325",
",  c #061229",
"<  c #08152C",
"1  c #0B1A2C",
"2  c #151A22",
"3  c #1D1F23",
"4  c #141E2D",
"5  c #051430",
"6  c #081736",
"7  c #071934",
"8  c #0A1A33",
"9  c #071738",
"0  c #06193B",
"q  c #091A3A",
"w  c #121F34",
"e  c #1F2020",
"r  c #1B212C",
"t  c #0C213E",
"y  c #142237",
"u  c #1D2434",
"i  c #162439",
"p  c #19263A",
"a  c #1C283C",
"s  c #242323",
"d  c #2D2523",
"f  c #21242B",
"g  c #302725",
"h  c #322927",
"j  c #352F2D",
"k  c #202736",
"l  c #25233E",
"z  c #232C3C",
"x  c #2A2C3D",
"c  c #363130",
"v  c #3D3633",
"b  c #453D3B",
"n  c #4A3F3C",
"m  c #071D40",
"M  c #091F42",
"N  c #0A2245",
"B  c #0B254C",
"V  c #152245",
"C  c #1F2E4B",
"Z  c #0A2750",
"A  c #0C2A53",
"S  c #0D2E59",
"D  c #0D315D",
"F  c #173054",
"G  c #292743",
"H  c #232E43",
"J  c #322941",
"K  c #293142",
"L  c #2C3148",
"P  c #2F3C55",
"I  c #0D3463",
"U  c #0D3769",
"Y  c #0D396B",
"T  c #103A6C",
"R  c #3D434A",
"E  c #374554",
"W  c #244874",
"Q  c #464646",
"!  c #554B49",
"~  c #60565F",
"^  c #625D5C",
"/  c #76605B",
"(  c #515868",
")  c #4D5D7C",
"_  c #5F677B",
"`  c #606060",
"'  c #6B616D",
"]  c #6A6A69",
"[  c #736569",
"{  c #646878",
"}  c #717171",
"|  c #8D6D77",
" . c #9A787F",
".. c #62738B",
"X. c #6E7A89",
"o. c #787C87",
"O. c #75778C",
"+. c #727B8A",
"@. c #707B96",
"#. c #6B829E",
"$. c #86888C",
"%. c #878F9D",
"&. c #989796",
"*. c #9B9B9B",
"=. c #A98B8B",
"-. c #A79797",
";. c #AD9190",
":. c #A29599",
">. c #8697AA",
",. c #A199A2",
"<. c #A29FAE",
"1. c #93A3B7",
"2. c #94A5B8",
"3. c #99A8B9",
"4. c #A1A2A2",
"5. c #A7A6AE",
"6. c gray68",
"7. c #ABADB0",
"8. c #B4B5B5",
"9. c #BCBDBD",
"0. c #C09E99",
"q. c #CCA79E",
"w. c #C3AFAA",
"e. c #DBB7AF",
"r. c #C1B4BB",
"t. c #E4BBB0",
"y. c #C6C6C6",
"u. c #CEC5C3",
"i. c #D4D3D2",
"p. c #D9D8D7",
"a. c #DBDADA",
"s. c #EBCFCB",
"d. c #ECD1CB",
"f. c #FDDBD2",
"g. c #E0E0DE",
"h. c #FFE2DA",
"j. c #FFE8DF",
"k. c #E2E1E1",
"l. c #ECEBEA",
"z. c None",
/* pixels */
"z.z.z.z.z.z.z.z.z.z.z.z.z.z.z.z.z.z.z.z.z.z.z.",
"z.z.z.z.z.z.z.% = O z.+ 2 + z.z.z.z.z.z.z.z.z.",
"z.z.z.z.X . z.= K 2 O + K r O z.z.z.z.z.z.z.z.",
"z.z.z.z.+ 2 + = K z > # K H 4 # + z.z.z.z.z.z.",
"z.z.z.z.+ z k 1 a K p y x K a a # z.z.z.z.z.z.",
"z.z.z.z.+ k H p a K K K K K K K r + z.z.z.z.z.",
"z.z.z.z.X z K K K K K K K K H y w 4 + z.z.z.z.",
"z.z.z.+ - z p a p p p p p p w 7 8 1 $ . z.z.z.",
"z.z.z.z.r z t D D F B D A q 8 q 7 < > X z.z.z.",
"z.z.z.z.+ k t T I A I A B I M q 7 # > X z.z.z.",
"z.z.z.z.O & 8 B q S U q M T A q 7 + O z.z.z.z.",
"z.z.z.z.O t A T A B S A A A N B q $ + z.z.z.z.",
"z.z.z.z.@ D U T I D m V V 0 q q q q > O z.z.z.",
"z.z.z.. ( @.) T T B J  .| G q < 7 0 0 x d   z.",
"z.z.z.o -.s.;.B D B G { 5.V q $ $ 5 K =.~ = + ",
"z.z.z.E #...' 9 A T I B F A A 6 # o d [ o.*.s ",
"z.z.+ &.l.,.1 M I T T U Y Y A 0 @ z.z.s Q Q * ",
"z.  R 3.7.} 1 U U U U U U Y B 9 $ . z.z.z.z.z.",
"z.j :.5.{ e %.1.2.2.1.1.2.>.X.P w O z.z.z.z.z.",
"z.! j.h.;.c k.l.k.p.a.a.a.i.a.7.$.- z.z.z.z.z.",
"z.n e.q./ u +.9.6.4.&.( 4.8.a.9.*.- z.z.z.z.z.",
"z.z.g h + , q H H f s e 6.k.k.8.*.; z.z.z.z.z.",
"z.z.z.z.z.O $ : # . z.* ] y.u.w.^ * z.z.z.z.z.",
"z.z.z.z.z.z.z.z.z.z.z.z.v d.f.t.g z.z.z.z.z.z.",
"z.z.z.z.z.z.z.z.z.z.z.z.b h.r.O.H o z.z.z.z.z.",
"z.z.z.z.z.z.z.z.z.z.z.z.v ,.W I I N + z.z.z.z.",
"z.z.z.z.z.z.z.z.z.z.z.z.X w Y B q q O z.z.z.z.",
"z.z.z.z.z.z.z.z.z.z.z.z.z.1 D q q q > + z.z.z.",
"z.z.z.z.z.z.z.z.z.z.z.z.z.1 A 9 0 q < . z.z.z.",
"z.z.z.z.z.z.z.z.z.z.z.z.z.1 Z q q q , X z.z.z.",
"z.z.z.z.z.z.z.z.z.z.z.z.z.+ $ > , > + z.z.z.z.",
"z.z.z.z.z.z.z.z.z.z.z.z.z.z.z.z.z.z.z.z.z.z.z."
};
