/* XPM */
static char *result[] = {
/* columns rows colors chars-per-pixel */
"29 47 14 1 ",
"  c black",
". c gray3",
"X c #081931",
"o c #08193A",
"O c #293142",
"+ c #103A6B",
"@ c #A57B7B",
"# c #A5A5A5",
"$ c #CEA59C",
"% c #ADC5D6",
"& c #FFDED6",
"* c #E6E6E6",
"= c white",
"- c None",
/* pixels */
"-----------------------------",
"---------.....---------------",
"---------.OOO.........-------",
"----------.OOOO.OOOOO...-----",
"--------....OOOOOOOOOOO....--",
"--------.OOOOOOOOOOOOOOOOO..-",
"---------.OOOOOOOOOOOOXXOXO.-",
"-------....OOOOOOOOOOXXXXXO.-",
"-------.OOOOOXXOOOOOOXX++%O.-",
"-------.XXXXXXXXOOOOOX++%%O.-",
"--------.XXXXXXXXOOOX+%%%%O.-",
"------....XXX++XXOOOX+%%%+O.-",
"-----..++++++++XXOOXX++++.O.-",
"----..++++++++$XXOOX=OO&....-",
"----.+++oXXXXX$XXOOX=OO&.-..-",
"----.+ooooXXXXO$XXO&&&&&.--.-",
"----.oo  .oo+##OXXX&&&&..----",
"-------...oo++##OXX&&&..-----",
"------..+++o+++###X@@..------",
"----...$$++++++++##**.-------",
"--...++$&&+++++++++++.-------",
"-..###*+&&++o+++++++..-------",
"..##***#.ooo+++++++..--------",
".##*++...ooo+++++++$.--------",
".#++&&&.ooo++++++++o.--------",
".+$&&&&.ooo++++++++#..-------",
"..$$&&&.ooo+++++++##*.-------",
"-.$$$&..ooo+++++++##*..------",
"-..$$$...##+++++++##+&.------",
"--..... ..##*****.oo$&.------",
"------..oo##*****.$$$&.------",
"-----...oo##*****..$$..------",
"----..ooooo##****.....-------",
"----.oooooo##****.-----------",
"----.ooooooo#####.-----------",
"----.ooooooo$$&&&.-----------",
"----.oooooooo$&&.------------",
"----.oooo##oo++..------------",
"----.ooo####**+.-------------",
"----.ooooo#**+..-------------",
"----.ooooooo...--------------",
"----..oooo+++...-------------",
"-----..ooo+++&&..------------",
"------..ooo+$$$&.------------",
"-------..oooooo..------------",
"--------........-------------",
"-----------------------------"
};
