/* XPM */
static char *result[] = {
/* columns rows colors chars-per-pixel */
"23 32 175 2 ",
"   c #070707",
".  c #080707",
"X  c #030609",
"o  c #05080B",
"O  c #0A0A0B",
"+  c #110F0E",
"@  c #050A10",
"#  c #0C0E12",
"$  c #060F1F",
"%  c #080F1C",
"&  c #0F1012",
"*  c #0C121B",
"=  c #131212",
"-  c #121419",
";  c #0B1323",
":  c #06172F",
">  c #07182F",
",  c #0F1A29",
"<  c #08142B",
"1  c #191E27",
"2  c #141C2D",
"3  c #1A1F28",
"4  c #171C25",
"5  c #041537",
"6  c #0C1C34",
"7  c #041739",
"8  c #091A3B",
"9  c #06193C",
"0  c #111E34",
"q  c #1C212B",
"w  c #0F2038",
"e  c #132136",
"r  c #1A2334",
"t  c #13243C",
"y  c #192539",
"u  c #2A2727",
"i  c #2B2929",
"p  c #242C3D",
"a  c #232739",
"s  c #2D353F",
"d  c #4C3E3C",
"f  c #051C41",
"g  c #0A254C",
"h  c #0D2746",
"j  c #102242",
"k  c #1C2F48",
"l  c #1D314B",
"z  c #0B2A54",
"x  c #0B2E5B",
"c  c #112B52",
"v  c #0E305D",
"b  c #183455",
"n  c #272F41",
"m  c #282F40",
"M  c #232C48",
"N  c #273041",
"B  c #293142",
"V  c #29374A",
"C  c #27364A",
"Z  c #333A4A",
"A  c #2D3F55",
"S  c #0C3565",
"D  c #0B3769",
"F  c #0E396A",
"G  c #113A6B",
"H  c #2D4056",
"J  c #2E425E",
"K  c #324359",
"L  c #1B4372",
"P  c #37567A",
"I  c #38577B",
"U  c #5E4D4A",
"Y  c #494553",
"T  c #4B4859",
"R  c #585352",
"E  c #604E4B",
"W  c #72635F",
"Q  c #4F5466",
"!  c #545263",
"~  c #505668",
"^  c #555B6C",
"/  c #5B5C6B",
"(  c #5D5764",
")  c #58677D",
"_  c #73646E",
"`  c #626977",
"'  c #7B6A72",
"]  c gray44",
"[  c #957770",
"{  c #917D7F",
"}  c #3B5C82",
"|  c #46668A",
" . c #5D6980",
".. c #536988",
"X. c #57718F",
"o. c #557394",
"O. c #5C7996",
"+. c #6F7885",
"@. c #61728B",
"#. c #6B748D",
"$. c #787282",
"%. c #6D7C94",
"&. c #787F96",
"*. c #747F99",
"=. c #737C95",
"-. c #7A8295",
";. c #78899E",
":. c #76849D",
">. c #7B8EA5",
",. c #898887",
"<. c #868A8F",
"1. c #8C8B89",
"2. c #988487",
"3. c #938082",
"4. c #858D9C",
"5. c #9B8C92",
"6. c #8F9397",
"7. c #92969C",
"8. c #97999B",
"9. c #AC8D8B",
"0. c #B7928D",
"q. c #AB8E92",
"w. c #AC9195",
"e. c #A09F9F",
"r. c #B79F99",
"t. c #B79591",
"y. c #8395AB",
"u. c #889AAF",
"i. c #8598AD",
"p. c #969AAA",
"a. c #8A9CB1",
"s. c #A699A0",
"d. c #ADA4AA",
"f. c #ACAAAA",
"g. c #A7A5A4",
"h. c #B4A9AF",
"j. c #A1A7B4",
"k. c #B4AAB0",
"l. c #B7B6B5",
"z. c #B9B8B6",
"x. c #BDB9BF",
"c. c #C29B96",
"v. c #CAAAA6",
"b. c #D4B3AE",
"n. c #CEB6B5",
"m. c #CABBBC",
"M. c #DABDB8",
"N. c #EDC8BF",
"B. c #9BB4C7",
"V. c #A6BECF",
"C. c #A5BED1",
"Z. c #BCC3CC",
"A. c #A7C0D2",
"S. c #C6C4C3",
"D. c #C9C7C6",
"F. c #CAC8C6",
"G. c #C3C5CA",
"H. c #C2C8CF",
"J. c #CEC9CD",
"K. c #DDC6C6",
"L. c #DFC9C9",
"P. c #D6C1C3",
"I. c #CCD1D7",
"U. c #DCD6D6",
"Y. c #E7C6C0",
"T. c #E5C9C4",
"R. c #E7CFCE",
"E. c #EFCBC2",
"W. c #E0DFDE",
"Q. c #EED3D0",
"!. c #FEDED6",
"~. c #FFE1D8",
"^. c #EAE9E7",
"/. c #ECEBEA",
"(. c None",
/* pixels */
"(.(.(.(.(.(.(.(.(.(.(.(.(.(.(.(.(.(.(.(.(.(.(.",
"(.(.(.(.(.(.(.(.. O q O . O O q q . (.(.(.(.(.",
"(.(.(.(.(.(.(.. - p B O - p p N 6 O (.(.(.(.(.",
"(.(.(.(.. . q q B B B q B B B y > O O q O (.(.",
"(.(.(.. - p N B p y B B N p p n p p r , O (.(.",
"(.(.. 3 N N N r : 5 e p r : 5 e N B y O . (.(.",
"(.(.O p n N e A H H A K A A A V e 6 p q O (.(.",
"(.(.O p ; p t B.C.A.C.C.C.A.C.8.w 6 p + (.(.(.",
"(.(.. & O p e O.I P ......P P ..6 6 n O (.(.(.",
"(.(.O O O e t U.Z Z b.M.b.Z Z m.t > 4 . (.(.(.",
"(.(.(.(.O V w Y.n.n.!.!.!.n.9.0.0 C O (.(.(.(.",
"(.(.(.(.& ;.+.M.E.~.~.!.!.N.r.s.) O.& (.(.(.(.",
"(.(.(.. c c | X.x.J.t.q.w.j.p.| } g <   (.(.(.",
"(.(.. 6 F S z z L L G G G L L x 9 7 7 % . (.(.",
"(.(.o S G G G v G G G G G G g 8 7 8 8 5 O (.(.",
"(.O R @.G G G F G G F G G G S 8 8 8 8 T d O (.",
"(.& -.K.$.c G G F G G G G G F 8 7 8 ' 0.( O (.",
"o , Z.:.~ 8 F F G G F G F F v 8 7 0 ~ ~ <.* O ",
"= p.>.I.8.j G G G G G F G G 8 8 8 8 6.7./ ' + ",
"= r.P.#.! g S F F F D F D S 7 5 7 8 ! / 9.[ + ",
"(.+ W E U y.a.a.a.a.i.:.u.u.4.4.` ` U U U O (.",
"(.(.(.(.# ^./././.U.l.,.^././.^.f.e.+ (.(.(.(.",
"(.(.(.(.= l.D.D.S.g.R & ] S.F.S.f.8.= (.(.(.(.",
"(.(.(.(.. s f.k.2.3.O (.+ d.k.5.3.i O (.(.(.(.",
"(.(.(.(.O t >.y.-./ # (.& >.y.X./ ; . (.(.(.(.",
"(.(.(.(.. b Z.G.G.,.= (.= z.H.7.<.f # (.(.(.(.",
"(.(.(.. 6 D L j w ; O (.. t L G c f 8 * (.(.(.",
"(.O u J D D S 7 8 8 o (.# F F D D x f M a O (.",
"(.= T.Q.:.=./ ! 8 ; . (.O j G %.*.:.*.c.t.= (.",
"(.+ ) K.T.v.0.Y * . (.(.(.. 2  .T.R.R.n.Y O (.",
"(.. @ k r 2 2 o . (.(.(.(.(.  @ l l l l @ . (.",
"(.(.(.(.(.(.(.(.(.(.(.(.(.(.(.(.(.(.(.(.(.(.(."
};
