/* XPM */
static char *result[] = {
/* columns rows colors chars-per-pixel */
"20 32 185 2 ",
"   c #020202",
".  c #03030B",
"X  c #050A0D",
"o  c #09050D",
"O  c #050610",
"+  c #070B11",
"@  c #0A0B13",
"#  c #040519",
"$  c #0B0B1B",
"%  c #0D0513",
"&  c #180C13",
"*  c #140D1A",
"=  c #0D1318",
"-  c #141416",
";  c #15141C",
":  c #1D1518",
">  c #180D09",
",  c #270D17",
"<  c #2D1B1C",
"1  c #261A12",
"2  c #341706",
"3  c #29231E",
"4  c #0B0F2A",
"5  c #0B0922",
"6  c #130F25",
"7  c #0F1621",
"8  c #141521",
"9  c #1A152A",
"0  c #161C2E",
"q  c #1C1D2C",
"w  c #151728",
"e  c #1E1E35",
"r  c #1B1B3B",
"t  c #141436",
"y  c #270F28",
"u  c #2D1423",
"i  c #241C25",
"p  c #2E1F22",
"a  c #251D2C",
"s  c #37162A",
"d  c #221432",
"f  c #371838",
"g  c #1D222C",
"h  c #1F2538",
"j  c #242426",
"k  c #2C232A",
"l  c #282B2C",
"z  c #382926",
"x  c #242135",
"c  c #2D2735",
"v  c #24233C",
"b  c #262C3D",
"n  c #29263D",
"m  c #34243B",
"M  c #3E3336",
"N  c #492C1D",
"B  c #502D19",
"V  c #441E35",
"C  c #441C3E",
"Z  c #432529",
"A  c #47362A",
"S  c #4B3334",
"D  c #463C33",
"F  c #523B34",
"G  c #563D36",
"H  c #673B28",
"J  c #683B31",
"K  c #4F4236",
"L  c #584136",
"P  c #634634",
"I  c #7B4E38",
"U  c #7D5B3C",
"Y  c #331941",
"T  c #2D2243",
"R  c #2C2C46",
"E  c #272E4D",
"W  c #2C2E4B",
"Q  c #232440",
"!  c #322B47",
"~  c #332A4F",
"^  c #2B314C",
"/  c #35374B",
"(  c #393645",
")  c #262C52",
"_  c #2B3656",
"`  c #313153",
"'  c #363966",
"]  c #3D3B61",
"[  c #431E49",
"{  c #522746",
"}  c #423C59",
"|  c #533A68",
" . c #38456F",
".. c #3A4776",
"X. c #41415F",
"o. c #604245",
"O. c #70574C",
"+. c #74665C",
"@. c #44496B",
"#. c #4F4D6D",
"$. c #524368",
"%. c #565468",
"&. c #5C5878",
"*. c #645C66",
"=. c #6B646C",
"-. c #6F7C7F",
";. c #72767B",
":. c #6A6779",
">. c #945F3D",
",. c #A6643B",
"<. c #C76F2D",
"1. c #815442",
"2. c #9E6E4B",
"3. c #9D774B",
"4. c #9B7B5F",
"5. c #B47045",
"6. c #A37E5B",
"7. c #866C61",
"8. c #927F67",
"9. c #836972",
"0. c #807278",
"q. c #CD813E",
"w. c #B88356",
"e. c #99897D",
"r. c #A19076",
"t. c #CA8857",
"y. c #CB9B73",
"u. c #D8AF7E",
"i. c #F5B46D",
"p. c #E1AA79",
"a. c #EFBA7D",
"s. c #F8BD7E",
"d. c #675787",
"f. c #725D99",
"g. c #6A6487",
"h. c #706E8F",
"j. c #77778B",
"k. c #636F92",
"l. c #746E92",
"z. c #7E7896",
"x. c #787CA5",
"c. c #947980",
"v. c #837C99",
"b. c #8B7C94",
"n. c #8B75BE",
"m. c #7D8188",
"M. c #9D8282",
"N. c #888A93",
"B. c #96939C",
"V. c #A68581",
"C. c #8D8BA1",
"Z. c #908DAD",
"A. c #9C9DA9",
"S. c #9897A8",
"D. c #8F85B6",
"F. c #9D91B0",
"G. c #A39BB7",
"H. c #9FA0AD",
"J. c #A6A3AD",
"K. c #A7A5B8",
"L. c #B8BBBE",
"P. c #C8A786",
"I. c #F8BD85",
"U. c #F7C489",
"Y. c #F3CB91",
"T. c #E7C0A0",
"R. c #A293CE",
"E. c #ACA6C3",
"W. c #A0A5C5",
"Q. c #B5ACC7",
"!. c #AFB3C8",
"~. c #BAB9CB",
"^. c #BEBFD5",
"/. c #BAB6E1",
"(. c #C3BDCE",
"). c #C4BFD6",
"_. c #BEC5CD",
"`. c #C6C7D2",
"'. c #CDCDD0",
"]. c #C3C4DE",
"[. c #CED5D9",
"{. c #D6DADF",
"}. c #C8C5CA",
"|. c #CECAE9",
" X c None",
/* pixels */
" X X X X X X X X X X.  X X X X X X X X X",
" X X X X X X X XO a @ O  X X X X X X X X",
" X X X X X X X+ Q ~ ~ a 8  X X X X X X X",
" X X X X X X X8 ) _ ` W a  X X X X X X X",
" X X X X X XO w x ^ R a 5  X X X X X X X",
" X X X X X$ a a F A G p v ;  X X X X X X",
" X X X X X6 p z w.p.y.G a q  X X X X X X",
" X X X X X# & 7.2.s.w.4.i q '. X X X X X",
" X X X X Xm.: P u.U.a.2.> %. X X X X X X",
" X X X X XG.( o.>.5.,.I m #.G. X X X X X",
" X X X Xk.W.v.1.t.<.q.3.*.K.N.'. X X X X",
" X X X Xx./.G.c.U.i.I.P.b.Q.(.A.~. X X X",
" X X Xh.!.A.`.;.P.Y.T.9.(.l.E.`.N. X X X",
" X XJ.B.~.&.E.!.9.V.0.F.].X.g.^.!.H. X X",
" X}.*.`.z.t ] d.| $.$.&.#.9 v h.~._.A. X",
" X;.S.].g.r Q R 0 Q ! ( c < A =.[.{.Z. X",
" Xj.|.R.f.t k - * x T T < U 3.A ~.~.:. X",
"-.( n.n.| y , , f f Y f < N w.L v.z.B. X",
"l ( } d.[ s s { [ T ' ' ) i M c &.%. X X",
"N G S Z s [ C u 9 W .. . ./ $ ( X. X X X",
"J 1.H H s C V p 8 4 _ _ E R 8 -  X X X X",
" X2  X X& u V o O @ O g E W 0 .    X X X",
" X X X X. % d e X + X ; 4 t $        X X",
" X X X X X7 v 9 X X X g R r #  X    -  X",
" X X X X X. @ o  X X X@ b x +  X X X   X",
" X X X X X@ j    X X X. @ X  X X X X X X",
" X X X X X: l  X X X X. ; -  X X X X X X",
" X X X Xz e.1  X X X X Xj k    X X X X X",
" X X Xz +.+.>  X X X X XK r.D  X X X X X",
" X X  3 z    X X X X X XA 8.O.<  X X X X",
" X X X X X X X X X X X X Xz D 3  X X X X",
" X X X X X X X X X X X X X X   X X X X X"
};
