/* XPM */
static char *result[] = {
/* columns rows colors chars-per-pixel */
"23 32 124 2 ",
"   c #050606",
".  c #080807",
"X  c #060708",
"o  c #07090B",
"O  c #090A0B",
"+  c #11100F",
"@  c #070D16",
"#  c #0A0F15",
"$  c #080E1A",
"%  c #0E1013",
"&  c #0B131F",
"*  c #131212",
"=  c #13151A",
"-  c gray11",
";  c #041020",
":  c #081222",
">  c #08142B",
",  c #09182C",
"<  c #171B22",
"1  c #1A1D24",
"2  c #10182B",
"3  c #1A1F2A",
"4  c #061636",
"5  c #081734",
"6  c #071830",
"7  c #091A34",
"8  c #04173A",
"9  c #051A3E",
"0  c #091A3B",
"q  c #101F35",
"w  c #111D3C",
"e  c #142137",
"r  c #182437",
"t  c #12233B",
"y  c #1B2639",
"u  c #1F2A3D",
"i  c #202633",
"p  c #252D3D",
"a  c #2E3031",
"s  c #413F3F",
"d  c #4E3F3C",
"f  c #021A40",
"g  c #0C2544",
"h  c #0B254C",
"j  c #0C284D",
"k  c #152241",
"l  c #182443",
"z  c #0C2B54",
"x  c #0C2E59",
"c  c #162E52",
"v  c #0D315F",
"b  c #282E46",
"n  c #273041",
"m  c #293142",
"M  c #233654",
"N  c #0E3463",
"B  c #0B3669",
"V  c #0F3969",
"C  c #1A3963",
"Z  c #113A6B",
"A  c #4D3346",
"S  c #5D3C4D",
"D  c #22456E",
"F  c #28456B",
"G  c #284A75",
"H  c #434049",
"J  c #5E5D5C",
"K  c #6F5A56",
"L  c #735F5D",
"P  c #78625E",
"I  c #454F64",
"U  c #455166",
"Y  c #555D6C",
"T  c #445D7C",
"R  c #536076",
"E  c #626262",
"W  c #6C6C6C",
"Q  c #7C686B",
"!  c #676D78",
"~  c #776973",
"^  c #96837F",
"/  c #A6867F",
"(  c #476281",
")  c #486281",
"_  c #597392",
"`  c #707681",
"'  c #7D7F83",
"]  c #6A7B92",
"[  c #667F9C",
"{  c #66809D",
"}  c #6C839E",
"|  c #9D8283",
" . c #9E8C89",
".. c #8C8D92",
"X. c #848B9A",
"o. c gray58",
"O. c #9C9C9C",
"+. c #A48787",
"@. c #B09995",
"#. c #B99F9A",
"$. c #A0A09F",
"%. c #9493A2",
"&. c #999DA1",
"*. c #A6A6A6",
"=. c #ADACAC",
"-. c #BDBEBF",
";. c #C2A69F",
":. c #CFA79E",
">. c #C8A7A0",
",. c #E0BDB5",
"<. c #CFBEC0",
"1. c #D2BEC0",
"2. c #BCC0C4",
"3. c #C2C2C2",
"4. c #CBCBCA",
"5. c gray85",
"6. c #F2D2CD",
"7. c #F8D8D0",
"8. c #F2DFDB",
"9. c #E6E6E5",
"0. c #E8E7E6",
"q. c #E9E8E7",
"w. c #E9E9E8",
"e. c None",
/* pixels */
"e.e.e.e.e.e.e.e.e.e.e.e.e.e.e.e.e.e.e.e.e.e.e.",
"e.e.e.e.e.e.O < O . O 1 1 O O e.e.e.e.e.e.e.e.",
"e.e.e.O O e.O p y : O = m i : O O e.e.e.e.e.e.",
"e.e.e.O p $ % m n t , @ p m e , @ O e.e.e.e.e.",
"e.e.e.O p y 7 y m n 7 7 m m m 7 r O . e.e.e.e.",
"e.e.e.O p m q 7 n m p p m m m p m i % . e.e.e.",
"e.e.e.O p m n n m m m m m m m m y p y = O e.e.",
"e.e.e.O m m m m m m m m m m b r 7 7 , e O . e.",
"e.e.O * u q t t t t t t q q 7 7 7 6 , 7 : O e.",
"e.e.O 3 O 7 V V V V V x h V h 0 0 0 6 7 ; O e.",
"e.e.. & 3 7 g j V z j 9 V z Z z 0 0 7 = K O e.",
"e.e.O 7 y , & @ 8 9 v v h 0 Z Z N 9 0 H +.* e.",
"e.e.O 3 O O t h R _ C Z z 9 x x z 0 0 Q * O e.",
"e.e.O e.e.e.# %.8.-.} Z t A w 7 0 7 $   e.e.e.",
"e.e.e.e.e.  a ] 1.;...C S <.S 0 9 7 X e.e.e.e.",
"e.e.e.O K E 2.2.G ~ c j k X.k h 0 4 O e.e.e.e.",
"e.+ ^  .} >.O.U z x V Z x z x V 0 0 O X e.e.e.",
"e.* 7.6.T } M 9 x B B B B B B N 8 0 > O e.e.e.",
"e.* ,.:.P - T { [ [ [ { [ [ [ [ U 0 4 O e.e.e.",
"e.+ d d + W 4.0.0.9.0.w.0.0.0.9.*.` ! # e.e.e.",
"e.e.e.e.* *.5.0.-.=.=.o.=.=.=.=.*.=.$.+ e.e.e.",
"e.e.e.e.O E *.4.3.*.$.1 O.*.*.*.*.*.O.* e.e.e.",
"e.e.e.O = 2 #.#.>.@.H + o.&.( ( T &.O.+ e.e.e.",
"e.e.e.% Q l | +.| m . . < D N x N F O.+ e.e.e.",
"e.e.e.O 0 0 0 0 0 5 O e.O j 0 9 0 f Y O e.e.e.",
"e.e.e.O $ 7 7 7 5 $ O e.O 4 0 0 0 0 4 O e.e.e.",
"e.e.e.e.O O @ O O O e.e.O 4 0 4 0 0 4 O e.e.e.",
"e.e.e.e.e.e.e.e.e.e.e.e.o 0 0 0 0 0 4 & O e.e.",
"e.e.e.e.e.e.e.e.e.e.e.e.o 5 9 0 0 0 0 5 O e.e.",
"e.e.e.e.e.e.e.e.e.e.e.e.. @ > 4 0 0 > O O e.e.",
"e.e.e.e.e.e.e.e.e.e.e.e.e.. O & : : O o e.e.e.",
"e.e.e.e.e.e.e.e.e.e.e.e.e.e.e.e.e.e.e.e.e.e.e."
};
