/* XPM */
static char *result[] = {
/* columns rows colors chars-per-pixel */
"23 32 174 2 ",
"   c #030404",
".  c #080807",
"X  c #030608",
"o  c #080708",
"O  c #0A0A0B",
"+  c #110F0E",
"@  c #050B14",
"#  c #090D13",
"$  c #050D19",
"%  c #080F1B",
"&  c #0F1014",
"*  c #0A121C",
"=  c #121214",
"-  c #191514",
";  c #1C1816",
":  c #13161D",
">  c #1C1919",
",  c #241E1D",
"<  c #010D23",
"1  c #051026",
"2  c #091424",
"3  c #071329",
"4  c #08162A",
"5  c #161A23",
"6  c #1B1F29",
"7  c #191D26",
"8  c #041535",
"9  c #081734",
"0  c #071A32",
"q  c #091934",
"w  c #061739",
"e  c #07193A",
"r  c #081A3A",
"t  c #121E38",
"y  c #111F35",
"u  c #1C212B",
"i  c #0D213C",
"p  c #1C2331",
"a  c #13233B",
"s  c #1A263A",
"d  c #1C293D",
"f  c #2F2C2C",
"g  c #2B2523",
"h  c #302B29",
"j  c #3A2E2B",
"k  c #232935",
"l  c #2E2F30",
"z  c #222C3E",
"x  c #282F3F",
"c  c gray19",
"v  c #3D393E",
"b  c #4B423F",
"n  c #051E42",
"m  c #091F43",
"M  c #0B2241",
"N  c #0B254A",
"B  c #0E2B4D",
"V  c #1A2948",
"C  c #172744",
"Z  c #062850",
"A  c #0C2B54",
"S  c #0C2E5A",
"D  c #0E325E",
"F  c #1B385B",
"G  c #252F41",
"H  c #293142",
"J  c #233149",
"K  c #3E3A46",
"L  c #303F53",
"P  c #0E3462",
"I  c #0E3769",
"U  c #0E396A",
"Y  c #113A6B",
"T  c #163965",
"R  c #3F424F",
"E  c #2B415C",
"W  c #384052",
"Q  c #3F4A5F",
"!  c #364259",
"~  c #1E426C",
"^  c #3E4863",
"/  c #294E78",
"(  c #214572",
")  c #2F527B",
"_  c #30537B",
"`  c #3B5A7D",
"'  c #594845",
"]  c #5D514E",
"[  c #424354",
"{  c #5B5557",
"}  c #695E5C",
"|  c #6E605E",
" . c #424D61",
".. c #465064",
"X. c #525061",
"o. c #515B6A",
"O. c #545B66",
"+. c #4F5974",
"@. c #5D5E71",
"#. c #615A64",
"$. c #5E6167",
"%. c #5F646D",
"&. c #546477",
"*. c #656564",
"=. c #69636D",
"-. c #7F6761",
";. c #7B6C68",
":. c #7D6C75",
">. c #6E7072",
",. c #747474",
"<. c #89716C",
"1. c #887479",
"2. c #917A78",
"3. c #9B827D",
"4. c #436385",
"5. c #5F738A",
"6. c #55779B",
"7. c #626E88",
"8. c #667484",
"9. c #7B7F88",
"0. c #767C84",
"q. c #627894",
"w. c #7E8081",
"e. c #7F848E",
"r. c #7B8694",
"t. c #788898",
"y. c #7A8FA8",
"u. c #7795B2",
"i. c #8A8A8B",
"p. c #838992",
"a. c #888B9B",
"s. c #8E939E",
"d. c #93969A",
"f. c #9F9299",
"g. c #9B9C9E",
"h. c #929293",
"j. c #A5908B",
"k. c #B59189",
"l. c #B59B97",
"z. c #8A8CA0",
"x. c #8997AC",
"c. c #9A9BAC",
"v. c #A99FA7",
"b. c #A099A5",
"n. c #95A0AE",
"m. c #90A0B4",
"M. c #9DA8B5",
"N. c #AFA2A7",
"B. c #AAAAAC",
"V. c #B6B6B6",
"C. c #BCBABB",
"Z. c #C3A49D",
"A. c #C7ADAB",
"S. c #D5ABA1",
"D. c #CDB8B9",
"F. c #DFBAB3",
"G. c #DBC0BD",
"H. c #E6C3BB",
"J. c #90ADC4",
"K. c #BCBEC0",
"L. c #ACC5D7",
"P. c #C5C4C4",
"I. c #CBCBCB",
"U. c #D5D5D5",
"Y. c #E7CDC7",
"T. c #EDCFC7",
"R. c #F3D5CE",
"E. c #FCDBD4",
"W. c #DCDEE0",
"Q. c #DEE0E2",
"!. c #E5E5E6",
"~. c #ECECEC",
"^. c #FFEBE1",
"/. c None",
/* pixels */
"/./././././././././././.O : : o /././././././.",
"/./././.o o 5 u u u & 5 k H u /./././././././.",
"/./.# = : k x H H H x H H u & & o /./././././.",
"/.& u z s z H H H H x H H H x 7 /././././././.",
"/.: G i e 0 z H H H H H G H 6 + O /./././././.",
"/.* t.6.D e d H H H d q y k s d 7 /./././././.",
"/.: y.L.u.4.a H H z q 0 q q q 4 # /./././././.",
"/.5 E u.J.6.e d H s 0 S A i r 4 2 # /././././.",
"/.= & d 8.F &.G G s q +.Y Y Y Y Y B # /./././.",
"/.. X g A.W C.o.G s G 1.M M M M A I A # /././.",
"/././.> l.R.E.G.G 9 { %.L r 9 1 1 0 B # /././.",
"/./././.> j.E.G.t s %.d.` B 9 #   @ /././././.",
"/././././.= 2.l.o.p.r._ I S D T L , /././././.",
"/./././././.o.y.5.` Y I Y Y Y z.F.#.0 O . /./.",
"/./././././.% Z I I Y U P S T D.N.x.M.i.{ + /.",
"/./././././.. v Y Y Y Y Y B r t l w.n.M.V.*.= ",
"/./././././.o [ Y Y Y Y Y P M q $ ] N.c.q.r.c ",
"/./././././.h 0.) Y Y Y Y Y N q < 3.^.E.A.@.* ",
"/././././.o h.C.t.U U U U U N r < ' G.H.S.'   ",
"/././././.] a.p.8.~ ) ) ) / 8.$.@   <.k.-.- /.",
"/././././.;.F.=.K >.!.W.Q.L.f.k @   + = + /./.",
"/././././.f 3.k.j ,.~.!.!.P.h.G 3 . . /./././.",
"/./././././.- ,   ,.~.~.U.B.^ r q 9 % o /././.",
"/././././././././.*.I.P.C.w.V 9 r r r O /././.",
"/././././././././.| Y.T.Z.{ 8 8 w r w O /././.",
"/././././././././.+ | c.@.w ! Q r r 9 # /././.",
"/./././././././././.. F m.z.n.g...w q O /././.",
"/././././././././././.* +.B.i.J C r r O /././.",
"/././././././././././.O * N S r w e 2 o /././.",
"/./././././././././.h l.f.( P r e 2 o /./././.",
"/./././././././././.] 1.:.^ n r % o /././././.",
"/./././././././././.  @ $ % % # o /./././././."
};
