/* XPM */
static char *result[] = {
/* columns rows colors chars-per-pixel */
"23 32 170 2 ",
"   c #030404",
".  c #080807",
"X  c #070A0D",
"o  c #090A0B",
"O  c #14110F",
"+  c #080C13",
"@  c #040B19",
"#  c #0F1114",
"$  c #08111B",
"%  c #121315",
"&  c #181717",
"*  c #1A1817",
"=  c #13161C",
"-  c #15181F",
";  c #221C1B",
":  c #010D24",
">  c #0A1323",
",  c #06152C",
"<  c #08142C",
"1  c #061125",
"2  c #151A25",
"3  c #191D26",
"4  c #151C2C",
"5  c #1A1F28",
"6  c #071736",
"7  c #081734",
"8  c #071830",
"9  c #0A1B34",
"0  c #061738",
"q  c #07183A",
"w  c #091A3B",
"e  c #1D222D",
"r  c #0C243F",
"t  c #142136",
"y  c #152339",
"u  c #19253B",
"i  c #1D293C",
"p  c #1D2636",
"a  c #252221",
"s  c #2E2C2D",
"d  c #322C2B",
"f  c #212734",
"g  c #222936",
"h  c #252C3C",
"j  c #3A383B",
"k  c #383434",
"l  c #091E42",
"z  c #062041",
"x  c #0A2547",
"c  c #0A2549",
"v  c #142443",
"b  c #10284D",
"n  c #1F2D49",
"m  c #1A2C42",
"M  c #0A2751",
"N  c #0C2B53",
"B  c #0D2F5A",
"V  c #132F52",
"C  c #0F315A",
"Z  c #1F3C5E",
"A  c #262F41",
"S  c #293142",
"D  c #25334F",
"F  c #34374F",
"G  c #293F5B",
"H  c #0E3462",
"J  c #0C3769",
"K  c #0E396B",
"L  c #113A6B",
"P  c #1A3E6B",
"I  c #233F61",
"U  c #3C495D",
"Y  c #354159",
"T  c #2B4668",
"R  c #354661",
"E  c #264870",
"W  c #36567A",
"Q  c gray31",
"!  c #4C4249",
"~  c #554B48",
"^  c #544441",
"/  c #5E524F",
"(  c #434857",
")  c #51535F",
"_  c #5B535B",
"`  c #685450",
"'  c #695C58",
"]  c #635551",
"[  c #735F5A",
"{  c #64605F",
"}  c #76605C",
"|  c #455061",
" . c #595B65",
".. c #415E7F",
"X. c #485872",
"o. c #635D66",
"O. c #4C617D",
"+. c #566376",
"@. c #636262",
"#. c #736561",
"$. c #676E7B",
"%. c #6A6C78",
"&. c #6A707C",
"*. c #727373",
"=. c #7E7F7F",
"-. c #8F7B7F",
";. c #8A757B",
":. c #947770",
">. c #9A7C75",
",. c #95827D",
"<. c #3A5F87",
"1. c #446183",
"2. c #486280",
"3. c #4C6B8E",
"4. c #526D8E",
"5. c #697A8D",
"6. c #747B85",
"7. c #787D86",
"8. c #657A95",
"9. c #767F98",
"0. c #76808D",
"q. c #7D838A",
"w. c #7D8896",
"e. c #6385A5",
"r. c #828489",
"t. c #858C95",
"y. c #919396",
"u. c #93919F",
"i. c #9E9E9F",
"p. c #AE8F8E",
"a. c #A28784",
"s. c #B79B9B",
"d. c #8392A5",
"f. c #8C9AAB",
"g. c #9E9EAE",
"h. c #98A3AF",
"j. c #97A6B7",
"k. c #A8A9A9",
"l. c #A8A3A7",
"z. c #B3A0A1",
"x. c #B7A7AB",
"c. c #BCAAAA",
"v. c #BCB2AF",
"b. c #A5ADB8",
"n. c #BBBBBB",
"m. c gray70",
"M. c #D2A89F",
"N. c #C7ADA7",
"B. c #C8A8A5",
"V. c #C6ADA8",
"C. c #CCAEAC",
"Z. c #D3B0AA",
"A. c #C9B9B7",
"S. c #D5BBB7",
"D. c #E2BBB3",
"F. c #E8C0B7",
"G. c #93AFC7",
"H. c #9DB8CD",
"J. c #ABC4D6",
"K. c #CAC7C7",
"L. c #D0D0D1",
"P. c #E3C7C3",
"I. c #ECD4CF",
"U. c #F6D5CD",
"Y. c #FCDBD3",
"T. c #FFE2D9",
"R. c #E5E5E5",
"E. c #EAEBEB",
"W. c #FFEAE1",
"Q. c None",
/* pixels */
"Q.Q.Q.Q.Q.Q.Q.Q.Q.Q.Q.Q.Q.Q.Q.Q.Q.Q.Q.Q.Q.Q.Q.",
"Q.Q.Q.Q.Q.Q.Q.o 5 e % . o + o O . Q.Q.Q.Q.Q.Q.",
"Q.Q.Q.Q.Q.Q.Q.Q.% h h f 5 h g h e = o Q.Q.Q.Q.",
"Q.Q.Q.Q.Q.Q.. 3 e h S S S S S S S A f e - o Q.",
"Q.Q.Q.Q.Q.Q.Q.% f h S S S S S S A y 9 u t = Q.",
"Q.Q.Q.Q.Q.Q.= 3 f S h u S S S S h < x G X.- Q.",
"Q.Q.Q.Q.Q.Q.> t 9 9 9 8 u A A A u P <.G.d.= Q.",
"Q.Q.Q.Q.Q.. X $ 9 8 x c 8 u S h z e.J.H.O.- Q.",
"Q.Q.Q.Q.. 9 C C C H L T 8 u A u Y E 4.T 2 - Q.",
"Q.Q.Q.X z L H V N N V -.t u A U b.h z.a . . Q.",
"Q.Q.Q.+ N l 7 8 9 9 m o. .8 A c.I.A.V.; Q.X Q.",
"Q.Q.Q.Q.q @   + 7 M 2.y. .9 y P.T.N.d Q.Q.Q.Q.",
"Q.Q.Q.Q.Q.O A N N N L 1.t.6.( s.a.a Q.Q.Q.Q.Q.",
"Q.Q.Q.. , _ C.w.L L L K P 1.5.f.+.Q.Q.Q.Q.Q.Q.",
"Q.o Q q.f.d.c.S.P B H L L K K N $ Q.Q.Q.Q.Q.Q.",
"% @.m.b.h.r.s u w N L L K L L j o Q.Q.Q.Q.Q.Q.",
"s t.5.g.l./ @ 0 z H L K L L L Y . Q.Q.Q.Q.Q.Q.",
"$  .C.Y.W.,.: w c K L K L L W q.j Q.Q.Q.Q.Q.Q.",
"  ^ M.F.S.k > v b K K K H K w.n.y.o Q.Q.Q.Q.Q.",
"Q.# ` >.[ . o  .7.1.3.3.3.T +.6.u.' Q.Q.Q.Q.Q.",
"Q.Q.Q.Q.. . @ p g.K.R.R.E.*.! ;.D.#.Q.Q.Q.Q.Q.",
"Q.Q.Q.Q.. $ , v r.n.R.R.E.*.; :.} * Q.Q.Q.Q.Q.",
"Q.Q.Q.. > 0 0 0 Y l.L.R.E.*.  Q.Q.Q.Q.Q.Q.Q.Q.",
"Q.Q.Q.+ w 0 0 0 r $.v.A.K.' Q.Q.Q.Q.Q.Q.Q.Q.Q.",
"Q.Q.Q.X w w 0 w 0 F p.U.S.~ Q.Q.Q.Q.Q.Q.Q.Q.Q.",
"Q.Q.Q.X 7 w A 7.$.D O.O.s Q.Q.Q.Q.Q.Q.Q.Q.Q.Q.",
"Q.Q.Q.X 7 w R &.k.L.j.v   Q.Q.Q.Q.Q.Q.Q.Q.Q.Q.",
"Q.Q.Q.X 8 w w w R | 4   Q.Q.Q.Q.Q.Q.Q.Q.Q.Q.Q.",
"Q.Q.Q.. + 8 w l H H ) / O Q.Q.Q.Q.Q.Q.Q.Q.Q.Q.",
"Q.Q.Q.Q.Q.X < w M X.s.B.' . Q.Q.Q.Q.Q.Q.Q.Q.Q.",
"Q.Q.Q.Q.Q.Q.. 1 < 4 4 4 % Q.Q.Q.Q.Q.Q.Q.Q.Q.Q.",
"Q.Q.Q.Q.Q.Q.Q.Q.Q.Q.Q.Q.Q.Q.Q.Q.Q.Q.Q.Q.Q.Q.Q."
};
