/* XPM */
static char *result[] = {
/* columns rows colors chars-per-pixel */
"26 32 201 2 ",
"   c #020102",
".  c #0B0302",
"X  c #03040B",
"o  c #09020C",
"O  c #040A0C",
"+  c #0B0C0B",
"@  c #140403",
"#  c #140B04",
"$  c #0B0614",
"%  c #070B12",
"&  c #0B0B14",
"*  c #06061B",
"=  c #0C0C1B",
"-  c #130D14",
";  c #120A1C",
":  c #1B0616",
">  c #0C1115",
",  c #0E131F",
"<  c #161619",
"1  c #2F1005",
"2  c #270E17",
"3  c #270B17",
"4  c #2A1617",
"5  c #220609",
"6  c #26221D",
"7  c #0B0B26",
"8  c #1B0E24",
"9  c #0C102B",
"0  c #141424",
"q  c #1D1B27",
"w  c #1C172B",
"e  c #15192B",
"r  c #161726",
"t  c #171535",
"y  c #360F28",
"u  c #251C2E",
"i  c #261928",
"p  c #331924",
"a  c #29173A",
"s  c #341133",
"d  c #391B30",
"f  c #280E2B",
"g  c #1B2233",
"h  c #1E233C",
"j  c #2D2525",
"k  c #2A232B",
"l  c #23272B",
"z  c #34262C",
"x  c #332E2C",
"c  c #3D2C2B",
"v  c #3B342E",
"b  c #2B2333",
"n  c #25233C",
"m  c #28273A",
"M  c #35223A",
"N  c #322A31",
"B  c #383637",
"V  c #45210E",
"C  c #482317",
"Z  c #582A19",
"A  c #411D3B",
"S  c #442B2D",
"D  c #462C20",
"F  c #4C243D",
"G  c #493735",
"H  c #563D3A",
"J  c #5A3C27",
"K  c #5F451E",
"L  c #594337",
"P  c #6C412E",
"I  c #62433C",
"U  c #6B503E",
"Y  c #795438",
"T  c #794B35",
"R  c #1C1B41",
"E  c #381C45",
"W  c #232A40",
"Q  c #2C2D42",
"!  c #2A2C4B",
"~  c #262745",
"^  c #312B46",
"/  c #2E3144",
"(  c #2B3246",
")  c #333048",
"_  c #342B51",
"`  c #3A2957",
"'  c #2A335A",
"]  c #2E3854",
"[  c #343A57",
"{  c #363856",
"}  c #333962",
"|  c #383964",
" . c #4E2646",
".. c #5A2A4E",
"X. c #542B4C",
"o. c #403E4F",
"O. c #432956",
"+. c #413F56",
"@. c #56334D",
"#. c #453C61",
"$. c #3D415F",
"%. c #394774",
"&. c #3A456C",
"*. c #4E454B",
"=. c #5B4F48",
"-. c #5F5246",
";. c #444253",
":. c #50415C",
">. c #52525A",
",. c #665748",
"<. c #725B53",
"1. c #634A4C",
"2. c #75604E",
"3. c #4A4A68",
"4. c #5F4869",
"5. c #545862",
"6. c #59407F",
"7. c #595474",
"8. c #58557F",
"9. c #605E68",
"0. c #7D5D65",
"q. c #6B6577",
"w. c #7D6976",
"e. c #73767D",
"r. c #8E5837",
"t. c #A4643B",
"y. c #C97330",
"u. c #815942",
"i. c #896548",
"p. c #956F5B",
"a. c #88735F",
"s. c #BA7449",
"d. c #9A7865",
"f. c #95797A",
"g. c #837369",
"h. c #CC7F45",
"j. c #A7805B",
"k. c #BD8754",
"l. c #8E8073",
"z. c #958472",
"x. c #B99569",
"c. c #B18F70",
"v. c #C48F56",
"b. c #D09660",
"n. c #CB9A67",
"m. c #DBA573",
"M. c #F6BD7C",
"N. c #F8BA7F",
"B. c #F6B36D",
"V. c #5E5D81",
"C. c #575280",
"Z. c #645E80",
"A. c #666485",
"S. c #686682",
"D. c #7B7A89",
"F. c #7B609C",
"G. c #7A7B9A",
"H. c #85778C",
"J. c #887C92",
"K. c #8F77BA",
"L. c #917AC5",
"P. c #8F8B95",
"I. c #888798",
"U. c #93909A",
"Y. c #B4928C",
"T. c #A98A85",
"R. c #8A87A7",
"E. c #948DAB",
"W. c #9698A3",
"Q. c #9A99B4",
"!. c #9CACAD",
"~. c #A9A7B8",
"^. c #B4B5BC",
"/. c #ADB4B7",
"(. c #DDAB80",
"). c #EABF9A",
"_. c #E8BC82",
"`. c #FDC586",
"'. c #F4CC92",
"]. c #E6C38C",
"[. c #EFC7A2",
"{. c #998CC5",
"}. c #AC9FC1",
"|. c #ACAECE",
" X c #B7B4CE",
".X c #B7B5C6",
"XX c #BDBBD5",
"oX c #AFB1CF",
"OX c #BABBE3",
"+X c #C4BCDB",
"@X c #BFC3C5",
"#X c #BBC2D7",
"$X c #C9C9D6",
"%X c #CBD1D6",
"&X c #D3DADD",
"*X c #CCCBE2",
"=X c #D3CEE6",
"-X c #D8D5E8",
";X c #D5CFF4",
":X c #E0E5E7",
">X c None",
/* pixels */
">X>X>X>X>X>X>X>X>X>X>X>X>XX >X>X>X>X>X>X>X>X>X>X>X>X",
">X>X>X>X>X>X>X>X>X>X  - k $ =   >X>X>X>X>X>X>X>X>X>X",
">X>X>X>X>X>X>X>X>XX e ! _ ^ m r 0 >X>X>X>X>X>X>X>X>X",
">X>X>X>X>X>X>X>X>X> W ' ' ' ^ ^ r >X>X>X>X>X>X>X>X>X",
">X>X>X>X>X>X>X>Xo 0 e Q ] ! Q w * >X>X>X>X>X>X>X>X>X",
">X>X>X>X>X>X>X= u a c L S L S 4 ~ = >X>X>X>X>X>X>X>X",
">X>X>X>X>X>X>X; z 4 r.m.m.(.u.p b 0 >X>X>X>X>X>X>X>X",
">X>X>X>X>X>X>X* $ <.p.v._.b.u.a.$ * ^.>X>X>X>X>X>X>X",
">X>X>X>X>X>X>Xe.. D x.].`.N.n.J o >.%X>X>X>X>X>X>X>X",
">X>X>X>X>X>X>XU.m @.Y t.s.t.r.I u 3.E.>X>X>X>X>X>X>X",
">X>X>X>X>X>XR.|.D.1.k.h.y.y.v.1.q. XD.~.>X>X>X>X>X>X",
">X>X>X>X>XC.OX|.}.w.).M.B.N.).f.E.~.$X^.W.@X>X>X>X>X",
">X>X>X>XS.Q.XXE.=XH.z.].'.'.T.w.-XA.R.-X^.D.:X>X>X>X",
">X>X>XU.I.=XI.3. X+XJ.0.Y.H.H.XX+X{ +.|.#X|.W.^.>X>X",
">X>XP.5.$X XR R | V.Z.O.4.#.7.q.$.e ; 7.G.#X%X~.Q.>X",
">X/.>..X*XR._ t ~ m g t ) B ) ^ k 2 L d U.&X&X$XC.>X",
">X5.~.;X{.L.` 8 N > = i a ^ ~ M 4 Y x.K G $X;Xq.R.>X",
"!.r q.{.L.#.O.: 2 2 y A s E a m 4 V j.i.G J.E.q.>X>X",
"l B o.#.K.s ..: d  ...f _ { } } Q k j *.r q.7.I.>X>X",
"C H S G F 3 ..s  .2 a 7 } %.%.%.3.{ = q ;.+.>X>X>X>X",
"C d.Z T P 5 X.y F 4 k * 9 ] ] ( ! ! 7 q % >X>X>X>X>X",
">X1 >X>X>Xo i y F o % > % X e h ! ! m % O   >X>X>X>X",
">X>X>X>X>X>X  ; a n , O > O > e 9 t 7 X       + >X>X",
">X>X>X>X>X>XX e n t % X O   > ( ! h * >X>X    < + >X",
">X>X>X>X>X>X>XX > o o >X>X>XX q Q m % >X>X>X>X    >X",
">X>X>X>X>X>X>X> l   >X>X>X>X>XX & O >X>X>X>X>X>X>X>X",
">X>X>X>X>X>X. k x   >X>X>X>X>XX l -   >X>X>X>X>X>X>X",
">X>X>X>X>X@ g.z.# . >X>X>X>X>X>Xx x   >X>X>X>X>X>X>X",
">X>X>X  j =.f.=.@ >X>X>X>X>X>X>X,.c.,.# >X>X>X>X>X>X",
">X>X>X. j v .   >X>X>X>X>X>X>X>X-.z.2.G # >X>X>X>X>X",
">X>X>X>X>X>X>X>X>X>X>X>X>X>X>X>X  v B G # >X>X>X>X>X",
">X>X>X>X>X>X>X>X>X>X>X>X>X>X>X>X>X>X  >X>X>X>X>X>X>X"
};
