/* XPM */
static char *result[] = {
/* columns rows colors chars-per-pixel */
"23 32 176 2 ",
"   c #050505",
".  c #080707",
"X  c #080807",
"o  c #030609",
"O  c #0A0B0C",
"+  c #07090D",
"@  c #110E0C",
"#  c #070D14",
"$  c #0A0E13",
"%  c #090E1A",
"&  c #060E1F",
"*  c #09111B",
"=  c #0F1116",
"-  c #121315",
";  c #191515",
":  c #12141A",
">  c #1C1C1C",
",  c #15181E",
"<  c #211D1C",
"1  c #07172F",
"2  c #0A162C",
"3  c #081424",
"4  c #171B22",
"5  c #1A1C23",
"6  c #161E2B",
"7  c #1A1F29",
"8  c #081733",
"9  c #091931",
"0  c #091C3C",
"q  c #051839",
"w  c #101E31",
"e  c #1D222D",
"r  c #0C2138",
"t  c #162136",
"y  c #1B273B",
"u  c #1E293D",
"i  c #182538",
"p  c #2D2625",
"a  c #2B2A2A",
"s  c #282528",
"d  c #322A28",
"f  c #232936",
"g  c #252D3D",
"h  c #282F3F",
"j  c #26303F",
"k  c #3C3332",
"l  c #373635",
"z  c #463936",
"x  c #493B38",
"c  c #091E42",
"v  c #0D2244",
"b  c #0A2349",
"n  c #112140",
"m  c #1B2E4A",
"M  c #1F3147",
"N  c #0C2B54",
"B  c #092C5A",
"V  c #062A56",
"C  c #0E3057",
"Z  c #1C395E",
"A  c #262F41",
"S  c #242E49",
"D  c #273041",
"F  c #293142",
"G  c #28334B",
"H  c #343D4D",
"J  c #383D46",
"K  c #2C3957",
"L  c #3A3E54",
"P  c #373A51",
"I  c #0D3666",
"U  c #0C3769",
"Y  c #0E396B",
"T  c #1D3B63",
"R  c #103A6B",
"E  c #173A66",
"W  c #213D61",
"Q  c #3A435B",
"!  c #1D436F",
"~  c #174070",
"^  c #1F4775",
"/  c #26456C",
"(  c #244B78",
")  c #284F7A",
"_  c #38587D",
"`  c #4D4D4D",
"'  c #42454A",
"]  c #534945",
"[  c #414156",
"{  c #5C4E51",
"}  c #725C57",
"|  c #4B5569",
" . c #495D7F",
".. c #675B66",
"X. c #49607B",
"o. c #676A6F",
"O. c #62606E",
"+. c #626B7F",
"@. c #736C73",
"#. c #767676",
"$. c #7D7277",
"%. c #806C69",
"&. c #87706F",
"*. c #877379",
"=. c #8E7D7B",
"-. c #A4837B",
";. c #425C82",
":. c #4F6D8F",
">. c #546582",
",. c #556B86",
"<. c #5F708E",
"1. c #557090",
"2. c #5E7494",
"3. c #63778B",
"4. c #657789",
"5. c #7B7988",
"6. c #677691",
"7. c #8E7F89",
"8. c #69819E",
"9. c #73809A",
"0. c #738DA5",
"q. c #83868B",
"w. c #9A8082",
"e. c #8C8894",
"r. c #938791",
"t. c #8F9296",
"y. c #999498",
"u. c #A88B88",
"i. c #A79897",
"p. c #A79393",
"a. c #BA9592",
"s. c #BE9A94",
"d. c #888FA4",
"f. c #8692A6",
"g. c #9A9EA8",
"h. c #8D9DB1",
"j. c #99ACBC",
"k. c #A4A4A4",
"l. c #ACA5A4",
"z. c #ABA7AB",
"x. c #B8A8A8",
"c. c #BBB0AD",
"v. c #AAA8B2",
"b. c #B6B7B7",
"n. c #B9B4B8",
"m. c #C9A39B",
"M. c #D1A79E",
"N. c #C8A6A3",
"B. c #D6ADA6",
"V. c #CFB1AC",
"C. c #D4B1AD",
"Z. c #D8B2AD",
"A. c #C7BAB9",
"S. c #D6BAB6",
"D. c #E3BCB3",
"F. c #E8C0B7",
"G. c #E7C1B9",
"H. c #96B2C9",
"J. c #9AB6CD",
"K. c #B6BEC8",
"L. c #D5BFC0",
"P. c #C8C9CC",
"I. c #D0D0CF",
"U. c #CECFD0",
"Y. c #C3C9D1",
"T. c #DEDFDF",
"R. c #D2D2D2",
"E. c #EACCC7",
"W. c #E7D0CA",
"Q. c #F7D8D1",
"!. c #FEDDD4",
"~. c #FFDFD8",
"^. c #FFE4DB",
"/. c #E5E6E6",
"(. c #EAE9E9",
"). c None",
/* pixels */
").).).).).).).).).).).).).).).).).).).).).).).",
").).).).).).).).  , $ ).  - : ).).).).).).).).",
").).).).).).).X 4 g =   : h 4 ).X X ).).).).).",
").).).).).).X e F t # 4 h u 3 + : X ).).).).).",
").).).).).X e F F g e D F y 1 t g O ).).).).).",
").).).).. : F F F F F F F D h D h $ ).).).).).",
").).).X , h F F F F F F F F F F h O ).).).).).",
").).).X y F F A A A F A D D D F h O ; ).).).).",
").).).7 F F y 1 1 1 t 9 1 1 t D A a { X ).).).",
").).).e e f M 3.3.3.3.3.4.4.H y D 7 1 X ).).).",
").).).7 : h 0.H.J.H.H.H.J.j.X.m f > q.`   ).).",
").).).% % 9 >.1.Z >.9.6.W _ <.G % < z.o.o   ).",
").).).+ + t a.c.F x.^.E.H @.N.$.> @ ' O.&.p ).",
").).  r r T v.N.S.Q.^.!.C.u.p.l.a ).d s.B.z ).",
").).* C N I ) g.C.C.C.B.a.i.l.#.; ).k B.M.z ).",
").@ y Y Y R I ( f.A.n.n.y.g.4.6 ).).; z x ).).",
").] z.;.T c N Y R ( ( ( ! T w . ).).).).).).).",
"  ] ~.D.L q R R R Y I N v # X ).).).).).).).).",
"s e.<.r.L B R R R R N c 8 1 % ).).).).).).).).",
"4 h./.<.B R R R R R Y I b 0 2 + ).).).).).).).",
"d K.8.5.K I R R R R Y Y E 0 n % ).).).).).).).",
"5 f.L.C.[ / I Y R Y _ :.Y.b.t.` O ).).).).).).",
"> u.D.7.S | ,.,.,.,.Y./.(.I.k.k.a ).).).).).).",
").; x < @.Q | Q H l ` R.(.T.n.k.a ).).).).).).",
").).).).< =.$.&   ).X #.R.U.c.l.a ).).).).).).",
").).).).).).).).).).).< A.W.F.m.d ).).).).).).",
").).).).).).).).).).).> m.!.D.a.a   ).).).).).",
").).).).).).).).).).).  p *.*.L 8 + ).).).).).",
").).).).).).).).).).).).* V V b ..; ).).).).).",
").).).).).).).).).).).).* / ;.7.-.; ).).).).).",
").).).).).).).).).).).).  k %.} < . ).).).).).",
").).).).).).).).).).).).).).).).).).).).).).)."
};
