/* XPM */
static char *result[] = {
/* columns rows colors chars-per-pixel */
"20 32 162 2 ",
"   c #040504",
".  c #080605",
"X  c #0A0907",
"o  c #050708",
"O  c #0A0A0B",
"+  c #100C08",
"@  c #10100F",
"#  c #060B12",
"$  c #080C14",
"%  c #090F19",
"&  c #040E19",
"*  c #06101C",
"=  c #09111E",
"-  c #121314",
";  c #12151B",
":  c #1D1A1A",
">  c #211C1A",
",  c #091324",
"<  c #07142D",
"1  c #081328",
"2  c #071226",
"3  c #161A22",
"4  c #191D25",
"5  c #151B2D",
"6  c #1B1F29",
"7  c #071735",
"8  c #071934",
"9  c #0B1B34",
"0  c #051739",
"q  c #07183A",
"w  c #081A3B",
"e  c #111F35",
"r  c #1C212B",
"t  c #0C203A",
"y  c #132236",
"u  c #1F2531",
"i  c #16243A",
"p  c #182439",
"a  c #1C2A3E",
"s  c gray18",
"d  c #312B2A",
"f  c #212631",
"g  c #232935",
"h  c #242C3C",
"j  c #34333B",
"k  c #413936",
"l  c #453E3C",
"z  c #091E41",
"x  c #0A2247",
"c  c #0B264E",
"v  c #0A284E",
"b  c #132341",
"n  c #182845",
"m  c #192B49",
"M  c #0C2B52",
"N  c #0D2F5A",
"B  c #102D53",
"V  c #0E315B",
"C  c #15345D",
"Z  c #252E41",
"A  c #273041",
"S  c #293142",
"D  c #3E3F40",
"F  c #353949",
"G  c #2E3C58",
"H  c #2A3D59",
"J  c #0E3563",
"K  c #0C3669",
"L  c #0F396B",
"P  c #113A6B",
"I  c #183D6A",
"U  c #173963",
"Y  c #433B41",
"T  c #3F4042",
"R  c #3D424F",
"E  c #3B4452",
"W  c #1E4471",
"Q  c #27486D",
"!  c #384964",
"~  c #34547A",
"^  c #474E58",
"/  c #524D5C",
"(  c #50515E",
")  c #58595C",
"_  c #63524E",
"`  c #695E5E",
"'  c #75625D",
"]  c #4C5564",
"[  c #4C5768",
"{  c #4A5A6F",
"}  c #50556A",
"|  c #465C75",
" . c #5B6372",
".. c #686867",
"X. c #6E6369",
"o. c #7A6B67",
"O. c #66697F",
"+. c #6B717D",
"@. c #787877",
"#. c #78797F",
"$. c #777379",
"%. c #846A65",
"&. c #90736C",
"*. c #857675",
"=. c #8A7471",
"-. c #90797E",
";. c #947872",
":. c #94817C",
">. c #4D6B8F",
",. c #476485",
"<. c #5A6F87",
"1. c #566A88",
"2. c #69798D",
"3. c #747A85",
"4. c #707E8F",
"5. c #727782",
"6. c #717F90",
"7. c #7B8189",
"8. c #718092",
"9. c #7A8198",
"0. c #6685A3",
"q. c #7A88A0",
"w. c #8C8786",
"e. c #8A878D",
"r. c #9C8682",
"t. c #888E98",
"y. c #878C92",
"u. c #8E9195",
"i. c #9C949D",
"p. c #B19696",
"a. c #8897AC",
"s. c #8F9DB0",
"d. c #A59CA5",
"f. c #87A5BE",
"g. c #97A6B7",
"h. c #A2A2A2",
"j. c #ADAEAE",
"k. c #BAA9AA",
"l. c #ABA4B0",
"z. c #B7BABB",
"x. c #C7A8A5",
"c. c #C9A6A1",
"v. c #DAB0A7",
"b. c #D3B5AE",
"n. c #C0B7B5",
"m. c #C9B6B8",
"M. c #D8BAB5",
"N. c #DAC0BD",
"B. c #E0C1BD",
"V. c #9BB2C4",
"C. c #AAC3D6",
"Z. c #CAC6C5",
"A. c #CCCED1",
"S. c LightGray",
"D. c #E5CDC9",
"F. c #F1CDC5",
"G. c #F1D2CB",
"H. c #FFE3DB",
"J. c #DFE0E0",
"K. c #E7E7E7",
"L. c #EAEAEA",
"P. c None",
/* pixels */
"P.P.P.P.P.P.P.P.P.P.P.P.P.P.P.P.P.P.P.P.",
"P.P.P.P.P.P.O 6 r - O O $ O O P.P.P.P.P.",
"P.P.P.P.P.P.P.3 h h r g h h f - X P.P.P.",
"P.P.P.P.P.P.3 r h S S S S S h h r 4 O P.",
"P.P.P.P.P.P.- g S S S S S A h y p y 4 P.",
"P.P.P.P.P.; 6 u h p h S S S p 8 B | f P.",
"P.P.P.P.P.= 9 9 9 8 9 a S A p Q 0.V.g P.",
"P.P.P.P.P.O * 9 9 v t y S h B f.C.0.f P.",
"P.P.P.. 1 B V C J W m y A n Q ~ | y 3 P.",
"P.P.P., V J M M v [ / 9 h [ e.( *.  O P.",
"P.P.P.t c 7 < 9 9 E ..p a k.D.M.o.P.P.P.",
"P.P.P.1 <   # 8 C 2.#.a y N.H.:.- P.P.P.",
"P.P.P.P.+ g B v V W 6.7.] p.=.- P.P.P.P.",
"P.P.. * F c.9.L P P P ~ 2.a.^ P.P.P.P.P.",
"P.: ..9.s.d.m.W N P P L L M & P.P.P.P.P.",
": @.z.g.u.D y w N L L P I j X P.P.P.P.P.",
"D 6.q.l.*.% 7 x J P P P P R   P.P.P.P.P.",
", $.D.H.M., q c P L P L ~ 3.s P.P.P.P.P.",
"  ' v.F.' * i B L K L K 2.z.$.  P.P.P.P.",
"P.> %.;.: o ) 2.,.>.>.~ { 3.i.k P.P.P.P.",
"P.P.P.P.. # g d.S.K.L.h.Y -.M.l P.P.P.P.",
"P.P.P.O $ 2 m y.Z.K.L.h.> &._ + P.P.P.P.",
"P.P.P.% 7 w 0 ] j.J.L.h.. P.P.P.P.P.P.P.",
"P.P.P., w q q b w.z.Z.e.P.P.P.P.P.P.P.P.",
"P.P.P., w q w q ] v.G.o.P.P.P.P.P.P.P.P.",
"P.P.P., 0 n 5. .G 1.E + P.P.P.P.P.P.P.P.",
"P.P.P.2 q G +.j.A.<.& P.P.P.P.P.P.P.P.P.",
"P.P.P.= w q w ! E #   P.P.P.P.P.P.P.P.P.",
"P.P.P.O , q z J U ` d P.P.P.P.P.P.P.P.P.",
"P.P.P.P.X 2 w M O.x.r.: P.P.P.P.P.P.P.P.",
"P.P.P.P.P.O , 2 5 5 3 P.P.P.P.P.P.P.P.P.",
"P.P.P.P.P.P.P.P.P.P.P.P.P.P.P.P.P.P.P.P."
};
