/* XPM */
static char *result[] = {
/* columns rows colors chars-per-pixel */
"32 32 208 2 ",
"   c #020102",
".  c #0B0503",
"X  c #0B080B",
"o  c #1A0A05",
"O  c #130905",
"+  c #1B1209",
"@  c #1B1315",
"#  c #030615",
"$  c #2A1612",
"%  c #3A1411",
"&  c #351513",
"*  c #2D1409",
"=  c #322004",
"-  c #3A211B",
";  c #3D2D1C",
":  c #0A1721",
">  c #141C38",
",  c #311D21",
"<  c #142537",
"1  c #3B2528",
"2  c #322439",
"3  c #4B180E",
"4  c #561D14",
"5  c #4D1D16",
"6  c #472709",
"7  c #582D0A",
"8  c #4A321E",
"9  c #67350C",
"0  c #792517",
"q  c #673419",
"w  c #763916",
"e  c #6B2C12",
"r  c #492B32",
"t  c #552F27",
"y  c #672D24",
"u  c #7E2B20",
"i  c #623738",
"p  c #73373C",
"a  c #6F510D",
"s  c #7D4318",
"d  c #584130",
"f  c #754F2D",
"g  c #774C3A",
"h  c #694431",
"j  c #1A2C44",
"k  c #1D3B57",
"l  c #21314D",
"z  c #273859",
"x  c #383A57",
"c  c #2C3B66",
"v  c #5C3442",
"b  c #653A44",
"n  c #653A43",
"m  c #2E436C",
"M  c #24496A",
"N  c #30426D",
"B  c #2B4870",
"V  c #344474",
"C  c #33457A",
"Z  c #394678",
"A  c #354B7D",
"S  c #3B4878",
"D  c #2D567E",
"F  c #4C405E",
"G  c #584644",
"H  c #714147",
"J  c #74454A",
"K  c #7A454A",
"L  c #784545",
"P  c #6F534E",
"I  c #68445A",
"U  c #734859",
"Y  c #77595D",
"T  c #6E4949",
"R  c #4B4C6D",
"E  c #4C4E72",
"W  c #6D4861",
"Q  c #685664",
"!  c #765E60",
"~  c #6D606C",
"^  c #6C6170",
"/  c #862B1C",
"(  c #8F311C",
")  c #873F24",
"_  c #8C3C3C",
"`  c #883738",
"'  c #993935",
"]  c #8B2E21",
"[  c #B33824",
"{  c #A6383C",
"}  c #AD3D3A",
"|  c #A53A39",
" . c #AE3622",
".. c #C63D28",
"X. c #82420F",
"o. c #A95817",
"O. c #9C6E12",
"+. c #B76A17",
"@. c #94413E",
"#. c #9B423A",
"$. c #98532A",
"%. c #AE413A",
"&. c #AC4838",
"*. c #B54336",
"=. c #B74933",
"-. c #BB4A33",
";. c #B34B39",
":. c #B6463A",
">. c #B24928",
",. c #B06F2D",
"<. c #C96919",
"1. c #E06F1F",
"2. c #E07419",
"3. c #EE7A1D",
"4. c #F4721D",
"5. c #F57E1B",
"6. c #F87C1A",
"7. c #F3691F",
"8. c #C9412B",
"9. c #D0442F",
"0. c #C7542E",
"q. c #D15C2C",
"w. c #D7502E",
"e. c #CA4534",
"r. c #C04D35",
"t. c #C84535",
"y. c #D44531",
"u. c #D94833",
"i. c #E5472C",
"p. c #EC482C",
"a. c #E1482F",
"s. c #F14A2D",
"d. c #E95628",
"f. c #E24A32",
"g. c #DE6B24",
"h. c #D5622A",
"j. c #D86627",
"k. c #D4752C",
"l. c #D87424",
"z. c #C7683A",
"x. c #CF7139",
"c. c #D0793A",
"v. c #E26E23",
"b. c #E97521",
"n. c #F26720",
"m. c #884E4F",
"M. c #8C4647",
"N. c #9C4544",
"B. c #97494B",
"V. c #934954",
"C. c #825B59",
"Z. c #945350",
"A. c #A34949",
"S. c #AA4E4A",
"D. c #8A625D",
"F. c #A46949",
"G. c #B06C41",
"H. c #B27752",
"J. c #AD7155",
"K. c #925B66",
"L. c #987468",
"P. c #85606D",
"I. c #C95C40",
"U. c #B88721",
"Y. c #F6801C",
"T. c #FA821B",
"R. c #DE8A28",
"E. c #C1942C",
"W. c #E08026",
"Q. c #F98625",
"!. c #F88D33",
"~. c #F6913B",
"^. c #B08978",
"/. c #CF8044",
"(. c #D18748",
"). c #CD8B57",
"_. c #CF925D",
"`. c #F59341",
"'. c #CD9467",
"]. c #DCA977",
"[. c #355384",
"{. c #385586",
"}. c #385788",
"|. c #39598B",
" X c #335A8A",
".X c #2E5F89",
"XX c #326391",
"oX c #356B9B",
"OX c #3C709F",
"+X c #2D6089",
"@X c #3972A3",
"#X c #337AAE",
"$X c #3779AB",
"%X c #415884",
"&X c #45628C",
"*X c #556082",
"=X c #6B6F83",
"-X c #6C7584",
";X c #6D7E89",
":X c #4175A3",
">X c #6C808F",
",X c #6C8290",
"<X c #C59D82",
"1X c #D1A784",
"2X c #DFB38C",
"3X c #FFD39C",
"4X c #F1C79A",
"5X c None",
/* pixels */
"5X5X5X5X5X5X5X5X5X5X5X5X5X5X5X5X5X5X5X5X5X5X5X5X5X5X5X5X5X5X5X5X",
"5X5X5X5X5X5X5X5X5X5X5X5X5X5X5X5X5X5X5X5X5X5X5X5X5X5X5X5X5X5X5X5X",
"5X5X5X5X5X5X5X5X5X5X5X5X5X5X} } } } %.%.%.%.5X5X5X5X5X5X5X5X5X5X",
"5X5X5X5X5X{ { { { { { { } t.e.e.y.q.h.h.h.q.r.5X5X5X5X5X5X5X5X5X",
"5X5X5X5X} :.=.=.=.=.=.=.-.w.d.d.n.b.5.5.5.b.j.-.:.5X5X5X5X5X5X5X",
"5X5X5X5X} -.j.v.v.v.g.g.v.b.n.4.7.5.5.5.T.Y.b.g.0.*.5X5X5X5X5X5X",
"5X5X5X5X| $.o.<.3.T.5.Y.5.5.Y.Y.5.5.5.5.5.5.Y.5.g.0.*.5X5X5X5X5X",
"5X5X5X5X5X5X* X.2.T.Y.5.5.Y.Y.Y.5.5.5.5.5.Y.Y.Y.5.v.q.*.5X5X5X5X",
"5X5X5X5X5X5XO w 2.T.T.T.Q.!.!.T.4.7.7.6.Q.~.`.`.Q.5.v.q.r.5X5X5X",
"5X5X5X5X5X< @ s 2.b.k.k.c._._.(.x.I.I.x.(.'.'.)./.k.b.l.>.' 5X5X",
"5X5XS Z C c x $.k.,.Y Q ~ -X>X;X-X=X=X-X;X,X=X^ Q C.z.<.w & 5X5X",
"5X5XZ A }.|.%XY F.Y S C V M M M [.oX#X#X#X$XXX[.C E ,.<.7 . 5X5X",
"5X5XZ {.oX@X:X&XE R S V m j : : j +X@X:X:X:X&XS A E ;.+.7 . 5X5X",
"5X5XZ |.@X$X$X@X Xc l B .XB k k M D *XP.K.K.K.V.V.V.X.e 6   5X5X",
"5X5XV }.oX@X@X@XXXk > k .XOXoXoXXX[.W ;.f.f.f.a.f.e.e o 5X5X5X5X",
"5X5X5X5X{.}.{.}.[.c l < < B |.|.{.%XU e.p.p.p.s.s...4 . 5X5X5X5X",
"5X5X5X5XZ S V c z R b t 5 v W U W W B.u.p.i.p.p...] 3 . 5X5X5X5X",
"5X5X5X5X5X5X5X5X@ y %...8.t.e.e.t.e.y.a.p.i.i.../ % 5X5X5X5X5X5X",
"5X5X5X5X5X5X5X5X& 3 / ..p.p.p.p.p.p.p.p.p.a.[ 0 3 5X5X5X5X5X5X5X",
"5X5X5X5X5X5X5Xn i , & ] y.u.y.9.y.y.y.u.u.../ $ 5X5X5X5X5X5X5X5X",
"5X5X5X5X5X5X$ h J.g r p @.N.@.` _ _ _ N.' _ i 1 r v v 5X5X5X5X5X",
"5X5X5X5X5X5X+ f ).J.L L K K H H K b J m.K b b b U D.D.C.C.5X5X5X",
"5X5X5X5X5X5X+ f ).J.m.m.Z.Z.Z.Z.Z.Z.Z.Z.m.J b b L.1X2X<XD.v 5X5X",
"5X5X5X5X5X5X+ 8 f M.b M.N.S.S.S.S.A.A.A.A.M.n K ^.4X3X].P 1 5X5X",
"5X5X5X5X5X5X5X5X+ , i @.&.#.' ' &.;.;.S.;.&.` h L.1X].).8 X 5X5X",
"5X5X5X5X5X5X5X5X5XX & $.+.w % & q ,.R.R.b.h.) - 1 i d 8 - 5X5X5X",
"5X5X5X5X5X5X5X5X5X  + a O.9 % % 9 ,.U.U.+.o.9 O   X .   5X5X5X5X",
"5X5X5X5X5X5X5X5X5X    + 6 ) [ [ $.P G ; = = o     5X5X5X5X5X5X5X",
"5X5X5X5X5X5X5X5X5X      O 4 / / t 2 > #       5X5X5X5X5X5X5X5X5X",
"5X5X5X5X5X5X5X5X5X        . o o . . X 5X5X5X5X5X5X5X5X5X5X5X5X5X",
"5X5X5X5X5X5X5X5X5X5X5X5X5X5X5X5X5X5X5X5X5X5X5X5X5X5X5X5X5X5X5X5X",
"5X5X5X5X5X5X5X5X5X5X5X5X5X5X5X5X5X5X5X5X5X5X5X5X5X5X5X5X5X5X5X5X"
};
